<svg xmlns="http://www.w3.org/2000/svg" viewBox="0 0 793 603.33"><defs><style>.cls-1,.cls-2,.cls-3,.cls-4{fill:none;stroke:#fff;}.cls-1,.cls-2{stroke-linecap:round;stroke-linejoin:round;}.cls-1,.cls-3{stroke-width:0.25px;}.cls-3,.cls-4{stroke-miterlimit:10;}.cls-4{stroke-width:0.75px;stroke-dasharray:1 3;}</style></defs><title>Courtyard</title><g id="Backround"><line class="cls-1" x1="266.65" y1="551.75" x2="162.61" y2="543.08"/><line class="cls-1" x1="389.82" y1="269.36" x2="406.17" y2="269.36"/><line class="cls-1" x1="361.58" y1="551.75" x2="361.58" y2="0.5"/><line class="cls-1" x1="389.82" y1="551.75" x2="389.82" y2="0.5"/><line class="cls-1" x1="228.93" y1="0.5" x2="228.93" y2="551.75"/><line class="cls-1" x1="96.28" y1="317.66" x2="361.58" y2="317.66"/><line class="cls-1" x1="96.28" y1="432.85" x2="361.58" y2="432.85"/><line class="cls-1" x1="96.28" y1="432.85" x2="96.28" y2="543.08"/><line class="cls-1" x1="68.04" y1="432.85" x2="68.04" y2="543.08"/><line class="cls-1" x1="295.26" y1="551.75" x2="295.26" y2="432.85"/><line class="cls-1" x1="162.61" y1="543.08" x2="162.61" y2="432.85"/><line class="cls-1" x1="96.28" y1="83.57" x2="361.58" y2="83.57"/><line class="cls-1" x1="96.28" y1="198.76" x2="361.58" y2="198.76"/><line class="cls-1" x1="295.26" y1="317.66" x2="295.26" y2="198.76"/><line class="cls-1" x1="162.61" y1="317.66" x2="162.61" y2="198.76"/><line class="cls-1" x1="295.26" y1="83.57" x2="295.26" y2="0.5"/><line class="cls-1" x1="162.61" y1="83.57" x2="162.61" y2="0.5"/></g><g id="Stair"><line class="cls-1" x1="702.55" y1="462.58" x2="702.55" y2="456.38"/><line class="cls-1" x1="702.55" y1="456.38" x2="716.18" y2="456.38"/><line class="cls-1" x1="716.18" y1="460.1" x2="719.89" y2="460.1"/><line class="cls-1" x1="706.27" y1="462.58" x2="706.27" y2="468.77"/><line class="cls-1" x1="688.93" y1="471.25" x2="688.93" y2="465.05"/><line class="cls-1" x1="688.93" y1="465.05" x2="702.55" y2="465.05"/><line class="cls-1" x1="702.55" y1="468.77" x2="706.27" y2="468.77"/><line class="cls-1" x1="692.65" y1="471.25" x2="692.65" y2="477.44"/><line class="cls-1" x1="675.31" y1="479.92" x2="675.31" y2="473.72"/><line class="cls-1" x1="675.31" y1="473.72" x2="688.93" y2="473.72"/><line class="cls-1" x1="688.93" y1="477.44" x2="692.65" y2="477.44"/><line class="cls-1" x1="679.02" y1="479.92" x2="679.02" y2="486.11"/><line class="cls-1" x1="661.68" y1="488.59" x2="661.68" y2="482.39"/><line class="cls-1" x1="661.68" y1="482.39" x2="675.31" y2="482.39"/><line class="cls-1" x1="675.31" y1="486.11" x2="679.02" y2="486.11"/><line class="cls-1" x1="665.4" y1="488.59" x2="665.4" y2="494.78"/><line class="cls-1" x1="648.06" y1="497.26" x2="648.06" y2="491.06"/><line class="cls-1" x1="648.06" y1="491.06" x2="661.68" y2="491.06"/><line class="cls-1" x1="661.68" y1="494.78" x2="665.4" y2="494.78"/><line class="cls-1" x1="651.77" y1="497.26" x2="651.77" y2="497.26"/><line class="cls-1" x1="634.43" y1="505.93" x2="634.43" y2="499.73"/><line class="cls-1" x1="634.43" y1="499.73" x2="648.06" y2="499.73"/><line class="cls-1" x1="648.06" y1="503.45" x2="651.77" y2="503.45"/><line class="cls-1" x1="638.15" y1="505.93" x2="638.15" y2="512.12"/><line class="cls-1" x1="620.81" y1="514.6" x2="620.81" y2="508.4"/><line class="cls-1" x1="620.81" y1="508.4" x2="634.43" y2="508.4"/><line class="cls-1" x1="634.43" y1="512.12" x2="638.15" y2="512.12"/><line class="cls-1" x1="624.52" y1="514.6" x2="624.52" y2="520.79"/><line class="cls-1" x1="607.18" y1="523.27" x2="607.18" y2="517.07"/><line class="cls-1" x1="607.18" y1="517.07" x2="620.81" y2="517.07"/><line class="cls-1" x1="620.81" y1="520.79" x2="624.52" y2="520.79"/><line class="cls-1" x1="610.9" y1="523.27" x2="610.9" y2="529.46"/><line class="cls-1" x1="593.56" y1="531.94" x2="593.56" y2="525.74"/><line class="cls-1" x1="593.56" y1="525.74" x2="607.18" y2="525.74"/><line class="cls-1" x1="607.18" y1="529.46" x2="610.9" y2="529.46"/><line class="cls-1" x1="597.28" y1="531.94" x2="597.28" y2="538.13"/><line class="cls-1" x1="579.94" y1="540.61" x2="579.94" y2="534.41"/><line class="cls-1" x1="579.94" y1="534.41" x2="593.56" y2="534.41"/><line class="cls-1" x1="593.56" y1="538.13" x2="597.28" y2="538.13"/><line class="cls-1" x1="566.31" y1="551.75" x2="566.31" y2="543.08"/><line class="cls-1" x1="587.72" y1="551.75" x2="729.8" y2="461.34"/><line class="cls-1" x1="566.31" y1="543.08" x2="583.65" y2="543.08"/><line class="cls-1" x1="651.77" y1="497.26" x2="651.77" y2="503.45"/><line class="cls-1" x1="583.65" y1="543.08" x2="583.65" y2="540.61"/><line class="cls-1" x1="716.18" y1="453.91" x2="716.18" y2="447.71"/><path class="cls-1" d="M726.06,393.82l-.27.2" transform="translate(0.5 0.5)"/><path class="cls-1" d="M726.36,393.66a1.86,1.86,0,0,1,1.88,3.16" transform="translate(0.5 0.5)"/><path class="cls-1" d="M727.86,397.06l.2-.11" transform="translate(0.5 0.5)"/><path class="cls-1" d="M728.06,397l.18-.13" transform="translate(0.5 0.5)"/><path class="cls-1" d="M726.36,393.66a2.19,2.19,0,0,0-.3.16" transform="translate(0.5 0.5)"/><line class="cls-1" x1="565.31" y1="496.93" x2="726.56" y2="394.32"/><line class="cls-1" x1="728.56" y1="397.45" x2="567.31" y2="500.06"/><line class="cls-1" x1="716.18" y1="447.71" x2="722.37" y2="447.71"/><line class="cls-1" x1="719.89" y1="453.91" x2="719.89" y2="460.1"/><line class="cls-1" x1="716.18" y1="453.91" x2="729.8" y2="453.91"/><line class="cls-1" x1="702.55" y1="462.58" x2="716.18" y2="462.58"/><line class="cls-1" x1="716.18" y1="462.58" x2="716.18" y2="456.38"/><line class="cls-1" x1="688.93" y1="471.25" x2="702.55" y2="471.25"/><line class="cls-1" x1="702.55" y1="471.25" x2="702.55" y2="465.05"/><line class="cls-1" x1="675.31" y1="479.92" x2="688.93" y2="479.92"/><line class="cls-1" x1="688.93" y1="479.92" x2="688.93" y2="473.72"/><line class="cls-1" x1="661.68" y1="488.59" x2="675.31" y2="488.59"/><line class="cls-1" x1="675.31" y1="488.59" x2="675.31" y2="482.39"/><line class="cls-1" x1="648.06" y1="497.26" x2="661.68" y2="497.26"/><line class="cls-1" x1="661.68" y1="497.26" x2="661.68" y2="491.06"/><line class="cls-1" x1="634.43" y1="505.93" x2="648.06" y2="505.93"/><line class="cls-1" x1="648.06" y1="505.93" x2="648.06" y2="499.73"/><line class="cls-1" x1="620.81" y1="514.6" x2="634.43" y2="514.6"/><line class="cls-1" x1="634.43" y1="514.6" x2="634.43" y2="508.4"/><line class="cls-1" x1="607.18" y1="523.27" x2="620.81" y2="523.27"/><line class="cls-1" x1="620.81" y1="523.27" x2="620.81" y2="517.07"/><line class="cls-1" x1="593.56" y1="531.94" x2="607.18" y2="531.94"/><line class="cls-1" x1="607.18" y1="531.94" x2="607.18" y2="525.74"/><line class="cls-1" x1="579.94" y1="540.61" x2="593.56" y2="540.61"/><line class="cls-1" x1="593.56" y1="540.61" x2="593.56" y2="534.41"/><path class="cls-1" d="M564.81,496.43c.2-.24.17.26.25.39s.17.26.25.39.34.52.5.79l.5.78.25.39c.08.13,0,.39.25.39" transform="translate(0.5 0.5)"/><path class="cls-1" d="M726.06,393.82c-.31,0,.17.26.25.39l.25.39.5.78.5.79c.08.13.16.26.25.39s0,.39.25.39" transform="translate(0.5 0.5)"/></g><g id="Cut"><polyline class="cls-2" points="792.5 447.71 752.1 447.71 752.1 444 722.37 444 722.37 447.71 729.8 447.71 729.8 551.75 162.61 551.75 162.61 543.09 162.61 551.75 162.61 543.09 0.5 543.09"/><line class="cls-2" x1="406.17" y1="269.36" x2="792.5" y2="269.36"/><polyline class="cls-2" points="0.5 139.31 68.04 139.31 68.04 269.36 68.04 317.66 0.5 317.66"/><polyline class="cls-2" points="68.04 0.5 68.04 79.86 0.5 79.86"/><polyline class="cls-2" points="0.5 377.12 68.04 377.12 68.04 380.83 68.04 432.85 96.28 432.85 96.28 380.83 96.28 0.5"/></g><g id="Layer_1" data-name="Layer 1"><g id="POLYLINE"><line class="cls-1" x1="158.36" y1="507.38" x2="158.36" y2="543.44"/></g><g id="POLYLINE-2" data-name="POLYLINE"><line class="cls-1" x1="324.37" y1="551.75" x2="324.37" y2="519.83"/></g><g id="POLYLINE-3" data-name="POLYLINE"><polyline class="cls-1" points="251.18 511.06 166.66 504.01 158.36 504.01 158.36 506.09"/></g><g id="POLYLINE-4" data-name="POLYLINE"><polyline class="cls-1" points="324.37 518.54 324.37 516.46 316.07 516.46 263.56 512.09"/></g><g id="POLYLINE-5" data-name="POLYLINE"><path class="cls-1" d="M258,500a4.69,4.69,0,0,0,.14-.65,3.8,3.8,0,0,0-.49-2.6,3.44,3.44,0,0,0-1.89-1.3,4.64,4.64,0,0,0-3.2.19,2,2,0,0,0-1.18,1.39c0,.06,0,.24,0,.27s.22-.16.25-.21a1.91,1.91,0,0,1,.4-.49c.3-.21.75-.08,1.08,0a6,6,0,0,0,1-.1,2.18,2.18,0,0,1,.91.15,1,1,0,0,1,.69.72c.06.23.06.48.1.71a5.86,5.86,0,0,0,.19.72,3.11,3.11,0,0,1,.22,1.08,1.39,1.39,0,0,0,0,.61c.12.24.34,0,.44-.14.25-.33.48-.78,1-.58s.3.67.22,1c-.16.72-.54,1.59-1.35,1.69" transform="translate(0.5 0.5)"/></g><g id="POLYLINE-6" data-name="POLYLINE"><path class="cls-1" d="M251.46,497.25l-.12.41c-.29,1.1-.29,2.22-.5,3.32a4.93,4.93,0,0,0,.37,2.86,1.29,1.29,0,0,0,1.09.8,4.11,4.11,0,0,0,2.38-.2,2.81,2.81,0,0,0,1.46-1.42" transform="translate(0.5 0.5)"/></g><g id="POLYLINE-7" data-name="POLYLINE"><path class="cls-1" d="M257.46,505c-.07-.48-.14-1-.18-1.46s0-1,0-1.45" transform="translate(0.5 0.5)"/></g><g id="POLYLINE-8" data-name="POLYLINE"><path class="cls-1" d="M256,525.22c-.45.26-.91.44-1.38.66a2.14,2.14,0,0,0-.78.65c-.29.33-.64.61-.93,1s-.47.6-.37.93.52.37.84.42.32.15.5.17a2.79,2.79,0,0,0,.5,0c.33,0,.66.06,1,0a1.42,1.42,0,0,0,.87-.43,2.82,2.82,0,0,0,.54-.74,8.66,8.66,0,0,1,.79-1.21" transform="translate(0.5 0.5)"/></g><g id="POLYLINE-9" data-name="POLYLINE"><path class="cls-1" d="M252.87,506.6a14.22,14.22,0,0,0-1.64,2.36,19,19,0,0,0-.82,2.45,16.64,16.64,0,0,0-.69,2.51c-.29,1.84.2,3.64.16,5.48" transform="translate(0.5 0.5)"/></g><g id="POLYLINE-10" data-name="POLYLINE"><path class="cls-1" d="M246.67,541.29a4.77,4.77,0,0,0-.52-.22,9.88,9.88,0,0,0-2.09-.39l-4.06-.51-1.44-.19a1.64,1.64,0,0,1-.67-.31l-1.68-.95c-.09-.06-.1,0-.09-.11s.13-.23.17-.31q1.86-3.24,3.71-6.48a5.59,5.59,0,0,0,.43-.75,1.76,1.76,0,0,0,.06-.4c0-.32.08-.65.13-1,0-.15,0-.13.08-.15a1.65,1.65,0,0,1,.38.05l1.49.19,6.59.84" transform="translate(0.5 0.5)"/></g><g id="POLYLINE-11" data-name="POLYLINE"><path class="cls-1" d="M241.3,542.68c-.13.06-.27.12-.39.19a3.06,3.06,0,1,0,4,4.53,3.07,3.07,0,0,0-2.76-4.93" transform="translate(0.5 0.5)"/></g><g id="POLYLINE-12" data-name="POLYLINE"><path class="cls-1" d="M241.4,541.9a3.28,3.28,0,0,0-.52.2,3.77,3.77,0,1,0,1.32-.34" transform="translate(0.5 0.5)"/></g><g id="POLYLINE-13" data-name="POLYLINE"><path class="cls-1" d="M249.66,544.4l1.65.21,7.13.91,4.5.58c0-.26.07-.52.1-.77l-.62-.08-4.34-.56.09-.68.6-4.74" transform="translate(0.5 0.5)"/></g><g id="POLYLINE-14" data-name="POLYLINE"><line class="cls-1" x1="259.47" y1="538.19" x2="260.72" y2="528.41"/></g><g id="POLYLINE-15" data-name="POLYLINE"><path class="cls-1" d="M258,539.17l-.09.68-.6,4.74h-.09a3,3,0,0,1-.66-.08l-1.15-.15-2.9-.37-2.5-.32a2.56,2.56,0,0,1-.62-.07c-.08,0,0,0,0-.09a2.63,2.63,0,0,1,.06-.48c0-.28.07-.56.11-.83.1-.82.21-1.63.31-2.45l.75-5.84c.13-1,.25-2,.38-3l1,.12,7,.9-.09.71c-.21,1.67-.43,3.34-.64,5" transform="translate(0.5 0.5)"/></g><g id="POLYLINE-16" data-name="POLYLINE"><path class="cls-1" d="M259.45,527.81c-.11.88-.22,1.75-.34,2.63l-.06.5a.47.47,0,0,1,0,.17c-.06,0-.38-.05-.45-.06l-2.49-.32-4.35-.55" transform="translate(0.5 0.5)"/></g><g id="POLYLINE-17" data-name="POLYLINE"><line class="cls-1" x1="250.53" y1="532.44" x2="249.17" y2="543.1"/></g><g id="POLYLINE-18" data-name="POLYLINE"><line class="cls-1" x1="240.97" y1="531.34" x2="248.77" y2="532.33"/></g><g id="POLYLINE-19" data-name="POLYLINE"><line class="cls-1" x1="250.45" y1="532.55" x2="250.52" y2="532.55"/></g><g id="POLYLINE-20" data-name="POLYLINE"><path class="cls-1" d="M258.3,539.3a.9.9,0,0,0,1-1.29.88.88,0,0,0-1.65.35A.9.9,0,0,0,258.3,539.3Z" transform="translate(0.5 0.5)"/></g><g id="POLYLINE-21" data-name="POLYLINE"><line class="cls-1" x1="251.29" y1="532.65" x2="259.27" y2="533.67"/></g><g id="POLYLINE-22" data-name="POLYLINE"><path class="cls-1" d="M256.68,521.31l-7.76-1L244,519.7a7.16,7.16,0,0,1,.12-.93c0-.13,0-.08.1-.09a5.92,5.92,0,0,1,.93.12l7.9,1,5.49.7c0,.34-.08.69-.13,1Z" transform="translate(0.5 0.5)"/></g><g id="POLYLINE-23" data-name="POLYLINE"><path class="cls-1" d="M244.14,518.93c-.21,0-.43-.06-.65-.07a2.45,2.45,0,0,0-2.54,2.08c-.17,1.06-.28,2.14-.41,3.2l-.69,5.38a7.37,7.37,0,0,1-.16,1.25,2.7,2.7,0,0,1-.27.5c-.7,1.23-1.41,2.46-2.11,3.7l-2.84,5-1.83,3.2-.1.17c-.08.14-.16.27-.23.41s-.18.43-.26.45-.3-.17-.36-.2l-.93-.54L227,541.26l-.39.68.2.11,3.15,1.8,1.69,1,.51.29s.16.12.2.11.09-.17.11-.19l.23-.4.47-.83.42-.73,1.93-3.38c0-.06.13-.32.2-.35s.24.11.29.15l1.72,1a3,3,0,0,0,.43.25,2.73,2.73,0,0,0,.4,0l2,.25.79.1c.14,0,.14,0,.13.12a7.83,7.83,0,0,1-.1.83c0,.35-.09.7-.13,1.06a2,2,0,0,0-.07.54,1.69,1.69,0,0,0,.19.41c.27.6.55,1.19.82,1.78.1.21.08.17.3.07s.39-.12.45-.21,0,0,0-.09a4.46,4.46,0,0,0-.34-.74c-.14-.31-.29-.62-.43-.94a1.59,1.59,0,0,1-.19-.42,3.05,3.05,0,0,1,.08-.66l.21-1.63,1.59.2c1.1.14,2.44.2,3.2,1.13" transform="translate(0.5 0.5)"/></g><g id="POLYLINE-24" data-name="POLYLINE"><line class="cls-1" x1="260.34" y1="525.2" x2="260.14" y2="526.83"/></g><g id="POLYLINE-25" data-name="POLYLINE"><path class="cls-1" d="M253.66,528.93a12.68,12.68,0,0,0-1.28.76,10.67,10.67,0,0,0,1.09,18.15,10.73,10.73,0,0,0,6,1.2,10.63,10.63,0,0,0,7.77-4.58,10.86,10.86,0,0,0,1.37-2.8,10.74,10.74,0,0,0,.5-3,10.94,10.94,0,0,0-.39-3.06,10.65,10.65,0,0,0-1.27-2.84,10.64,10.64,0,0,0-4.63-4,10.88,10.88,0,0,0-3-.85,11.18,11.18,0,0,0-3.11,0" transform="translate(0.5 0.5)"/></g><g id="POLYLINE-26" data-name="POLYLINE"><path class="cls-1" d="M252.93,528.77a11.14,11.14,0,0,0-2.09,17.77,11.15,11.15,0,1,0,6.23-19.17" transform="translate(0.5 0.5)"/></g><g id="POLYLINE-27" data-name="POLYLINE"><path class="cls-1" d="M252.76,527.7a13.08,13.08,0,0,0-1.42.9,12,12,0,0,0-2.46,2.37,12.45,12.45,0,0,0-1.71,3,12.1,12.1,0,0,0-.79,3.36,12.27,12.27,0,0,0,.17,3.42,12.08,12.08,0,0,0,1.14,3.25,12,12,0,0,0,2,2.82,12.27,12.27,0,0,0,2.69,2.12,12.22,12.22,0,0,0,13.07-.55,12.17,12.17,0,0,0,4.27-5.35,11.71,11.71,0,0,0,.84-3.29,12.09,12.09,0,0,0-.11-3.45,12,12,0,0,0-1.09-3.3,11.83,11.83,0,0,0-1.94-2.81,12.14,12.14,0,0,0-2.66-2.18,12,12,0,0,0-3.21-1.35,12.52,12.52,0,0,0-3.39-.39" transform="translate(0.5 0.5)"/></g><g id="POLYLINE-28" data-name="POLYLINE"><path class="cls-1" d="M264.08,514.62a2.94,2.94,0,0,1,1.69-.08l1.56.13c.16,0,.53.12.63-.06a1.06,1.06,0,0,0,.05-.5c0-.11-.05-.15-.16-.18a5.8,5.8,0,0,0-1-.09,18.54,18.54,0,0,0-2.11-.15,2.16,2.16,0,0,0-.88.18" transform="translate(0.5 0.5)"/></g><g id="POLYLINE-29" data-name="POLYLINE"><path class="cls-1" d="M260.41,526.42c.1-.82.19-1.65.33-2.47" transform="translate(0.5 0.5)"/></g><g id="POLYLINE-30" data-name="POLYLINE"><line class="cls-1" x1="227.63" y1="541.5" x2="227.48" y2="541.76"/></g><g id="POLYLINE-31" data-name="POLYLINE"><line class="cls-1" x1="232.88" y1="544.07" x2="232.39" y2="543.79"/></g><g id="POLYLINE-32" data-name="POLYLINE"><line class="cls-1" x1="230.93" y1="538.56" x2="231.38" y2="538.02"/></g><g id="POLYLINE-33" data-name="POLYLINE"><path class="cls-1" d="M239.92,529c-.18.26-.36.51-.53.77a32.32,32.32,0,0,0-1.6,2.81l-2.46,4.61c-.21.39-.42.78-.61,1.18s-.27.57-.41.85a1.3,1.3,0,0,1-.35.48c-.33.23-.81-.07-1.11-.24a7.25,7.25,0,0,1-1.31-1,2.82,2.82,0,0,1-.62-.83,1.48,1.48,0,0,1,.17-1.19c.47-1.17.74-2.42,1.17-3.61s1-2.39,1.5-3.56,1.11-2.3,1.74-3.41a4.89,4.89,0,0,1,1.93-2.21,8.23,8.23,0,0,1,3.23-.47" transform="translate(0.5 0.5)"/></g><g id="POLYLINE-34" data-name="POLYLINE"><path class="cls-1" d="M257.34,530.89a1.89,1.89,0,0,0,.41,0,1.47,1.47,0,0,0,1.42-.91" transform="translate(0.5 0.5)"/></g><g id="POLYLINE-35" data-name="POLYLINE"><path class="cls-1" d="M241.45,523.17c.65,0,1.3,0,2,.08,1.11.06,2.24.13,3.35.25a14.61,14.61,0,0,1,3,.61" transform="translate(0.5 0.5)"/></g><g id="POLYLINE-36" data-name="POLYLINE"><path class="cls-1" d="M259.53,521c0-.15-.15-.16-.26-.17l-.72-.09" transform="translate(0.5 0.5)"/></g><g id="POLYLINE-37" data-name="POLYLINE"><path class="cls-1" d="M249.8,529.93l-.28,0-4.8-.61-2.64-.33-.9-.12a1.49,1.49,0,0,1-.43-.05s0-.16,0-.22c0-.26.07-.53.1-.8.11-.88.23-1.76.34-2.65.17-1.33.31-2.67.51-4a1.69,1.69,0,0,1,1.74-1.48c.7,0,1.41.18,2.11.27l5.28.67,5.5.7,2.54.32" transform="translate(0.5 0.5)"/></g><g id="POLYLINE-38" data-name="POLYLINE"><path class="cls-1" d="M252,504.58a8.2,8.2,0,0,1,.57,1.15A6.64,6.64,0,0,1,253,507a.41.41,0,0,0,.16.3.51.51,0,0,0,.21.15c.17.05.31-.08.43-.18a10.55,10.55,0,0,1,1-.92,7.54,7.54,0,0,1,1.14-.72,4.58,4.58,0,0,1,2-.62,1.08,1.08,0,0,1,.87.55c.31.39.67.72,1,1.09s.66.86,1,1.29.66.89,1,1.34a10.76,10.76,0,0,1,1.48,2.7c.35,1.05.68,2.11,1.05,3.15a13.85,13.85,0,0,1,.9,2.63,4.79,4.79,0,0,1-.41,2.36,4.69,4.69,0,0,1-1.43,1.87c-.83.65-1.68,1.25-2.49,1.92l-1.54,1.28a6.77,6.77,0,0,0-.89.8c-.17.2-.27.45-.43.65s-.71-.23-.92-.4a6,6,0,0,1-.88-.79.56.56,0,0,1,0-.77c.57-.76,1.4-1.31,1.95-2.09a4.68,4.68,0,0,1,.55-.77,10.05,10.05,0,0,0,1.08-1,3.81,3.81,0,0,0,.62-1c.13-.29.17-.61.28-.91s.42-.57.4-.87-.16-.3-.27-.41-.35-.36-.52-.55a7.3,7.3,0,0,1-1.3-2.81,9.51,9.51,0,0,1-.53-3" transform="translate(0.5 0.5)"/></g><g id="POLYLINE-39" data-name="POLYLINE"><path class="cls-1" d="M233.58,541a4.82,4.82,0,0,1-.51.95,6.46,6.46,0,0,1-.72,1.07c-.45.49-1,.32-1.52.07-1-.44-1.81-1.07-2.74-1.56s-1.86-.89-2.73-1.46a6.44,6.44,0,0,1-1.12-.89.79.79,0,0,1-.3-.87c.32-.91,1.11-.62,1.78-.41a6.29,6.29,0,0,0,2.65.35c.49-.06,1-.21,1.46-.26a.68.68,0,0,1,.72.25c.14.24.19.52.35.75a2.09,2.09,0,0,0,.56.51,6.94,6.94,0,0,0,1.44.66c.23.09.59.21.7.46A.55.55,0,0,1,233.58,541Z" transform="translate(0.5 0.5)"/></g><g id="POLYLINE-40" data-name="POLYLINE"><line class="cls-1" x1="234.21" y1="540.3" x2="233.9" y2="540.85"/></g><g id="POLYLINE-41" data-name="POLYLINE"><path class="cls-1" d="M255.57,525.47c-.85-.09-1.71-.15-2.57-.23a11.39,11.39,0,0,1-2-.33c-.37-.1-1.08-.27-1.21-.7a1,1,0,0,1,0-.24,1.61,1.61,0,0,0-.06-.49,6,6,0,0,1-.14-.93,11.75,11.75,0,0,1,.23-2.12" transform="translate(0.5 0.5)"/></g><g id="POLYLINE-42" data-name="POLYLINE"><line class="cls-1" x1="260.2" y1="526.31" x2="259.18" y2="526.17"/></g><g id="POLYLINE-43" data-name="POLYLINE"><path class="cls-1" d="M264.23,515.06l.5,0,3.83.32,6.71.56,8.5.71,9.22.77,8.86.74,7.41.61,4.89.41c.56,0,1.12.11,1.69.11h11.31c.47,0,1.23.15,1.46-.39a.64.64,0,0,0-.37-.86,1.64,1.64,0,0,0-.54,0H316.37c-.64,0-1.25,0-1.88-.09l-4.8-.4-7.51-.63-8.95-.74-9.15-.77-8.09-.67-5.77-.48-2.21-.19" transform="translate(0.5 0.5)"/></g><g id="POLYLINE-44" data-name="POLYLINE"><path class="cls-1" d="M250,512.58l-.73-.06-2.18-.18-3.43-.29-4.51-.38-5.41-.45-6.11-.51-6.66-.55-7-.58-7.13-.6-7.12-.59-6.89-.57-6.48-.54-5.89-.5-5.13-.42-4.17-.35-3-.25-1.71-.15c-.34,0-.67,0-1,0H154c-.39,0-.8,0-.91.5s.29.79.73.79h11.28c.42,0,.83,0,1.25,0l1.59.14,2.93.24,4.1.34L180,508l5.85.49,6.46.54,6.86.57,7.09.59,7.13.6,7,.58,6.66.55,6.15.52,5.46.45,4.56.38,3.48.29,2.24.19.78.06" transform="translate(0.5 0.5)"/></g><g id="POLYLINE-45" data-name="POLYLINE"><path class="cls-1" d="M251.3,497.83a8.33,8.33,0,0,0-.23,1.21c0,.41,0,.82-.1,1.22a6.56,6.56,0,0,0-.17,2.11,4.84,4.84,0,0,0,.58,1.78,1.09,1.09,0,0,0,.47.38.61.61,0,0,1,.2.09,2.09,2.09,0,0,1,.26.49,7.75,7.75,0,0,1,.44,1.07c.05.14.14.33.09.46a1.9,1.9,0,0,1-.28.37l-.16.21a8.61,8.61,0,0,0-1.28,2,10.49,10.49,0,0,0-.39,1.2c-.13.46-.29.91-.44,1.37a13.28,13.28,0,0,0-.6,2.33c-.24,1.78.23,3.52.19,5.3l-.72-.09-5-.64,0,.26c-.24,0-.49-.07-.73-.08a2.49,2.49,0,0,0-1.95.93,2.6,2.6,0,0,0-.48,1,20,20,0,0,0-.29,2.2c0,.18,0,.22-.17.22l-.58,0c-.35,0-.7,0-1.05.08a4.47,4.47,0,0,0-1.68.49,3.57,3.57,0,0,0-1.15,1.17c-.41.62-.77,1.28-1.12,1.93q-1.06,2-2,4.16a41.21,41.21,0,0,0-1.57,4.45,9.82,9.82,0,0,1-.32,1,2,2,0,0,0-.25.86c0,.07,0,.18,0,.24s-.17.21-.23.27-.15.23-.21.24-.2-.08-.28-.09h-.23c-.63,0-1.24.26-1.88.29a6.12,6.12,0,0,1-1.9-.24,6.13,6.13,0,0,0-1.38-.37.89.89,0,0,0-.81,1.15,1.87,1.87,0,0,0,.49.56,8.7,8.7,0,0,0,.85.65,15.06,15.06,0,0,0,1.84,1l-.54.94.57.32,3.11,1.78,1.44.82.45.26s.15.11.18.1.21-.37.25-.43l.46-.81.35-.61,1.74-3,.36-.63c.05-.08.12-.3.2-.34s.09,0,.16.06l.67.38,1.48.85a1.93,1.93,0,0,0,.75.15l1.87.24.69.09c.16,0,.18,0,.16.15s0,.56-.14.65a3.54,3.54,0,0,1-.39.14,4.33,4.33,0,0,0-.75.44,3.79,3.79,0,1,0,3.71-.46,4.16,4.16,0,0,0-1.71-.28l.07-.52,2.39.31a3.43,3.43,0,0,1,2.36,1,5.41,5.41,0,0,1,.39.92c.15.33.31.65.49,1a11.82,11.82,0,0,0,1,1.56,12.15,12.15,0,0,0,14.36,3.62,12.06,12.06,0,0,0,5.69-5.05,12.08,12.08,0,0,0,1.56-7.57,12.07,12.07,0,0,0-3.51-7.17,12.32,12.32,0,0,0-5.43-3.12c-.32-.08-.65-.16-1-.22-.17,0-.24,0-.21-.16l.09-.73c.05-.38.09-.75.14-1.13a1.63,1.63,0,0,1,.09-.49c.08-.14.32-.26.44-.36.59-.49,1.2-.94,1.81-1.39a5,5,0,0,0,1.92-2.59,4.61,4.61,0,0,0,.25-1.64,4.34,4.34,0,0,0-.36-1.37c-.14-.36-.28-.72-.41-1.09l-.18-.48a1.52,1.52,0,0,1-.12-.36c0-.08,0,0,.06-.09a2.66,2.66,0,0,1,1.48-.05l1.59.13c.15,0,.58.13.71,0s.06-.32.06-.44,0-.22-.11-.27a2.46,2.46,0,0,0-.26,0l-.66-.06a20.9,20.9,0,0,0-2.23-.16,2.09,2.09,0,0,0-.61.08c-.09,0-.22.11-.3.11a26.65,26.65,0,0,0-.93-2.69,22.79,22.79,0,0,0-2.76-4.05c-.48-.63-1-1.2-1.55-1.8a1.1,1.1,0,0,0-1.13-.31c0-.19,0-.38-.08-.57-.05-.39-.1-.78-.12-1.18,0-.21,0-.43,0-.65s-.05-.41,0-.54.21-.24.29-.37a2.81,2.81,0,0,0,.28-.58,2.94,2.94,0,0,0,.19-.72,1.45,1.45,0,0,0,0-.36.87.87,0,0,1,.05-.36,4.58,4.58,0,0,0,0-1.88,3,3,0,0,0-1.61-2.12,4.61,4.61,0,0,0-3.64-.23,2.48,2.48,0,0,0-1.18.83c-.1.14-.48.85-.25.95C251.4,497.44,251.35,497.64,251.3,497.83Z" transform="translate(0.5 0.5)"/></g></g><g id="Courtyard_Sculpture" data-name="Courtyard Sculpture"><path class="cls-3" d="M426.45,550.38a19.07,19.07,0,0,1-2.59-5.26,16,16,0,0,1-.73-7.7,16.53,16.53,0,0,1,2.39-6,6.36,6.36,0,0,1,2.32-2.66,4,4,0,0,1,2.8-.69c2.36.58,3,4.88,3.21,6,.2,1.32.25,2.8-.52,7.57-.44,2.72-.91,5-1.29,6.74" transform="translate(0.5 0.5)"/><path class="cls-3" d="M435.33,545.48c.14-.89.32-2.18.52-3.73.38-3,.57-4.45.65-6.3a26.57,26.57,0,0,0-.11-5.37,15.83,15.83,0,0,0-1.07-4,6.1,6.1,0,0,0-1.3-2.4,4.91,4.91,0,0,0-3.91-.82,8.26,8.26,0,0,0-4.34,2.49,21,21,0,0,0-3.16,3.89,21.68,21.68,0,0,0-2.23,3.53,16.61,16.61,0,0,0-1.43,5.53,22.38,22.38,0,0,0,.1,5.42,14,14,0,0,0,1.55,5.82,10.9,10.9,0,0,0,1.15,1.66" transform="translate(0.5 0.5)"/><path class="cls-3" d="M413.55,519.3a29.21,29.21,0,0,0-3.37,5.12,30.49,30.49,0,0,0-2.86,8.88,22.14,22.14,0,0,0-.32,5.8,20.81,20.81,0,0,0,.78,4.09" transform="translate(0.5 0.5)"/><path class="cls-3" d="M435.75,542.48a20.78,20.78,0,0,0,2.64-1.19,23.87,23.87,0,0,0,5.86-4.77,55.51,55.51,0,0,0,5.56-6.52,69.81,69.81,0,0,0,4.57-7.41c1.84-3.27,3.09-5.82,4.22-8.12.74-1.53,2.29-4.76,4.1-9,1.05-2.45,1.74-4.2,3.12-7.71.6-1.52,1.69-4.31,3.38-8.8,1.17-3.11,1.69-4.56,3.62-9.79,4.07-11.11,3.6-9.71,5.89-16,1.85-5.08,2.24-6.2,3.33-9s1.6-4.07,2.48-6.51c1.14-3.14,2-5.73,2.5-7.44l.08-.33-.92-.43c1-2.81,1.84-2.57,1.84-2.57-1.35-2.4-2.78-.1-2.78-.1L483.31,442a3.07,3.07,0,0,0-.47.45,3.87,3.87,0,0,0-.83,1.8c-.34,1.69-1.25,3.22-1.72,4.88-.6,2.12-1.05,2.84-4.06,10.64-.91,2.35-2.49,6.47-4.17,11.11-2.18,6-1.88,5.66-3.59,10.35-1.94,5.34-2.13,5.28-6.25,15.82-2,5.19-2.29,6-3.38,8.48-1.29,2.94-2.39,5.15-4.6,9.56s-3.42,6.81-4.8,9a41.38,41.38,0,0,1-4.86,6.61,34.07,34.07,0,0,1-5.07,4.48,32.49,32.49,0,0,1-3.13,2" transform="translate(0.5 0.5)"/><path class="cls-3" d="M484.41,439a5.59,5.59,0,0,1-2.32-6,5.4,5.4,0,1,1,10.5,2.5,5.56,5.56,0,0,1-5.47,4.35" transform="translate(0.5 0.5)"/><path class="cls-3" d="M485.41,436.52a3.08,3.08,0,0,1-1-3.1,2.74,2.74,0,1,1,5.3,1.26,3.15,3.15,0,0,1-1.74,2.17" transform="translate(0.5 0.5)"/><path class="cls-3" d="M436.58,533.06a22,22,0,0,0,0-5.71,11.94,11.94,0,0,0-1.11-4.07,11.08,11.08,0,0,0-2.28-3,13.19,13.19,0,0,0-3.73-2.53,14.91,14.91,0,0,0-4.2-1.16,13,13,0,0,0-4.56-.21,14,14,0,0,0-3.07.95,17.8,17.8,0,0,0-3.71,1.76,14.05,14.05,0,0,0-3.42,3.43,21.78,21.78,0,0,0-2.91,5.16,17.71,17.71,0,0,0-1.24,9.07c.24,2.56.46,4.86,1.92,7.27a15.69,15.69,0,0,0,3.63,3.91,12,12,0,0,0,4.3,2.78,12.74,12.74,0,0,0,4,.56c.58,0,1,0,1.56-.09a34.19,34.19,0,0,0,4.7-.78c2.72-.66,4.08-1,5.59-2a11.59,11.59,0,0,0,3.33-3.21" transform="translate(0.5 0.5)"/><circle class="cls-4" cx="239.9" cy="502.86" r="100.09"/></g></svg>