<svg xmlns="http://www.w3.org/2000/svg" viewBox="0 0 287.99 280.01"><defs><style>.cls-1,.cls-2,.cls-3,.cls-4,.cls-5,.cls-6,.cls-7{fill:none;stroke:#fff;}.cls-1,.cls-2{stroke-linecap:round;stroke-linejoin:round;stroke-width:2.5px;}.cls-1{stroke-dasharray:0 4.96;}.cls-3,.cls-4,.cls-5,.cls-6{stroke-width:2px;}.cls-3{stroke-dasharray:6.09 4.09;}.cls-4{stroke-dasharray:5.74 3.74;}.cls-5{stroke-dasharray:5.81 3.81;}.cls-7{stroke-width:0.56px;}.cls-8{fill:#fff;}</style></defs><title>diagram</title><g id="Layer_1" data-name="Layer 1"><path class="cls-1" d="M397.43,248.41A110.6,110.6,0,0,0,289.55,142.93" transform="translate(-142.72 -141.65)"/><path class="cls-1" d="M282.12,143A110.6,110.6,0,0,0,176.64,250.89" transform="translate(-142.72 -141.65)"/><path class="cls-1" d="M176.72,258.32A110.6,110.6,0,0,0,284.6,363.8" transform="translate(-142.72 -141.65)"/><path class="cls-1" d="M292,363.72A110.6,110.6,0,0,0,397.51,255.84" transform="translate(-142.72 -141.65)"/><path class="cls-2" d="M397.54,253.37h0M287.08,363.83h0M176.61,253.37h0M287.08,142.9h0" transform="translate(-142.72 -141.65)"/><path class="cls-3" d="M270,409.41c50.29,24.51,111.8,7.83,142.17-38.87" transform="translate(-142.72 -141.65)"/><path class="cls-4" d="M418,360.42a106.59,106.59,0,0,0,9.12-71.86" transform="translate(-142.72 -141.65)"/><path class="cls-5" d="M424.08,277.53a108.29,108.29,0,0,0-45.6-57.66" transform="translate(-142.72 -141.65)"/><path class="cls-3" d="M368,214.07c-50.29-24.5-111.79-7.82-142.16,38.88" transform="translate(-142.72 -141.65)"/><path class="cls-4" d="M220,263.07a106.59,106.59,0,0,0-9.12,71.86" transform="translate(-142.72 -141.65)"/><path class="cls-5" d="M214,346a108.26,108.26,0,0,0,45.6,57.67" transform="translate(-142.72 -141.65)"/><path class="cls-6" d="M261.18,404.62c.83.5,1.67,1,2.51,1.46s1.77,1,2.67,1.47m-55-70.8c.23.93.46,1.85.71,2.78s.51,1.87.79,2.79m12-87.65c-.54.86-1.06,1.73-1.58,2.61s-1,1.66-1.42,2.49m155.08-40.9c-.82-.5-1.66-1-2.5-1.47l-2.67-1.47m55,70.81c-.22-.93-.45-1.85-.7-2.78s-.52-1.87-.79-2.79m-12,87.64c.53-.85,1.06-1.72,1.58-2.6s.95-1.66,1.41-2.49" transform="translate(-142.72 -141.65)"/><path class="cls-7" d="M200.29,218.43l-1.45-2.62m2.77,1.9-1.45-2.63m2.73,1.93-1.38-2.66m2.71,2-1.38-2.66m2.69,2-1.31-2.7m2.66,2-1.32-2.7m2.64,2.07L207,211.65m2.61,2.1L208.32,211m2.59,2.15-1.18-2.76m2.56,2.17-1.18-2.76m2.54,2.21-1.11-2.79m2.47,2.25-1-2.82m2.45,2.3-1-2.82m2.42,2.32-1-2.84m2.39,2.35-1-2.84m2.36,2.38-.9-2.86m2.33,2.41-.9-2.86m2.3,2.44-.83-2.88m2.28,2.47-.83-2.89m2.24,2.51-.76-2.91m2.21,2.53-.75-2.91m2.18,2.57-.69-2.92m2.12,2.59-.62-2.94m2.09,2.63-.62-2.93m2,2.64-.54-3m2,2.68-.54-2.95m2,2.71-.47-3m2,2.73-.47-3m1.92,2.76-.4-3m1.88,2.78-.39-3m1.85,2.82-.33-3m1.79,2.83-.26-3m1.75,2.86-.25-3m1.72,2.88-.19-3m1.68,2.9-.18-3m1.65,2.92-.11-3m1.61,2.95-.11-3m1.57,3,0-3m1.5,3,0-3m1.47,3,0-3m1.44,3,.1-3m1.4,3.05.1-3m1.36,3.06.18-3m1.32,3.08.18-3M263,204.6l.25-3m1.25,3.11.24-3m1.22,3.15.31-3m1.15,3.15.38-3m1.1,3.17.39-3m1.07,3.18.45-3m1,3.19.46-3m1,3.21.52-3m1,3.22.52-3m.91,3.24.6-2.94m.84,3.24.66-2.93m.8,3.26.67-2.92m.76,3.26.73-2.91m.73,3.27.73-2.91m.68,3.29.8-2.89m.65,3.29.8-2.89m.61,3.31.86-2.87m.54,3.3.93-2.85m.5,3.32L290,207m.45,3.32,1-2.83m.41,3.33,1-2.83m.38,3.33,1.06-2.8m.34,3.34,1.07-2.8m.29,3.35,1.13-2.78m.22,3.33,1.2-2.75m.18,3.35,1.2-2.75m.14,3.35,1.26-2.72m.1,3.35,1.27-2.72m.05,3.36,1.33-2.69m0,3.35,1.33-2.69m0,3.36,1.39-2.65m-.09,3.33,1.46-2.62m-.15,3.35,1.46-2.62m-.18,3.34,1.52-2.59m-.22,3.35,1.51-2.59m-.26,3.35,1.58-2.55m-.3,3.34,1.58-2.55m-.35,3.34,1.64-2.51m-.38,3.33,1.64-2.51m-.43,3.34,1.7-2.47m-.5,3.31,1.76-2.43m-.54,3.31L321,223m-.59,3.3,1.82-2.39m-.62,3.3,1.82-2.39m-.67,3.29,1.88-2.34M324,229l1.88-2.34m-.76,3.28,1.94-2.29m-.82,3.24,2-2.25m-.86,3.24,2-2.24m-.9,3.22,2-2.19m-1,3.21,2.05-2.19m-1,3.21,2.1-2.15m-1,3.2,2.1-2.15M332.69,237l2.15-2.09m-1.11,3.16,2.15-2.09m-1.15,3.17,2.2-2m-1.21,3.11,2.25-2m-1.26,3.11,2.26-2m-1.3,3.09,2.3-1.93m-1.34,3.08,2.31-1.92m-1.38,3.05,2.35-1.86m-1.42,3,2.35-1.87m-1.46,3,2.4-1.8m-1.49,3,2.39-1.8m-1.54,3,2.45-1.75m-1.57,3,2.44-1.74m-1.62,3,2.48-1.68m-1.67,2.89,2.53-1.61m-1.72,2.88,2.53-1.62m-1.75,2.86,2.57-1.55M348,256.9l2.57-1.55m-1.83,2.81,2.61-1.48m-1.86,2.79,2.6-1.49m-1.89,2.77,2.64-1.42m-1.93,2.74,2.64-1.42m-2,2.72,2.67-1.35m-2,2.69,2.67-1.35m-2,2.68,2.7-1.29m-2.08,2.61,2.74-1.22m-2.13,2.59,2.74-1.22m-2.15,2.56,2.76-1.15m-2.19,2.54,2.77-1.15m-2.22,2.51,2.79-1.09m-2.25,2.49,2.8-1.09m-2.3,2.47,2.82-1m-2.33,2.4,2.85-1m-2.37,2.37,2.84-.95m-2.39,2.34,2.87-.87m-2.43,2.31,2.87-.88m-2.47,2.29,2.89-.81m-2.48,2.25,2.89-.8m-2.53,2.22,2.91-.73m-2.56,2.15,2.93-.66m-2.6,2.13,2.93-.66m-2.61,2.09,2.94-.59m-2.65,2.06,2.94-.59m-2.68,2,3-.51m-2.7,2,3-.51m-2.74,2,3-.44m-2.76,1.89,3-.37m-2.79,1.86,3-.37m-2.81,1.82,3-.29m-2.84,1.78,3-.29M362.78,303l3-.21m-2.88,1.71,3-.22M363,306l3-.14M363,307.43l3-.07m-3,1.57,3-.07m-3,1.53h3m-3,1.49h3m-3,1.46,3,.08m-3,1.42,3,.08M363,316.32l3,.16m-3.08,1.3,3,.23m-3.11,1.27,3,.23m-3.11,1.23,3,.3m-3.13,1.19,3,.31m-3.15,1.15,3,.38m-3.16,1.11,3,.37m-3.18,1.08,3,.45m-3.18,1,2.95.53m-3.22.95,3,.53m-3.22.91,2.94.6m-3.24.87,2.94.6m-3.25.84,2.93.67m-3.26.79,2.92.67m-3.27.75,2.91.74m-3.28.72,2.91.74m-3.3.67,2.89.81m-3.29.6,2.87.88m-3.31.55,2.87.89m-3.31.51,2.84.95m-3.32.47,2.85,1m-3.33.43,2.82,1m-3.33.39,2.82,1m-3.34.35,2.79,1.09m-3.34.3,2.79,1.1m-3.35.26,2.76,1.16m-3.33.19,2.73,1.23m-3.35.13,2.74,1.24m-3.35.1,2.7,1.3m-3.35.05,2.7,1.3m-3.35,0,2.67,1.37m-3.35,0,2.67,1.36m-3.36-.07L352.9,363m-3.35-.11,2.63,1.43m-3.36-.16,2.6,1.5m-3.34-.24,2.57,1.57m-3.35-.28,2.56,1.56m-3.33-.32,2.52,1.62m-3.34-.36,2.53,1.63m-3.34-.41,2.48,1.69m-3.32-.45,2.48,1.69m-3.33-.5,2.44,1.75m-3.29-.56,2.39,1.81m-3.3-.61,2.39,1.81m-3.28-.65,2.35,1.87m-3.29-.69,2.35,1.87m-3.27-.74,2.3,1.93m-3.27-.78,2.3,1.93m-3.26-.82,2.25,2m-3.24-.86,2.25,2m-3.24-.91,2.2,2m-3.2-1,2.15,2.09m-3.2-1,2.15,2.09m-3.18-1.05,2.1,2.14m-3.17-1.09,2.09,2.14m-3.15-1.13,2,2.19m-3.14-1.17,2,2.19m-3.14-1.22,2,2.25m-3.08-1.27,1.93,2.29m-3.08-1.33,1.93,2.3M324,393.3l1.87,2.34m-3.05-1.4,1.88,2.34m-3-1.44,1.82,2.39m-3-1.47,1.82,2.38m-3-1.51,1.76,2.43m-3-1.55,1.76,2.43m-3-1.6,1.7,2.47m-2.94-1.62,1.7,2.47m-2.93-1.67,1.64,2.51m-2.87-1.71,1.58,2.55m-2.85-1.76,1.57,2.55m-2.83-1.79,1.52,2.59m-2.81-1.84,1.51,2.59m-2.79-1.86,1.45,2.62m-2.76-1.9,1.45,2.63m-2.74-1.94,1.38,2.66m-2.71-2,1.38,2.66m-2.7-2,1.32,2.7m-2.67-2,1.32,2.7m-2.65-2.09,1.25,2.73m-2.58-2.12,1.18,2.76m-2.56-2.17,1.18,2.76m-2.53-2.19,1.11,2.79m-2.5-2.23,1.11,2.78M293.35,411l1,2.81M292,411.52l1,2.81M290.57,412l1,2.84m-2.39-2.36,1,2.84m-2.36-2.39.9,2.87m-2.33-2.42.9,2.87m-2.31-2.46.83,2.89m-2.24-2.48.76,2.9m-2.21-2.53.76,2.91M280.63,415l.69,2.92m-2.15-2.58.69,2.92m-2.12-2.6.61,2.94m-2.08-2.63.62,2.93m-2.06-2.66.55,2.95m-2-2.67.54,2.95m-2-2.72.47,3m-1.92-2.73.4,3M269,417.13l.4,3m-1.85-2.79.33,3M266,417.48l.32,3m-1.78-2.84.25,3m-1.75-2.86.26,3m-1.72-2.89.18,3m-1.68-2.9.19,3M258.65,418l.11,3m-1.58-2.95,0,3m-1.54-3,0,3m-1.5-3,0,3m-1.46-3,0,3m-1.43-3-.1,3m-1.4-3-.1,3m-1.36-3.08-.18,3m-1.29-3.08-.24,3m-1.26-3.12-.24,3m-1.22-3.11-.31,3m-1.18-3.14-.31,3m-1.14-3.15-.39,3m-1.1-3.17-.39,3M238,416.82l-.46,3m-1-3.2-.45,3m-1-3.22-.53,3m-.91-3.22L233,419m-.88-3.24-.59,3m-.84-3.25-.66,2.92m-.81-3.25-.66,2.92m-.76-3.27-.73,2.91m-.73-3.28-.73,2.91m-.68-3.3-.8,2.9m-.61-3.29-.87,2.87m-.57-3.31-.87,2.88m-.53-3.31-.93,2.85m-.5-3.32-.93,2.85m-.45-3.33-1,2.83m-.42-3.33-1,2.83m-.37-3.35L214,413.6m-.3-3.33-1.13,2.78m-.26-3.34-1.13,2.77m-.22-3.34-1.2,2.75m-.18-3.35-1.19,2.75m-.14-3.35L207,410.66m-.1-3.36L205.64,410m0-3.36-1.33,2.69m0-3.34-1.39,2.65m.06-3.35L201.56,408m.1-3.35-1.46,2.62m.14-3.35-1.45,2.63m.18-3.36-1.52,2.59m.22-3.35L196.26,405m.27-3.35L195,404.19m.33-3.32-1.64,2.51m.38-3.33-1.64,2.51m.42-3.32-1.7,2.47m.46-3.32-1.7,2.47m.51-3.32L188.61,400m.54-3.31-1.76,2.43m.59-3.31-1.82,2.39m.63-3.3L185,397.26m.67-3.3-1.88,2.34m.74-3.27-1.93,2.3m.78-3.26-1.93,2.29m.82-3.25-2,2.25m.87-3.24-2,2.24m.91-3.23-2,2.2m.95-3.22-2.05,2.19m1-3.21-2.1,2.14m1-3.19-2.09,2.14m1.07-3.19-2.15,2.09m1.14-3.15-2.21,2m1.19-3.14-2.2,2m1.22-3.12-2.26,2m1.26-3.11-2.25,2m1.3-3.09-2.3,1.92m1.34-3.08-2.3,1.93m1.38-3.07-2.35,1.87m1.42-3-2.35,1.86m1.47-3-2.4,1.8m1.52-3-2.44,1.74m1.57-3L163,374.22m1.6-2.94L162.06,373m1.65-2.93-2.49,1.68m1.68-2.9-2.53,1.62m1.72-2.88-2.53,1.61m1.76-2.86-2.57,1.55m1.8-2.83L158,366.57m1.83-2.82-2.61,1.49m1.87-2.79-2.61,1.48m1.91-2.77-2.64,1.42m2-2.71L155,361.23m2-2.7-2.68,1.36m2-2.67-2.7,1.29m2.06-2.65L153,357.15m2.1-2.62-2.74,1.23m2.12-2.6-2.74,1.22m2.17-2.57L151.13,353m2.19-2.54-2.77,1.15m2.24-2.52-2.8,1.09m2.28-2.45-2.83,1m2.32-2.43-2.82,1m2.34-2.4-2.85,1m2.37-2.37-2.84.94m2.4-2.34-2.87.88m2.43-2.32-2.87.88m2.48-2.29-2.89.81m2.5-2.22-2.91.73m2.54-2.18-2.91.73m2.57-2.16-2.93.66m2.6-2.12-2.93.66m2.63-2.1-2.94.59m2.65-2.06-2.95.59m2.69-2-2.95.51m2.71-1.95-3,.44m2.75-1.93-3,.44m2.76-1.89-3,.37m2.79-1.86-3,.37m2.83-1.83-3,.3m2.84-1.79-3,.29m2.88-1.75-3,.22m2.89-1.68-3,.14m2.93-1.64-3,.14m2.94-1.6-3,.06m3-1.57-3,.07m3-1.53h-3m3-1.49h-3m3-1.45-3-.09m3-1.38-3-.15m3.07-1.35-3-.15m3.09-1.31-3-.23m3.1-1.27-3-.23m3.13-1.22-3-.31m3.14-1.19-3-.3m3.16-1.15-3-.38m3.17-1.07-3-.46m3.19-1-3-.45m3.19-1-2.95-.53m3.22-.95-3-.53m3.23-.91-2.94-.6m3.24-.87-2.94-.6m3.26-.83-2.93-.67m3.26-.8-2.92-.67m3.28-.75-2.9-.74m3.27-.67-2.89-.82m3.3-.63-2.89-.81m3.3-.6-2.87-.88m3.31-.55-2.87-.88m3.32-.51-2.85-1m3.33-.47-2.85-.95m3.34-.43-2.82-1m3.33-.39-2.82-1m3.35-.34-2.79-1.1m3.33-.26-2.76-1.17m3.34-.22-2.76-1.16m3.34-.18-2.73-1.23m3.35-.14-2.73-1.23m3.35-.1-2.7-1.3m3.35-.05L154,263m3.36,0-2.67-1.36m3.36,0-2.67-1.37m3.37.08-2.64-1.43m3.34.15-2.6-1.5m3.35.2-2.6-1.5m3.35.24-2.56-1.57m3.34.29-2.56-1.57m3.34.33L160,252.35m3.34.37-2.52-1.63m3.34.42-2.48-1.69m3.31.48-2.44-1.75m3.31.53-2.44-1.75m3.31.57-2.4-1.81m3.3.61-2.39-1.81m3.29.65-2.35-1.87m3.29.7-2.35-1.87m3.28.74-2.3-1.93m3.24.81-2.25-2m3.25.85-2.26-2m3.23.89-2.2-2m3.22.94-2.2-2m3.21,1-2.15-2.09m3.19,1-2.15-2.09m3.19,1.06-2.09-2.15m3.17,1.1-2.1-2.15m3.17,1.15-2.05-2.2m3.12,1.2-2-2.24m3.12,1.25-2-2.25m3.09,1.28L181,228.33m3.08,1.33-1.94-2.3m3.07,1.37-1.88-2.34m3.05,1.4-1.88-2.34m3,1.44-1.82-2.38m3,1.47-1.81-2.38m3,1.52-1.76-2.43m2.95,1.58-1.7-2.48m2.94,1.63-1.7-2.48m2.91,1.65-1.64-2.51m2.9,1.69-1.64-2.51M196,221l-1.57-2.55m2.85,1.76-1.58-2.55m2.84,1.8L197,216.86m2.81,1.83-1.52-2.59" transform="translate(-142.72 -141.65)"/></g><g id="Layer_3" data-name="Layer 3"><path class="cls-8" d="M268,284h-5v2.76h3.87v1H263v3.86h-1v-8.58h6Z" transform="translate(-142.72 -141.65)"/><path class="cls-8" d="M273.63,282.92a4,4,0,0,1,2.11.54,3.54,3.54,0,0,1,1.38,1.53,5.88,5.88,0,0,1,0,4.7,3.54,3.54,0,0,1-1.38,1.53,4.39,4.39,0,0,1-4.22,0,3.6,3.6,0,0,1-1.38-1.53,5.88,5.88,0,0,1,0-4.7,3.6,3.6,0,0,1,1.38-1.53A4,4,0,0,1,273.63,282.92Zm0,1a2.74,2.74,0,0,0-1.53.41,2.54,2.54,0,0,0-1,1.18,5.06,5.06,0,0,0,0,3.7,2.61,2.61,0,0,0,1,1.19,3.08,3.08,0,0,0,3.07,0,2.74,2.74,0,0,0,1-1.19,5.06,5.06,0,0,0,0-3.7,2.66,2.66,0,0,0-1-1.18A2.75,2.75,0,0,0,273.63,283.9Z" transform="translate(-142.72 -141.65)"/><path class="cls-8" d="M287.14,289.43a3.53,3.53,0,0,1-.78,1.26,3.42,3.42,0,0,1-1.19.8,4.33,4.33,0,0,1-3.6-.27,3.54,3.54,0,0,1-1.38-1.53,5.88,5.88,0,0,1,0-4.7,3.54,3.54,0,0,1,1.38-1.53,3.93,3.93,0,0,1,2.08-.54,4.57,4.57,0,0,1,1.49.23,3.11,3.11,0,0,1,1.11.67,3.41,3.41,0,0,1,.73,1.1l-1,.48a2.48,2.48,0,0,0-.83-1.12,2.34,2.34,0,0,0-1.4-.38,2.74,2.74,0,0,0-2.57,1.58,4.9,4.9,0,0,0,0,3.71,2.61,2.61,0,0,0,1,1.19,2.82,2.82,0,0,0,1.53.41,2.57,2.57,0,0,0,1.49-.44,2.43,2.43,0,0,0,.93-1.31Z" transform="translate(-142.72 -141.65)"/><path class="cls-8" d="M296,283.05v5.38a3.31,3.31,0,0,1-.87,2.49,4.13,4.13,0,0,1-5,0,3.31,3.31,0,0,1-.88-2.49v-5.38h1v5.12a2.91,2.91,0,0,0,.57,2,2.74,2.74,0,0,0,3.52,0,2.91,2.91,0,0,0,.57-2v-5.12Z" transform="translate(-142.72 -141.65)"/><path class="cls-8" d="M301.74,282.92a4,4,0,0,1,1.95.46,3.77,3.77,0,0,1,1.36,1.36l-.87.68a3.06,3.06,0,0,0-1.08-1.18,2.93,2.93,0,0,0-1.47-.34,2.8,2.8,0,0,0-1.13.19,1.46,1.46,0,0,0-.66.51,1.32,1.32,0,0,0-.21.73,1.18,1.18,0,0,0,.29.79,2,2,0,0,0,1.14.55l1.86.41a3.14,3.14,0,0,1,1.72.83,2,2,0,0,1,.49,1.37,2.18,2.18,0,0,1-.41,1.29,2.65,2.65,0,0,1-1.15.88,4.4,4.4,0,0,1-1.74.31,4.89,4.89,0,0,1-1.65-.25,4,4,0,0,1-1.21-.68,3.79,3.79,0,0,1-.83-1l.91-.74a3,3,0,0,0,.63.87,2.83,2.83,0,0,0,.94.59,4,4,0,0,0,2.42,0,1.58,1.58,0,0,0,.75-.48,1.19,1.19,0,0,0,.26-.77,1.15,1.15,0,0,0-.27-.75,1.83,1.83,0,0,0-1-.5l-2-.45a4.17,4.17,0,0,1-1.28-.5,2,2,0,0,1-.71-.76,2.12,2.12,0,0,1-.21-.94,2.31,2.31,0,0,1,.38-1.27,2.85,2.85,0,0,1,1.11-.93A3.92,3.92,0,0,1,301.74,282.92Z" transform="translate(-142.72 -141.65)"/></g><g id="Layer_2" data-name="Layer 2"><path class="cls-8" d="M260.62,179.54,264,171h1.24l3.33,8.58h-1.11L265,173.15l-.41-1.2h0l-.38,1.16-2.46,6.43Zm1.64-2.37v-1h4.59v1Z" transform="translate(-142.72 -141.65)"/><path class="cls-8" d="M277.61,177.35a3.58,3.58,0,0,1-.78,1.25,3.33,3.33,0,0,1-1.19.8,4,4,0,0,1-1.49.27,4.11,4.11,0,0,1-2.11-.53,3.66,3.66,0,0,1-1.38-1.53,6,6,0,0,1,0-4.71,3.66,3.66,0,0,1,1.38-1.53,4,4,0,0,1,2.09-.54,4.51,4.51,0,0,1,1.48.23,3,3,0,0,1,1.11.68,3.33,3.33,0,0,1,.74,1.1l-1,.48a2.16,2.16,0,0,0-2.22-1.51,2.9,2.9,0,0,0-1.54.41,2.71,2.71,0,0,0-1,1.18,4.18,4.18,0,0,0-.37,1.85,4.57,4.57,0,0,0,.35,1.86,2.65,2.65,0,0,0,1,1.18,2.82,2.82,0,0,0,1.53.41,2.6,2.6,0,0,0,1.5-.44,2.44,2.44,0,0,0,.92-1.3Z" transform="translate(-142.72 -141.65)"/><path class="cls-8" d="M287.17,177.35a3.58,3.58,0,0,1-.78,1.25,3.42,3.42,0,0,1-1.19.8,4.37,4.37,0,0,1-3.6-.26,3.54,3.54,0,0,1-1.38-1.53,5.9,5.9,0,0,1,0-4.71,3.54,3.54,0,0,1,1.38-1.53,3.93,3.93,0,0,1,2.08-.54,4.57,4.57,0,0,1,1.49.23,3,3,0,0,1,1.11.68,3.31,3.31,0,0,1,.73,1.1l-1,.48a2.38,2.38,0,0,0-.82-1.13,2.41,2.41,0,0,0-1.4-.38,2.87,2.87,0,0,0-1.53.41,2.73,2.73,0,0,0-1,1.18,4.33,4.33,0,0,0-.37,1.85,4.57,4.57,0,0,0,.35,1.86,2.67,2.67,0,0,0,1,1.18,2.82,2.82,0,0,0,1.53.41,2.57,2.57,0,0,0,1.49-.44,2.4,2.4,0,0,0,.93-1.3Z" transform="translate(-142.72 -141.65)"/><path class="cls-8" d="M289.82,179.54V171h6v1h-5v2.77h3.87v1h-3.87v2.89H296v1Z" transform="translate(-142.72 -141.65)"/><path class="cls-8" d="M301.52,170.83a3.91,3.91,0,0,1,2,.47,3.74,3.74,0,0,1,1.36,1.35l-.87.68a3.13,3.13,0,0,0-1.08-1.18,2.92,2.92,0,0,0-1.46-.34,2.89,2.89,0,0,0-1.14.19,1.48,1.48,0,0,0-.66.52,1.27,1.27,0,0,0-.21.72,1.23,1.23,0,0,0,.29.8,2.08,2.08,0,0,0,1.14.54l1.86.41a3.17,3.17,0,0,1,1.72.83,2,2,0,0,1,.49,1.37,2.07,2.07,0,0,1-.41,1.29,2.59,2.59,0,0,1-1.15.88,4.4,4.4,0,0,1-1.74.31,4.83,4.83,0,0,1-1.64-.25,4,4,0,0,1-1.22-.68,3.93,3.93,0,0,1-.83-1l.91-.74a3.58,3.58,0,0,0,.63.87,2.86,2.86,0,0,0,1,.58,3.54,3.54,0,0,0,1.26.21,3.65,3.65,0,0,0,1.16-.16,1.59,1.59,0,0,0,.74-.48,1.17,1.17,0,0,0,.26-.78,1.19,1.19,0,0,0-.27-.75,1.86,1.86,0,0,0-1-.5l-2-.45a3.93,3.93,0,0,1-1.28-.5,1.81,1.81,0,0,1-.7-.76,2,2,0,0,1-.22-.94,2.24,2.24,0,0,1,.39-1.27,2.65,2.65,0,0,1,1.1-.92A3.78,3.78,0,0,1,301.52,170.83Z" transform="translate(-142.72 -141.65)"/><path class="cls-8" d="M310.49,170.83a3.91,3.91,0,0,1,1.95.47,3.66,3.66,0,0,1,1.36,1.35l-.87.68a3.13,3.13,0,0,0-1.08-1.18,3.39,3.39,0,0,0-2.6-.15,1.48,1.48,0,0,0-.66.52,1.27,1.27,0,0,0-.21.72,1.23,1.23,0,0,0,.29.8,2.08,2.08,0,0,0,1.14.54l1.86.41a3.17,3.17,0,0,1,1.72.83,2,2,0,0,1,.49,1.37,2.07,2.07,0,0,1-.41,1.29,2.59,2.59,0,0,1-1.15.88,4.4,4.4,0,0,1-1.74.31,4.83,4.83,0,0,1-1.64-.25,4,4,0,0,1-1.22-.68,3.93,3.93,0,0,1-.83-1l.91-.74a3.37,3.37,0,0,0,.64.87,2.71,2.71,0,0,0,.94.58,3.56,3.56,0,0,0,1.27.21,3.63,3.63,0,0,0,1.15-.16,1.59,1.59,0,0,0,.74-.48,1.17,1.17,0,0,0,.26-.78,1.19,1.19,0,0,0-.27-.75,1.86,1.86,0,0,0-1-.5l-2-.45a3.93,3.93,0,0,1-1.28-.5,1.81,1.81,0,0,1-.7-.76,2,2,0,0,1-.22-.94,2.31,2.31,0,0,1,.38-1.27,2.75,2.75,0,0,1,1.11-.92A3.78,3.78,0,0,1,310.49,170.83Z" transform="translate(-142.72 -141.65)"/><path class="cls-8" d="M404.46,326.78,397,322.49l.52-.91,7.43,4.3Z" transform="translate(-142.72 -141.65)"/><path class="cls-8" d="M399.37,335.6l-7.43-4.29.64-1.11,6.77-.24,1.85,0h0l-1.15-.6-5.25-3,.49-.86,7.43,4.29-.64,1.11-6.74.24-1.89,0v0l1.17.61,5.24,3Z" transform="translate(-142.72 -141.65)"/><path class="cls-8" d="M394.62,343.82l-.84-.49,1.49-2.59-6.58-3.8.52-.9,6.58,3.8,1.5-2.59.84.49Z" transform="translate(-142.72 -141.65)"/><path class="cls-8" d="M386,341.66l7.43,4.29-3,5.21-.84-.49,2.49-4.31-2.4-1.38-1.93,3.35-.85-.49,1.94-3.35-2.5-1.44-2.59,4.48-.84-.49Z" transform="translate(-142.72 -141.65)"/><path class="cls-8" d="M383.32,354.89l-5.16.29.62-1.07,4.48-.26Zm4,1.62a3.13,3.13,0,0,1-1.64,1.48,2.26,2.26,0,0,1-2-.22,2.18,2.18,0,0,1-1.16-1.6A3.28,3.28,0,0,1,383,354v-.11l1.06-1.82L381,350.3l.52-.9,7.43,4.3Zm-3.5-2a2.12,2.12,0,0,0-.35,1.38,1.7,1.7,0,0,0,2,1.15,2.11,2.11,0,0,0,1-1l1.1-1.9-2.66-1.54Z" transform="translate(-142.72 -141.65)"/><path class="cls-8" d="M376.84,357.45l7.44,4.29-3,5.22-.85-.49,2.49-4.31-2.4-1.39-1.93,3.36-.85-.49,1.94-3.35-2.5-1.45-2.59,4.48-.84-.49Z" transform="translate(-142.72 -141.65)"/><path class="cls-8" d="M378.54,371.94a4,4,0,0,1-1.38,1.46,3.69,3.69,0,0,1-1.86.5l-.15-1.09a3.15,3.15,0,0,0,1.57-.35,3,3,0,0,0,1-1.1,2.79,2.79,0,0,0,.39-1.08,1.43,1.43,0,0,0-.11-.82,1.37,1.37,0,0,0-.52-.55,1.23,1.23,0,0,0-.84-.15,2.11,2.11,0,0,0-1,.72l-1.29,1.4a3.08,3.08,0,0,1-1.57,1.08,2,2,0,0,1-1.43-.26,2.17,2.17,0,0,1-.92-1,2.63,2.63,0,0,1-.18-1.44,4.25,4.25,0,0,1,.6-1.66,5,5,0,0,1,1-1.3,3.89,3.89,0,0,1,2.45-.95l.18,1.16a3.23,3.23,0,0,0-1.07.12,2.74,2.74,0,0,0-1,.52,3.71,3.71,0,0,0-.81,1,3.9,3.9,0,0,0-.44,1.08,1.64,1.64,0,0,0,.05.89,1.1,1.1,0,0,0,.54.61,1.11,1.11,0,0,0,.78.14,1.86,1.86,0,0,0,.95-.64l1.4-1.52a4.11,4.11,0,0,1,1.07-.86,2,2,0,0,1,1-.23,2.07,2.07,0,0,1,.92.29,2.28,2.28,0,0,1,.91,1,2.78,2.78,0,0,1,.25,1.43A3.88,3.88,0,0,1,378.54,371.94Z" transform="translate(-142.72 -141.65)"/><path class="cls-8" d="M372.34,382.41l-.84-.48,1.49-2.59-6.58-3.81.52-.9,6.58,3.81,1.5-2.59.84.48Z" transform="translate(-142.72 -141.65)"/><path class="cls-8" d="M185.09,354.17l4.66-2.69a3.32,3.32,0,0,1,2.59-.49,3.48,3.48,0,0,1,2,1.75,3.44,3.44,0,0,1,.52,2.57,3.3,3.3,0,0,1-1.72,2L188.46,360l-.52-.9,4.43-2.57a2.86,2.86,0,0,0,1.43-1.47,2.24,2.24,0,0,0-.33-1.85A2.18,2.18,0,0,0,192,352a2.9,2.9,0,0,0-2,.49l-4.44,2.56Z" transform="translate(-142.72 -141.65)"/><path class="cls-8" d="M182,349a3.91,3.91,0,0,1-.58-1.92,3.82,3.82,0,0,1,.5-1.86l1,.42a3.11,3.11,0,0,0-.48,1.53,3,3,0,0,0,.43,1.44,2.91,2.91,0,0,0,.74.88,1.45,1.45,0,0,0,.77.32,1.27,1.27,0,0,0,.73-.19,1.19,1.19,0,0,0,.55-.64,2.06,2.06,0,0,0-.1-1.26L185,345.9a3.1,3.1,0,0,1-.15-1.9,2,2,0,0,1,1-1.11,2.07,2.07,0,0,1,1.32-.29,2.63,2.63,0,0,1,1.34.55,4.76,4.76,0,0,1,1.14,1.36,4.85,4.85,0,0,1,.6,1.55,3.83,3.83,0,0,1,0,1.39,3.88,3.88,0,0,1-.42,1.2l-1.1-.42a3,3,0,0,0,.44-1,2.58,2.58,0,0,0,0-1.11,3.41,3.41,0,0,0-.45-1.2A3.51,3.51,0,0,0,188,344a1.49,1.49,0,0,0-.79-.4,1.21,1.21,0,0,0-1.31.77,1.86,1.86,0,0,0,.08,1.14l.62,2a4,4,0,0,1,.2,1.36,1.89,1.89,0,0,1-.3,1,2.14,2.14,0,0,1-.71.66,2.24,2.24,0,0,1-1.29.3,2.75,2.75,0,0,1-1.36-.49A3.92,3.92,0,0,1,182,349Z" transform="translate(-142.72 -141.65)"/><path class="cls-8" d="M186.39,339.27,179,343.56l-3-5.21.85-.49,2.49,4.31,2.39-1.38-1.93-3.36.84-.49,1.94,3.36,2.5-1.45-2.59-4.48.85-.48Z" transform="translate(-142.72 -141.65)"/></g></svg>