<svg xmlns="http://www.w3.org/2000/svg" viewBox="0 0 2304 1728"><defs><style>.cls-1{fill:#03f;}.cls-2,.cls-4,.cls-5,.cls-6,.cls-7{fill:none;stroke:#fff;}.cls-2,.cls-5{stroke-linecap:round;stroke-linejoin:round;}.cls-2,.cls-4{stroke-width:2px;}.cls-3{fill:#fff;}.cls-4,.cls-6,.cls-7{stroke-miterlimit:10;}.cls-6{stroke-width:1.5px;}</style></defs><title>entry</title><g id="Backround"><rect class="cls-1" width="2304" height="1728"/></g><g id="Entry_Amenities" data-name="Entry Amenities"><g id="POLYLINE"><polygon class="cls-2" points="1133.32 715.92 1133.43 715.92 1133.54 715.92 1133.65 715.93 1133.75 715.93 1133.86 715.94 1133.97 715.95 1134.08 715.97 1134.18 715.98 1134.29 716 1134.4 716.01 1134.51 716.03 1134.61 716.05 1134.72 716.08 1134.82 716.1 1134.93 716.13 1135.03 716.16 1135.13 716.19 1135.24 716.22 1135.34 716.25 1135.44 716.29 1135.54 716.33 1135.64 716.37 1135.74 716.41 1135.84 716.45 1135.94 716.5 1136.04 716.54 1136.14 716.59 1136.23 716.64 1136.33 716.69 1136.42 716.74 1136.52 716.8 1136.61 716.85 1136.7 716.91 1136.79 716.97 1136.88 717.03 1136.97 717.09 1137.06 717.16 1137.14 717.22 1137.23 717.29 1137.31 717.36 1137.39 717.43 1137.47 717.5 1137.56 717.57 1137.63 717.64 1137.71 717.72 1137.79 717.8 1137.86 717.87 1137.94 717.95 1138.01 718.03 1138.08 718.12 1138.15 718.2 1138.22 718.28 1138.28 718.37 1138.35 718.45 1138.41 718.54 1138.47 718.63 1138.54 718.72 1138.6 718.81 1138.65 718.9 1138.71 718.99 1138.76 719.09 1138.81 719.18 1138.87 719.28 1138.91 719.37 1138.96 719.47 1139.01 719.57 1139.05 719.67 1139.1 719.77 1139.13 719.87 1139.17 719.97 1139.21 720.07 1139.25 720.17 1139.28 720.27 1139.31 720.38 1139.34 720.48 1139.37 720.59 1139.4 720.69 1139.42 720.8 1139.44 720.9 1139.47 721.01 1139.48 721.12 1139.5 721.22 1139.52 721.33 1139.53 721.44 1139.54 721.54 1139.55 721.65 1139.56 721.76 1139.57 721.87 1139.57 721.98 1139.58 722.08 1139.58 722.19 1139.58 722.3 1139.57 722.41 1139.57 722.52 1138.18 747.86 1138.17 748.01 1138.16 748.15 1138.14 748.3 1138.13 748.45 1138.12 748.6 1138.1 748.75 1138.08 748.9 1138.06 749.05 1138.04 749.2 1138.01 749.35 1137.99 749.5 1137.96 749.65 1137.93 749.8 1137.9 749.95 1137.87 750.1 1137.83 750.26 1137.79 750.41 1137.76 750.56 1137.71 750.71 1137.67 750.86 1137.63 751.02 1137.58 751.17 1137.53 751.32 1137.48 751.47 1137.43 751.62 1137.38 751.77 1137.32 751.93 1137.26 752.08 1137.2 752.23 1137.14 752.38 1137.08 752.53 1137.01 752.68 1136.94 752.83 1136.87 752.98 1136.8 753.12 1136.73 753.27 1136.65 753.42 1136.58 753.57 1136.5 753.71 1136.42 753.86 1136.33 754 1136.25 754.14 1136.16 754.29 1136.07 754.43 1135.98 754.57 1135.89 754.71 1135.8 754.85 1135.7 754.99 1135.6 755.12 1135.5 755.26 1135.4 755.39 1135.3 755.53 1135.19 755.66 1135.09 755.79 1134.98 755.92 1134.87 756.05 1134.75 756.18 1134.64 756.3 1134.53 756.43 1134.41 756.55 1134.29 756.68 1134.17 756.8 1134.05 756.91 1133.93 757.03 1133.8 757.15 1133.68 757.26 1133.55 757.38 1133.42 757.49 1133.29 757.6 1133.16 757.71 1133.03 757.81 1132.89 757.92 1132.76 758.02 1132.62 758.12 1132.49 758.22 1132.35 758.32 1132.21 758.41 1132.07 758.51 1131.93 758.6 1131.79 758.69 1131.64 758.78 1131.5 758.87 1131.35 758.95 1131.21 759.03 1131.06 759.11 1130.91 759.19 1130.77 759.27 1130.62 759.34 1130.47 759.42 1130.32 759.49 1130.17 759.56 1130.02 759.63 1129.87 759.69 1129.71 759.75 1129.56 759.82 1129.41 759.87 1129.26 759.93 1129.1 759.99 1128.95 760.04 1128.8 760.09 1128.64 760.14 1128.49 760.19 1128.33 760.24 1128.18 760.28 1128.03 760.32 1127.87 760.36 1127.72 760.4 1127.56 760.43 1127.41 760.47 1127.25 760.5 1127.1 760.53 1126.95 760.56 1126.79 760.59 1126.64 760.61 1126.49 760.63 1126.33 760.65 1126.18 760.67 1126.03 760.69 1125.88 760.71 1125.73 760.72 1125.58 760.73 1125.42 760.74 1125.28 760.75 1125.13 760.76 1124.98 760.77 1124.83 760.77 1124.68 760.77 1124.53 760.77 1061.43 760.77 1061.28 760.77 1061.14 760.77 1060.99 760.77 1060.84 760.76 1060.69 760.75 1060.54 760.74 1060.39 760.73 1060.24 760.72 1060.09 760.71 1059.94 760.69 1059.78 760.67 1059.63 760.65 1059.48 760.63 1059.33 760.61 1059.17 760.59 1059.02 760.56 1058.87 760.53 1058.71 760.5 1058.56 760.47 1058.4 760.43 1058.25 760.4 1058.09 760.36 1057.94 760.32 1057.79 760.28 1057.63 760.24 1057.48 760.19 1057.32 760.14 1057.17 760.09 1057.02 760.04 1056.86 759.99 1056.71 759.93 1056.56 759.87 1056.4 759.82 1056.25 759.75 1056.1 759.69 1055.95 759.63 1055.8 759.56 1055.65 759.49 1055.5 759.42 1055.35 759.34 1055.2 759.27 1055.05 759.19 1054.9 759.11 1054.76 759.03 1054.61 758.95 1054.47 758.87 1054.32 758.78 1054.18 758.69 1054.04 758.6 1053.89 758.51 1053.76 758.41 1053.62 758.32 1053.48 758.22 1053.34 758.12 1053.2 758.02 1053.07 757.92 1052.94 757.81 1052.8 757.71 1052.67 757.6 1052.54 757.49 1052.41 757.38 1052.29 757.26 1052.16 757.15 1052.04 757.03 1051.91 756.91 1051.79 756.8 1051.67 756.68 1051.56 756.55 1051.44 756.43 1051.32 756.3 1051.21 756.18 1051.1 756.05 1050.99 755.92 1050.88 755.79 1050.77 755.66 1050.67 755.53 1050.57 755.39 1050.46 755.26 1050.36 755.12 1050.27 754.99 1050.17 754.85 1050.08 754.71 1049.98 754.57 1049.89 754.43 1049.8 754.29 1049.72 754.14 1049.63 754 1049.55 753.86 1049.47 753.71 1049.39 753.57 1049.31 753.42 1049.24 753.27 1049.16 753.12 1049.09 752.98 1049.02 752.83 1048.95 752.68 1048.89 752.53 1048.82 752.38 1048.76 752.23 1048.7 752.08 1048.64 751.93 1048.59 751.77 1048.54 751.62 1048.48 751.47 1048.43 751.32 1048.38 751.17 1048.34 751.02 1048.29 750.86 1048.25 750.71 1048.21 750.56 1048.17 750.41 1048.13 750.26 1048.1 750.1 1048.07 749.95 1048.04 749.8 1048.01 749.65 1047.98 749.5 1047.95 749.35 1047.93 749.2 1047.91 749.05 1047.88 748.9 1047.87 748.75 1047.85 748.6 1047.83 748.45 1047.82 748.3 1047.81 748.15 1047.8 748.01 1047.79 747.86 1046.4 722.52 1046.39 722.41 1046.39 722.3 1046.39 722.19 1046.39 722.08 1046.39 721.98 1046.4 721.87 1046.4 721.76 1046.41 721.65 1046.42 721.54 1046.43 721.44 1046.45 721.33 1046.46 721.22 1046.48 721.12 1046.5 721.01 1046.52 720.9 1046.54 720.8 1046.57 720.69 1046.59 720.59 1046.62 720.48 1046.65 720.38 1046.68 720.27 1046.72 720.17 1046.75 720.07 1046.79 719.97 1046.83 719.87 1046.87 719.77 1046.91 719.67 1046.96 719.57 1047 719.47 1047.05 719.37 1047.1 719.28 1047.15 719.18 1047.2 719.09 1047.26 718.99 1047.31 718.9 1047.37 718.81 1047.43 718.72 1047.49 718.63 1047.55 718.54 1047.62 718.45 1047.68 718.37 1047.75 718.28 1047.82 718.2 1047.88 718.12 1047.96 718.03 1048.03 717.95 1048.1 717.87 1048.18 717.8 1048.25 717.72 1048.33 717.64 1048.41 717.57 1048.49 717.5 1048.57 717.43 1048.65 717.36 1048.74 717.29 1048.82 717.22 1048.91 717.16 1049 717.09 1049.09 717.03 1049.17 716.97 1049.27 716.91 1049.36 716.85 1049.45 716.8 1049.54 716.74 1049.64 716.69 1049.73 716.64 1049.83 716.59 1049.92 716.54 1050.02 716.5 1050.12 716.45 1050.22 716.41 1050.32 716.37 1050.42 716.33 1050.52 716.29 1050.63 716.25 1050.73 716.22 1050.83 716.19 1050.93 716.16 1051.04 716.13 1051.14 716.1 1051.25 716.08 1051.35 716.05 1051.46 716.03 1051.57 716.01 1051.67 716 1051.78 715.98 1051.89 715.97 1051.99 715.95 1052.1 715.94 1052.21 715.93 1052.32 715.93 1052.43 715.92 1052.54 715.92 1052.64 715.92 1133.32 715.92"/></g><g id="POLYLINE-2" data-name="POLYLINE"><polyline class="cls-2" points="1047.9 749.03 1042.51 749.03 1042.34 749.03 1042.18 749.03 1042.02 749.02 1041.85 749.02 1041.69 749.01 1041.52 749 1041.36 748.99 1041.19 748.97 1041.02 748.96 1040.86 748.94 1040.69 748.92 1040.52 748.89 1040.35 748.87 1040.18 748.84 1040.01 748.82 1039.84 748.78 1039.67 748.75 1039.5 748.72 1039.33 748.68 1039.16 748.64 1038.99 748.6 1038.82 748.56 1038.65 748.51 1038.48 748.46 1038.3 748.41 1038.13 748.36 1037.96 748.31 1037.79 748.25 1037.62 748.19 1037.45 748.13 1037.28 748.07 1037.12 748 1036.95 747.93 1036.78 747.86 1036.61 747.79 1036.44 747.72 1036.28 747.64 1036.11 747.56 1035.94 747.48 1035.78 747.39 1035.62 747.31 1035.45 747.22 1035.29 747.13 1035.13 747.04 1034.97 746.94 1034.81 746.84 1034.65 746.74 1034.49 746.64 1034.34 746.54 1034.18 746.43 1034.03 746.33 1033.87 746.22 1033.72 746.1 1033.57 745.99 1033.42 745.87 1033.27 745.75 1033.13 745.63 1032.98 745.51 1032.84 745.39 1032.7 745.26 1032.56 745.13 1032.42 745 1032.29 744.87 1032.15 744.74 1032.02 744.61 1031.88 744.47 1031.76 744.33 1031.63 744.19 1031.5 744.05 1031.38 743.91 1031.26 743.76 1031.13 743.62 1031.02 743.47 1030.9 743.32 1030.79 743.17 1030.67 743.02 1030.57 742.87 1030.46 742.71 1030.35 742.55 1030.25 742.4 1030.15 742.24 1030.05 742.08 1029.95 741.92 1029.85 741.76 1029.76 741.6 1029.67 741.44 1029.58 741.27 1029.5 741.11 1029.41 740.95 1029.33 740.78 1029.25 740.62 1029.17 740.45 1029.1 740.28 1029.03 740.11 1028.96 739.94 1028.89 739.78 1028.82 739.61 1028.76 739.44 1028.7 739.27 1028.64 739.1 1028.58 738.93 1028.53 738.76 1028.48 738.59 1028.43 738.41 1028.38 738.24 1028.33 738.07 1028.29 737.9 1028.25 737.73 1028.21 737.56 1028.17 737.39 1028.14 737.22 1028.11 737.05 1028.07 736.88 1028.05 736.71 1028.02 736.54 1028 736.37 1027.97 736.2 1027.95 736.04 1027.93 735.87 1027.92 735.7 1027.9 735.53 1027.89 735.37 1027.88 735.2 1027.88 735.04 1027.87 734.87 1027.86 734.71 1027.86 734.55 1027.86 734.39 1027.86 476.92 1027.86 476.7 1027.87 476.48 1027.87 476.25 1027.88 476.03 1027.89 475.8 1027.9 475.57 1027.92 475.35 1027.94 475.12 1027.96 474.89 1027.99 474.66 1028.02 474.43 1028.05 474.2 1028.08 473.97 1028.12 473.74 1028.15 473.51 1028.19 473.27 1028.24 473.04 1028.29 472.81 1028.34 472.57 1028.39 472.34 1028.45 472.11 1028.51 471.87 1028.57 471.64 1028.63 471.4 1028.7 471.17 1028.77 470.94 1028.85 470.7 1028.93 470.47 1029.01 470.24 1029.09 470 1029.18 469.77 1029.27 469.54 1029.36 469.31 1029.46 469.08 1029.56 468.85 1029.66 468.62 1029.77 468.39 1029.87 468.16 1029.99 467.94 1030.1 467.71 1030.22 467.49 1030.34 467.26 1030.46 467.04 1030.59 466.82 1030.72 466.6 1030.85 466.38 1030.99 466.17 1031.13 465.95 1031.27 465.74 1031.42 465.52 1031.56 465.31 1031.71 465.1 1031.87 464.89 1032.02 464.69 1032.18 464.49 1032.35 464.28 1032.51 464.08 1032.68 463.88 1032.85 463.69 1033.02 463.5 1033.19 463.3 1033.37 463.11 1033.55 462.93 1033.73 462.74 1033.92 462.56 1034.11 462.38 1034.3 462.2 1034.49 462.03 1034.68 461.86 1034.88 461.69 1035.07 461.52 1035.27 461.35 1035.47 461.19 1035.68 461.03 1035.88 460.88 1036.09 460.72 1036.3 460.57 1036.51 460.43 1036.73 460.28 1036.94 460.14 1037.16 460 1037.37 459.86 1037.59 459.73 1037.81 459.6 1038.03 459.47 1038.25 459.35 1038.48 459.23 1038.7 459.11 1038.93 459 1039.15 458.88 1039.38 458.77 1039.61 458.67 1039.84 458.57 1040.07 458.47 1040.3 458.37 1040.53 458.28 1040.76 458.19 1040.99 458.1 1041.23 458.02 1041.46 457.94 1041.69 457.86 1041.93 457.78 1042.16 457.71 1042.39 457.64 1042.63 457.58 1042.86 457.52 1043.1 457.46 1043.33 457.4 1043.56 457.35 1043.8 457.3 1044.03 457.25 1044.26 457.2 1044.5 457.16 1044.73 457.12 1044.96 457.09 1045.19 457.06 1045.42 457.02 1045.65 457 1045.88 456.97 1046.11 456.95 1046.34 456.93 1046.57 456.92 1046.79 456.9 1047.02 456.89 1047.24 456.88 1047.47 456.88 1047.69 456.87 1047.91 456.87 1092.98 456.87 1138.05 456.87 1138.28 456.87 1138.5 456.88 1138.72 456.88 1138.95 456.89 1139.17 456.9 1139.4 456.92 1139.63 456.93 1139.85 456.95 1140.08 456.97 1140.31 457 1140.54 457.02 1140.77 457.06 1141.01 457.09 1141.24 457.12 1141.47 457.16 1141.7 457.2 1141.93 457.25 1142.17 457.3 1142.4 457.35 1142.63 457.4 1142.87 457.46 1143.1 457.52 1143.34 457.58 1143.57 457.64 1143.8 457.71 1144.04 457.78 1144.27 457.86 1144.5 457.94 1144.74 458.02 1144.97 458.1 1145.2 458.19 1145.43 458.28 1145.66 458.37 1145.89 458.47 1146.13 458.57 1146.36 458.67 1146.58 458.77 1146.81 458.88 1147.04 459 1147.26 459.11 1147.49 459.23 1147.71 459.35 1147.93 459.47 1148.15 459.6 1148.37 459.73 1148.59 459.86 1148.81 460 1149.03 460.14 1149.24 460.28 1149.45 460.43 1149.66 460.57 1149.87 460.72 1150.08 460.88 1150.29 461.03 1150.49 461.19 1150.69 461.35 1150.89 461.52 1151.09 461.69 1151.29 461.86 1151.48 462.03 1151.67 462.2 1151.86 462.38 1152.05 462.56 1152.23 462.74 1152.41 462.93 1152.59 463.11 1152.77 463.3 1152.95 463.5 1153.12 463.69 1153.29 463.88 1153.46 464.08 1153.62 464.28 1153.78 464.49 1153.94 464.69 1154.1 464.89 1154.25 465.1 1154.4 465.31 1154.55 465.52 1154.69 465.74 1154.84 465.95 1154.97 466.17 1155.11 466.38 1155.24 466.6 1155.38 466.82 1155.5 467.04 1155.63 467.26 1155.75 467.49 1155.87 467.71 1155.98 467.94 1156.09 468.16 1156.2 468.39 1156.31 468.62 1156.41 468.85 1156.51 469.08 1156.6 469.31 1156.7 469.54 1156.79 469.77 1156.87 470 1156.96 470.24 1157.04 470.47 1157.12 470.7 1157.19 470.94 1157.26 471.17 1157.33 471.4 1157.4 471.64 1157.46 471.87 1157.52 472.11 1157.57 472.34 1157.63 472.57 1157.68 472.81 1157.72 473.04 1157.77 473.27 1157.81 473.51 1157.85 473.74 1157.89 473.97 1157.92 474.2 1157.95 474.43 1157.98 474.66 1158 474.89 1158.02 475.12 1158.04 475.35 1158.06 475.57 1158.07 475.8 1158.09 476.03 1158.09 476.25 1158.1 476.48 1158.1 476.7 1158.11 476.92 1158.11 734.39 1158.1 734.55 1158.1 734.71 1158.1 734.87 1158.09 735.04 1158.08 735.2 1158.07 735.37 1158.06 735.53 1158.05 735.7 1158.03 735.87 1158.01 736.04 1157.99 736.2 1157.97 736.37 1157.94 736.54 1157.92 736.71 1157.89 736.88 1157.86 737.05 1157.83 737.22 1157.79 737.39 1157.76 737.56 1157.72 737.73 1157.68 737.9 1157.63 738.07 1157.59 738.24 1157.54 738.41 1157.49 738.59 1157.44 738.76 1157.38 738.93 1157.33 739.1 1157.27 739.27 1157.21 739.44 1157.14 739.61 1157.08 739.78 1157.01 739.94 1156.94 740.11 1156.87 740.28 1156.79 740.45 1156.71 740.62 1156.63 740.78 1156.55 740.95 1156.47 741.11 1156.38 741.27 1156.29 741.44 1156.2 741.6 1156.11 741.76 1156.02 741.92 1155.92 742.08 1155.82 742.24 1155.72 742.4 1155.61 742.55 1155.51 742.71 1155.4 742.87 1155.29 743.02 1155.18 743.17 1155.06 743.32 1154.95 743.47 1154.83 743.62 1154.71 743.76 1154.59 743.91 1154.46 744.05 1154.34 744.19 1154.21 744.33 1154.08 744.47 1153.95 744.61 1153.82 744.74 1153.68 744.87 1153.54 745 1153.41 745.13 1153.27 745.26 1153.13 745.39 1152.98 745.51 1152.84 745.63 1152.69 745.75 1152.54 745.87 1152.39 745.99 1152.24 746.1 1152.09 746.22 1151.94 746.33 1151.79 746.43 1151.63 746.54 1151.47 746.64 1151.32 746.74 1151.16 746.84 1151 746.94 1150.84 747.04 1150.68 747.13 1150.51 747.22 1150.35 747.31 1150.19 747.39 1150.02 747.48 1149.86 747.56 1149.69 747.64 1149.52 747.72 1149.36 747.79 1149.19 747.86 1149.02 747.93 1148.85 748 1148.68 748.07 1148.51 748.13 1148.34 748.19 1148.17 748.25 1148 748.31 1147.83 748.36 1147.66 748.41 1147.49 748.46 1147.32 748.51 1147.15 748.56 1146.98 748.6 1146.81 748.64 1146.64 748.68 1146.46 748.72 1146.3 748.75 1146.13 748.78 1145.95 748.82 1145.79 748.84 1145.62 748.87 1145.45 748.89 1145.28 748.92 1145.11 748.94 1144.94 748.96 1144.78 748.97 1144.61 748.99 1144.44 749 1144.28 749.01 1144.11 749.02 1143.95 749.02 1143.79 749.03 1143.62 749.03 1143.46 749.03 1138.06 749.03"/></g><g id="POLYLINE-3" data-name="POLYLINE"><polygon class="cls-2" points="1138.06 749.03 1143.46 749.03 1143.62 749.03 1143.79 749.03 1143.95 749.02 1144.11 749.02 1144.28 749.01 1144.44 749 1144.61 748.99 1144.78 748.97 1144.94 748.96 1145.11 748.94 1145.28 748.92 1145.45 748.89 1145.62 748.87 1145.79 748.84 1145.95 748.82 1146.13 748.78 1146.3 748.75 1146.46 748.72 1146.64 748.68 1146.81 748.64 1146.98 748.6 1147.15 748.56 1147.32 748.51 1147.49 748.46 1147.66 748.41 1147.83 748.36 1148 748.31 1148.17 748.25 1148.34 748.19 1148.51 748.13 1148.68 748.07 1148.85 748 1149.02 747.93 1149.19 747.86 1149.36 747.79 1149.52 747.72 1149.69 747.64 1149.86 747.56 1150.02 747.48 1150.19 747.39 1150.35 747.31 1150.51 747.22 1150.68 747.13 1150.84 747.04 1151 746.94 1151.16 746.84 1151.32 746.74 1151.47 746.64 1151.63 746.54 1151.79 746.43 1151.94 746.33 1152.09 746.22 1152.24 746.1 1152.39 745.99 1152.54 745.87 1152.69 745.75 1152.84 745.63 1152.98 745.51 1153.13 745.39 1153.27 745.26 1153.41 745.13 1153.54 745 1153.68 744.87 1153.82 744.74 1153.95 744.61 1154.08 744.47 1154.21 744.33 1154.34 744.19 1154.46 744.05 1154.59 743.91 1154.71 743.76 1154.83 743.62 1154.95 743.47 1155.06 743.32 1155.18 743.17 1155.29 743.02 1155.4 742.87 1155.51 742.71 1155.61 742.55 1155.72 742.4 1155.82 742.24 1155.92 742.08 1156.02 741.92 1156.11 741.76 1156.2 741.6 1156.29 741.44 1156.38 741.27 1156.47 741.11 1156.55 740.95 1156.63 740.78 1156.71 740.62 1156.79 740.45 1156.87 740.28 1156.94 740.11 1157.01 739.94 1157.08 739.78 1157.14 739.61 1157.21 739.44 1157.27 739.27 1157.33 739.1 1157.38 738.93 1157.44 738.76 1157.49 738.59 1157.54 738.41 1157.59 738.24 1157.63 738.07 1157.68 737.9 1157.72 737.73 1157.76 737.56 1157.79 737.39 1157.83 737.22 1157.86 737.05 1157.89 736.88 1157.92 736.71 1157.94 736.54 1157.97 736.37 1157.99 736.2 1158.01 736.04 1158.03 735.87 1158.05 735.7 1158.06 735.53 1158.07 735.37 1158.08 735.2 1158.09 735.04 1158.1 734.87 1158.1 734.71 1158.1 734.55 1158.11 734.39 1158.11 476.92 1158.1 476.7 1158.1 476.48 1158.09 476.25 1158.09 476.03 1158.07 475.8 1158.06 475.57 1158.04 475.35 1158.02 475.12 1158 474.89 1157.98 474.66 1157.95 474.43 1157.92 474.2 1157.89 473.97 1157.85 473.74 1157.81 473.51 1157.77 473.27 1157.72 473.04 1157.68 472.81 1157.63 472.57 1157.57 472.34 1157.52 472.11 1157.46 471.87 1157.4 471.64 1157.33 471.4 1157.26 471.17 1157.19 470.94 1157.12 470.7 1157.04 470.47 1156.96 470.24 1156.87 470 1156.79 469.77 1156.7 469.54 1156.6 469.31 1156.51 469.08 1156.41 468.85 1156.31 468.62 1156.2 468.39 1156.09 468.16 1155.98 467.94 1155.87 467.71 1155.75 467.49 1155.63 467.26 1155.5 467.04 1155.38 466.82 1155.24 466.6 1155.11 466.38 1154.97 466.17 1154.84 465.95 1154.69 465.74 1154.55 465.52 1154.4 465.31 1154.25 465.1 1154.1 464.89 1153.94 464.69 1153.78 464.49 1153.62 464.28 1153.46 464.08 1153.29 463.88 1153.12 463.69 1152.95 463.5 1152.77 463.3 1152.59 463.11 1152.41 462.93 1152.23 462.74 1152.05 462.56 1151.86 462.38 1151.67 462.2 1151.48 462.03 1151.29 461.86 1151.09 461.69 1150.89 461.52 1150.69 461.35 1150.49 461.19 1150.29 461.03 1150.08 460.88 1149.87 460.72 1149.66 460.57 1149.45 460.43 1149.24 460.28 1149.03 460.14 1148.81 460 1148.59 459.86 1148.37 459.73 1148.15 459.6 1147.93 459.47 1147.71 459.35 1147.49 459.23 1147.26 459.11 1147.04 459 1146.81 458.88 1146.58 458.77 1146.36 458.67 1146.13 458.57 1145.89 458.47 1145.66 458.37 1145.43 458.28 1145.2 458.19 1144.97 458.1 1144.74 458.02 1144.5 457.94 1144.27 457.86 1144.04 457.78 1143.8 457.71 1143.57 457.64 1143.34 457.58 1143.1 457.52 1142.87 457.46 1142.63 457.4 1142.4 457.35 1142.17 457.3 1141.93 457.25 1141.7 457.2 1141.47 457.16 1141.24 457.12 1141.01 457.09 1140.77 457.06 1140.54 457.02 1140.31 457 1140.08 456.97 1139.85 456.95 1139.63 456.93 1139.4 456.92 1139.17 456.9 1138.95 456.89 1138.72 456.88 1138.5 456.88 1138.28 456.87 1138.05 456.87 1092.98 456.87 1047.91 456.87 1047.69 456.87 1047.47 456.88 1047.24 456.88 1047.02 456.89 1046.79 456.9 1046.57 456.92 1046.34 456.93 1046.11 456.95 1045.88 456.97 1045.65 457 1045.42 457.02 1045.19 457.06 1044.96 457.09 1044.73 457.12 1044.5 457.16 1044.26 457.2 1044.03 457.25 1043.8 457.3 1043.56 457.35 1043.33 457.4 1043.1 457.46 1042.86 457.52 1042.63 457.58 1042.39 457.64 1042.16 457.71 1041.93 457.78 1041.69 457.86 1041.46 457.94 1041.23 458.02 1040.99 458.1 1040.76 458.19 1040.53 458.28 1040.3 458.37 1040.07 458.47 1039.84 458.57 1039.61 458.67 1039.38 458.77 1039.15 458.88 1038.93 459 1038.7 459.11 1038.48 459.23 1038.25 459.35 1038.03 459.47 1037.81 459.6 1037.59 459.73 1037.37 459.86 1037.16 460 1036.94 460.14 1036.73 460.28 1036.51 460.43 1036.3 460.57 1036.09 460.72 1035.88 460.88 1035.68 461.03 1035.47 461.19 1035.27 461.35 1035.07 461.52 1034.88 461.69 1034.68 461.86 1034.49 462.03 1034.3 462.2 1034.11 462.38 1033.92 462.56 1033.73 462.74 1033.55 462.93 1033.37 463.11 1033.19 463.3 1033.02 463.5 1032.85 463.69 1032.68 463.88 1032.51 464.08 1032.35 464.28 1032.18 464.49 1032.02 464.69 1031.87 464.89 1031.71 465.1 1031.56 465.31 1031.42 465.52 1031.27 465.74 1031.13 465.95 1030.99 466.17 1030.85 466.38 1030.72 466.6 1030.59 466.82 1030.46 467.04 1030.34 467.26 1030.22 467.49 1030.1 467.71 1029.99 467.94 1029.87 468.16 1029.77 468.39 1029.66 468.62 1029.56 468.85 1029.46 469.08 1029.36 469.31 1029.27 469.54 1029.18 469.77 1029.09 470 1029.01 470.24 1028.93 470.47 1028.85 470.7 1028.77 470.94 1028.7 471.17 1028.63 471.4 1028.57 471.64 1028.51 471.87 1028.45 472.11 1028.39 472.34 1028.34 472.57 1028.29 472.81 1028.24 473.04 1028.19 473.27 1028.15 473.51 1028.12 473.74 1028.08 473.97 1028.05 474.2 1028.02 474.43 1027.99 474.66 1027.96 474.89 1027.94 475.12 1027.92 475.35 1027.9 475.57 1027.89 475.8 1027.88 476.03 1027.87 476.25 1027.87 476.48 1027.86 476.7 1027.86 476.92 1027.86 734.39 1027.86 734.55 1027.86 734.71 1027.87 734.87 1027.88 735.04 1027.88 735.2 1027.89 735.37 1027.9 735.53 1027.92 735.7 1027.93 735.87 1027.95 736.04 1027.97 736.2 1028 736.37 1028.02 736.54 1028.05 736.71 1028.07 736.88 1028.11 737.05 1028.14 737.22 1028.17 737.39 1028.21 737.56 1028.25 737.73 1028.29 737.9 1028.33 738.07 1028.38 738.24 1028.43 738.41 1028.48 738.59 1028.53 738.76 1028.58 738.93 1028.64 739.1 1028.7 739.27 1028.76 739.44 1028.82 739.61 1028.89 739.78 1028.96 739.94 1029.03 740.11 1029.1 740.28 1029.17 740.45 1029.25 740.62 1029.33 740.78 1029.41 740.95 1029.5 741.11 1029.58 741.27 1029.67 741.44 1029.76 741.6 1029.85 741.76 1029.95 741.92 1030.05 742.08 1030.15 742.24 1030.25 742.4 1030.35 742.55 1030.46 742.71 1030.57 742.87 1030.67 743.02 1030.79 743.17 1030.9 743.32 1031.02 743.47 1031.13 743.62 1031.26 743.76 1031.38 743.91 1031.5 744.05 1031.63 744.19 1031.76 744.33 1031.88 744.47 1032.02 744.61 1032.15 744.74 1032.29 744.87 1032.42 745 1032.56 745.13 1032.7 745.26 1032.84 745.39 1032.98 745.51 1033.13 745.63 1033.27 745.75 1033.42 745.87 1033.57 745.99 1033.72 746.1 1033.87 746.22 1034.03 746.33 1034.18 746.43 1034.34 746.54 1034.49 746.64 1034.65 746.74 1034.81 746.84 1034.97 746.94 1035.13 747.04 1035.29 747.13 1035.45 747.22 1035.62 747.31 1035.78 747.39 1035.94 747.48 1036.11 747.56 1036.28 747.64 1036.44 747.72 1036.61 747.79 1036.78 747.86 1036.95 747.93 1037.12 748 1037.28 748.07 1037.45 748.13 1037.62 748.19 1037.79 748.25 1037.96 748.31 1038.13 748.36 1038.3 748.41 1038.48 748.46 1038.65 748.51 1038.82 748.56 1038.99 748.6 1039.16 748.64 1039.33 748.68 1039.5 748.72 1039.67 748.75 1039.84 748.78 1040.01 748.82 1040.18 748.84 1040.35 748.87 1040.52 748.89 1040.69 748.92 1040.86 748.94 1041.02 748.96 1041.19 748.97 1041.36 748.99 1041.52 749 1041.69 749.01 1041.85 749.02 1042.02 749.02 1042.18 749.03 1042.34 749.03 1042.51 749.03 1047.9 749.03 1047.92 749.17 1047.95 749.31 1047.97 749.45 1048 749.6 1048.02 749.74 1048.05 749.88 1048.08 750.02 1048.11 750.16 1048.15 750.31 1048.18 750.45 1048.22 750.59 1048.26 750.74 1048.3 750.88 1048.34 751.02 1048.38 751.16 1048.43 751.3 1048.47 751.45 1048.52 751.59 1048.57 751.73 1048.63 751.88 1048.68 752.02 1048.73 752.16 1048.79 752.3 1048.85 752.44 1048.91 752.58 1048.97 752.72 1049.04 752.86 1049.1 753 1049.17 753.14 1049.24 753.28 1049.31 753.42 1049.38 753.55 1049.46 753.69 1049.53 753.83 1049.61 753.96 1049.69 754.1 1049.77 754.23 1049.85 754.36 1049.94 754.5 1050.02 754.63 1050.11 754.76 1050.2 754.89 1050.29 755.02 1050.38 755.15 1050.47 755.27 1050.57 755.4 1050.67 755.53 1050.77 755.65 1050.87 755.77 1050.97 755.9 1051.07 756.02 1051.17 756.14 1051.28 756.26 1051.39 756.38 1051.5 756.49 1051.61 756.61 1051.72 756.72 1051.83 756.83 1051.95 756.95 1052.06 757.06 1052.18 757.16 1052.3 757.27 1052.42 757.38 1052.54 757.48 1052.66 757.59 1052.78 757.69 1052.9 757.79 1053.03 757.88 1053.16 757.98 1053.28 758.08 1053.41 758.17 1053.54 758.26 1053.67 758.36 1053.8 758.45 1053.93 758.53 1054.07 758.62 1054.2 758.7 1054.33 758.79 1054.47 758.87 1054.61 758.95 1054.74 759.02 1054.88 759.1 1055.02 759.17 1055.16 759.25 1055.3 759.32 1055.43 759.39 1055.58 759.46 1055.72 759.52 1055.86 759.59 1056 759.65 1056.14 759.71 1056.28 759.77 1056.43 759.82 1056.57 759.88 1056.71 759.93 1056.86 759.99 1057 760.04 1057.15 760.08 1057.29 760.13 1057.43 760.18 1057.58 760.22 1057.72 760.26 1057.87 760.3 1058.01 760.34 1058.16 760.38 1058.3 760.41 1058.45 760.44 1058.59 760.48 1058.74 760.51 1058.88 760.53 1059.03 760.56 1059.17 760.59 1059.31 760.61 1059.46 760.63 1059.6 760.65 1059.74 760.67 1059.89 760.69 1060.03 760.7 1060.17 760.72 1060.31 760.73 1060.45 760.74 1060.6 760.75 1060.74 760.76 1060.88 760.76 1061.02 760.77 1061.15 760.77 1061.29 760.77 1061.43 760.77 1092.98 760.77 1124.53 760.77 1124.67 760.77 1124.81 760.77 1124.95 760.77 1125.09 760.76 1125.23 760.76 1125.37 760.75 1125.51 760.74 1125.65 760.73 1125.79 760.72 1125.94 760.7 1126.08 760.69 1126.22 760.67 1126.36 760.65 1126.51 760.63 1126.65 760.61 1126.8 760.59 1126.94 760.56 1127.08 760.53 1127.23 760.51 1127.37 760.48 1127.52 760.44 1127.66 760.41 1127.81 760.38 1127.95 760.34 1128.1 760.3 1128.24 760.26 1128.39 760.22 1128.53 760.18 1128.67 760.13 1128.82 760.08 1128.96 760.04 1129.11 759.99 1129.25 759.93 1129.39 759.88 1129.54 759.82 1129.68 759.77 1129.82 759.71 1129.97 759.65 1130.11 759.59 1130.25 759.52 1130.39 759.46 1130.53 759.39 1130.67 759.32 1130.81 759.25 1130.95 759.17 1131.09 759.1 1131.22 759.02 1131.36 758.95 1131.5 758.87 1131.63 758.79 1131.77 758.7 1131.9 758.62 1132.03 758.53 1132.16 758.45 1132.3 758.36 1132.42 758.26 1132.55 758.17 1132.68 758.08 1132.81 757.98 1132.94 757.88 1133.06 757.79 1133.18 757.69 1133.31 757.59 1133.43 757.48 1133.55 757.38 1133.67 757.27 1133.79 757.16 1133.9 757.06 1134.02 756.95 1134.13 756.83 1134.25 756.72 1134.36 756.61 1134.47 756.49 1134.58 756.38 1134.68 756.26 1134.79 756.14 1134.89 756.02 1135 755.9 1135.1 755.77 1135.2 755.65 1135.3 755.53 1135.39 755.4 1135.49 755.27 1135.58 755.15 1135.68 755.02 1135.77 754.89 1135.86 754.76 1135.94 754.63 1136.03 754.5 1136.11 754.36 1136.2 754.23 1136.28 754.1 1136.36 753.96 1136.43 753.83 1136.51 753.69 1136.58 753.55 1136.66 753.42 1136.73 753.28 1136.8 753.14 1136.86 753 1136.93 752.86 1136.99 752.72 1137.05 752.58 1137.12 752.44 1137.17 752.3 1137.23 752.16 1137.29 752.02 1137.34 751.88 1137.39 751.73 1137.44 751.59 1137.49 751.45 1137.54 751.3 1137.58 751.16 1137.63 751.02 1137.67 750.88 1137.71 750.74 1137.75 750.59 1137.78 750.45 1137.82 750.31 1137.85 750.16 1137.88 750.02 1137.91 749.88 1137.94 749.74 1137.97 749.6 1137.99 749.45 1138.02 749.31 1138.04 749.17 1138.06 749.03"/></g><polyline class="cls-2" points="1078.01 760.77 1078.01 1507.64 1110.7 1507.64 1110.7 760.77"/><polyline class="cls-2" points="1078.01 1440.08 990.28 1440.08 935.79 1564.31 1252.91 1564.31 1198.42 1440.08 1110.7 1440.08"/><rect class="cls-2" x="1052.12" y="602.95" width="81.73" height="69.55" rx="12"/><path class="cls-2" d="M1133.85,456.87v6.58a12,12,0,0,1-12,12h-57.73a12,12,0,0,1-12-12v-6.58"/><path class="cls-3" d="M1065.27,555.51a12.37,12.37,0,0,1,3.32-1.73v2.09h-.35a2.84,2.84,0,0,0-.58,0,.63.63,0,0,0-.54.67c0,.35.23.49.53.54l.61.1c.74.13.87.32.73,1.07s-.27,1.48-.41,2.22q-1.15,6.16-2.32,12.34c-.15.8-.29,1.59-.44,2.41h3.8c.26-1.4.52-2.77.77-4.14s.52-2.74.78-4.16h1.3a13.81,13.81,0,0,0,4.51-.75,6.69,6.69,0,0,0,3.54-2.61l1.12.56a.56.56,0,0,0-.07.18c-.57,2.78-1.14,5.56-1.69,8.35a2.13,2.13,0,0,0,2,2.73,7,7,0,0,0,3.76-.59c.64-.29,1.24-.65,1.89-1-.09.48-.18.95-.28,1.44l.4,0c.94,0,1.87,0,2.81,0,.32,0,.4-.12.46-.4.62-3.08,1.25-6.16,1.87-9.24l1.51.3q-.7,3.56-1.43,7.11c-.14.72-.28,1.44-.43,2.16a.47.47,0,0,0,.14,0h3.25c.09,0,.23-.16.25-.26.21-1,.39-1.93.6-2.89.3-1.36.58-2.73,1-4.06a4.13,4.13,0,0,1,1.58-2.31c.6-.41.9-.36,1.3.23a1.52,1.52,0,0,0,1.28.73,2.29,2.29,0,0,0,1.69-.66,2.69,2.69,0,0,0,.27-.32l1.09,0a7.48,7.48,0,0,0-1.65,5.23,4.43,4.43,0,0,0,4.53,4.3,6.43,6.43,0,0,0,6-3.73,1.14,1.14,0,0,0,.16-.38l.83.17c-.17.83-.33,1.65-.5,2.48-.1.46-.18.92-.28,1.43h3c.67,0,.54.09.67-.58q1.53-7.5,3-15c.14-.69.28-1.38.42-2.09l1.48.3q-1.5,7.53-3,15.06c-.15.76-.3,1.52-.46,2.31l.4,0c.93,0,1.85,0,2.78,0l1.31,1.83a16.44,16.44,0,0,1-1.89.73,29.6,29.6,0,0,1-6.32,1.18,109.45,109.45,0,0,1-11.88.26c-2.34,0-4.68-.13-7-.21-2-.07-3.9-.17-5.86-.21-3.21-.07-6.41-.18-9.62-.14-3,0-6,.18-9,.39a37.73,37.73,0,0,0-13.54,3.59c-1,.49-2.11.93-3.22,1.42.25-1.11.5-2.15.73-3.2.82-3.81,1.63-7.62,2.48-11.42a44.45,44.45,0,0,1,2.62-8.5A13.45,13.45,0,0,1,1065.27,555.51Z"/><path class="cls-3" d="M1081.78,564a.47.47,0,0,0-.13.15l-1.12-.56a6,6,0,0,0,.66-1.42,4.28,4.28,0,0,0-2.7-5.7,10.61,10.61,0,0,0-3.83-.62c-2,0-4,0-6.06,0v-2.09a17.39,17.39,0,0,1,2.17-.61,29.15,29.15,0,0,1,5.9-.58c1.76,0,3.52,0,5.28,0,2.62.06,5.23.14,7.84.22,2.38.07,4.76.17,7.14.21,2.56,0,5.13,0,7.69,0h1.48l-2.83.51.45.73c0,.08.12.14.13.22a8.74,8.74,0,0,0,1,1.85c.36.77.85,1.49,1.3,2.25l1.58-.16a7.51,7.51,0,0,0,4.09-1.47,5.73,5.73,0,0,0,2.22-4.22c0-.31.11-.45.43-.49a68.38,68.38,0,0,0,11.69-2.52c2.52-.78,5-1.7,7.47-2.56l.43-.15c0,.53-.07,1-.12,1.49-.28,2.73-.54,5.46-.86,8.19a64.14,64.14,0,0,1-2,10.54,19.14,19.14,0,0,1-2.88,6.13,12.08,12.08,0,0,1-4.66,3.72l-1.31-1.83c.33,0,.45-.11.51-.43q1.7-8.43,3.4-16.85c.11-.56.22-1.13.34-1.73a5.72,5.72,0,0,0-3.39.81,1.12,1.12,0,0,0-.55.8l-1.48-.3.27-1.31a5.47,5.47,0,0,0-3.55.93,1,1,0,0,0-.35.55q-1.4,6.79-2.76,13.61l-.83-.17a.59.59,0,0,0,0-.13.71.71,0,0,0-.22-.51c-.13-.07-.38,0-.55.09s-.15.16-.2.25a4,4,0,0,1-3.22,2,2.77,2.77,0,0,1-2.88-1.66,4.11,4.11,0,0,1-.29-2.14c0-.27.12-.34.38-.34h3.5c1.13,0,2.26,0,3.39,0,.38,0,.56-.09.57-.48s.08-1,0-1.56a3.73,3.73,0,0,0-2.57-3.43,5.57,5.57,0,0,0-3.26,0,7.3,7.3,0,0,0-3.72,2.54l-1.09,0a1.74,1.74,0,0,0-1-2.72,3.53,3.53,0,0,0-3.13.65,20.9,20.9,0,0,0-1.65,1.43c.13-.69.28-1.42.42-2.15a5.36,5.36,0,0,0-3.32.74,1,1,0,0,0-.51.74c-.1.51-.2,1-.31,1.53l-1.51-.3c.17-.85.34-1.7.5-2.56-.06,0-.09-.05-.13-.05a5.41,5.41,0,0,0-3.45.92.82.82,0,0,0-.28.44c-.52,2.54-1,5.09-1.55,7.63a.74.74,0,0,1-.21.4,5.21,5.21,0,0,1-3.19,1.27c-.78,0-1.14-.42-1-1.19q.73-3.66,1.48-7.32c.14-.69.28-1.39.42-2.15A5.57,5.57,0,0,0,1081.78,564Z"/><path class="cls-1" d="M1071.18,567c-.26,1.42-.52,2.79-.78,4.17s-.51,2.74-.77,4.13h-3.8c.15-.81.29-1.61.44-2.4q1.15-6.18,2.32-12.35c.13-.74.28-1.48.41-2.22s0-.94-.73-1.07c-.21,0-.41-.05-.61-.09s-.53-.19-.53-.54a.65.65,0,0,1,.54-.68,2.84,2.84,0,0,1,.58,0c2.14,0,4.27,0,6.41,0a10.65,10.65,0,0,1,3.83.62,4.28,4.28,0,0,1,2.7,5.7,6.29,6.29,0,0,1-4.2,4,13.8,13.8,0,0,1-4.51.74Zm.31-1.35c.74,0,1.43,0,2.1,0a3.89,3.89,0,0,0,3.21-1.92,7.21,7.21,0,0,0,1-4.08,2.37,2.37,0,0,0-2.19-2.42c-.67-.1-1.38,0-2.06-.1-.34,0-.46.1-.52.43-.34,1.93-.71,3.86-1.08,5.79Z"/><path class="cls-1" d="M1085.43,563.06c-.15.75-.28,1.45-.42,2.15q-.75,3.66-1.48,7.31c-.16.77.19,1.22,1,1.19a5.16,5.16,0,0,0,3.19-1.26.74.74,0,0,0,.21-.41c.52-2.54,1-5.08,1.55-7.63a.79.79,0,0,1,.28-.43,5.48,5.48,0,0,1,3.45-.93l.13.06c-.16.85-.33,1.71-.5,2.56q-.94,4.62-1.87,9.24c-.06.28-.14.4-.46.39-.94,0-1.87,0-2.81,0h-.4l.28-1.44c-.65.34-1.25.7-1.89,1a7,7,0,0,1-3.76.6,2.14,2.14,0,0,1-2-2.74c.55-2.78,1.12-5.56,1.69-8.34a.54.54,0,0,1,.2-.33A5.57,5.57,0,0,1,1085.43,563.06Z"/><path class="cls-1" d="M1110.42,568.76h-3.5c-.26,0-.35.07-.38.34a4,4,0,0,0,.29,2.13,2.74,2.74,0,0,0,2.88,1.66,3.91,3.91,0,0,0,3.21-2c.06-.09.12-.22.21-.25s.42-.16.55-.09a.69.69,0,0,1,.22.51,1.12,1.12,0,0,1-.18.51,6.44,6.44,0,0,1-6,3.72,4.42,4.42,0,0,1-4.52-4.3,7.67,7.67,0,0,1,5.37-7.77,5.57,5.57,0,0,1,3.26,0,3.71,3.71,0,0,1,2.57,3.42c0,.52,0,1,0,1.56s-.19.5-.57.49C1112.68,568.75,1111.55,568.76,1110.42,568.76Zm-3.57-1.26c.06,0,.08.06.1.06,1.39,0,2.77,0,4.15,0a.35.35,0,0,0,.25-.22,10.53,10.53,0,0,0,.12-1.77,1.32,1.32,0,0,0-1.57-1.33,2.27,2.27,0,0,0-1.38.57A5.62,5.62,0,0,0,1106.85,567.5Z"/><path class="cls-1" d="M1121.37,556.29c-.24,1.18-.46,2.29-.69,3.41q-1.52,7.51-3,15c-.13.66,0,.57-.67.57h-3c.1-.5.18-1,.28-1.42q1.62-8.05,3.26-16.1a1,1,0,0,1,.35-.55A5.53,5.53,0,0,1,1121.37,556.29Z"/><path class="cls-1" d="M1119.09,575.27c.16-.79.31-1.55.46-2.3q1.53-7.53,3-15.06a1.09,1.09,0,0,1,.55-.8,5.73,5.73,0,0,1,3.39-.82l-.34,1.74q-1.71,8.41-3.4,16.84c-.06.33-.18.44-.52.43-.92,0-1.84,0-2.77,0Z"/><path class="cls-1" d="M1092.47,575.24c.15-.72.29-1.45.43-2.17.58-2.88,1.17-5.75,1.74-8.63a1.06,1.06,0,0,1,.51-.75,5.42,5.42,0,0,1,3.32-.73l-.42,2.14c.53-.46,1-1,1.64-1.42a3.56,3.56,0,0,1,3.14-.66,1.77,1.77,0,0,1,.69,3.05,2.37,2.37,0,0,1-1.69.66,1.52,1.52,0,0,1-1.28-.73c-.41-.59-.71-.64-1.3-.23a4.11,4.11,0,0,0-1.58,2.3c-.38,1.34-.66,2.71-1,4.07-.21,1-.39,1.93-.6,2.89a.41.41,0,0,1-.25.26h-3.25A1.3,1.3,0,0,1,1092.47,575.24Z"/><path class="cls-3" d="M1071.49,565.61l.42-2.31c.37-1.93.74-3.86,1.08-5.79.06-.33.18-.45.52-.43.68,0,1.39,0,2.06.1a2.37,2.37,0,0,1,2.19,2.42,7.21,7.21,0,0,1-1,4.08,3.89,3.89,0,0,1-3.21,1.92C1072.92,565.66,1072.23,565.61,1071.49,565.61Z"/><path class="cls-3" d="M1106.85,567.5a5.62,5.62,0,0,1,1.67-2.69,2.27,2.27,0,0,1,1.38-.57,1.32,1.32,0,0,1,1.57,1.33,10.53,10.53,0,0,1-.12,1.77.35.35,0,0,1-.25.22c-1.38,0-2.76,0-4.15,0C1106.93,567.56,1106.91,567.54,1106.85,567.5Z"/><path class="cls-4" d="M1548.3,656.93l-20.13-1.17a7.77,7.77,0,0,0-7.78,7.77V767.07a13.47,13.47,0,0,0,13.47,13.47l14.44,1.93Z"/><polyline class="cls-4" points="1345.66 758.25 1343.33 757.94 1339.1 644.11"/><path class="cls-4" d="M1339.1,644.11l14.9,1.1a7,7,0,0,1,7,7l4.74,99a8.57,8.57,0,0,1-8.57,8.57l-11.5-1.51"/><line class="cls-4" x1="1599.14" y1="639.15" x2="1548.3" y2="656.93"/><polyline class="cls-4" points="1339.1 644.11 1401.42 629.36 1599.14 639.15"/><line class="cls-4" x1="1548.3" y1="791.51" x2="1548.3" y2="782.47"/><polyline class="cls-4" points="1345.66 758.25 1346.44 766.76 1548.3 791.51"/><polyline class="cls-4" points="1548.3 791.51 1599.14 763.94 1599.14 639.15"/><line class="cls-4" x1="1361.9" y1="670.95" x2="1520.39" y2="681.68"/><line class="cls-4" x1="1361" y1="652.22" x2="1520.39" y2="662.56"/><line class="cls-4" x1="1401.42" y1="629.36" x2="1401.42" y2="637.11"/><polyline class="cls-4" points="1359.65 648.1 1401.42 637.11 1579.66 645.96"/><polyline class="cls-2" points="1452.77 779.79 1452.77 1485.21 1485.46 1485.21 1485.46 783.8"/><polyline class="cls-2" points="1452.77 1427.43 1401.42 1421.48 1352.42 1531 1534.35 1555.52 1562.07 1440.08 1485.46 1431.21"/><line class="cls-4" x1="1365.74" y1="751.19" x2="1520.39" y2="767.07"/><path class="cls-5" d="M1361.9,671a29.81,29.81,0,0,0,5.65,6.23c1.74,1.44,2.9,2.06,8,4.91,9.42,5.25,8.29,4.71,10.72,6,4.84,2.55,5.59,2.74,9.81,5.09,4.78,2.66,6.46,3.9,8,5.26a18.62,18.62,0,0,1,4.9,6,16.4,16.4,0,0,1,1.64,7.08c0,4.33-1.83,7.38-3.82,10.72a36.14,36.14,0,0,1-8.35,9.62c-2.65,2.11-3,1.76-11.08,6.36-6.78,3.86-7.27,4.53-10.54,6a47.4,47.4,0,0,1-11.24,3.44"/><path class="cls-5" d="M1366.08,671.24a13.85,13.85,0,0,0,5.65,5.4,78,78,0,0,0,11.62,4.54,69.22,69.22,0,0,1,15.62,7.08c3.93,2.45,6.78,4.23,9.45,7.81a26.34,26.34,0,0,1,4.9,12.9c.34,2.91.89,7.66-1.45,12.53-1.22,2.53-3.72,4.77-8.72,9.26-3.3,3-3.24,2.55-9.63,8a66.72,66.72,0,0,1-6,4.91,45.88,45.88,0,0,1-8.54,4.54,56.31,56.31,0,0,1-10.57,3.27"/><path class="cls-5" d="M1519.39,688.62c-4.55.57-8.44,1.07-11.44,1.46-8.17,1-10.44,1.39-13.44,2-4.89,1-7.4,1.51-10.54,2.9a29.41,29.41,0,0,0-8.72,5.63,21.8,21.8,0,0,0-5.81,8c-1.82,4.62-1.23,8.69-.72,12.17a39.23,39.23,0,0,0,5.26,14.17,58.53,58.53,0,0,0,8.18,11.08,64.86,64.86,0,0,0,12,10,66.79,66.79,0,0,0,11.63,6.35,28.36,28.36,0,0,0,9.44,2.55,25.19,25.19,0,0,0,5.18-.18"/><path class="cls-5" d="M1520.39,692.44a82.44,82.44,0,0,0-10.08.54c-1.92.23-2.94.42-14.71,3-6,1.32-9.12,2-12.54,3.54-2.78,1.25-4.31,2-6,3.54-3.9,3.72-4.78,8.67-5.18,10.9a24.08,24.08,0,0,0-.27,6.54A24.46,24.46,0,0,0,1477,733c1.9,2.47,2.2,2.05,8.17,7.45,6.65,6,7.07,7.22,11.9,11a65.17,65.17,0,0,0,7.81,5.26c6.15,3.51,9.49,4,10.9,4.18a21.37,21.37,0,0,0,4.63,0"/><path class="cls-5" d="M1472.08,713c4,.37,8.44.78,17.52,1.54,13.18,1.1,23.9,1.93,30.79,2.45"/><path class="cls-5" d="M1413.15,707.7l4.53.54c11.41,1.36,16.19,1.51,37.6,3.27,6.2.51,9.9.83,13.1,1.13"/><path class="cls-5" d="M1363.38,702c9.34,1.56,17,2.47,22.42,3,5.58.56,8.87.75,17.44,1.64,2.57.26,4.83.51,6.8.73"/><path class="cls-5" d="M1477.65,733.86c10,1.24,18.22,2.23,30.21,2.71,5.29.22,9.66.27,12.53.28"/><path class="cls-5" d="M1407.31,727c5,.45,11.25.94,22.63,2,18.85,1.72,28.27,2.57,38.69,3.81l4.45.54"/><path class="cls-5" d="M1364.27,720.5c6.85,1.42,17.65,3.46,31.07,5.18,3.19.4,5.74.69,8.35,1"/><path class="cls-5" d="M1497.22,751.6c4,.18,8.47.2,13.36,0,4.12-.21,7.51-.55,9.81-.82"/><path class="cls-5" d="M1390.94,741l4.94.78c13.46,2,23.36,3,38.15,4.36,32.15,3,26.55,1.17,42.22,3.27,3.33.44,6.91,1,10.9,1.42"/><path class="cls-5" d="M1365,736.05c5.06,1.1,11.64,2.45,19.45,3.83"/><rect class="cls-2" x="1636.17" y="243.35" width="514.36" height="318.01"/><path class="cls-3" d="M1681.07,319.71v-27.5h3.85l.39,6.16-.72-.61a9.5,9.5,0,0,1,2.37-3.54,9.05,9.05,0,0,1,3.44-2,13.63,13.63,0,0,1,4-.6,12.66,12.66,0,0,1,5.39,1.13,9,9,0,0,1,3.87,3.43,10.81,10.81,0,0,1,1.46,5.89v17.6h-4.4V303.65q0-4.56-2-6.35a6.87,6.87,0,0,0-4.81-1.79,9.25,9.25,0,0,0-4,.93,7.77,7.77,0,0,0-3.27,3,10.49,10.49,0,0,0-1.3,5.61v14.63Z"/><path class="cls-3" d="M1726.61,320.26a14,14,0,0,1-7-1.71,11.75,11.75,0,0,1-4.75-4.92,18.06,18.06,0,0,1,0-15.34,12,12,0,0,1,4.67-4.93,13.43,13.43,0,0,1,6.77-1.7,12.47,12.47,0,0,1,6.57,1.65,10.86,10.86,0,0,1,4.15,4.48,14,14,0,0,1,1.43,6.35c0,.63,0,1.2,0,1.71s-.1,1-.17,1.37h-22.22v-3.9h20.3l-2.26.44a8.2,8.2,0,0,0-2.17-6.11,7.76,7.76,0,0,0-5.69-2.14,8.45,8.45,0,0,0-4.65,1.24,8.1,8.1,0,0,0-3,3.57,13.55,13.55,0,0,0-1.07,5.64,13.27,13.27,0,0,0,1.1,5.61,8.11,8.11,0,0,0,3.11,3.6,8.94,8.94,0,0,0,4.81,1.24,9.33,9.33,0,0,0,4.92-1.16,8.75,8.75,0,0,0,3.06-3.13l3.46,2a11.52,11.52,0,0,1-6.46,5.37A15.14,15.14,0,0,1,1726.61,320.26Z"/><path class="cls-3" d="M1768,292.21l-10.89,14.68h-.28l-9.46,12.82h-5.11l12-15.79h.33l8.25-11.71Zm-19.58,0,8.19,11.49.28.39,11.27,15.62h-5.39l-8.52-11.94-.5-.6-10.83-15Z"/><path class="cls-3" d="M1791.62,292.21V296h-19.91v-3.79Zm-10-7.81v27.72a3.75,3.75,0,0,0,1.16,3,4.4,4.4,0,0,0,3,1,6.31,6.31,0,0,0,2.75-.55,7.51,7.51,0,0,0,2.09-1.48l1.54,3.68a9.45,9.45,0,0,1-3,1.82,11.2,11.2,0,0,1-4,.66,10.29,10.29,0,0,1-3.9-.74,6.23,6.23,0,0,1-2.89-2.37,7.89,7.89,0,0,1-1.13-4.26V285.61Z"/><path class="cls-3" d="M1828.41,320.26a14,14,0,0,1-7-1.71,11.77,11.77,0,0,1-4.76-4.92,18.06,18.06,0,0,1,0-15.34,12,12,0,0,1,4.67-4.93,13.43,13.43,0,0,1,6.77-1.7,12.42,12.42,0,0,1,6.57,1.65,10.8,10.8,0,0,1,4.15,4.48,13.82,13.82,0,0,1,1.43,6.35c0,.63,0,1.2,0,1.71a11.9,11.9,0,0,1-.17,1.37h-22.22v-3.9h20.3l-2.26.44a8.2,8.2,0,0,0-2.17-6.11,7.74,7.74,0,0,0-5.69-2.14,8.45,8.45,0,0,0-4.65,1.24,8,8,0,0,0-3,3.57,15.06,15.06,0,0,0,0,11.25,8.11,8.11,0,0,0,3.11,3.6,8.94,8.94,0,0,0,4.81,1.24,9.39,9.39,0,0,0,4.93-1.16,8.8,8.8,0,0,0,3-3.13l3.46,2a11.61,11.61,0,0,1-2.66,3.25,11.74,11.74,0,0,1-3.8,2.12A15.14,15.14,0,0,1,1828.41,320.26Z"/><path class="cls-3" d="M1848.65,319.71v-27.5h3.85l.39,6.16-.72-.61a9.5,9.5,0,0,1,2.37-3.54,9.05,9.05,0,0,1,3.44-2,13.63,13.63,0,0,1,4-.6,12.66,12.66,0,0,1,5.39,1.13,9,9,0,0,1,3.88,3.43,10.89,10.89,0,0,1,1.45,5.89v17.6h-4.4V303.65q0-4.56-1.95-6.35a6.86,6.86,0,0,0-4.81-1.79,9.25,9.25,0,0,0-4,.93,7.77,7.77,0,0,0-3.27,3,10.49,10.49,0,0,0-1.3,5.61v14.63Z"/><path class="cls-3" d="M1898.81,292.21V296H1878.9v-3.79Zm-10-7.81v27.72a3.75,3.75,0,0,0,1.16,3,4.4,4.4,0,0,0,3,1,6.31,6.31,0,0,0,2.75-.55,7.51,7.51,0,0,0,2.09-1.48l1.54,3.68a9.35,9.35,0,0,1-3,1.82,11.12,11.12,0,0,1-4,.66,10.29,10.29,0,0,1-3.9-.74,6.28,6.28,0,0,1-2.89-2.37,8,8,0,0,1-1.13-4.26V285.61Z"/><path class="cls-3" d="M1905.36,319.71v-27.5h3.57l.61,4.51a8.12,8.12,0,0,1,3.38-3.8,10.86,10.86,0,0,1,5.42-1.26,13.12,13.12,0,0,1,1.57.11,4.05,4.05,0,0,1,1.45.44l-.77,4a8,8,0,0,0-1.32-.33,14.64,14.64,0,0,0-2-.11,6.9,6.9,0,0,0-3.44,1,7.89,7.89,0,0,0-2.89,3,10.12,10.12,0,0,0-1.15,5.09v14.85Z"/><path class="cls-3" d="M1950.4,292.21l-12.92,32.12a16.69,16.69,0,0,1-2.28,4.26,7.58,7.58,0,0,1-2.75,2.26,8.38,8.38,0,0,1-3.5.68,10.84,10.84,0,0,1-3.44-.52,10,10,0,0,1-2.77-1.4l1.21-3.85a7.56,7.56,0,0,0,2.33,1.46,7,7,0,0,0,2.45.46,4.63,4.63,0,0,0,2.7-.88,7.66,7.66,0,0,0,2.31-3.57l1.43-3.58-2.75-6.54-8.75-20.9h5l6.87,17.93,1.71,4.89,2-5.44,6.43-17.38Z"/><path class="cls-3" d="M1959.2,291.66a3.4,3.4,0,1,1-2.58,1A3.5,3.5,0,0,1,1959.2,291.66Zm0,21.45a3.4,3.4,0,1,1-2.58,1A3.5,3.5,0,0,1,1959.2,313.11Z"/><path class="cls-3" d="M1801.75,392.55v-24.2c0-.56,0-1.17,0-1.82s0-1.33.07-2a18.74,18.74,0,0,1-8.55,4.65l-1-3.65a8.59,8.59,0,0,0,2.28-.67,27,27,0,0,0,2.9-1.45,25.12,25.12,0,0,0,2.82-1.88,9.8,9.8,0,0,0,2-1.95h3.5v33Z"/><path class="cls-3" d="M1821.25,392.55v-24.2c0-.56,0-1.17,0-1.82s0-1.33.07-2a18.74,18.74,0,0,1-8.55,4.65l-1-3.65a8.59,8.59,0,0,0,2.28-.67,27,27,0,0,0,2.9-1.45,25.12,25.12,0,0,0,2.82-1.88,9.8,9.8,0,0,0,2-1.95h3.5v33Z"/><path class="cls-3" d="M1837.75,367.05a3.09,3.09,0,1,1-2.35.9A3.17,3.17,0,0,1,1837.75,367.05Zm0,19.5a3.09,3.09,0,1,1-2.35.9A3.17,3.17,0,0,1,1837.75,386.55Z"/><path class="cls-3" d="M1860.7,393.05a10.72,10.72,0,0,1-9-4.35q-3.35-4.35-3.35-12.65t3.35-12.65a11.41,11.41,0,0,1,17.93,0q3.32,4.35,3.32,12.65t-3.32,12.65A10.72,10.72,0,0,1,1860.7,393.05Zm0-3.6a6.74,6.74,0,0,0,4.48-1.52,9.38,9.38,0,0,0,2.75-4.53,29.82,29.82,0,0,0,0-14.7,9.35,9.35,0,0,0-2.75-4.52,7.31,7.31,0,0,0-9,0,9.2,9.2,0,0,0-2.75,4.52,29.51,29.51,0,0,0,0,14.7,9.23,9.23,0,0,0,2.75,4.53A6.69,6.69,0,0,0,1860.7,389.45Z"/><path class="cls-3" d="M1891.8,393.05a10.72,10.72,0,0,1-9-4.35q-3.35-4.35-3.35-12.65t3.35-12.65a11.41,11.41,0,0,1,17.93,0q3.32,4.35,3.32,12.65t-3.32,12.65A10.72,10.72,0,0,1,1891.8,393.05Zm0-3.6a6.74,6.74,0,0,0,4.48-1.52,9.38,9.38,0,0,0,2.75-4.53,29.82,29.82,0,0,0,0-14.7,9.35,9.35,0,0,0-2.75-4.52,7.31,7.31,0,0,0-9,0,9.2,9.2,0,0,0-2.75,4.52,29.51,29.51,0,0,0,0,14.7,9.23,9.23,0,0,0,2.75,4.53A6.69,6.69,0,0,0,1891.8,389.45Z"/><path class="cls-3" d="M1923.7,392.55l12.85-33h4.75l12.8,33h-4.25l-9.4-24.6-1.55-4.6h-.1l-1.45,4.45-9.45,24.75Zm6.3-9.15v-3.75h17.65v3.75Z"/><path class="cls-3" d="M1992.7,359.55v33h-3.8V371.8l.45-8.7h0l-10.85,29.45h-3.4L1964.2,363.1h0l.45,8.7v20.75h-3.8v-33H1967l7.25,20.05,2.5,8.25h.1l2.55-8.2,7.2-20.1Z"/><path class="cls-3" d="M1762.55,471.75v-16c0-.37,0-.77,0-1.2s0-.88,0-1.34a11.83,11.83,0,0,1-2.61,1.9,12,12,0,0,1-3,1.17l-.69-2.41a5.76,5.76,0,0,0,1.5-.44,20.08,20.08,0,0,0,1.91-1,18.37,18.37,0,0,0,1.87-1.24,6.77,6.77,0,0,0,1.32-1.29h2.31v21.78Z"/><path class="cls-3" d="M1775.42,471.75v-16c0-.37,0-.77,0-1.2s0-.88,0-1.34a11.6,11.6,0,0,1-2.61,1.9,12,12,0,0,1-3,1.17l-.69-2.41a5.76,5.76,0,0,0,1.5-.44,20.08,20.08,0,0,0,1.91-1,18.37,18.37,0,0,0,1.87-1.24,6.77,6.77,0,0,0,1.32-1.29h2.31v21.78Z"/><path class="cls-3" d="M1786.31,454.92a2,2,0,1,1-1.56.6A2.1,2.1,0,0,1,1786.31,454.92Zm0,12.87a2,2,0,1,1-1.56.6A2.1,2.1,0,0,1,1786.31,467.79Z"/><path class="cls-3" d="M1793.63,471.75v-2.14c2.18-1.61,4-3,5.46-4.22a31.72,31.72,0,0,0,3.52-3.3,10.66,10.66,0,0,0,1.88-2.83,7.2,7.2,0,0,0,.56-2.79,4.2,4.2,0,0,0-1.24-3.15,5.24,5.24,0,0,0-7,.27,6.47,6.47,0,0,0-1.58,3.91l-2.31-1.39a8.46,8.46,0,0,1,1.24-3.36,6.45,6.45,0,0,1,2.54-2.28,8.18,8.18,0,0,1,3.81-.83,8.65,8.65,0,0,1,3,.5,6.72,6.72,0,0,1,2.29,1.4,6.19,6.19,0,0,1,1.47,2.16,7.3,7.3,0,0,1,.51,2.77,8.77,8.77,0,0,1-1,4,15.36,15.36,0,0,1-3.27,4.11,47.74,47.74,0,0,1-6.17,4.76v0c.25,0,.58,0,1-.05l1.29,0c.43,0,.75,0,1,0h7.62v2.47Z"/><path class="cls-3" d="M1820.69,472.08a7.08,7.08,0,0,1-5.91-2.87q-2.21-2.86-2.21-8.35t2.21-8.34a7.51,7.51,0,0,1,11.83,0q2.21,2.87,2.2,8.34t-2.2,8.35A7,7,0,0,1,1820.69,472.08Zm0-2.37a4.44,4.44,0,0,0,3-1,6.07,6.07,0,0,0,1.82-3,19.63,19.63,0,0,0,0-9.71,6.07,6.07,0,0,0-1.82-3,4.81,4.81,0,0,0-5.9,0,6.07,6.07,0,0,0-1.82,3,19.63,19.63,0,0,0,0,9.71,6.07,6.07,0,0,0,1.82,3A4.44,4.44,0,0,0,1820.69,469.71Z"/><path class="cls-3" d="M1859.66,471.75v-16c0-.37,0-.77,0-1.2s0-.88,0-1.34a11.83,11.83,0,0,1-2.61,1.9,12,12,0,0,1-3,1.17l-.7-2.41a5.71,5.71,0,0,0,1.51-.44,20.08,20.08,0,0,0,1.91-1,17.17,17.17,0,0,0,1.86-1.24A6.25,6.25,0,0,0,1860,450h2.31v21.78Z"/><path class="cls-3" d="M1872.53,471.75v-16c0-.37,0-.77,0-1.2s0-.88,0-1.34a11.83,11.83,0,0,1-2.61,1.9,12,12,0,0,1-3,1.17l-.7-2.41a5.71,5.71,0,0,0,1.51-.44,20.08,20.08,0,0,0,1.91-1,17.17,17.17,0,0,0,1.86-1.24,6.25,6.25,0,0,0,1.32-1.29h2.31v21.78Z"/><path class="cls-3" d="M1883.42,454.92a2.15,2.15,0,1,1,0,4.29,2.1,2.1,0,0,1-1.55-.59,2.15,2.15,0,0,1,1.55-3.7Zm0,12.87a2.15,2.15,0,1,1,0,4.29,2.1,2.1,0,0,1-1.55-.59,2.15,2.15,0,0,1,1.55-3.7Z"/><path class="cls-3" d="M1900.39,471.75v-5.7h-10.63V464.1l9.93-14.13H1903v13.8h3.86v2.28H1903v5.7Zm0-8v-8.15c0-.57,0-1.16,0-1.75s0-1.18.08-1.75h-.07a19.16,19.16,0,0,1-1,1.85c-.42.68-.81,1.27-1.16,1.78l-5.71,8Z"/><path class="cls-3" d="M1918.73,472.08a7,7,0,0,1-5.9-2.87c-1.48-1.91-2.21-4.69-2.21-8.35s.73-6.43,2.21-8.34a7.51,7.51,0,0,1,11.83,0q2.19,2.87,2.19,8.34t-2.19,8.35A7.07,7.07,0,0,1,1918.73,472.08Zm0-2.37a4.48,4.48,0,0,0,3-1,6.13,6.13,0,0,0,1.81-3,19.63,19.63,0,0,0,0-9.71,6.13,6.13,0,0,0-1.81-3,4.83,4.83,0,0,0-5.91,0,6.14,6.14,0,0,0-1.82,3,19.63,19.63,0,0,0,0,9.71,6.14,6.14,0,0,0,1.82,3A4.46,4.46,0,0,0,1918.73,469.71Z"/><path class="cls-3" d="M1957.71,471.75v-16c0-.37,0-.77,0-1.2s0-.88,0-1.34a11.6,11.6,0,0,1-2.61,1.9,12,12,0,0,1-3,1.17l-.69-2.41a5.76,5.76,0,0,0,1.5-.44,20.08,20.08,0,0,0,1.91-1,18.37,18.37,0,0,0,1.87-1.24A6.77,6.77,0,0,0,1958,450h2.31v21.78Z"/><path class="cls-3" d="M1966.15,471.75v-2.14c2.18-1.61,4-3,5.47-4.22a32.43,32.43,0,0,0,3.51-3.3,10.42,10.42,0,0,0,1.88-2.83,7.2,7.2,0,0,0,.56-2.79,4.2,4.2,0,0,0-1.24-3.15,5.24,5.24,0,0,0-7,.27,6.47,6.47,0,0,0-1.58,3.91l-2.31-1.39a8.46,8.46,0,0,1,1.24-3.36,6.45,6.45,0,0,1,2.54-2.28,8.24,8.24,0,0,1,3.81-.83,8.65,8.65,0,0,1,3,.5,6.63,6.63,0,0,1,2.29,1.4,6.19,6.19,0,0,1,1.47,2.16,7.3,7.3,0,0,1,.51,2.77,8.77,8.77,0,0,1-1,4,15.5,15.5,0,0,1-3.26,4.11,49.18,49.18,0,0,1-6.17,4.76v0c.24,0,.57,0,1-.05l1.29,0c.43,0,.75,0,1,0h7.63v2.47Z"/><path class="cls-3" d="M1987.83,454.92a2.15,2.15,0,1,1,0,4.29,2.1,2.1,0,0,1-1.55-.59,2.15,2.15,0,0,1,1.55-3.7Zm0,12.87a2.15,2.15,0,1,1,0,4.29,2.1,2.1,0,0,1-1.55-.59,2.15,2.15,0,0,1,1.55-3.7Z"/><path class="cls-3" d="M2003,472.08a7.08,7.08,0,0,1-5.91-2.87q-2.21-2.86-2.21-8.35t2.21-8.34a7.51,7.51,0,0,1,11.83,0q2.2,2.87,2.2,8.34t-2.2,8.35A7,7,0,0,1,2003,472.08Zm0-2.37a4.44,4.44,0,0,0,3-1,6.07,6.07,0,0,0,1.82-3,19.63,19.63,0,0,0,0-9.71,6.07,6.07,0,0,0-1.82-3,4.81,4.81,0,0,0-5.9,0,6.07,6.07,0,0,0-1.82,3,19.63,19.63,0,0,0,0,9.71,6.07,6.07,0,0,0,1.82,3A4.44,4.44,0,0,0,2003,469.71Z"/><path class="cls-3" d="M2023.51,472.08a7.05,7.05,0,0,1-5.91-2.87c-1.48-1.91-2.21-4.69-2.21-8.35s.73-6.43,2.21-8.34a7.51,7.51,0,0,1,11.83,0q2.19,2.87,2.19,8.34t-2.19,8.35A7,7,0,0,1,2023.51,472.08Zm0-2.37a4.46,4.46,0,0,0,3-1,6.06,6.06,0,0,0,1.81-3,19.63,19.63,0,0,0,0-9.71,6.06,6.06,0,0,0-1.81-3,4.83,4.83,0,0,0-5.91,0,6.06,6.06,0,0,0-1.81,3,19.63,19.63,0,0,0,0,9.71,6.06,6.06,0,0,0,1.81,3A4.48,4.48,0,0,0,2023.51,469.71Z"/><path class="cls-3" d="M1755.68,464.33v-1.65h86.53v1.65Z"/><path class="cls-3" d="M1765.8,511.35v-16c0-.37,0-.77,0-1.2s0-.88,0-1.34a11.77,11.77,0,0,1-2.6,1.9,12.07,12.07,0,0,1-3,1.17l-.69-2.41a5.76,5.76,0,0,0,1.5-.44,20.08,20.08,0,0,0,1.91-1,18.37,18.37,0,0,0,1.87-1.24,6.77,6.77,0,0,0,1.32-1.29h2.31v21.78Z"/><path class="cls-3" d="M1774.24,511.35v-2.14q3.27-2.41,5.47-4.23a31.47,31.47,0,0,0,3.51-3.3,10.38,10.38,0,0,0,1.88-2.82,7,7,0,0,0,.56-2.79,4.2,4.2,0,0,0-1.24-3.15,5.23,5.23,0,0,0-7,.27,6.48,6.48,0,0,0-1.59,3.91l-2.31-1.39a8.46,8.46,0,0,1,1.24-3.36,6.52,6.52,0,0,1,2.54-2.28,8.24,8.24,0,0,1,3.81-.83,8.65,8.65,0,0,1,3,.5,6.63,6.63,0,0,1,2.29,1.4,6.19,6.19,0,0,1,1.47,2.16,7.3,7.3,0,0,1,.51,2.77,8.77,8.77,0,0,1-1,4,15.3,15.3,0,0,1-3.26,4.11,48.3,48.3,0,0,1-6.17,4.75v0c.24,0,.57,0,1-.05l1.29,0h8.6v2.47Z"/><path class="cls-3" d="M1795.92,494.52a2,2,0,1,1-1.55.6A2.11,2.11,0,0,1,1795.92,494.52Zm0,12.87a2,2,0,1,1-1.55.6A2.11,2.11,0,0,1,1795.92,507.39Z"/><path class="cls-3" d="M1803.25,511.35v-2.14q3.27-2.41,5.46-4.23a31.67,31.67,0,0,0,3.52-3.3,10.62,10.62,0,0,0,1.88-2.82,7.2,7.2,0,0,0,.56-2.79,4.2,4.2,0,0,0-1.24-3.15,5.24,5.24,0,0,0-7,.27,6.47,6.47,0,0,0-1.58,3.91l-2.31-1.39a8.6,8.6,0,0,1,1.23-3.36,6.55,6.55,0,0,1,2.55-2.28,8.18,8.18,0,0,1,3.81-.83,8.65,8.65,0,0,1,3,.5,6.72,6.72,0,0,1,2.29,1.4,6.19,6.19,0,0,1,1.47,2.16,7.3,7.3,0,0,1,.51,2.77,8.77,8.77,0,0,1-1,4,15.36,15.36,0,0,1-3.27,4.11,46.91,46.91,0,0,1-6.17,4.75v0c.24,0,.58,0,1-.05l1.29,0h8.59v2.47Z"/><path class="cls-3" d="M1830.31,511.68a7.08,7.08,0,0,1-5.91-2.87q-2.2-2.87-2.21-8.35t2.21-8.35a7.53,7.53,0,0,1,11.83,0q2.2,2.88,2.2,8.35t-2.2,8.35A7,7,0,0,1,1830.31,511.68Zm0-2.37a4.44,4.44,0,0,0,3-1,6.06,6.06,0,0,0,1.82-3,19.59,19.59,0,0,0,0-9.7,6.07,6.07,0,0,0-1.82-3,4.81,4.81,0,0,0-5.9,0,6.07,6.07,0,0,0-1.82,3,19.59,19.59,0,0,0,0,9.7,6.06,6.06,0,0,0,1.82,3A4.44,4.44,0,0,0,1830.31,509.31Z"/><path class="cls-3" d="M1869.28,511.35v-16c0-.37,0-.77,0-1.2s0-.88,0-1.34a11.83,11.83,0,0,1-2.61,1.9,12,12,0,0,1-3,1.17l-.7-2.41a5.56,5.56,0,0,0,1.5-.44,19.07,19.07,0,0,0,1.92-1,17.17,17.17,0,0,0,1.86-1.24,6.5,6.5,0,0,0,1.32-1.29h2.31v21.78Z"/><path class="cls-3" d="M1877.73,511.35v-2.14q3.27-2.41,5.46-4.23a30.8,30.8,0,0,0,3.52-3.3,10.62,10.62,0,0,0,1.88-2.82,7.2,7.2,0,0,0,.56-2.79,4.2,4.2,0,0,0-1.24-3.15,5.24,5.24,0,0,0-7,.27,6.47,6.47,0,0,0-1.58,3.91l-2.31-1.39a8.46,8.46,0,0,1,1.24-3.36,6.45,6.45,0,0,1,2.54-2.28,8.18,8.18,0,0,1,3.81-.83,8.65,8.65,0,0,1,3,.5,6.72,6.72,0,0,1,2.29,1.4,6.19,6.19,0,0,1,1.47,2.16,7.3,7.3,0,0,1,.51,2.77,8.77,8.77,0,0,1-1,4,15.36,15.36,0,0,1-3.27,4.11,46.91,46.91,0,0,1-6.17,4.75v0c.25,0,.58,0,1-.05l1.29,0h8.59v2.47Z"/><path class="cls-3" d="M1899.41,494.52a2,2,0,1,1-1.55.6A2.07,2.07,0,0,1,1899.41,494.52Zm0,12.87a2,2,0,1,1-1.55.6A2.07,2.07,0,0,1,1899.41,507.39Z"/><path class="cls-3" d="M1916.37,511.35v-5.71h-10.62V503.7l9.93-14.13H1919v13.8h3.86v2.27H1919v5.71Zm0-8v-8.15c0-.58,0-1.16.05-1.75s.06-1.18.08-1.75h-.06c-.27.55-.61,1.17-1,1.85s-.81,1.27-1.16,1.78l-5.71,8Z"/><path class="cls-3" d="M1934.72,511.68a7.08,7.08,0,0,1-5.91-2.87q-2.2-2.87-2.21-8.35t2.21-8.35a7.53,7.53,0,0,1,11.83,0q2.2,2.88,2.2,8.35t-2.2,8.35A7,7,0,0,1,1934.72,511.68Zm0-2.37a4.44,4.44,0,0,0,3-1,6.06,6.06,0,0,0,1.82-3,19.59,19.59,0,0,0,0-9.7,6.07,6.07,0,0,0-1.82-3,4.81,4.81,0,0,0-5.9,0,6.07,6.07,0,0,0-1.82,3,19.59,19.59,0,0,0,0,9.7,6.06,6.06,0,0,0,1.82,3A4.44,4.44,0,0,0,1934.72,509.31Z"/><path class="cls-3" d="M1973.69,511.35v-16c0-.37,0-.77,0-1.2s0-.88,0-1.34a11.83,11.83,0,0,1-2.61,1.9,12,12,0,0,1-3,1.17l-.7-2.41a5.56,5.56,0,0,0,1.5-.44,19.07,19.07,0,0,0,1.92-1,17.17,17.17,0,0,0,1.86-1.24,6.5,6.5,0,0,0,1.32-1.29h2.31v21.78Z"/><path class="cls-3" d="M1984.58,494.52a2.15,2.15,0,1,1,0,4.29,2.1,2.1,0,0,1-1.55-.59,2.15,2.15,0,0,1,1.55-3.7Zm0,12.87a2.15,2.15,0,1,1,0,4.29,2.1,2.1,0,0,1-1.55-.59,2.15,2.15,0,0,1,1.55-3.7Z"/><path class="cls-3" d="M1999.73,511.68a7.08,7.08,0,0,1-5.91-2.87q-2.21-2.87-2.21-8.35t2.21-8.35a7.53,7.53,0,0,1,11.83,0q2.2,2.88,2.2,8.35t-2.2,8.35A7,7,0,0,1,1999.73,511.68Zm0-2.37a4.44,4.44,0,0,0,3-1,6.06,6.06,0,0,0,1.82-3,19.59,19.59,0,0,0,0-9.7,6.07,6.07,0,0,0-1.82-3,4.81,4.81,0,0,0-5.9,0,6.07,6.07,0,0,0-1.82,3,19.59,19.59,0,0,0,0,9.7,6.06,6.06,0,0,0,1.82,3A4.44,4.44,0,0,0,1999.73,509.31Z"/><path class="cls-3" d="M2020.25,511.68a7,7,0,0,1-5.9-2.87c-1.48-1.91-2.21-4.69-2.21-8.35s.73-6.43,2.21-8.35a7.53,7.53,0,0,1,11.83,0q2.19,2.88,2.19,8.35t-2.19,8.35A7.05,7.05,0,0,1,2020.25,511.68Zm0-2.37a4.46,4.46,0,0,0,3-1,6,6,0,0,0,1.81-3,19.59,19.59,0,0,0,0-9.7,6.06,6.06,0,0,0-1.81-3,4.83,4.83,0,0,0-5.91,0,6.06,6.06,0,0,0-1.81,3,19.59,19.59,0,0,0,0,9.7,6,6,0,0,0,1.81,3A4.46,4.46,0,0,0,2020.25,509.31Z"/><path class="cls-3" d="M1862.42,503.93v-1.65h168.1v1.65Z"/><polyline class="cls-6" points="1636.17 243.35 1675.96 232.16 2158.45 232.16 2150.54 243.35"/><polyline class="cls-6" points="2158.45 232.16 2158.45 538.65 2150.54 561.36"/><rect class="cls-7" x="1772.67" y="344.86" width="239.47" height="67.02"/><polyline class="cls-7" points="2012.15 408.15 1777.03 408.15 1777.03 344.86"/><line class="cls-7" x1="1777.03" y1="408.15" x2="1772.67" y2="411.88"/><g id="POLYLINE-4" data-name="POLYLINE"><path class="cls-5" d="M463.86,726.41l6.47,28.46a167,167,0,0,0,5.06,17.43c1.68,4.55,3.8,9.56,4.14,14.42A45.47,45.47,0,0,1,479,797c-1.21,8.87-4.81,20.46-6.81,29.24a7,7,0,0,0,0,3.69l0,.06,0,.07,0,.06.05.06a.16.16,0,0,0,.05.06l.05.06,0,.05.06,0,.06,0,.06,0,.07,0,.05,0,.07,0,.07,0,.07,0,.08,0c1.29.26,2.94-.37,4.18-.76l5.1-1.83c4.32-1.59,9.49-2.37,14-3.14A47.32,47.32,0,0,0,509.56,821c6.31-3.18,11.87-8.82,17.12-13.49,3.67-3.28,7.48-6.66,11.92-8.85,6.5-3.28,14.23-2.45,20.95-5,6.14-2.4,10.79-7.45,15.12-12.25s9.31-11.59,14.43-15.28a11.57,11.57,0,0,1,7.62-2.43c3.38.3,6.41,2.12,9.09,4.07,5.2,3.9,9.58,8.87,13.69,13.88a172.82,172.82,0,0,1,12.42,17.4,63.17,63.17,0,0,1,5.93,12c.75,2.33,1.39,4.91.7,7.33-.91,3-3.9,4.58-6.51,5.92-7.64,3.72-15.91,7.16-22.73,12.31-9.71,7.2-16.12,18.05-26.29,24.6-2.67,1.67-6.86,4.51-9.43,6.29s-5.31,4.11-7.76,6.22c-10.82,9.53-22.73,20.34-35.08,27.76a186.86,186.86,0,0,1-57.68,23.33c-11.28,2.27-23.42,3.6-34.55,0a41.87,41.87,0,0,1-16.16-10.46A97,97,0,0,1,410.89,900a258.19,258.19,0,0,1-13.48-22.64c-9.79-18.85-18.83-38.7-22.21-59.8a168.22,168.22,0,0,1-1.68-29.67A357,357,0,0,1,377.14,746c1.74-11.71,4.38-23.47,8.95-34.42a89.65,89.65,0,0,1,15.33-24.91,93.91,93.91,0,0,1,16.78-15.07A59.92,59.92,0,0,1,433,663.78c4.72-1.56,10.06-2.31,14.77-.34a20.42,20.42,0,0,1,7.69,6.07,62.08,62.08,0,0,1,8.22,14.26c9.07,22,23,59,32.52,81a82.89,82.89,0,0,0,6.4,11.36,77.55,77.55,0,0,0,9.06,10.93,61.55,61.55,0,0,0,9,7.63,19.7,19.7,0,0,0,3.81,2.05,5.88,5.88,0,0,0,2.15.42h.32l.1,0,.11,0,.09,0,.1,0,.1,0,.08,0,.09-.05.09,0,.08-.05.08,0,.08-.06.07-.07.08-.07.08-.08.06-.09.07-.08.07-.1.06-.09a.64.64,0,0,0,.05-.11l0,0,0-.06,0,0,0-.06,0-.06a6.83,6.83,0,0,0,.41-2.24,40.69,40.69,0,0,0-.9-8.15l-2.59-13a48,48,0,0,1-.86-14.44,83.13,83.13,0,0,1,2.78-12.18,71.39,71.39,0,0,0,2-10.27c1.34-11.64.21-23.75-4.26-34.65-3.61-8.87-10.54-17.72-15.94-25.6-4.14-6.18-8.36-12.83-9.12-20.4-.59-6.47,1.45-12.86,3.86-18.79,2.63-6.62,6.7-13.52,8-20.58,1.69-8.61-2.09-17.62-4.42-25.78-2.1-7.44-4.11-15.54-1.71-23.14,2-6.35,6.48-11.9,10.12-17.39a37.76,37.76,0,0,0,3.81-7c1.45-3.53,2.53-7.61,4.47-10.91a22.26,22.26,0,0,1,5.37-6.15c6.09-5,15.59-9.6,22.42-13.56a104.75,104.75,0,0,0,17.52-12.05c5.41-4.59,10.77-10.64,16.53-14.79,2.11-1.45,4.53-2.76,7.15-2.79a11.37,11.37,0,0,1,6.3,2.15,31.45,31.45,0,0,1,7.85,8.17,28.51,28.51,0,0,1,4,8.14c1.81,6.26,1.85,12.91,1.78,19.38a131.08,131.08,0,0,1-2,20.55,37.57,37.57,0,0,1-5.09,13.87l-2.22,3.5"/></g><g id="POLYLINE-5" data-name="POLYLINE"><path class="cls-3" d="M506.73,586.69a28.55,28.55,0,0,0,6.93,2.49,11.28,11.28,0,0,0,4.37.13,4.63,4.63,0,0,0,2.43-1.28,7.23,7.23,0,0,0,1.65-2.93,34.51,34.51,0,0,0,1.1-9c.17-4.25-.06-9.2,1.08-13.31a9.94,9.94,0,0,1,1.68-3.44,6.54,6.54,0,0,1,2.61-2,13.43,13.43,0,0,1,4.57-.87,44.63,44.63,0,0,1,5.66.21c6.22.63,13.76,1.88,20,2.27a108.49,108.49,0,0,0,21.53-.92c5.22-.6,12.63-1.85,17.86-1.83a10.9,10.9,0,0,1,5.2,1l.07,0,.06,0,.06,0,.06,0,.05,0,.06,0,0,0c1.25,1,1.43,2.66,1.34,4.14-.19,2.9-1.65,7-2.4,9.83a62.61,62.61,0,0,0-1.89,8.67c-.4,2.68-.49,7.57-.63,10.31A39.5,39.5,0,0,1,598,602.65a43.67,43.67,0,0,1-10.37,14.9,57.35,57.35,0,0,1-17.69,11.92,66.49,66.49,0,0,1-21.74,4.77c-7.11.36-14.5-.22-21.07-3.17-6.34-2.85-11.47-7.82-15.65-13.28"/></g><g id="POLYLINE-6" data-name="POLYLINE"><line class="cls-2" x1="527" y1="558.31" x2="515.18" y2="550.27"/></g><g id="POLYLINE-7" data-name="POLYLINE"><path class="cls-5" d="M552.42,633.88c-2.85,7.34-5.43,15.88-2.1,23.5a41.29,41.29,0,0,0,5.46,8.52c3.55,4.53,7.66,9.36,10.06,14.61,4.32,9.5,4.64,20.58,7.7,30.47,2.07,7.11,6.34,13.35,11.22,18.83,2.63,3,7.75,8.11,10.44,11.08,3,3.26,8.09,9.26,11.17,12.44"/></g><g id="POLYLINE-8" data-name="POLYLINE"><path class="cls-5" d="M597,763.78l1.33-2.34c1.87-3.21,4.16-6.54,7.74-8a14.76,14.76,0,0,1,5.06-.92c5.93-.09,13.47,1.76,19.34,2.7,11.22,2,22.79,1.66,34.09.57l17-1.83c4.17-.36,8.63-.66,12.53,1.15a17.46,17.46,0,0,1,7.1,6.9A32.5,32.5,0,0,1,705,771.2a24.19,24.19,0,0,1,.13,12.1c-1.22,4.75-3.91,9-6.83,12.86a54.37,54.37,0,0,1-12.38,12.31,20.86,20.86,0,0,1-6.25,2.91c-3.54,1-8.19.93-11.85,1.19-4.52.28-16.87,1.69-21.54,2.16-2.11.19-5.37.46-7.46.57"/></g><g id="POLYLINE-9" data-name="POLYLINE"><path class="cls-5" d="M663.13,755.93l29.42-28.85c.12-.12.26-.24.39-.35a6,6,0,0,1,1.72-1,4.83,4.83,0,0,1,.5-.16,6.27,6.27,0,0,1,1.77-.22c.35,0,28.83.74,29.13.77a5.76,5.76,0,0,1,1.23.21A6,6,0,0,1,731,735a6.67,6.67,0,0,1-.92,1.26c-.1.13-27.82,27.25-27.94,27.39"/></g><g id="POLYLINE-10" data-name="POLYLINE"><path class="cls-5" d="M636.72,756.13c3.75-5.15,7.94-11,7.38-17.67-.49-5-3-9.5-5.49-13.77l-6.8-11.17A73.25,73.25,0,0,1,626,701.6a75.66,75.66,0,0,1-4.33-20.22c-.82-8.44.31-19.35.94-27.86a68.71,68.71,0,0,0-.57-15.83c-2-11.35-6.14-24.83-7.75-36.21-2-13.29-3.46-27-2.25-40.38.61-6.7,2.74-13.91,4.65-20.37A83.55,83.55,0,0,0,620,516.84c-.07-15.91-2.8-32.38-10.7-46.38-7.21-12.85-19-22.47-31.65-29.68-11.82-6.6-24.79-11.71-38.32-13.23a52.65,52.65,0,0,0-23.62,2.65c-9.55,3.43-17.9,9.63-25.11,16.68a92.06,92.06,0,0,0-18.95,26.23A76.65,76.65,0,0,0,466,492.74c-1.13,6.95-2.39,16.26-4.53,22.91-2.09,7-5.62,16.18-6.16,23.45-.41,5.09.5,10.51-.09,15.59a22.06,22.06,0,0,1-1.54,6,45.64,45.64,0,0,1-5.81,9.35c-6.37,8.39-14.58,17.26-16.63,27.9-1.71,8.24-.62,17.46-.85,25.83a36.78,36.78,0,0,1-1.73,11c-1.65,4.75-4.75,8.85-8,12.61l-7,7.82a43.32,43.32,0,0,0-7.36,11c-3,6.55-4.26,14-5.45,21.09"/></g><g id="POLYLINE-11" data-name="POLYLINE"><path class="cls-5" d="M500,651.54a76.42,76.42,0,0,0,22,15.26,78,78,0,0,0,19.8,6.53,25.16,25.16,0,0,0,6.71.3,9,9,0,0,0,3.77-1.18c2.09-1.27,3.12-3.59,4.17-5.7"/></g><g id="POLYLINE-12" data-name="POLYLINE"><path class="cls-5" d="M613.78,833.62c.74,8.43,1.71,17.69,1.25,26.08-.36,7.13-1.41,15.21-.62,22.29,1,9.44,5.44,18.57,7.57,27.77,2.43,9.34,2.63,19.13,2,28.72-.76,13.16-3.12,31.35-3.34,44.49-.14,7.51.17,15.18,1.93,22.51a84.24,84.24,0,0,0,6.3,17c2.47,5.17,6.42,12.16,8.33,17.55,1.85,4.8,1.87,10.53,2.13,15.6a36.62,36.62,0,0,0,1.85,10.06c2.61,7.24,7.72,14.12,11.07,21a26.86,26.86,0,0,1,2.34,6.5,8.74,8.74,0,0,1-.1,4.1,7.64,7.64,0,0,1-2.81,3.77,22.91,22.91,0,0,1-7,3.29,73.39,73.39,0,0,1-9,2c-13.79,2-37.82,4.87-51.74,7-48.23,5.74-99.15,6.32-147.7,7.05-12.85,0-29.48.14-42.18-.48-2.21-.13-4.59-.31-6.79-.61-3.29-.47-6.7-1.14-9.53-3a10.36,10.36,0,0,1-3.51-3.84,20.86,20.86,0,0,1-2-8.81,69.64,69.64,0,0,1,.46-10.1c1.46-12.16,4.14-27.28,5.22-39.46,1.06-10.9,1.67-22.81,1.83-33.76.34-18.39-1.31-166.53-1.4-188.27"/></g><g id="POLYLINE-13" data-name="POLYLINE"><path class="cls-5" d="M624.3,930.22c8.36-.5,17.32-1.12,24.44-6a33.75,33.75,0,0,0,8.83-9.27c4.79-7.14,8.16-15.28,11.26-23.27,4-11.75,13.27-33.64,15.41-45.62a113.86,113.86,0,0,0,.27-36.75"/></g><g id="POLYLINE-14" data-name="POLYLINE"><path class="cls-5" d="M395.09,1686.26c-7.5-.1-46.33.24-52.93-.34a43.63,43.63,0,0,1-7-1,18.88,18.88,0,0,1-5.12-2,52.93,52.93,0,0,1-6.38-4.83,65.54,65.54,0,0,0-7.93-5.5,66.7,66.7,0,0,0-9.91-4.73c-4.19-1.65-12.62-3.91-17-5.24-5-1.57-10.25-3.28-14.54-6.45a19.5,19.5,0,0,1-7.22-9.76,21.17,21.17,0,0,1-.41-10.34,48.25,48.25,0,0,1,3.72-11.09,121.5,121.5,0,0,1,5.91-11.09c2.25-3.72,13.53-22.6,15.65-25.86a57,57,0,0,1,6.54-8.68,11.77,11.77,0,0,1,4.14-2.95c3.18-1.23,6.41.47,9.08,2.14a72.09,72.09,0,0,0,9.89,5.71,30,30,0,0,0,10,2.61c6.82.5,13.47-1.8,19.78-4.14,2.79-1.09,9.33-3.81,12.1-4.63a10.59,10.59,0,0,1,4.7-.53c2.8.49,4.69,2.89,6.27,5.06a51.81,51.81,0,0,1,7.71,17.44c.92,4.08,1.23,9.06,2.14,13.15a44,44,0,0,0,3.76,10.59,38.56,38.56,0,0,0,7.65,10.25c4.82,4.77,10.93,8.71,15.91,13.32a28.5,28.5,0,0,1,4.31,5.05,29.64,29.64,0,0,1,3.11,6.5,38.22,38.22,0,0,1,2.19,13.22c-.1,4-1.06,8.47-4.36,11.08a11.24,11.24,0,0,1-4,1.92C407.24,1686.54,400.82,1686.16,395.09,1686.26Z"/></g><g id="POLYLINE-15" data-name="POLYLINE"><path class="cls-5" d="M309.1,1577.11c.95-9.22,1.86-20.23,2.41-29.47,2.32-43.41,3.11-97.59,11-140,2.69-14.69,6.54-29.41,12.69-43,6.13-14.2,16.44-29.49,24.84-42.56,6.29-10,12-20.6,15.83-31.8a152.33,152.33,0,0,0,7-32.45c4.22-34.53.82-76.29.39-111.11l.12-28.1"/></g><g id="POLYLINE-16" data-name="POLYLINE"><path class="cls-5" d="M368,1577.54l2.52-15.08c.54-3.67,1.08-7.9,1.39-11.59.81-11,1.63-24.76,3.61-35.45a298.77,298.77,0,0,1,8-31.81c3.86-12.08,25.86-84.35,29.63-94.56a150.32,150.32,0,0,1,5.93-14.26,92,92,0,0,1,8.17-13.69c4.73-6.7,12.75-15.53,17.93-21.95A142.17,142.17,0,0,0,461.35,1314c12.2-23.16,33.64-83.09,43.68-108,6.29-15.53,13.24-32.1,21-46.9,7.37-14.28,17-29.18,25.79-42.65"/></g><g id="POLYLINE-17" data-name="POLYLINE"><path class="cls-5" d="M722.07,1591.2a42.72,42.72,0,0,1-8.92,9.62,28.81,28.81,0,0,1-7.56,3.89c-3.44,1.28-7.66,2.44-10.63,4.61a13.58,13.58,0,0,0-5,6.69c-1.26,3.6-1.25,7.51-1.22,11.28.11,4.55.4,12.26.3,16.73,0,2.59-.77,16.81-.91,19.69-.1,4.5-.34,9.17.74,13.58a10.53,10.53,0,0,0,3.51,5.86,11.92,11.92,0,0,0,4.33,2,40.59,40.59,0,0,0,9,1c8.79.1,18.46.19,27.22-.42a76.19,76.19,0,0,0,19.62-3.69,57.53,57.53,0,0,0,16.49-9c5.06-4,10-9.12,15.47-12.54,8.19-5.3,20.11-7.69,29.37-10.52,10.73-3.07,21.08-7.9,29.71-15,6.55-5.35,12.2-12.17,14.8-20.31a30,30,0,0,0,1.31-15.07c-1.25-6.52-5.44-12.06-10.18-16.53-3.44-3.12-7.31-6-11.85-7.29-3.73-1-7.67-.47-11.33.58-7.43,2.09-16.38,6.66-23.81,8.73a21.13,21.13,0,0,1-6.37.83,20,20,0,0,1-5.81-1.21,88.41,88.41,0,0,1-12-5.71,108.74,108.74,0,0,1-15.79-10.66,20,20,0,0,0-5.91-3.33,19.75,19.75,0,0,0-7.46-.62c-3.22.33-6.92,1-9.59,2.87a19.5,19.5,0,0,0-3.62,3.47C731.15,1576.83,726.64,1584.91,722.07,1591.2Z"/></g><g id="POLYLINE-18" data-name="POLYLINE"><path class="cls-5" d="M700.39,1606.57c-7.69-5.83-15.29-13.06-17.88-22.66-2.1-8.09-.92-17.49-1.4-25.76-.45-11.75-4.81-23-10.27-33.27-7.78-14.87-20.18-30.41-28.73-44.85a137.5,137.5,0,0,1-13.54-29.82c-8.58-27.47-9-60.55-16.23-88.2a84.58,84.58,0,0,0-5.3-13.84c-2.27-4.74-5.9-10.63-8.46-15.11a94.11,94.11,0,0,1-7.06-15.9l-10.58-31.41c-9.14-25.53-20.74-55.92-31.14-81a153.6,153.6,0,0,0-6.83-14.44c-5.14-9.25-12.49-17.19-20.69-23.83"/></g><g id="POLYLINE-19" data-name="POLYLINE"><path class="cls-5" d="M747.65,1564.62c-6.18-22.74-13.39-59.62-18-83a651.62,651.62,0,0,0-22.8-80.14c-4.55-13.18-11.31-29.82-15.34-43.12a130.41,130.41,0,0,1-4.07-17.54c-1.46-8.87-2.48-23.25-4.08-32.08-1.86-9.85-4.55-22.78-5.1-32.65-1.37-20.64-.53-46.73-1.8-67.39-2.25-37.16-9.82-74.25-23.38-109"/></g><path class="cls-2" d="M636.72,756.13c3.75-5.15,7.94-11,7.38-17.67-.49-5-3-9.5-5.49-13.77l-6.8-11.17A73.25,73.25,0,0,1,626,701.6a75.66,75.66,0,0,1-4.33-20.22c-.82-8.44.31-19.35.94-27.86a68.71,68.71,0,0,0-.57-15.83c-2-11.35-6.14-24.83-7.75-36.21-2-13.29-3.46-27-2.25-40.38.61-6.7,2.74-13.91,4.65-20.37A83.55,83.55,0,0,0,620,516.84c-.07-15.91-2.8-32.38-10.7-46.38-7.21-12.85-19-22.47-31.65-29.68-11.82-6.6-24.79-11.71-38.32-13.23a52.65,52.65,0,0,0-23.62,2.65c-9.55,3.43-17.9,9.63-25.11,16.68a92.06,92.06,0,0,0-18.95,26.23A76.65,76.65,0,0,0,466,492.74c-1.13,6.95-2.39,16.26-4.53,22.91-2.09,7-5.62,16.18-6.16,23.45-.41,5.09.5,10.51-.09,15.59a22.06,22.06,0,0,1-1.54,6,45.64,45.64,0,0,1-5.81,9.35c-6.37,8.39-14.58,17.26-16.63,27.9-1.71,8.24-.62,17.46-.85,25.83a36.78,36.78,0,0,1-1.73,11c-1.65,4.75-4.75,8.85-8,12.61l-7,7.82a43.32,43.32,0,0,0-7.36,11c-3,6.55-4.26,14-5.45,21.09a92.11,92.11,0,0,0-16.54,29c-4.7,12.93-6.95,26.77-8.51,40.39-2.65,25-4.35,51,2.66,75.41.07,26.62,1.88,169.61,1.31,192.85a400.08,400.08,0,0,1-3.06,40.77c-1.07,9-3.56,22.4-4.22,31.41a53.06,53.06,0,0,0,0,8.55,18.36,18.36,0,0,0,1.89,7,10.37,10.37,0,0,0,3.4,3.66,17.6,17.6,0,0,0,5.68,2.3l-.12,28.1c.43,34.92,3.84,76.53-.38,111.11a153,153,0,0,1-7,32.45c-3.85,11.2-9.54,21.79-15.83,31.8-8.41,13.09-18.69,28.32-24.83,42.56-6.16,13.64-10,28.37-12.7,43.05-7.88,42.23-8.71,96.8-11,140-.55,9.25-1.45,20.25-2.4,29.47a9.58,9.58,0,0,0-4.21-1.12,6.79,6.79,0,0,0-3.18.8,14.1,14.1,0,0,0-3.52,2.82c-3.65,3.9-6.53,8.78-9.33,13.32-5.77,10.09-16.93,26.43-20.66,37.31a29.71,29.71,0,0,0-1.94,12.37,18,18,0,0,0,2.65,7.9,21.36,21.36,0,0,0,6.21,6.28c4.12,2.78,8.95,4.37,13.66,5.84,5.61,1.7,14,3.84,19.24,6.13a64.84,64.84,0,0,1,11.35,6.16c3.89,2.51,7.57,6.4,11.39,8.42a22.36,22.36,0,0,0,7.46,2.19,114.86,114.86,0,0,0,13.64.71c10.18-.17,47.24.44,56.74-.35a21.57,21.57,0,0,0,5.84-1.29,9.4,9.4,0,0,0,3.7-2.61,13.63,13.63,0,0,0,2.87-7.24,35.25,35.25,0,0,0-1.41-14.06,28.24,28.24,0,0,0-6.33-11.63c-2.76-3-6.81-6-10.05-8.56-4.9-3.87-9.85-8-13.23-13.32a42.27,42.27,0,0,1-5.33-12.36c-1.09-4.08-1.43-9-2.19-13.19a51.14,51.14,0,0,0-6.1-16,26.73,26.73,0,0,0-4.84-6.38,6.8,6.8,0,0,0-3.52-1.72l2.52-15.09c.54-3.66,1.08-7.89,1.39-11.58.81-11,1.63-24.77,3.61-35.45a301.15,301.15,0,0,1,7.95-31.81c3.87-12.08,25.87-84.36,29.64-94.56a150.32,150.32,0,0,1,5.93-14.26,91.77,91.77,0,0,1,8.16-13.69c4.74-6.71,12.75-15.53,17.94-22A142.37,142.37,0,0,0,461.36,1314c12.2-23.16,33.64-83.09,43.68-108,5.19-12.81,11.17-27.16,17.27-39.52,8.19,6.64,15.54,14.57,20.68,23.82a154.87,154.87,0,0,1,6.84,14.44c10.4,25,22,55.43,31.13,81l10.58,31.41a93,93,0,0,0,7.06,15.9c2.54,4.44,6.35,10.66,8.46,15.12a84.27,84.27,0,0,1,5.31,13.84c7.26,27.64,7.64,60.72,16.23,88.2A137.68,137.68,0,0,0,642.13,1480c8.55,14.45,21,30,28.73,44.85,5.46,10.29,9.82,21.51,10.27,33.27.48,8.27-.7,17.66,1.4,25.75,2.59,9.61,10.18,16.83,17.88,22.67a18.41,18.41,0,0,0-7.83,4.93c-3.74,4.32-3.86,10.37-3.78,15.79.11,4.55.4,12.26.3,16.72,0,2.59-.77,16.82-.91,19.69-.1,4.51-.34,9.17.74,13.58a10.46,10.46,0,0,0,3.51,5.86,11.78,11.78,0,0,0,4.33,2,40.58,40.58,0,0,0,9,1c8.79.11,18.46.2,27.22-.42a75.35,75.35,0,0,0,19.62-3.69,57.5,57.5,0,0,0,16.49-8.94c5.06-4,10-9.13,15.47-12.54,8.19-5.31,20.11-7.69,29.37-10.53,10.73-3.06,21.08-7.89,29.71-15,6.55-5.35,12.2-12.16,14.8-20.31a30,30,0,0,0,1.31-15.07c-1.25-6.52-5.44-12.06-10.18-16.52-3.44-3.12-7.31-6.06-11.85-7.3-3.73-1-7.67-.46-11.33.58-7.43,2.09-16.38,6.67-23.81,8.74a21.48,21.48,0,0,1-6.37.82,19.68,19.68,0,0,1-5.81-1.21,89.56,89.56,0,0,1-12-5.7,110.37,110.37,0,0,1-15.79-10.66,19.57,19.57,0,0,0-6.1-3.39,21.34,21.34,0,0,0-8.86-.39c-6.18-22.73-13.39-59.62-18-83a652.63,652.63,0,0,0-22.8-80.14c-4.55-13.17-11.31-29.82-15.34-43.11a130.55,130.55,0,0,1-4.07-17.55c-1.46-8.86-2.48-23.24-4.09-32.07-1.85-9.86-4.54-22.79-5.09-32.66-1.37-20.64-.53-46.73-1.8-67.39-2.25-37.15-9.82-74.25-23.38-109a6.51,6.51,0,0,0,1.58-3.19,11.5,11.5,0,0,0-.56-5.36c-2.69-7.92-8.41-15.12-11.78-22.72a34.74,34.74,0,0,1-3-12.89c-.2-3-.25-7.59-.79-10.5a32.09,32.09,0,0,0-1.71-6.13c-3-7.54-8-15.59-10.91-23.15a69.37,69.37,0,0,1-4.21-14.54c-1.61-9.81-1.19-20-.51-29.88l2.46-28.08c.3-4.14.58-9,.6-13.1,8.36-.5,17.32-1.12,24.44-6a33.75,33.75,0,0,0,8.83-9.27c4.79-7.14,8.16-15.28,11.26-23.27,4-11.75,13.27-33.64,15.41-45.62a113.86,113.86,0,0,0,.27-36.75c4.78-2.84,8.71-6.92,12.22-11.18a46.26,46.26,0,0,0,7.66-12.54,23,23,0,0,0,1.44-8.12,31.16,31.16,0,0,0-3.72-13.8c.16-.19,27.8-27.24,27.93-27.4a5.72,5.72,0,0,0,1.19-1.82,6,6,0,0,0-5-8.32,3,3,0,0,0-.41,0l-28.92-.76h-.37a6.08,6.08,0,0,0-1.7.31,5.86,5.86,0,0,0-1.68.88l-.29.23c-.09.08-.2.16-.28.24l-29.47,28.9A133.31,133.31,0,0,1,636.72,756.13Z"/></g><g id="Layer_6" data-name="Layer 6"><path class="cls-3" d="M2289.67,14.39V1713.67H14.37V14.39h2275.3M2304,.06H0V1728H2304V.06Z"/></g></svg>