<svg xmlns="http://www.w3.org/2000/svg" viewBox="0 0 792.08 612.12"><defs><style>.cls-1{fill:#03f;}.cls-10,.cls-11,.cls-12,.cls-13,.cls-15,.cls-16,.cls-17,.cls-18,.cls-19,.cls-2,.cls-20,.cls-21,.cls-22,.cls-3,.cls-4,.cls-5,.cls-6,.cls-7,.cls-8,.cls-9{fill:none;}.cls-2,.cls-3{stroke:#6d86f7;}.cls-10,.cls-2,.cls-22,.cls-3,.cls-4,.cls-5{stroke-linecap:round;}.cls-10,.cls-11,.cls-12,.cls-13,.cls-2,.cls-22,.cls-3,.cls-4,.cls-5,.cls-6,.cls-7,.cls-8,.cls-9{stroke-linejoin:round;}.cls-2,.cls-4{stroke-width:0.5px;}.cls-3{stroke-width:0.25px;}.cls-10,.cls-11,.cls-12,.cls-13,.cls-15,.cls-16,.cls-17,.cls-18,.cls-19,.cls-20,.cls-21,.cls-22,.cls-4,.cls-5,.cls-6,.cls-7,.cls-8,.cls-9{stroke:#fff;}.cls-15,.cls-5,.cls-6{stroke-width:1.5px;}.cls-8{stroke-dasharray:1.97 2.96;}.cls-9{stroke-dasharray:1.71 2.57;}.cls-11{stroke-dasharray:1.91 2.86;}.cls-12{stroke-dasharray:2 3;}.cls-13{stroke-dasharray:1.93 2.89;}.cls-14{fill:#fff;}.cls-15,.cls-16,.cls-17,.cls-18,.cls-19,.cls-20,.cls-21{stroke-miterlimit:10;}.cls-16,.cls-17,.cls-18,.cls-20,.cls-21,.cls-22{stroke-width:2px;}.cls-17{stroke-dasharray:7.2 7.2;}.cls-18{stroke-dasharray:7.47 7.47;}.cls-20{stroke-dasharray:7.6 7.6;}.cls-21{stroke-dasharray:8.39 8.39;}.cls-22{stroke-dasharray:0 4.5;}</style></defs><title>lift</title><g id="Blue_Background" data-name="Blue Background"><rect class="cls-1" width="792" height="612"/></g><g id="Furniture"><path class="cls-2" d="M286.09,106.77V105"/><path class="cls-2" d="M145.14,23h-1.29c-.15,0-.72,0-.44,0"/><path class="cls-2" d="M143.41,29.89c-.28,0,.29,0,.44,0h1.29"/><path class="cls-2" d="M143.41,23v6.93"/><path class="cls-2" d="M62.87,122.75l2.37,36.34"/><path class="cls-2" d="M86,157.74q-1.2-18.18-2.38-36.35"/><line class="cls-2" x1="67.83" y1="158.93" x2="83.38" y2="157.91"/><line class="cls-2" x1="81.01" y1="121.56" x2="65.46" y2="122.58"/><path class="cls-2" d="M65.46,122.58l-1.3.08-.65,0c-.21,0-1-.14-.64,0"/><path class="cls-2" d="M65.24,159.09c.86-.11,1.73-.11,2.59-.16"/><path class="cls-2" d="M83.6,121.39c0,.21-.22,0-.32,0l-.33,0-.65,0-1.29.08"/><path class="cls-2" d="M83.38,157.91a20.64,20.64,0,0,0,2.6-.17"/><line class="cls-2" x1="70.33" y1="120.54" x2="85.9" y2="120.03"/><line class="cls-2" x1="84.72" y1="83.62" x2="69.14" y2="84.13"/><path class="cls-2" d="M69.14,84.13c-.86,0-1.72.1-2.59.08"/><path class="cls-2" d="M67.73,120.62c.23-.13.43,0,.65,0l.65,0,1.3,0"/><path class="cls-2" d="M66.55,84.21l1.18,36.41"/><path class="cls-2" d="M87.31,83.54c.42.11-.43,0-.64,0l-.65,0-1.3,0"/><path class="cls-2" d="M88.5,120,87.31,83.54"/><path class="cls-2" d="M85.9,120l1.3,0,.65,0h.32c.11,0,.47.15.33,0"/><polyline class="cls-2" points="211 214.81 211 204.42 211 194.03"/><path class="cls-2" d="M174.58,214.81v1.52c0,.07-.11.31,0,.21"/><path class="cls-2" d="M211,216.54c-.14,0,0-.14,0-.21v-1.52"/><path class="cls-2" d="M174.58,192.3H211"/><path class="cls-2" d="M174.58,194v-1.51c0-.07-.13-.17,0-.22"/><path class="cls-2" d="M211,192.3c-.14,0,0,.15,0,.22V194"/><polyline class="cls-2" points="138.15 214.81 138.15 204.42 138.15 194.03"/><polyline class="cls-2" points="174.58 194.03 174.58 204.42 174.58 214.81"/><path class="cls-2" d="M138.15,216.54c.17.24,0-.28,0-.43v-1.3"/><path class="cls-2" d="M174.58,192.3H138.15"/><path class="cls-2" d="M138.15,192.3c.14,0,0,.15,0,.22V194"/><line class="cls-2" x1="165.39" y1="147.28" x2="165.17" y2="135.16"/><line class="cls-2" x1="156.74" y1="147.44" x2="165.39" y2="147.28"/><line class="cls-2" x1="156.51" y1="135.32" x2="156.74" y2="147.44"/><line class="cls-2" x1="165.17" y1="135.16" x2="156.51" y2="135.32"/><line class="cls-2" x1="293.01" y1="106.77" x2="293.01" y2="176.03"/><path class="cls-2" d="M293,176v1.51c0,.07-.14.25,0,.22"/><path class="cls-2" d="M286.09,177.76c-.15,0,0-.15,0-.22V176"/><path class="cls-2" d="M293,177.76h-6.92"/><path class="cls-2" d="M293,105c-.14,0,0,.14,0,.21v1.52"/><path class="cls-2" d="M286.09,105H293"/><polyline class="cls-2" points="143.35 31.62 143.35 42.01 143.35 52.4"/><path class="cls-2" d="M143.35,29.89c.12-.09,0,.14,0,.21v1.52"/><path class="cls-2" d="M179.77,54.13H143.35"/><path class="cls-2" d="M143.35,54.13c.11-.07,0-.15,0-.22V52.4"/><path class="cls-2" d="M138.22,219.31h0"/><line class="cls-2" x1="164.73" y1="145.57" x2="164.71" y2="145.14"/><line class="cls-2" x1="157.82" y1="145.95" x2="158.36" y2="145.92"/><line class="cls-2" x1="157.34" y1="137.3" x2="157.36" y2="137.72"/><line class="cls-2" x1="164.26" y1="136.92" x2="163.71" y2="136.95"/><line class="cls-2" x1="96.66" y1="219.31" x2="138.22" y2="219.31"/><path class="cls-2" d="M138.22,223.47v-4.16"/><polyline class="cls-2" points="284.36 177.82 273.97 177.82 263.58 177.82"/><polyline class="cls-2" points="263.58 141.4 273.97 141.4 284.36 141.4"/><line class="cls-3" x1="549.26" y1="6.82" x2="792.08" y2="6.82"/><line class="cls-3" x1="549.26" y1="13.82" x2="792.08" y2="13.82"/><line class="cls-3" x1="549.26" y1="20.81" x2="792.08" y2="20.81"/><line class="cls-3" x1="549.26" y1="27.81" x2="792.08" y2="27.81"/><line class="cls-3" x1="549.26" y1="34.81" x2="792.08" y2="34.81"/><line class="cls-3" x1="549.26" y1="41.81" x2="792.08" y2="41.81"/><line class="cls-3" x1="549.26" y1="48.81" x2="792.08" y2="48.81"/><line class="cls-3" x1="549.26" y1="55.81" x2="792.08" y2="55.81"/><line class="cls-3" x1="549.26" y1="62.81" x2="792.08" y2="62.81"/><line class="cls-3" x1="549.26" y1="69.8" x2="792.08" y2="69.8"/><line class="cls-3" x1="549.26" y1="76.8" x2="792.08" y2="76.8"/><line class="cls-3" x1="549.26" y1="83.8" x2="792.08" y2="83.8"/><line class="cls-3" x1="549.26" y1="90.8" x2="792.08" y2="90.8"/><line class="cls-3" x1="549.26" y1="97.8" x2="792.08" y2="97.8"/><line class="cls-3" x1="549.26" y1="104.8" x2="792.08" y2="104.8"/><line class="cls-3" x1="549.26" y1="111.79" x2="792.08" y2="111.79"/><line class="cls-3" x1="549.26" y1="118.79" x2="792.08" y2="118.79"/><line class="cls-3" x1="549.26" y1="125.79" x2="792.08" y2="125.79"/><line class="cls-3" x1="549.26" y1="132.79" x2="792.08" y2="132.79"/><line class="cls-3" x1="549.26" y1="139.79" x2="792.08" y2="139.79"/><line class="cls-3" x1="549.26" y1="146.79" x2="792.08" y2="146.79"/><line class="cls-3" x1="549.26" y1="153.78" x2="792.08" y2="153.78"/><line class="cls-3" x1="549.26" y1="160.78" x2="792.08" y2="160.78"/><line class="cls-3" x1="549.26" y1="167.78" x2="792.08" y2="167.78"/><line class="cls-3" x1="549.26" y1="174.78" x2="792.08" y2="174.78"/><line class="cls-3" x1="549.26" y1="181.78" x2="792.08" y2="181.78"/><line class="cls-3" x1="541.12" y1="188.78" x2="792.08" y2="188.78"/><line class="cls-3" x1="541.12" y1="195.77" x2="792.08" y2="195.77"/><line class="cls-3" x1="541.12" y1="202.77" x2="792.08" y2="202.77"/><line class="cls-3" x1="541.12" y1="209.77" x2="792.08" y2="209.77"/><line class="cls-3" x1="541.12" y1="216.77" x2="792.08" y2="216.77"/><line class="cls-3" x1="541.12" y1="223.77" x2="792.08" y2="223.77"/><line class="cls-3" x1="541.12" y1="230.77" x2="792.08" y2="230.77"/><line class="cls-3" x1="541.12" y1="237.77" x2="792.08" y2="237.77"/><line class="cls-3" x1="541.12" y1="244.76" x2="792.08" y2="244.76"/><line class="cls-3" x1="541.12" y1="251.76" x2="792.08" y2="251.76"/><line class="cls-3" x1="541.12" y1="258.76" x2="792.08" y2="258.76"/><line class="cls-3" x1="541.12" y1="265.76" x2="792.08" y2="265.76"/><line class="cls-3" x1="549.26" y1="272.76" x2="792.08" y2="272.76"/><line class="cls-3" x1="549.26" y1="279.76" x2="792.08" y2="279.76"/><line class="cls-3" x1="549.26" y1="286.75" x2="792.08" y2="286.75"/><line class="cls-3" x1="549.26" y1="293.75" x2="792.08" y2="293.75"/><line class="cls-3" x1="549.26" y1="300.75" x2="792.08" y2="300.75"/><line class="cls-3" x1="549.26" y1="307.75" x2="792.08" y2="307.75"/><line class="cls-3" x1="549.26" y1="314.75" x2="792.08" y2="314.75"/><line class="cls-3" x1="620.94" y1="321.75" x2="792.08" y2="321.75"/><line class="cls-3" x1="620.94" y1="328.74" x2="792.08" y2="328.74"/><line class="cls-3" x1="620.94" y1="335.74" x2="792.08" y2="335.74"/><line class="cls-3" x1="620.94" y1="342.74" x2="792.08" y2="342.74"/><line class="cls-3" x1="620.94" y1="349.74" x2="792.08" y2="349.74"/><line class="cls-3" x1="620.94" y1="356.74" x2="792.08" y2="356.74"/><line class="cls-3" x1="620.94" y1="363.74" x2="792.08" y2="363.74"/><line class="cls-3" x1="620.94" y1="370.73" x2="792.08" y2="370.73"/><line class="cls-3" x1="620.94" y1="377.73" x2="792.08" y2="377.73"/><line class="cls-3" x1="620.94" y1="384.73" x2="792.08" y2="384.73"/><line class="cls-3" x1="620.94" y1="391.73" x2="792.08" y2="391.73"/><line class="cls-3" x1="620.94" y1="398.73" x2="792.08" y2="398.73"/><line class="cls-3" x1="620.94" y1="405.73" x2="792.08" y2="405.73"/><line class="cls-3" x1="620.94" y1="412.73" x2="792.08" y2="412.73"/><line class="cls-3" x1="620.94" y1="419.72" x2="792.08" y2="419.72"/><line class="cls-3" x1="620.94" y1="426.72" x2="792.08" y2="426.72"/><line class="cls-3" x1="620.94" y1="433.72" x2="792.08" y2="433.72"/><line class="cls-3" x1="620.94" y1="440.72" x2="792.08" y2="440.72"/><line class="cls-3" x1="620.94" y1="447.72" x2="792.08" y2="447.72"/><line class="cls-3" x1="620.94" y1="454.72" x2="792.08" y2="454.72"/><line class="cls-3" x1="620.94" y1="461.71" x2="792.08" y2="461.71"/><line class="cls-3" x1="620.94" y1="468.71" x2="792.08" y2="468.71"/><line class="cls-3" x1="620.94" y1="475.71" x2="792.08" y2="475.71"/><path class="cls-2" d="M286.09,177.82c-.08-.19-.75,0-.87,0h-.86"/><path class="cls-2" d="M261.85,141.4v36.42"/><path class="cls-2" d="M263.58,141.4h-1.52c-.07,0-.2.14-.21,0"/><path class="cls-2" d="M261.85,177.82c0-.14.14,0,.21,0h1.52"/><polyline class="cls-2" points="284.36 104.97 273.97 104.97 263.58 104.97"/><path class="cls-2" d="M284.36,141.4h.86c.12,0,.79.19.87,0"/><path class="cls-2" d="M286.09,105c-.32.19-.58,0-.87,0h-.86"/><path class="cls-2" d="M261.85,141.4V105"/><path class="cls-2" d="M261.85,105c.13.2.29,0,.43,0h1.3"/><line class="cls-2" x1="210.94" y1="219.31" x2="252.5" y2="219.31"/><path class="cls-2" d="M138.22,219.31v-2.77"/><line class="cls-2" x1="200.55" y1="131.01" x2="148.61" y2="131.01"/><line class="cls-2" x1="200.55" y1="151.78" x2="200.55" y2="131.01"/><line class="cls-2" x1="148.61" y1="151.78" x2="200.55" y2="151.78"/><line class="cls-2" x1="148.61" y1="131.01" x2="148.61" y2="151.78"/><line class="cls-2" x1="96.66" y1="63.48" x2="96.66" y2="219.31"/><line class="cls-2" x1="252.5" y1="63.48" x2="96.66" y2="63.48"/><line class="cls-2" x1="252.5" y1="219.31" x2="252.5" y2="63.48"/><line class="cls-2" x1="187.19" y1="147.8" x2="190.58" y2="137.98"/><line class="cls-2" x1="179" y1="144.98" x2="187.19" y2="147.8"/><line class="cls-2" x1="182.39" y1="135.16" x2="179" y2="144.98"/><line class="cls-2" x1="190.58" y1="137.98" x2="182.39" y2="135.16"/><line class="cls-2" x1="166.7" y1="147.78" x2="165.56" y2="133.97"/><line class="cls-2" x1="156.35" y1="148.63" x2="166.7" y2="147.78"/><line class="cls-2" x1="155.21" y1="134.83" x2="156.35" y2="148.63"/><line class="cls-2" x1="165.56" y1="133.97" x2="155.21" y2="134.83"/><line class="cls-2" x1="209.21" y1="223.47" x2="139.95" y2="223.47"/><path class="cls-2" d="M140,223.47h-1.3c-.14,0-.7.1-.43,0"/><path class="cls-2" d="M138.22,216.54c.06-.1.14,0,.22,0H140"/><path class="cls-2" d="M210.94,223.47a14.27,14.27,0,0,1-1.73,0"/><path class="cls-2" d="M209.21,216.54h1.73"/><polyline class="cls-2" points="252.63 31.62 252.63 42.01 252.63 52.4"/><path class="cls-2" d="M252.62,29.89v1.73"/><path class="cls-2" d="M216.2,54.13h36.42"/><path class="cls-2" d="M216.2,52.4v1.51c0,.07-.14.21,0,.22"/><path class="cls-2" d="M252.62,54.13V52.4"/><polyline class="cls-2" points="216.2 31.62 216.2 42.01 216.2 52.4"/><polyline class="cls-2" points="179.77 52.4 179.77 42.01 179.77 31.62"/><path class="cls-2" d="M179.77,31.62V30.1c0-.07-.12-.28,0-.21"/><path class="cls-2" d="M216.2,29.89c-.14,0,0,.14,0,.21v1.52"/><path class="cls-2" d="M179.77,54.13H216.2"/><path class="cls-2" d="M179.77,52.4v1.51c0,.07-.14.19,0,.22"/><line class="cls-2" x1="68.61" y1="159.83" x2="84.17" y2="160.61"/><line class="cls-2" x1="82.34" y1="196.99" x2="66.78" y2="196.21"/><path class="cls-2" d="M66.78,196.21c-.87-.05-1.73-.14-2.6-.14"/><path class="cls-2" d="M66,159.7a11.76,11.76,0,0,1,2.59.13"/><path class="cls-2" d="M64.18,196.07Q65.1,177.89,66,159.7"/><path class="cls-2" d="M84.93,197.12a4,4,0,0,1-1.29-.07l-1.3-.06"/><path class="cls-2" d="M86.77,160.74q-.92,18.19-1.84,36.38"/><path class="cls-2" d="M84.17,160.61l1.3.07a4,4,0,0,0,1.3.06"/><polyline class="cls-4" points="98.1 292.05 98.1 323.22 278.34 323.22"/><line class="cls-4" x1="228.64" y1="297.87" x2="228.64" y2="294.98"/><line class="cls-4" x1="224.31" y1="294.98" x2="224.31" y2="297.87"/><line class="cls-4" x1="174.04" y1="297.87" x2="174.04" y2="294.98"/><line class="cls-4" x1="169.71" y1="294.98" x2="169.71" y2="297.87"/><line class="cls-4" x1="207.8" y1="297.23" x2="207.8" y2="294.98"/><line class="cls-4" x1="202.6" y1="294.98" x2="202.6" y2="297.23"/><line class="cls-4" x1="248.07" y1="296.18" x2="248.07" y2="294.58"/><line class="cls-4" x1="241.14" y1="294.58" x2="241.14" y2="296.18"/><line class="cls-4" x1="272.37" y1="297.39" x2="272.37" y2="294.17"/><line class="cls-4" x1="268.04" y1="294.17" x2="268.04" y2="297.39"/><line class="cls-4" x1="263.7" y1="297.55" x2="263.7" y2="294.98"/><line class="cls-4" x1="260.23" y1="294.98" x2="260.23" y2="297.55"/><line class="cls-4" x1="236.25" y1="297.87" x2="236.25" y2="294.98"/><line class="cls-4" x1="231.92" y1="294.98" x2="231.92" y2="297.87"/><line class="cls-4" x1="159.91" y1="297.25" x2="159.91" y2="292.05"/><line class="cls-4" x1="159.91" y1="302.44" x2="159.91" y2="297.25"/><line class="cls-4" x1="278.34" y1="297.25" x2="278.34" y2="292.05"/><line class="cls-4" x1="278.34" y1="323.22" x2="278.34" y2="297.25"/><line class="cls-4" x1="220.57" y1="297.15" x2="220.57" y2="294.58"/><line class="cls-4" x1="213.65" y1="294.58" x2="213.65" y2="297.15"/><line class="cls-4" x1="166.43" y1="297.87" x2="166.43" y2="294.98"/><line class="cls-4" x1="162.11" y1="294.98" x2="162.11" y2="297.87"/><line class="cls-4" x1="192.48" y1="297.23" x2="192.48" y2="294.98"/><line class="cls-4" x1="187.28" y1="294.98" x2="187.28" y2="297.23"/><line class="cls-4" x1="200.14" y1="297.23" x2="200.14" y2="294.98"/><line class="cls-4" x1="194.94" y1="294.98" x2="194.94" y2="297.23"/><line class="cls-4" x1="184.82" y1="297.23" x2="184.82" y2="294.98"/><line class="cls-4" x1="179.62" y1="294.98" x2="179.62" y2="297.23"/><line class="cls-4" x1="256.09" y1="297.55" x2="256.09" y2="294.98"/><line class="cls-4" x1="252.63" y1="294.98" x2="252.63" y2="297.55"/><line class="cls-4" x1="224.31" y1="295.78" x2="220.57" y2="295.78"/><line class="cls-4" x1="224.31" y1="297.87" x2="228.64" y2="297.87"/><line class="cls-4" x1="228.64" y1="298.68" x2="228.64" y2="297.87"/><line class="cls-4" x1="224.31" y1="298.68" x2="228.64" y2="298.68"/><line class="cls-4" x1="224.31" y1="298.68" x2="224.31" y2="297.87"/><line class="cls-4" x1="228.64" y1="294.98" x2="224.31" y2="294.98"/><line class="cls-4" x1="249.9" y1="311.75" x2="249.9" y2="312.83"/><line class="cls-4" x1="257.26" y1="311.32" x2="257.26" y2="310.23"/><line class="cls-4" x1="249.9" y1="312.83" x2="257.26" y2="312.83"/><line class="cls-4" x1="249.9" y1="310.23" x2="249.9" y2="311.32"/><line class="cls-4" x1="257.26" y1="310.23" x2="249.9" y2="310.23"/><line class="cls-4" x1="257.26" y1="312.83" x2="257.26" y2="311.75"/><line class="cls-4" x1="257.26" y1="311.75" x2="257.26" y2="311.32"/><line class="cls-4" x1="249.9" y1="311.75" x2="257.26" y2="311.75"/><line class="cls-4" x1="249.9" y1="311.32" x2="249.9" y2="311.75"/><line class="cls-4" x1="257.26" y1="311.32" x2="249.9" y2="311.32"/><line class="cls-4" x1="278.34" y1="292.05" x2="159.91" y2="292.05"/><line class="cls-4" x1="252.63" y1="295.78" x2="248.07" y2="295.78"/><line class="cls-4" x1="213.65" y1="295.78" x2="207.8" y2="295.78"/><line class="cls-4" x1="194.94" y1="295.78" x2="192.48" y2="295.78"/><line class="cls-4" x1="187.28" y1="295.78" x2="184.82" y2="295.78"/><line class="cls-4" x1="179.62" y1="295.78" x2="174.04" y2="295.78"/><line class="cls-4" x1="162.11" y1="295.78" x2="159.91" y2="295.78"/><line class="cls-4" x1="268.04" y1="295.78" x2="263.7" y2="295.78"/><line class="cls-4" x1="260.23" y1="295.78" x2="256.09" y2="295.78"/><line class="cls-4" x1="241.14" y1="295.78" x2="236.25" y2="295.78"/><line class="cls-4" x1="231.92" y1="295.78" x2="228.64" y2="295.78"/><line class="cls-4" x1="202.6" y1="295.78" x2="200.14" y2="295.78"/><line class="cls-4" x1="169.71" y1="295.78" x2="166.43" y2="295.78"/><line class="cls-4" x1="169.71" y1="297.87" x2="174.04" y2="297.87"/><line class="cls-4" x1="174.04" y1="298.68" x2="174.04" y2="297.87"/><line class="cls-4" x1="169.71" y1="298.68" x2="174.04" y2="298.68"/><line class="cls-4" x1="169.71" y1="298.68" x2="169.71" y2="297.87"/><line class="cls-4" x1="174.04" y1="294.98" x2="169.71" y2="294.98"/><line class="cls-4" x1="202.6" y1="297.23" x2="207.8" y2="297.23"/><line class="cls-4" x1="207.8" y1="298.03" x2="207.8" y2="297.23"/><line class="cls-4" x1="202.6" y1="298.03" x2="207.8" y2="298.03"/><line class="cls-4" x1="202.6" y1="298.03" x2="202.6" y2="297.23"/><line class="cls-4" x1="207.8" y1="294.98" x2="202.6" y2="294.98"/><line class="cls-4" x1="241.14" y1="296.18" x2="248.07" y2="296.18"/><line class="cls-4" x1="248.07" y1="297.39" x2="248.07" y2="296.18"/><line class="cls-4" x1="241.14" y1="297.39" x2="248.07" y2="297.39"/><line class="cls-4" x1="241.14" y1="297.39" x2="241.14" y2="296.18"/><line class="cls-4" x1="248.07" y1="294.58" x2="241.14" y2="294.58"/><line class="cls-4" x1="268.04" y1="297.39" x2="272.37" y2="297.39"/><line class="cls-4" x1="272.37" y1="299" x2="272.37" y2="297.39"/><line class="cls-4" x1="268.04" y1="299" x2="272.37" y2="299"/><line class="cls-4" x1="268.04" y1="299" x2="268.04" y2="297.39"/><line class="cls-4" x1="272.37" y1="294.17" x2="268.04" y2="294.17"/><line class="cls-4" x1="260.23" y1="297.55" x2="263.7" y2="297.55"/><line class="cls-4" x1="263.7" y1="298.35" x2="263.7" y2="297.55"/><line class="cls-4" x1="260.23" y1="298.35" x2="263.7" y2="298.35"/><line class="cls-4" x1="260.23" y1="298.35" x2="260.23" y2="297.55"/><line class="cls-4" x1="263.7" y1="294.98" x2="260.23" y2="294.98"/><line class="cls-4" x1="231.92" y1="297.87" x2="236.25" y2="297.87"/><line class="cls-4" x1="236.25" y1="298.68" x2="236.25" y2="297.87"/><line class="cls-4" x1="231.92" y1="298.68" x2="236.25" y2="298.68"/><line class="cls-4" x1="231.92" y1="298.68" x2="231.92" y2="297.87"/><line class="cls-4" x1="236.25" y1="294.98" x2="231.92" y2="294.98"/><line class="cls-4" x1="159.91" y1="302.44" x2="278.34" y2="302.44"/><line class="cls-4" x1="159.91" y1="323.22" x2="159.91" y2="302.44"/><line class="cls-4" x1="159.91" y1="292.05" x2="98.1" y2="292.05"/><line class="cls-4" x1="159.91" y1="297.25" x2="98.1" y2="297.25"/><line class="cls-4" x1="278.34" y1="295.78" x2="272.37" y2="295.78"/><line class="cls-4" x1="278.34" y1="299.59" x2="159.91" y2="299.59"/><line class="cls-4" x1="213.65" y1="297.15" x2="220.57" y2="297.15"/><line class="cls-4" x1="220.57" y1="298.35" x2="220.57" y2="297.15"/><line class="cls-4" x1="213.65" y1="298.35" x2="220.57" y2="298.35"/><line class="cls-4" x1="213.65" y1="298.35" x2="213.65" y2="297.15"/><line class="cls-4" x1="220.57" y1="294.58" x2="213.65" y2="294.58"/><line class="cls-4" x1="162.11" y1="297.87" x2="166.43" y2="297.87"/><line class="cls-4" x1="166.43" y1="298.68" x2="166.43" y2="297.87"/><line class="cls-4" x1="162.11" y1="298.68" x2="166.43" y2="298.68"/><line class="cls-4" x1="162.11" y1="298.68" x2="162.11" y2="297.87"/><line class="cls-4" x1="166.43" y1="294.98" x2="162.11" y2="294.98"/><line class="cls-4" x1="187.28" y1="297.23" x2="192.48" y2="297.23"/><line class="cls-4" x1="192.48" y1="298.03" x2="192.48" y2="297.23"/><line class="cls-4" x1="187.28" y1="298.03" x2="192.48" y2="298.03"/><line class="cls-4" x1="187.28" y1="298.03" x2="187.28" y2="297.23"/><line class="cls-4" x1="192.48" y1="294.98" x2="187.28" y2="294.98"/><line class="cls-4" x1="194.94" y1="297.23" x2="200.14" y2="297.23"/><line class="cls-4" x1="200.14" y1="298.03" x2="200.14" y2="297.23"/><line class="cls-4" x1="194.94" y1="298.03" x2="200.14" y2="298.03"/><line class="cls-4" x1="194.94" y1="298.03" x2="194.94" y2="297.23"/><line class="cls-4" x1="200.14" y1="294.98" x2="194.94" y2="294.98"/><line class="cls-4" x1="179.62" y1="297.23" x2="184.82" y2="297.23"/><line class="cls-4" x1="184.82" y1="298.03" x2="184.82" y2="297.23"/><line class="cls-4" x1="179.62" y1="298.03" x2="184.82" y2="298.03"/><line class="cls-4" x1="179.62" y1="298.03" x2="179.62" y2="297.23"/><line class="cls-4" x1="184.82" y1="294.98" x2="179.62" y2="294.98"/><line class="cls-4" x1="252.63" y1="297.55" x2="256.09" y2="297.55"/><line class="cls-4" x1="256.09" y1="298.35" x2="256.09" y2="297.55"/><line class="cls-4" x1="252.63" y1="298.35" x2="256.09" y2="298.35"/><line class="cls-4" x1="252.63" y1="298.35" x2="252.63" y2="297.55"/><line class="cls-4" x1="256.09" y1="294.98" x2="252.63" y2="294.98"/><polyline class="cls-2" points="145.15 29.89 165.64 29.89 200.27 29.89 216.2 29.89 250.83 29.89"/><line class="cls-2" x1="165.24" y1="145.04" x2="163.63" y2="136.54"/><line class="cls-2" x1="158.44" y1="146.33" x2="165.24" y2="145.04"/><line class="cls-2" x1="156.83" y1="137.83" x2="158.44" y2="146.33"/><line class="cls-2" x1="163.63" y1="136.54" x2="156.83" y2="137.83"/><line class="cls-2" x1="286.09" y1="176.03" x2="286.09" y2="106.77"/><line class="cls-2" x1="139.95" y1="216.54" x2="209.21" y2="216.54"/><path class="cls-2" d="M210.94,216.54v6.93"/><path class="cls-2" d="M210.94,216.54H211"/><path class="cls-2" d="M138.22,216.54h-.07"/><line class="cls-2" x1="164.48" y1="141.02" x2="164.26" y2="136.92"/><line class="cls-2" x1="161.56" y1="145.74" x2="164.73" y2="145.57"/><line class="cls-2" x1="157.59" y1="141.85" x2="157.82" y2="145.95"/><line class="cls-2" x1="160.51" y1="137.13" x2="157.34" y2="137.3"/><path class="cls-2" d="M286.09,177.76v.06"/><path class="cls-2" d="M286.09,105V105"/><path class="cls-2" d="M252.56,29.89h.06"/><path class="cls-2" d="M143.41,29.89h-.06"/><polyline class="cls-2" points="250.83 22.96 216.2 22.96 200.27 22.96 165.64 22.96 145.15 22.96"/><path class="cls-2" d="M250.83,23h1.3c.14,0,.27.11.43,0"/><path class="cls-2" d="M252.56,29.89c.28.09-.29,0-.43,0h-1.3"/><path class="cls-2" d="M252.56,23v6.93"/><path class="cls-2" d="M216.2,31.62H179.77"/><path class="cls-2" d="M145.14,29.89V23"/><path class="cls-2" d="M211,214.81H174.58"/><path class="cls-2" d="M143.35,52.4h36.42"/><path class="cls-2" d="M284.36,105V141.4"/><path class="cls-2" d="M67.83,158.93l-2.37-36.35"/><path class="cls-2" d="M84.72,83.62,85.9,120"/><path class="cls-2" d="M284.36,177.82V141.4"/><path class="cls-2" d="M81,121.56l2.37,36.35"/><path class="cls-2" d="M252.62,31.62H216.2"/><path class="cls-2" d="M293,106.77h-6.92"/><path class="cls-2" d="M70.33,120.54q-.6-18.21-1.19-36.41"/><path class="cls-2" d="M263.58,177.82V141.4"/><path class="cls-2" d="M263.58,105V141.4"/><path class="cls-2" d="M252.62,52.4H216.2"/><path class="cls-2" d="M286.09,176H293"/><path class="cls-2" d="M68.61,159.83l-1.83,36.38"/><path class="cls-2" d="M143.35,31.62h36.42"/><path class="cls-2" d="M211,194H174.58"/><path class="cls-2" d="M140,216.54v6.93"/><path class="cls-2" d="M209.21,223.47v-6.93"/><path class="cls-2" d="M138.15,194h36.43"/><path class="cls-2" d="M82.34,197l1.83-36.38"/><path class="cls-2" d="M216.2,52.4H179.77"/><path class="cls-2" d="M250.83,29.89V23"/><path class="cls-2" d="M138.15,214.81h36.43"/></g><g id="wall"><line class="cls-5" x1="325.2" y1="374.37" x2="433.04" y2="374.37"/><line class="cls-6" x1="433.04" y1="354.63" y2="354.63"/><line class="cls-4" x1="538.52" y1="389.95" x2="538.52" y2="431.5"/><line class="cls-2" x1="397.94" y1="149.45" x2="366.77" y2="149.45"/><line class="cls-4" x1="538.52" y1="229.96" x2="538.52" y2="271.52"/><line class="cls-4" x1="541.12" y1="229.96" x2="541.12" y2="188.41"/><line class="cls-4" x1="538.52" y1="229.96" x2="538.52" y2="188.41"/><line class="cls-4" x1="541.12" y1="229.96" x2="538.52" y2="229.96"/><line class="cls-2" x1="127.81" y1="561.59" x2="127.81" y2="374.37"/><line class="cls-2" x1="325.2" y1="374.37" x2="325.2" y2="561.59"/><polyline class="cls-6" points="0 374.37 127.81 374.37 325.2 374.37"/><line class="cls-2" x1="314.81" y1="561.59" x2="314.81" y2="374.37"/><line class="cls-2" x1="304.42" y1="561.59" x2="304.42" y2="374.37"/><line class="cls-2" x1="294.03" y1="561.59" x2="294.03" y2="374.37"/><line class="cls-2" x1="242.09" y1="561.59" x2="242.09" y2="374.37"/><line class="cls-2" x1="231.7" y1="561.59" x2="231.7" y2="374.37"/><line class="cls-2" x1="221.31" y1="561.59" x2="221.31" y2="374.37"/><line class="cls-2" x1="210.92" y1="561.59" x2="210.92" y2="374.37"/><line class="cls-2" x1="158.98" y1="561.59" x2="158.98" y2="374.37"/><line class="cls-2" x1="148.59" y1="561.59" x2="148.59" y2="374.37"/><line class="cls-2" x1="138.2" y1="561.59" x2="138.2" y2="374.37"/><line class="cls-2" x1="366.77" y1="169.19" x2="397.94" y2="169.19"/><line class="cls-7" x1="549.26" y1="431.5" x2="548.26" y2="431.5"/><line class="cls-8" x1="545.3" y1="431.5" x2="532" y2="431.5"/><line class="cls-7" x1="530.52" y1="431.5" x2="529.52" y2="431.5"/><line class="cls-4" x1="559.65" y1="379.56" x2="601.2" y2="338.01"/><line class="cls-4" x1="559.65" y1="338.01" x2="601.2" y2="379.56"/><line class="cls-4" x1="541.12" y1="389.95" x2="541.12" y2="431.5"/><line class="cls-2" x1="366.77" y1="149.45" x2="366.77" y2="169.19"/><line class="cls-2" x1="397.94" y1="169.19" x2="397.94" y2="149.45"/><line class="cls-4" x1="541.12" y1="229.96" x2="541.12" y2="271.52"/><line class="cls-2" x1="325.2" y1="561.59" x2="325.2" y2="595.67"/><line class="cls-5" x1="549.26" y1="188.41" x2="549.26" y2="1.67"/><line class="cls-4" x1="559.65" y1="381.29" x2="559.65" y2="338.01"/><line class="cls-5" x1="549.26" y1="319.4" x2="549.26" y2="271.52"/><line class="cls-5" x1="549.26" y1="271.52" x2="529.52" y2="271.52"/><line class="cls-5" x1="529.52" y1="271.52" x2="529.52" y2="354.63"/><line class="cls-4" x1="557.05" y1="381.29" x2="557.05" y2="345.8"/><line class="cls-5" x1="529.52" y1="499.03" x2="789.3" y2="499.03"/><line class="cls-9" x1="433.04" y1="354.63" x2="529.52" y2="354.63"/><polyline class="cls-9" points="433.04 374.37 529.52 374.37 529.52 374.37"/><line class="cls-5" x1="549.26" y1="479.29" x2="601.2" y2="479.29"/><line class="cls-5" x1="621.27" y1="479.29" x2="789.3" y2="479.29"/><line class="cls-10" x1="549.26" y1="338.01" x2="549.26" y2="338.01"/><line class="cls-7" x1="549.26" y1="479.29" x2="549.26" y2="478.29"/><line class="cls-11" x1="549.26" y1="475.43" x2="549.26" y2="433.94"/><line class="cls-7" x1="549.26" y1="432.5" x2="549.26" y2="431.5"/><line class="cls-12" x1="529.52" y1="374.37" x2="529.52" y2="389.95"/><line class="cls-7" x1="529.52" y1="431.5" x2="529.52" y2="432.5"/><polyline class="cls-13" points="529.52 435.39 529.52 479.29 529.52 496.59"/><line class="cls-7" x1="529.52" y1="498.03" x2="529.52" y2="499.03"/><line class="cls-4" x1="557.05" y1="345.8" x2="549.26" y2="345.8"/><polyline class="cls-12" points="529.52 389.95 549.26 389.95 549.26 338.01"/><line class="cls-2" x1="325.2" y1="561.59" y2="561.59"/><line class="cls-2" y1="595.67" x2="325.2" y2="595.67"/><line class="cls-5" x1="601.2" y1="479.29" x2="601.2" y2="338.01"/><line class="cls-10" x1="620.94" y1="479.29" x2="620.94" y2="338.01"/><line class="cls-4" x1="549.26" y1="381.29" x2="601.2" y2="381.29"/><line class="cls-4" x1="559.65" y1="379.56" x2="601.2" y2="379.56"/><line class="cls-5" x1="529.52" y1="188.41" x2="549.26" y2="188.41"/><line class="cls-5" x1="601.2" y1="338.01" x2="549.26" y2="338.01"/><line class="cls-5" x1="529.52" y1="1.67" x2="529.52" y2="188.41"/></g><g id="Text-2" data-name="Text"><rect class="cls-14" x="145.83" y="293.67" width="0.7" height="1.95"/><path class="cls-14" d="M113.94,294.89h0v.2h.6v-1.42h-.64v.77c0,.15-.09.26-.27.35a1.89,1.89,0,0,1-.75.12,1.44,1.44,0,0,1-.6-.09.28.28,0,0,1-.19-.28v-.87h-.63v1c0,.16.11.28.33.37a2.93,2.93,0,0,0,1,.13,3.23,3.23,0,0,0,.66-.06A2.28,2.28,0,0,0,113.94,294.89Z"/><path class="cls-14" d="M138.76,294.07a1.06,1.06,0,0,0-.36-.23,2.35,2.35,0,0,0-.56-.16,5,5,0,0,0-.71-.05,5.31,5.31,0,0,0-.72.05,2.56,2.56,0,0,0-.55.16,1.06,1.06,0,0,0-.36.23.48.48,0,0,0-.12.31.44.44,0,0,0,.12.3,1.25,1.25,0,0,0,.36.24,2.18,2.18,0,0,0,.56.15,3.92,3.92,0,0,0,.71.06,4,4,0,0,0,.72-.06,2.07,2.07,0,0,0,.56-.15,1.25,1.25,0,0,0,.36-.24.45.45,0,0,0,.12-.31A.41.41,0,0,0,138.76,294.07Zm-.82.7a2.24,2.24,0,0,1-1.61,0,.44.44,0,0,1-.3-.39.45.45,0,0,1,.3-.4,2.38,2.38,0,0,1,1.61,0,.45.45,0,0,1,.29.4A.44.44,0,0,1,137.94,294.77Z"/><path class="cls-14" d="M144.09,294.89h0v.2h.6v-1.42h-.64v.77c0,.15-.09.26-.27.35a1.89,1.89,0,0,1-.75.12,1.44,1.44,0,0,1-.6-.09.28.28,0,0,1-.19-.28v-.87h-.63v1c0,.16.11.28.33.37a2.93,2.93,0,0,0,.95.13,3.23,3.23,0,0,0,.66-.06A2.28,2.28,0,0,0,144.09,294.89Z"/><path class="cls-14" d="M124.23,294.53l1,0a2.81,2.81,0,0,0,.85-.14q.3-.1.3-.3t-.33-.3a2.66,2.66,0,0,0-.88-.11,3.39,3.39,0,0,0-.45,0,2.4,2.4,0,0,0-.4.06,1.25,1.25,0,0,0-.24.05l-.26.1a.24.24,0,0,0-.18-.17,1.65,1.65,0,0,0-.47-.05H123l-.09,0h0v.17h.22c.14,0,.2,0,.2.08v.82c0,.13.13.22.38.29a4.19,4.19,0,0,0,1.06.11,5.26,5.26,0,0,0,.86-.06,1.43,1.43,0,0,0,.51-.17l.07,0,0-.06s0,0,0-.06a.14.14,0,0,0,0-.07h-.59a.4.4,0,0,1-.27.21,2.24,2.24,0,0,1-.61.06c-.58,0-.87-.08-.87-.23a.11.11,0,0,1,.07-.12A.69.69,0,0,1,124.23,294.53Zm-.32-.37c0-.05,0-.09.09-.13a1.09,1.09,0,0,1,.26-.1,3,3,0,0,1,.37-.08,3.24,3.24,0,0,1,.45,0,1.69,1.69,0,0,1,.51.06c.12,0,.18.1.18.17s-.12.17-.36.2a2.87,2.87,0,0,1-.44,0h-.21l-.46,0-.25,0-.14,0Z"/><path class="cls-14" d="M131.63,294.89h0v.2h.6v-1.42h-.63v.77c0,.15-.09.26-.27.35a1.85,1.85,0,0,1-.73.12,1.06,1.06,0,0,1-.44-.07.21.21,0,0,1-.15-.19v-1h-.64v.86a.18.18,0,0,1-.07.15.52.52,0,0,1-.19.12,1.11,1.11,0,0,1-.29.08,2,2,0,0,1-.36,0c-.46,0-.68-.11-.68-.33v-.91h-.64v1c0,.15.11.26.32.35a2.55,2.55,0,0,0,.88.13,2.49,2.49,0,0,0,.65-.07l.12,0,.09,0,.12,0,.15-.06a1.15,1.15,0,0,0,.41.17,2.43,2.43,0,0,0,.59.06,3,3,0,0,0,.64-.06A2.21,2.21,0,0,0,131.63,294.89Z"/><path class="cls-14" d="M134,294.85h0v.24h.6v-1.42h-.64v.82a.18.18,0,0,1-.07.15.69.69,0,0,1-.21.13,1.67,1.67,0,0,1-.3.07,2.38,2.38,0,0,1-.39,0h-.24v.25h.16a2,2,0,0,0,.43,0,1.34,1.34,0,0,0,.37-.1l.12-.05Z"/><path class="cls-14" d="M121.42,294v.92h-.61v.2h.61v.39h.63v-.39h.52v-.2h-.52V294c0-.2-.23-.3-.71-.3h-.53v.19H121a1.15,1.15,0,0,1,.3,0Q121.42,293.91,121.42,294Z"/><path class="cls-14" d="M140.53,295.33v-.24h.52v-.2h-.52v-1.22h-.63v1.22h-.64v.2h.64v.17a.14.14,0,0,1-.09.13.74.74,0,0,1-.3,0h-.25v.22h.29C140.21,295.64,140.53,295.54,140.53,295.33Z"/><rect class="cls-14" x="119.53" y="293.67" width="0.64" height="1.42"/><path class="cls-14" d="M118.67,294.07a1,1,0,0,0-.37-.23,2.4,2.4,0,0,0-.55-.16,5.31,5.31,0,0,0-.72-.05,5,5,0,0,0-.71.05,2.26,2.26,0,0,0-.55.16.9.9,0,0,0-.36.23.45.45,0,0,0-.13.31.41.41,0,0,0,.13.3,1,1,0,0,0,.36.24,2.07,2.07,0,0,0,.56.15,4.23,4.23,0,0,0,1.42,0,2,2,0,0,0,.56-.15,1,1,0,0,0,.36-.24.42.42,0,0,0,0-.61Zm-.83.7a1.78,1.78,0,0,1-.8.15,1.75,1.75,0,0,1-.8-.15.44.44,0,0,1-.3-.39.45.45,0,0,1,.3-.4,1.91,1.91,0,0,1,.8-.14,2,2,0,0,1,.8.14.45.45,0,0,1,.3.4A.44.44,0,0,1,117.84,294.77Z"/><rect class="cls-14" x="119.53" y="295.34" width="0.64" height="0.27"/></g><g id="Layer_9" data-name="Layer 9"><polyline class="cls-15" points="549.26 319.4 621.27 319.4 621.27 479.29"/><polyline class="cls-16" points="524.79 495.14 524.79 499.03 520.89 499.03"/><line class="cls-17" x1="513.69" y1="499.03" x2="445.27" y2="499.03"/><polyline class="cls-16" points="441.67 499.03 437.77 499.03 437.77 495.14"/><line class="cls-18" x1="437.77" y1="487.66" x2="437.77" y2="327.04"/><polyline class="cls-16" points="437.77 323.3 437.77 319.4 441.67 319.4"/><line class="cls-17" x1="448.87" y1="319.4" x2="517.29" y2="319.4"/><polyline class="cls-16" points="520.89 319.4 524.79 319.4 524.79 323.3"/><line class="cls-18" x1="524.79" y1="330.77" x2="524.79" y2="491.4"/><line class="cls-19" x1="520.79" y1="335.6" x2="502.51" y2="335.6"/><polygon class="cls-14" points="505.49 331.92 506.11 332.58 502.85 335.6 506.11 338.62 505.49 339.28 501.53 335.6 505.49 331.92"/><line class="cls-19" x1="520.79" y1="409.09" x2="502.51" y2="409.09"/><polygon class="cls-14" points="505.49 405.41 506.11 406.07 502.85 409.09 506.11 412.11 505.49 412.77 501.53 409.09 505.49 405.41"/><line class="cls-19" x1="520.79" y1="482.58" x2="502.51" y2="482.58"/><polygon class="cls-14" points="505.49 478.9 506.11 479.56 502.85 482.58 506.11 485.6 505.49 486.26 501.53 482.58 505.49 478.9"/><path class="cls-14" d="M449.74,529.45l2.3-9.91h6.79l-.27,1.13H453l-.74,3.2h4.38l-.25,1.12H452l-.77,3.33h5.84l-.27,1.13Z"/><path class="cls-14" d="M458,529.45l3.94-4.17.3-.24L465,522h1.47l-3.75,4-.32.3-2.94,3.17Zm5.64,0-1.64-3.3-.15-.28-2-3.92h1.36l1.56,3.17.06.14,2.15,4.19Z"/><path class="cls-14" d="M465.94,532.6,468.4,522h1.05l-.33,1.84-.19.18a2.92,2.92,0,0,1,.59-1.15,2.76,2.76,0,0,1,1-.74,3.26,3.26,0,0,1,1.29-.25,2.66,2.66,0,0,1,1.43.38,2.83,2.83,0,0,1,1,1.13,4,4,0,0,1,.36,1.76,5.4,5.4,0,0,1-.29,1.78,4.28,4.28,0,0,1-.82,1.43,3.73,3.73,0,0,1-1.22,1,3.49,3.49,0,0,1-1.52.34,2.78,2.78,0,0,1-1.31-.3,2.18,2.18,0,0,1-.9-.83,2.65,2.65,0,0,1-.37-1.24l.22-.12-1.26,5.49Zm4.83-4a2.14,2.14,0,0,0,1-.25,2.78,2.78,0,0,0,.85-.73,3.61,3.61,0,0,0,.58-1.1,4.34,4.34,0,0,0,.21-1.38,2.72,2.72,0,0,0-.26-1.23,1.76,1.76,0,0,0-.7-.75,2.1,2.1,0,0,0-1.05-.26,2.26,2.26,0,0,0-1.07.26,2.69,2.69,0,0,0-.85.73,3.63,3.63,0,0,0-.57,1.11,4.85,4.85,0,0,0-.2,1.41,2.37,2.37,0,0,0,.52,1.58A1.88,1.88,0,0,0,470.77,528.56Z"/><path class="cls-14" d="M479.2,529.57a2.79,2.79,0,0,1-1.53-.42,2.87,2.87,0,0,1-1-1.17,3.71,3.71,0,0,1-.38-1.71,5.21,5.21,0,0,1,.29-1.74,4.62,4.62,0,0,1,.79-1.43,3.66,3.66,0,0,1,1.22-1,3.44,3.44,0,0,1,1.53-.35,3,3,0,0,1,1.18.23,2.24,2.24,0,0,1,.87.64,2.31,2.31,0,0,1,.48,1L483,522h1.2l-1.74,7.5h-1.05l.26-1.4a2.73,2.73,0,0,1-1,1.1A2.66,2.66,0,0,1,479.2,529.57Zm.32-1a2,2,0,0,0,1-.26,2.71,2.71,0,0,0,.84-.75,3.44,3.44,0,0,0,.58-1.11,4.32,4.32,0,0,0,.21-1.37,2.59,2.59,0,0,0-.25-1.18,1.82,1.82,0,0,0-.68-.77,2,2,0,0,0-1-.27,2.34,2.34,0,0,0-1.09.26,2.72,2.72,0,0,0-.86.73,3.62,3.62,0,0,0-.56,1.09,4.14,4.14,0,0,0-.2,1.34,2.93,2.93,0,0,0,.24,1.25,1.72,1.72,0,0,0,.7.78A2.28,2.28,0,0,0,479.52,528.54Z"/><path class="cls-14" d="M485.14,529.45l1.74-7.5h1.05l-.28,1.67-.15-.07a2.28,2.28,0,0,1,1.09-1.32,3.51,3.51,0,0,1,1.71-.44,2.72,2.72,0,0,1,1.47.38,2.06,2.06,0,0,1,.85,1.07,3.09,3.09,0,0,1,0,1.69l-1.05,4.52h-1.2l1.05-4.53a1.82,1.82,0,0,0-.18-1.53,1.54,1.54,0,0,0-1.3-.54,2.49,2.49,0,0,0-1.23.3,2.7,2.7,0,0,0-.89.89,4.89,4.89,0,0,0-.58,1.46l-.92,4Z"/><path class="cls-14" d="M497.37,529.57a2.79,2.79,0,0,1-1.53-.42,2.89,2.89,0,0,1-1-1.17,3.71,3.71,0,0,1-.37-1.71,5.2,5.2,0,0,1,.28-1.74,4.64,4.64,0,0,1,.8-1.43,3.63,3.63,0,0,1,1.21-1,3.44,3.44,0,0,1,1.53-.35,3,3,0,0,1,1.19.23,2.24,2.24,0,0,1,.87.64,2.31,2.31,0,0,1,.48,1L502,518.5h1.2l-2.53,11h-1.05l.25-1.4a2.73,2.73,0,0,1-1,1.1A2.63,2.63,0,0,1,497.37,529.57Zm.3-1a2.15,2.15,0,0,0,1-.26,2.71,2.71,0,0,0,.84-.75,3.63,3.63,0,0,0,.57-1.11,4.32,4.32,0,0,0,.21-1.37,2.73,2.73,0,0,0-.25-1.18,1.85,1.85,0,0,0-.69-.77,1.94,1.94,0,0,0-1-.27,2.38,2.38,0,0,0-1.1.26,2.69,2.69,0,0,0-.85.73,3.64,3.64,0,0,0-.57,1.09,4.43,4.43,0,0,0-.2,1.34,2.93,2.93,0,0,0,.24,1.25,1.77,1.77,0,0,0,.7.78A2.26,2.26,0,0,0,497.67,528.54Z"/><path class="cls-14" d="M508.56,523l.24-1h5l-.24,1Zm2.55,6.59a2.49,2.49,0,0,1-1.23-.29,1.55,1.55,0,0,1-.72-.83,2.17,2.17,0,0,1-.05-1.28l1.58-6.88,1.3-.37-1.71,7.31a1,1,0,0,0,.19,1,1.27,1.27,0,0,0,.85.29,1.91,1.91,0,0,0,.66-.1,1.57,1.57,0,0,0,.49-.28l.24,1a2.47,2.47,0,0,1-.76.35A3.72,3.72,0,0,1,511.11,529.57Z"/><path class="cls-14" d="M517.84,529.58a3.41,3.41,0,0,1-1.83-.46,2.93,2.93,0,0,1-1.16-1.23,3.66,3.66,0,0,1-.4-1.69,5,5,0,0,1,.5-2.27,3.9,3.9,0,0,1,1.36-1.56,3.66,3.66,0,0,1,2-.56,3.46,3.46,0,0,1,1.85.46,3,3,0,0,1,1.14,1.21,3.66,3.66,0,0,1,.39,1.69,5.15,5.15,0,0,1-.49,2.27,3.79,3.79,0,0,1-1.36,1.57A3.58,3.58,0,0,1,517.84,529.58Zm0-1a2.17,2.17,0,0,0,1-.23,2.41,2.41,0,0,0,.83-.67,3.25,3.25,0,0,0,.56-1.06,4.49,4.49,0,0,0,.19-1.37,3.08,3.08,0,0,0-.23-1.19,1.92,1.92,0,0,0-.72-.85,2.19,2.19,0,0,0-1.25-.32,2.33,2.33,0,0,0-1.85.9,3.34,3.34,0,0,0-.56,1,4.24,4.24,0,0,0-.2,1.37,2.91,2.91,0,0,0,.24,1.19,1.89,1.89,0,0,0,.73.87A2.21,2.21,0,0,0,517.89,528.54Z"/><path class="cls-14" d="M531.34,529.57a2.79,2.79,0,0,1-1.53-.42,2.87,2.87,0,0,1-1-1.17,3.71,3.71,0,0,1-.38-1.71,5.21,5.21,0,0,1,.29-1.74,4.62,4.62,0,0,1,.79-1.43,3.66,3.66,0,0,1,1.22-1,3.44,3.44,0,0,1,1.53-.35,3,3,0,0,1,1.18.23,2.24,2.24,0,0,1,.87.64,2.31,2.31,0,0,1,.48,1l.39-1.69h1.2l-1.74,7.5h-1.05l.26-1.4a2.8,2.8,0,0,1-1,1.1A2.66,2.66,0,0,1,531.34,529.57Zm.32-1a2,2,0,0,0,1-.26,2.71,2.71,0,0,0,.84-.75,3.44,3.44,0,0,0,.58-1.11,4.32,4.32,0,0,0,.21-1.37,2.59,2.59,0,0,0-.25-1.18,1.82,1.82,0,0,0-.68-.77,2,2,0,0,0-1.05-.27,2.34,2.34,0,0,0-1.09.26,2.72,2.72,0,0,0-.86.73,3.62,3.62,0,0,0-.56,1.09,4.14,4.14,0,0,0-.2,1.34,2.93,2.93,0,0,0,.24,1.25,1.75,1.75,0,0,0,.69.78A2.34,2.34,0,0,0,531.66,528.54Z"/><path class="cls-14" d="M539.34,529.55a1.6,1.6,0,0,1-1.44-.62,2,2,0,0,1-.17-1.63l2-8.8H541l-2.05,8.85a1,1,0,0,0,.09.88,1,1,0,0,0,.82.27h.39l.32,0-.3,1a2.25,2.25,0,0,1-.44.12A3,3,0,0,1,539.34,529.55Z"/><path class="cls-14" d="M543.88,529.55a1.6,1.6,0,0,1-1.44-.62,2,2,0,0,1-.16-1.63l2-8.8h1.2l-2.06,8.85a1,1,0,0,0,.09.88,1.07,1.07,0,0,0,.83.27h.39l.31,0-.3,1a2.18,2.18,0,0,1-.43.12A3.18,3.18,0,0,1,543.88,529.55Z"/><path class="cls-14" d="M550,529.58a3.44,3.44,0,0,1-1.84-.46,3,3,0,0,1-1.16-1.23,3.66,3.66,0,0,1-.39-1.69,5,5,0,0,1,.49-2.27,3.93,3.93,0,0,1,1.37-1.56,3.66,3.66,0,0,1,2-.56,3.42,3.42,0,0,1,1.84.46,3,3,0,0,1,1.14,1.21,3.66,3.66,0,0,1,.39,1.69,5,5,0,0,1-.49,2.27A3.77,3.77,0,0,1,552,529,3.58,3.58,0,0,1,550,529.58Zm0-1a2.17,2.17,0,0,0,1-.23,2.44,2.44,0,0,0,.84-.67,3.23,3.23,0,0,0,.55-1.06,4.48,4.48,0,0,0,.2-1.37,2.91,2.91,0,0,0-.24-1.19,1.86,1.86,0,0,0-.72-.85,2.17,2.17,0,0,0-1.25-.32,2.33,2.33,0,0,0-1.85.9,3.34,3.34,0,0,0-.56,1,4.53,4.53,0,0,0-.2,1.37,2.91,2.91,0,0,0,.24,1.19,1.91,1.91,0,0,0,.74.87A2.18,2.18,0,0,0,550,528.54Z"/><path class="cls-14" d="M556,529.45l-.81-7.5h1.15l.57,6,3.17-6h1.2l.76,6.09L565.3,522h1.28l-4.14,7.5h-1.2l-.83-6-3.18,6Z"/><path class="cls-14" d="M571.56,523l.24-1h5l-.24,1Zm0,6.47,2-8.9a3.3,3.3,0,0,1,.53-1.21,2,2,0,0,1,.86-.69,3,3,0,0,1,1.21-.23,2.78,2.78,0,0,1,.78.1,1.34,1.34,0,0,1,.55.26l-.4,1a1,1,0,0,0-.39-.18,1.91,1.91,0,0,0-.54-.08,1.45,1.45,0,0,0-1,.3,1.94,1.94,0,0,0-.51,1.07l-.24,1.08-.07.39-1.65,7.11Z"/><path class="cls-14" d="M580.48,529.58a3.47,3.47,0,0,1-1.84-.46,3,3,0,0,1-1.15-1.23,3.54,3.54,0,0,1-.4-1.69,5,5,0,0,1,.5-2.27,3.9,3.9,0,0,1,1.36-1.56,3.66,3.66,0,0,1,2-.56,3.46,3.46,0,0,1,1.85.46,3,3,0,0,1,1.14,1.21,3.66,3.66,0,0,1,.39,1.69,5.15,5.15,0,0,1-.49,2.27,3.87,3.87,0,0,1-1.36,1.57A3.58,3.58,0,0,1,580.48,529.58Zm0-1a2.2,2.2,0,0,0,1-.23,2.51,2.51,0,0,0,.83-.67,3.25,3.25,0,0,0,.56-1.06,4.49,4.49,0,0,0,.19-1.37,3.08,3.08,0,0,0-.23-1.19,2,2,0,0,0-.72-.85,2.19,2.19,0,0,0-1.25-.32,2.24,2.24,0,0,0-1,.23,2.33,2.33,0,0,0-.84.67,3.32,3.32,0,0,0-.55,1,4.24,4.24,0,0,0-.2,1.37,2.91,2.91,0,0,0,.24,1.19,1.89,1.89,0,0,0,.73.87A2.21,2.21,0,0,0,580.53,528.54Z"/><path class="cls-14" d="M585.64,529.45l1.74-7.5h1l-.17,1.72-.18-.1a2.94,2.94,0,0,1,.66-1,3.06,3.06,0,0,1,1-.6,2.92,2.92,0,0,1,1.06-.22,2.74,2.74,0,0,1,.43,0,1.22,1.22,0,0,1,.34.1l-.36,1.14a1.23,1.23,0,0,0-.34-.11,1.94,1.94,0,0,0-.44,0,2.39,2.39,0,0,0-1.08.26,2.46,2.46,0,0,0-.87.81,4,4,0,0,0-.57,1.39l-.95,4.07Z"/><path class="cls-14" d="M452.8,547.57a2.79,2.79,0,0,1-1.53-.42,2.87,2.87,0,0,1-1-1.17,3.71,3.71,0,0,1-.38-1.71,5.21,5.21,0,0,1,.29-1.74,4.62,4.62,0,0,1,.79-1.43,3.66,3.66,0,0,1,1.22-1,3.44,3.44,0,0,1,1.53-.35,3,3,0,0,1,1.18.23,2.24,2.24,0,0,1,.87.64,2.31,2.31,0,0,1,.48,1l.39-1.69h1.2l-1.74,7.5H455l.26-1.4a2.8,2.8,0,0,1-1,1.1A2.66,2.66,0,0,1,452.8,547.57Zm.32-1a2.1,2.1,0,0,0,1-.26,3,3,0,0,0,.84-.75,3.63,3.63,0,0,0,.57-1.11,4.32,4.32,0,0,0,.21-1.37,2.73,2.73,0,0,0-.24-1.18,1.92,1.92,0,0,0-.69-.77,2,2,0,0,0-1.05-.27,2.34,2.34,0,0,0-1.09.26,2.72,2.72,0,0,0-.86.73,3.62,3.62,0,0,0-.56,1.09,4.43,4.43,0,0,0-.2,1.34,2.93,2.93,0,0,0,.24,1.25,1.75,1.75,0,0,0,.69.78A2.34,2.34,0,0,0,453.12,546.54Z"/><path class="cls-14" d="M462.43,547.58a3.3,3.3,0,0,1-1.78-.46,3,3,0,0,1-1.13-1.23,3.7,3.7,0,0,1-.39-1.7,5,5,0,0,1,.5-2.27,3.84,3.84,0,0,1,1.38-1.55,3.77,3.77,0,0,1,2.05-.56,3.52,3.52,0,0,1,1.5.3,2.8,2.8,0,0,1,1,.83,2.94,2.94,0,0,1,.53,1.18l-1.26.3a1.79,1.79,0,0,0-.51-1.12,1.87,1.87,0,0,0-1.35-.45,2.39,2.39,0,0,0-1.06.24,2.48,2.48,0,0,0-.84.68,3.1,3.1,0,0,0-.56,1.05,4.43,4.43,0,0,0-.19,1.36,2.7,2.7,0,0,0,.25,1.19,2,2,0,0,0,.75.86,2.35,2.35,0,0,0,2.3,0,1.65,1.65,0,0,0,.73-.89l1.17.42a2.79,2.79,0,0,1-1.22,1.34A3.84,3.84,0,0,1,462.43,547.58Z"/><path class="cls-14" d="M470.43,547.58a3.28,3.28,0,0,1-1.78-.46,2.92,2.92,0,0,1-1.13-1.23,3.7,3.7,0,0,1-.39-1.7,5,5,0,0,1,.49-2.27,3.84,3.84,0,0,1,1.38-1.55,3.81,3.81,0,0,1,2.06-.56,3.45,3.45,0,0,1,1.49.3,2.84,2.84,0,0,1,1,.83,2.94,2.94,0,0,1,.53,1.18l-1.26.3a1.8,1.8,0,0,0-.52-1.12,1.84,1.84,0,0,0-1.34-.45,2.36,2.36,0,0,0-1.06.24,2.42,2.42,0,0,0-.85.68,3.08,3.08,0,0,0-.55,1.05,4.42,4.42,0,0,0-.2,1.36,2.7,2.7,0,0,0,.26,1.19,1.94,1.94,0,0,0,.74.86,2.2,2.2,0,0,0,1.21.31,2.13,2.13,0,0,0,1.1-.29,1.65,1.65,0,0,0,.73-.89l1.17.42a2.84,2.84,0,0,1-1.22,1.34A3.84,3.84,0,0,1,470.43,547.58Z"/><path class="cls-14" d="M478.5,547.58a3.44,3.44,0,0,1-1.84-.46,3,3,0,0,1-1.16-1.23,3.66,3.66,0,0,1-.39-1.69,5,5,0,0,1,.49-2.27,3.93,3.93,0,0,1,1.37-1.56,3.66,3.66,0,0,1,2-.56,3.42,3.42,0,0,1,1.84.46,3,3,0,0,1,1.14,1.21,3.66,3.66,0,0,1,.39,1.69,5,5,0,0,1-.49,2.27,3.77,3.77,0,0,1-1.35,1.57A3.58,3.58,0,0,1,478.5,547.58Zm0-1a2.24,2.24,0,0,0,1-.23,2.51,2.51,0,0,0,.83-.67,3.23,3.23,0,0,0,.55-1.06,4.48,4.48,0,0,0,.2-1.37,2.91,2.91,0,0,0-.24-1.19,1.86,1.86,0,0,0-.72-.85,2.17,2.17,0,0,0-1.25-.32,2.33,2.33,0,0,0-1.85.9,3.56,3.56,0,0,0-.56,1,4.53,4.53,0,0,0-.2,1.37,2.91,2.91,0,0,0,.24,1.19,1.91,1.91,0,0,0,.74.87A2.18,2.18,0,0,0,478.54,546.54Z"/><path class="cls-14" d="M483.66,547.45l1.74-7.5h1.05l-.29,1.67-.15-.07a2.3,2.3,0,0,1,1.08-1.32,3.45,3.45,0,0,1,1.7-.44,2.46,2.46,0,0,1,1.38.38,2,2,0,0,1,.82,1.08,3.08,3.08,0,0,1,0,1.71l-1.05,4.49h-1.2l1.05-4.5a1.91,1.91,0,0,0-.14-1.55,1.37,1.37,0,0,0-1.21-.55,2.42,2.42,0,0,0-1.22.3,2.61,2.61,0,0,0-.89.89,5.49,5.49,0,0,0-.56,1.46l-.91,4Zm10.18,0,1-4.5a2,2,0,0,0-.15-1.55,1.34,1.34,0,0,0-1.2-.55,2.42,2.42,0,0,0-1.22.3,2.68,2.68,0,0,0-.88.89,5.17,5.17,0,0,0-.57,1.46l-.15-1.59a3.22,3.22,0,0,1,1.29-1.59,3.55,3.55,0,0,1,1.87-.53,2.51,2.51,0,0,1,1.39.38,2,2,0,0,1,.82,1.08,3.08,3.08,0,0,1,0,1.71l-1,4.49Z"/><path class="cls-14" d="M497,550.6,499.41,540h1l-.33,1.84-.2.18a2.92,2.92,0,0,1,.59-1.15,2.79,2.79,0,0,1,1-.74,3.26,3.26,0,0,1,1.29-.25,2.63,2.63,0,0,1,1.42.38,2.83,2.83,0,0,1,1,1.13,4,4,0,0,1,.37,1.76,5.16,5.16,0,0,1-.3,1.78,4.26,4.26,0,0,1-.81,1.43,3.77,3.77,0,0,1-1.23,1,3.49,3.49,0,0,1-1.52.34,2.74,2.74,0,0,1-1.3-.3,2.18,2.18,0,0,1-.9-.83,2.66,2.66,0,0,1-.38-1.24l.23-.12-1.26,5.49Zm4.83-4a2.14,2.14,0,0,0,1-.25,2.64,2.64,0,0,0,.84-.73,3.61,3.61,0,0,0,.58-1.1,4.34,4.34,0,0,0,.21-1.38,2.73,2.73,0,0,0-.25-1.23,1.78,1.78,0,0,0-.71-.75,2.1,2.1,0,0,0-1.05-.26,2.26,2.26,0,0,0-1.07.26,2.69,2.69,0,0,0-.85.73,3.41,3.41,0,0,0-.56,1.11,4.54,4.54,0,0,0-.2,1.41,2.36,2.36,0,0,0,.51,1.58A1.9,1.9,0,0,0,501.78,546.56Z"/><path class="cls-14" d="M510.21,547.57a2.79,2.79,0,0,1-1.53-.42,2.89,2.89,0,0,1-1-1.17,3.71,3.71,0,0,1-.37-1.71,5.2,5.2,0,0,1,.28-1.74,4.64,4.64,0,0,1,.8-1.43,3.63,3.63,0,0,1,1.21-1,3.44,3.44,0,0,1,1.53-.35,3,3,0,0,1,1.19.23,2.24,2.24,0,0,1,.87.64,2.31,2.31,0,0,1,.48,1L514,540h1.2l-1.74,7.5h-1.05l.25-1.4a2.73,2.73,0,0,1-1,1.1A2.63,2.63,0,0,1,510.21,547.57Zm.31-1a2.1,2.1,0,0,0,1-.26,3,3,0,0,0,.84-.75,3.65,3.65,0,0,0,.58-1.11,4.32,4.32,0,0,0,.21-1.37,2.73,2.73,0,0,0-.25-1.18,1.92,1.92,0,0,0-.69-.77,2,2,0,0,0-1-.27,2.38,2.38,0,0,0-1.1.26,2.69,2.69,0,0,0-.85.73,3.64,3.64,0,0,0-.57,1.09,4.43,4.43,0,0,0-.2,1.34,2.93,2.93,0,0,0,.24,1.25,1.72,1.72,0,0,0,.7.78A2.28,2.28,0,0,0,510.52,546.54Z"/><path class="cls-14" d="M516.15,547.45l1.74-7.5h1.05l-.29,1.67-.15-.07a2.29,2.29,0,0,1,1.1-1.32,3.51,3.51,0,0,1,1.71-.44,2.72,2.72,0,0,1,1.47.38,2,2,0,0,1,.84,1.07,3,3,0,0,1,0,1.69l-1,4.52h-1.2l1.05-4.53a1.82,1.82,0,0,0-.19-1.53,1.54,1.54,0,0,0-1.3-.54,2.42,2.42,0,0,0-1.22.3,2.64,2.64,0,0,0-.9.89,4.89,4.89,0,0,0-.58,1.46l-.91,4Z"/><path class="cls-14" d="M528.09,540l-1.74,7.5h-1.2l1.74-7.5Zm-.14-1.44a.82.82,0,0,1-.58-.22.77.77,0,0,1-.23-.56,1,1,0,0,1,.28-.75.93.93,0,0,1,.67-.28.82.82,0,0,1,.58.22.78.78,0,0,1,.23.57,1,1,0,0,1-.28.74A1,1,0,0,1,528,538.51Z"/><path class="cls-14" d="M529,547.45l1.74-7.5h1l-.29,1.67-.15-.07a2.3,2.3,0,0,1,1.08-1.32,3.45,3.45,0,0,1,1.7-.44,2.46,2.46,0,0,1,1.38.38,2,2,0,0,1,.82,1.08,3.08,3.08,0,0,1,0,1.71l-1.05,4.49h-1.2l1-4.5a1.91,1.91,0,0,0-.14-1.55,1.37,1.37,0,0,0-1.21-.55,2.42,2.42,0,0,0-1.22.3,2.61,2.61,0,0,0-.89.89,5.49,5.49,0,0,0-.56,1.46l-.91,4Zm10.18,0,1-4.5a2,2,0,0,0-.15-1.55,1.34,1.34,0,0,0-1.2-.55,2.42,2.42,0,0,0-1.22.3,2.68,2.68,0,0,0-.88.89,5.17,5.17,0,0,0-.57,1.46l-.15-1.59a3.22,3.22,0,0,1,1.29-1.59,3.55,3.55,0,0,1,1.87-.53,2.51,2.51,0,0,1,1.39.38,2,2,0,0,1,.82,1.08,3.08,3.08,0,0,1,0,1.71l-1,4.49Z"/><path class="cls-14" d="M546.63,547.58a3.36,3.36,0,0,1-1.78-.45,2.93,2.93,0,0,1-1.13-1.21,3.72,3.72,0,0,1-.39-1.72,5.12,5.12,0,0,1,.46-2.17,3.82,3.82,0,0,1,1.36-1.61,3.72,3.72,0,0,1,2.17-.61,3.05,3.05,0,0,1,1.56.38,2.52,2.52,0,0,1,1,1,3.14,3.14,0,0,1,.35,1.48,3.34,3.34,0,0,1-.06.62,4.27,4.27,0,0,1-.15.67h-6.11v-1.05h5.58l-.52.42A2.25,2.25,0,0,0,549,543a2.1,2.1,0,0,0-.19-1.29,1.57,1.57,0,0,0-.62-.63,2,2,0,0,0-1-.22,2.43,2.43,0,0,0-1.25.29,2.28,2.28,0,0,0-.84.79,3.39,3.39,0,0,0-.47,1.1,5.57,5.57,0,0,0-.14,1.22,2.41,2.41,0,0,0,.28,1.19,1.94,1.94,0,0,0,.77.81,2.54,2.54,0,0,0,2.43,0,2.44,2.44,0,0,0,.81-.82l.95.63a3.5,3.5,0,0,1-.8.83,3.22,3.22,0,0,1-1.06.54A4.06,4.06,0,0,1,546.63,547.58Z"/><path class="cls-14" d="M551.53,547.45l1.74-7.5h1.05l-.28,1.67-.15-.07a2.28,2.28,0,0,1,1.09-1.32,3.51,3.51,0,0,1,1.71-.44,2.72,2.72,0,0,1,1.47.38,2.06,2.06,0,0,1,.85,1.07,3.09,3.09,0,0,1,0,1.69l-1,4.52h-1.2l1.05-4.53a1.79,1.79,0,0,0-.19-1.53,1.51,1.51,0,0,0-1.29-.54,2.49,2.49,0,0,0-1.23.3,2.83,2.83,0,0,0-.9.89,5.17,5.17,0,0,0-.57,1.46l-.92,4Z"/><path class="cls-14" d="M560.94,541l.24-1h5l-.24,1Zm2.55,6.59a2.49,2.49,0,0,1-1.23-.29,1.55,1.55,0,0,1-.72-.83,2.17,2.17,0,0,1,0-1.28l1.58-6.88,1.3-.37-1.71,7.31a.94.94,0,0,0,.19,1,1.27,1.27,0,0,0,.85.29,1.91,1.91,0,0,0,.66-.1,1.57,1.57,0,0,0,.49-.28l.24,1a2.47,2.47,0,0,1-.76.35A3.72,3.72,0,0,1,563.49,547.57Z"/><path class="cls-14" d="M574.8,547.57a2.79,2.79,0,0,1-1.53-.42,2.89,2.89,0,0,1-1-1.17,3.71,3.71,0,0,1-.37-1.71,5.2,5.2,0,0,1,.28-1.74,4.64,4.64,0,0,1,.8-1.43,3.63,3.63,0,0,1,1.21-1,3.44,3.44,0,0,1,1.53-.35,3,3,0,0,1,1.19.23,2.24,2.24,0,0,1,.87.64,2.31,2.31,0,0,1,.48,1l.39-1.69h1.2l-1.74,7.5H577l.25-1.4a2.73,2.73,0,0,1-1,1.1A2.63,2.63,0,0,1,574.8,547.57Zm.31-1a2.1,2.1,0,0,0,1-.26,3,3,0,0,0,.84-.75,3.65,3.65,0,0,0,.58-1.11,4.32,4.32,0,0,0,.21-1.37,2.73,2.73,0,0,0-.25-1.18,1.92,1.92,0,0,0-.69-.77,2,2,0,0,0-1-.27,2.38,2.38,0,0,0-1.1.26,2.69,2.69,0,0,0-.85.73,3.64,3.64,0,0,0-.57,1.09,4.43,4.43,0,0,0-.2,1.34,2.93,2.93,0,0,0,.24,1.25,1.72,1.72,0,0,0,.7.78A2.28,2.28,0,0,0,575.11,546.54Z"/><path class="cls-14" d="M580.74,547.45l1.74-7.5h1l-.29,1.67-.15-.07a2.29,2.29,0,0,1,1.1-1.32,3.51,3.51,0,0,1,1.71-.44,2.72,2.72,0,0,1,1.47.38,2,2,0,0,1,.84,1.07,3,3,0,0,1,0,1.69l-1,4.52H586l1-4.53a1.82,1.82,0,0,0-.19-1.53,1.54,1.54,0,0,0-1.3-.54,2.42,2.42,0,0,0-1.22.3,2.64,2.64,0,0,0-.9.89,4.89,4.89,0,0,0-.58,1.46l-.91,4Z"/><path class="cls-14" d="M593,547.57a2.79,2.79,0,0,1-1.53-.42,2.87,2.87,0,0,1-1-1.17,3.71,3.71,0,0,1-.38-1.71,5.21,5.21,0,0,1,.29-1.74,4.62,4.62,0,0,1,.79-1.43,3.66,3.66,0,0,1,1.22-1,3.44,3.44,0,0,1,1.53-.35A3,3,0,0,1,595,540a2.24,2.24,0,0,1,.87.64,2.31,2.31,0,0,1,.48,1l1.19-5.14h1.2l-2.54,11h-1.05l.26-1.4a2.8,2.8,0,0,1-1,1.1A2.69,2.69,0,0,1,593,547.57Zm.3-1a2.15,2.15,0,0,0,1-.26,2.71,2.71,0,0,0,.84-.75,3.63,3.63,0,0,0,.57-1.11,4.32,4.32,0,0,0,.21-1.37,2.59,2.59,0,0,0-.25-1.18,1.78,1.78,0,0,0-.69-.77,1.94,1.94,0,0,0-1-.27,2.34,2.34,0,0,0-1.09.26,2.72,2.72,0,0,0-.86.73,3.4,3.4,0,0,0-.56,1.09,4.14,4.14,0,0,0-.2,1.34,2.93,2.93,0,0,0,.24,1.25,1.75,1.75,0,0,0,.69.78A2.29,2.29,0,0,0,593.26,546.54Z"/><path class="cls-14" d="M452.8,565.57a2.79,2.79,0,0,1-1.53-.42,2.87,2.87,0,0,1-1-1.17,3.71,3.71,0,0,1-.38-1.71,5.21,5.21,0,0,1,.29-1.74,4.62,4.62,0,0,1,.79-1.43,3.66,3.66,0,0,1,1.22-1,3.44,3.44,0,0,1,1.53-.35,3,3,0,0,1,1.18.23,2.24,2.24,0,0,1,.87.64,2.31,2.31,0,0,1,.48,1l1.19-5.14h1.2l-2.54,11H455l.26-1.4a2.8,2.8,0,0,1-1,1.1A2.66,2.66,0,0,1,452.8,565.57Zm.3-1a2.15,2.15,0,0,0,1-.26,2.71,2.71,0,0,0,.84-.75,3.63,3.63,0,0,0,.57-1.11,4.32,4.32,0,0,0,.21-1.37,2.73,2.73,0,0,0-.24-1.18,1.92,1.92,0,0,0-.69-.77,2,2,0,0,0-1.05-.27,2.34,2.34,0,0,0-1.09.26,2.72,2.72,0,0,0-.86.73,3.62,3.62,0,0,0-.56,1.09,4.43,4.43,0,0,0-.2,1.34,2.93,2.93,0,0,0,.24,1.25,1.75,1.75,0,0,0,.69.78A2.29,2.29,0,0,0,453.1,564.54Z"/><path class="cls-14" d="M461.68,558l-1.74,7.5h-1.2l1.74-7.5Zm-.13-1.44a.84.84,0,0,1-.59-.22.76.76,0,0,1-.22-.56A1,1,0,0,1,461,555a1,1,0,0,1,.67-.28.84.84,0,0,1,.59.22.77.77,0,0,1,.22.57,1,1,0,0,1-.27.74A1,1,0,0,1,461.55,556.51Z"/><path class="cls-14" d="M462.61,565.45l1.74-7.5h1l-.17,1.72-.18-.1a2.94,2.94,0,0,1,.66-1,3,3,0,0,1,1-.6,2.82,2.82,0,0,1,1-.22,2.74,2.74,0,0,1,.43,0,1.13,1.13,0,0,1,.34.1l-.36,1.14a1.13,1.13,0,0,0-.34-.11,1.89,1.89,0,0,0-.44,0,2.32,2.32,0,0,0-1.07.26,2.41,2.41,0,0,0-.88.81,4,4,0,0,0-.57,1.39l-.95,4.07Z"/><path class="cls-14" d="M471.87,565.58a3.39,3.39,0,0,1-1.78-.45,3,3,0,0,1-1.13-1.21,3.72,3.72,0,0,1-.39-1.72A5.12,5.12,0,0,1,469,560a3.89,3.89,0,0,1,1.36-1.61,3.72,3.72,0,0,1,2.17-.61,3.12,3.12,0,0,1,1.57.38,2.56,2.56,0,0,1,1,1,3.14,3.14,0,0,1,.35,1.48,4.44,4.44,0,0,1-.05.62,5.89,5.89,0,0,1-.16.67h-6.11v-1.05h5.58l-.52.42a2.25,2.25,0,0,0,.06-.36,2.1,2.1,0,0,0-.19-1.29,1.57,1.57,0,0,0-.62-.63,2,2,0,0,0-1-.22,2.46,2.46,0,0,0-1.25.29,2.36,2.36,0,0,0-.84.79,3.37,3.37,0,0,0-.46,1.1,5,5,0,0,0-.15,1.22,2.52,2.52,0,0,0,.28,1.19,2,2,0,0,0,.77.81,2.54,2.54,0,0,0,2.43,0,2.44,2.44,0,0,0,.81-.82l.95.63a3.5,3.5,0,0,1-.8.83,3.27,3.27,0,0,1-1.05.54A4.17,4.17,0,0,1,471.87,565.58Z"/><path class="cls-14" d="M480.39,565.58a3.28,3.28,0,0,1-1.78-.46,2.92,2.92,0,0,1-1.13-1.23,3.7,3.7,0,0,1-.39-1.7,5,5,0,0,1,.49-2.27,3.84,3.84,0,0,1,1.38-1.55,3.81,3.81,0,0,1,2.06-.56,3.45,3.45,0,0,1,1.49.3,2.84,2.84,0,0,1,1,.83,2.94,2.94,0,0,1,.53,1.18l-1.26.3a1.8,1.8,0,0,0-.52-1.12,1.84,1.84,0,0,0-1.34-.45,2.36,2.36,0,0,0-1.06.24,2.42,2.42,0,0,0-.85.68,3.08,3.08,0,0,0-.55,1.05,4.42,4.42,0,0,0-.2,1.36,2.7,2.7,0,0,0,.26,1.19,1.94,1.94,0,0,0,.74.86,2.2,2.2,0,0,0,1.21.31,2.16,2.16,0,0,0,1.1-.29,1.65,1.65,0,0,0,.73-.89l1.17.42a2.84,2.84,0,0,1-1.22,1.34A3.84,3.84,0,0,1,480.39,565.58Z"/><path class="cls-14" d="M485.28,559l.24-1h5l-.24,1Zm2.55,6.59a2.49,2.49,0,0,1-1.23-.29,1.55,1.55,0,0,1-.72-.83,2.17,2.17,0,0,1-.05-1.28l1.58-6.88,1.3-.37L487,563.23a1,1,0,0,0,.19,1,1.27,1.27,0,0,0,.85.29,1.91,1.91,0,0,0,.66-.1,1.57,1.57,0,0,0,.49-.28l.24,1a2.47,2.47,0,0,1-.76.35A3.72,3.72,0,0,1,487.83,565.57Z"/><path class="cls-14" d="M499.51,565.58a3.39,3.39,0,0,1-1.78-.45,3,3,0,0,1-1.13-1.21,3.72,3.72,0,0,1-.39-1.72,5.13,5.13,0,0,1,.47-2.17,3.86,3.86,0,0,1,1.35-1.61,3.74,3.74,0,0,1,2.17-.61,3.12,3.12,0,0,1,1.57.38,2.58,2.58,0,0,1,1,1,3.13,3.13,0,0,1,.34,1.48,3.31,3.31,0,0,1-.05.62,5.89,5.89,0,0,1-.16.67h-6.1v-1.05h5.58l-.53.42c0-.12,0-.24.07-.36s0-.23,0-.34a1.93,1.93,0,0,0-.22-.95,1.51,1.51,0,0,0-.62-.63,2,2,0,0,0-1-.22,2.5,2.5,0,0,0-1.26.29,2.44,2.44,0,0,0-.84.79,3.37,3.37,0,0,0-.46,1.1,5,5,0,0,0-.14,1.22,2.52,2.52,0,0,0,.27,1.19,2,2,0,0,0,.78.81,2.54,2.54,0,0,0,2.43,0,2.44,2.44,0,0,0,.81-.82l.94.63a3.46,3.46,0,0,1-.79.83,3.32,3.32,0,0,1-1.06.54A4.17,4.17,0,0,1,499.51,565.58Z"/><path class="cls-14" d="M504.42,565.45l1.74-7.5h1l-.29,1.67-.15-.07a2.29,2.29,0,0,1,1.1-1.32,3.51,3.51,0,0,1,1.71-.44,2.72,2.72,0,0,1,1.47.38,2,2,0,0,1,.84,1.07,3,3,0,0,1,0,1.69l-1.05,4.52h-1.2l1.05-4.53a1.79,1.79,0,0,0-.19-1.53,1.54,1.54,0,0,0-1.3-.54,2.42,2.42,0,0,0-1.22.3,2.64,2.64,0,0,0-.9.89,4.89,4.89,0,0,0-.58,1.46l-.91,4Z"/><path class="cls-14" d="M513.82,559l.24-1h5l-.24,1Zm2.55,6.59a2.49,2.49,0,0,1-1.23-.29,1.55,1.55,0,0,1-.72-.83,2.18,2.18,0,0,1,0-1.28l1.57-6.88,1.31-.37-1.71,7.31a.94.94,0,0,0,.19,1,1.24,1.24,0,0,0,.84.29,1.91,1.91,0,0,0,.66-.1,1.62,1.62,0,0,0,.5-.28l.24,1a2.52,2.52,0,0,1-.77.35A3.72,3.72,0,0,1,516.37,565.57Z"/><path class="cls-14" d="M519.34,565.45l1.74-7.5h1l-.17,1.72-.18-.1a2.94,2.94,0,0,1,.66-1,3.06,3.06,0,0,1,1-.6,2.92,2.92,0,0,1,1.06-.22,2.74,2.74,0,0,1,.43,0,1.22,1.22,0,0,1,.34.1l-.36,1.14a1.23,1.23,0,0,0-.34-.11,1.94,1.94,0,0,0-.44,0,2.39,2.39,0,0,0-1.08.26,2.46,2.46,0,0,0-.87.81,4,4,0,0,0-.57,1.39l-1,4.07Z"/><path class="cls-14" d="M528.22,565.57a2.79,2.79,0,0,1-1.53-.42,2.87,2.87,0,0,1-1-1.17,3.71,3.71,0,0,1-.38-1.71,5.21,5.21,0,0,1,.29-1.74,4.62,4.62,0,0,1,.79-1.43,3.66,3.66,0,0,1,1.22-1,3.44,3.44,0,0,1,1.53-.35,3,3,0,0,1,1.18.23,2.24,2.24,0,0,1,.87.64,2.31,2.31,0,0,1,.48,1L532,558h1.2l-1.74,7.5h-1l.26-1.4a2.8,2.8,0,0,1-1,1.1A2.69,2.69,0,0,1,528.22,565.57Zm.32-1a2.1,2.1,0,0,0,1-.26,3,3,0,0,0,.84-.75,3.63,3.63,0,0,0,.57-1.11,4.32,4.32,0,0,0,.21-1.37,2.73,2.73,0,0,0-.24-1.18,1.87,1.87,0,0,0-.7-.77,1.94,1.94,0,0,0-1-.27,2.34,2.34,0,0,0-1.09.26,2.72,2.72,0,0,0-.86.73,3.62,3.62,0,0,0-.56,1.09,4.43,4.43,0,0,0-.2,1.34,2.93,2.93,0,0,0,.24,1.25,1.75,1.75,0,0,0,.69.78A2.34,2.34,0,0,0,528.54,564.54Z"/><path class="cls-14" d="M534.16,565.45l1.74-7.5H537l-.28,1.67-.15-.07a2.28,2.28,0,0,1,1.09-1.32,3.51,3.51,0,0,1,1.71-.44,2.72,2.72,0,0,1,1.47.38,2.06,2.06,0,0,1,.85,1.07,3,3,0,0,1,0,1.69l-1,4.52h-1.2l1.05-4.53a1.79,1.79,0,0,0-.19-1.53,1.51,1.51,0,0,0-1.29-.54,2.42,2.42,0,0,0-1.22.3,2.76,2.76,0,0,0-.91.89,5.17,5.17,0,0,0-.57,1.46l-.92,4Z"/><path class="cls-14" d="M546.78,565.58a3.28,3.28,0,0,1-1.78-.46,2.92,2.92,0,0,1-1.13-1.23,3.7,3.7,0,0,1-.39-1.7,5,5,0,0,1,.49-2.27,3.84,3.84,0,0,1,1.38-1.55,3.81,3.81,0,0,1,2.06-.56,3.48,3.48,0,0,1,1.49.3,2.73,2.73,0,0,1,1,.83,2.83,2.83,0,0,1,.54,1.18l-1.26.3a1.8,1.8,0,0,0-.52-1.12,1.84,1.84,0,0,0-1.34-.45,2.36,2.36,0,0,0-1.06.24,2.42,2.42,0,0,0-.85.68,3.08,3.08,0,0,0-.55,1.05,4.42,4.42,0,0,0-.2,1.36,2.7,2.7,0,0,0,.26,1.19,1.94,1.94,0,0,0,.74.86,2.37,2.37,0,0,0,2.31,0,1.65,1.65,0,0,0,.73-.89l1.17.42a2.84,2.84,0,0,1-1.22,1.34A3.84,3.84,0,0,1,546.78,565.58Z"/><path class="cls-14" d="M554.76,565.58a3.36,3.36,0,0,1-1.78-.45,2.93,2.93,0,0,1-1.13-1.21,3.72,3.72,0,0,1-.39-1.72,5.12,5.12,0,0,1,.46-2.17,3.82,3.82,0,0,1,1.36-1.61,3.72,3.72,0,0,1,2.17-.61,3.05,3.05,0,0,1,1.56.38,2.52,2.52,0,0,1,1,1,3.14,3.14,0,0,1,.35,1.48,4.44,4.44,0,0,1-.05.62,5.89,5.89,0,0,1-.16.67H552v-1.05h5.58l-.52.42a2.25,2.25,0,0,0,.06-.36,2.1,2.1,0,0,0-.19-1.29,1.57,1.57,0,0,0-.62-.63,2,2,0,0,0-1-.22,2.46,2.46,0,0,0-1.25.29,2.28,2.28,0,0,0-.84.79,3.39,3.39,0,0,0-.47,1.1,5.57,5.57,0,0,0-.14,1.22,2.41,2.41,0,0,0,.28,1.19,2,2,0,0,0,.77.81,2.54,2.54,0,0,0,2.43,0,2.44,2.44,0,0,0,.81-.82l.95.63a3.5,3.5,0,0,1-.8.83,3.27,3.27,0,0,1-1.05.54A4.17,4.17,0,0,1,554.76,565.58Z"/><path class="cls-14" d="M564.91,559l.24-1h5l-.24,1Zm2.55,6.59a2.49,2.49,0,0,1-1.23-.29,1.55,1.55,0,0,1-.72-.83,2.18,2.18,0,0,1,0-1.28l1.57-6.88,1.31-.37-1.71,7.31a.94.94,0,0,0,.19,1,1.24,1.24,0,0,0,.84.29,1.91,1.91,0,0,0,.66-.1,1.62,1.62,0,0,0,.5-.28l.24,1a2.52,2.52,0,0,1-.77.35A3.72,3.72,0,0,1,567.46,565.57Z"/><path class="cls-14" d="M574.2,565.58a3.44,3.44,0,0,1-1.84-.46,3,3,0,0,1-1.16-1.23,3.66,3.66,0,0,1-.39-1.69,5,5,0,0,1,.49-2.27,3.93,3.93,0,0,1,1.37-1.56,3.66,3.66,0,0,1,2-.56,3.42,3.42,0,0,1,1.84.46,3,3,0,0,1,1.14,1.21,3.66,3.66,0,0,1,.39,1.69,5,5,0,0,1-.49,2.27,3.77,3.77,0,0,1-1.35,1.57A3.58,3.58,0,0,1,574.2,565.58Zm0-1a2.24,2.24,0,0,0,1-.23,2.51,2.51,0,0,0,.83-.67,3.23,3.23,0,0,0,.55-1.06,4.48,4.48,0,0,0,.2-1.37,2.91,2.91,0,0,0-.24-1.19,1.9,1.9,0,0,0-.71-.85,2.4,2.4,0,0,0-3.11.58,3.56,3.56,0,0,0-.56,1,4.53,4.53,0,0,0-.2,1.37,2.91,2.91,0,0,0,.24,1.19,1.91,1.91,0,0,0,.74.87A2.18,2.18,0,0,0,574.24,564.54Z"/><path class="cls-14" d="M451.56,583.55a1.6,1.6,0,0,1-1.44-.62,2,2,0,0,1-.17-1.63l2-8.8h1.2l-2.05,8.85a1,1,0,0,0,.09.88,1,1,0,0,0,.82.27h.39l.32,0-.3,1a2.25,2.25,0,0,1-.44.12A3,3,0,0,1,451.56,583.55Z"/><path class="cls-14" d="M457.66,583.58a3.41,3.41,0,0,1-1.83-.46,2.93,2.93,0,0,1-1.16-1.23,3.66,3.66,0,0,1-.4-1.69,5,5,0,0,1,.5-2.27,3.9,3.9,0,0,1,1.36-1.56,3.66,3.66,0,0,1,2-.56,3.46,3.46,0,0,1,1.85.46,3,3,0,0,1,1.14,1.21,3.66,3.66,0,0,1,.39,1.69,5.15,5.15,0,0,1-.49,2.27,3.79,3.79,0,0,1-1.36,1.57A3.58,3.58,0,0,1,457.66,583.58Zm0-1a2.17,2.17,0,0,0,1-.23,2.41,2.41,0,0,0,.83-.67,3.25,3.25,0,0,0,.56-1.06,4.49,4.49,0,0,0,.19-1.37,3.08,3.08,0,0,0-.23-1.19,1.86,1.86,0,0,0-.72-.85,2.19,2.19,0,0,0-1.25-.32,2.33,2.33,0,0,0-1.85.9,3.34,3.34,0,0,0-.56,1,4.53,4.53,0,0,0-.2,1.37,2.91,2.91,0,0,0,.24,1.19,1.89,1.89,0,0,0,.73.87A2.21,2.21,0,0,0,457.71,582.54Z"/><path class="cls-14" d="M467.94,575.83a2.73,2.73,0,0,1,1.45.38,2.68,2.68,0,0,1,1,1.14,4,4,0,0,1,.37,1.81,4.89,4.89,0,0,1-.29,1.74,4.45,4.45,0,0,1-.81,1.41,3.8,3.8,0,0,1-1.21,1,3.51,3.51,0,0,1-1.51.34,3,3,0,0,1-1.23-.25,2.41,2.41,0,0,1-.86-.67,2.37,2.37,0,0,1-.45-.93l-.39,1.7h-1.2l2.54-11h1.2l-1.08,4.65a2.7,2.7,0,0,1,1-.95A2.91,2.91,0,0,1,467.94,575.83Zm-1,6.73a2.14,2.14,0,0,0,1-.25,2.64,2.64,0,0,0,.85-.72,3.28,3.28,0,0,0,.58-1.08,4.4,4.4,0,0,0,.21-1.39,2.64,2.64,0,0,0-.27-1.26,1.67,1.67,0,0,0-.71-.75,2,2,0,0,0-1-.25,2.34,2.34,0,0,0-1.09.26,2.72,2.72,0,0,0-.86.73,3.39,3.39,0,0,0-.55,1.11,4.85,4.85,0,0,0-.2,1.41,2.32,2.32,0,0,0,.52,1.58A1.88,1.88,0,0,0,466.93,582.56Z"/><path class="cls-14" d="M477.18,575.83a2.73,2.73,0,0,1,1.45.38,2.68,2.68,0,0,1,1,1.14,4,4,0,0,1,.37,1.81,5.12,5.12,0,0,1-.29,1.74,4.45,4.45,0,0,1-.81,1.41,3.73,3.73,0,0,1-1.22,1,3.44,3.44,0,0,1-1.5.34,2.92,2.92,0,0,1-1.22-.25,2.32,2.32,0,0,1-1.32-1.6l-.39,1.7h-1.2l2.54-11h1.2l-1.08,4.65a2.7,2.7,0,0,1,1-.95A2.91,2.91,0,0,1,477.18,575.83Zm-1,6.73a2.14,2.14,0,0,0,1-.25,2.75,2.75,0,0,0,.85-.72,3.48,3.48,0,0,0,.58-1.08,4.4,4.4,0,0,0,.21-1.39,2.64,2.64,0,0,0-.27-1.26,1.67,1.67,0,0,0-.71-.75,2,2,0,0,0-1-.25,2.34,2.34,0,0,0-1.09.26,2.72,2.72,0,0,0-.86.73,3.39,3.39,0,0,0-.55,1.11,4.85,4.85,0,0,0-.2,1.41,2.37,2.37,0,0,0,.52,1.58A1.86,1.86,0,0,0,476.17,582.56Z"/><path class="cls-14" d="M480.64,586.67a3.47,3.47,0,0,1-1-.13,1.86,1.86,0,0,1-.68-.38l.48-1a1.69,1.69,0,0,0,1.14.46,1.36,1.36,0,0,0,.84-.27,3,3,0,0,0,.73-.84l.71-1.12L481.56,576h1.18l.69,4.29.3,1.87,1-1.75,2.66-4.41h1.36l-5.67,9a5.38,5.38,0,0,1-.8,1,2.94,2.94,0,0,1-.83.57A2.18,2.18,0,0,1,480.64,586.67Z"/><path class="cls-14" d="M65.52,251.85l-1.73,7.5h-1.2l1.74-7.5Zm-.13-1.44a.81.81,0,0,1-.58-.21.78.78,0,0,1-.23-.57,1,1,0,0,1,.28-.74.87.87,0,0,1,.66-.28.84.84,0,0,1,.59.22.74.74,0,0,1,.23.56,1,1,0,0,1-.28.74A.91.91,0,0,1,65.39,250.41Z"/><path class="cls-14" d="M66.46,259.35l1.74-7.5h1L69,253.53l-.15-.07a2.29,2.29,0,0,1,1.1-1.32,3.48,3.48,0,0,1,1.71-.44,2.75,2.75,0,0,1,1.47.38,2,2,0,0,1,.84,1.07,3,3,0,0,1,0,1.69l-1,4.51h-1.2l1.05-4.53a1.79,1.79,0,0,0-.19-1.52,1.55,1.55,0,0,0-1.3-.55,2.43,2.43,0,0,0-1.22.31,2.47,2.47,0,0,0-.9.89,4.79,4.79,0,0,0-.58,1.46l-.91,3.94Z"/><path class="cls-14" d="M75.91,252.89l.23-1h5l-.23,1Zm0,6.46L78,250.46a3.53,3.53,0,0,1,.52-1.22,2.16,2.16,0,0,1,.87-.69,3,3,0,0,1,1.21-.22,3.21,3.21,0,0,1,.78.09,1.48,1.48,0,0,1,.55.27l-.41,1a1,1,0,0,0-.38-.18,2,2,0,0,0-.54-.07,1.45,1.45,0,0,0-1,.3,1.91,1.91,0,0,0-.51,1.06l-.24,1.08-.07.39-1.65,7.11Z"/><path class="cls-14" d="M84.83,259.49A3.56,3.56,0,0,1,83,259a3.09,3.09,0,0,1-1.15-1.23,3.57,3.57,0,0,1-.4-1.69,5,5,0,0,1,.49-2.28,3.83,3.83,0,0,1,1.37-1.55,4,4,0,0,1,3.86-.11,3.11,3.11,0,0,1,1.14,1.22,3.62,3.62,0,0,1,.38,1.69,5.15,5.15,0,0,1-.48,2.27,3.87,3.87,0,0,1-1.36,1.57A3.58,3.58,0,0,1,84.83,259.49Zm0-1a2.37,2.37,0,0,0,1-.23,2.54,2.54,0,0,0,.83-.68,3.08,3.08,0,0,0,.55-1.05,4.53,4.53,0,0,0,.2-1.37,3,3,0,0,0-.23-1.19,2,2,0,0,0-.72-.86,2.31,2.31,0,0,0-1.26-.32,2.33,2.33,0,0,0-1,.23,2.57,2.57,0,0,0-.84.67,3.27,3.27,0,0,0-.55,1,4.24,4.24,0,0,0-.2,1.37,2.94,2.94,0,0,0,.23,1.19,2.09,2.09,0,0,0,.74.87A2.3,2.3,0,0,0,84.88,258.45Z"/><path class="cls-14" d="M98.33,259.47a2.79,2.79,0,0,1-1.53-.42,2.92,2.92,0,0,1-1-1.16,3.78,3.78,0,0,1-.37-1.72,5,5,0,0,1,.29-1.74,4.37,4.37,0,0,1,.79-1.42,3.73,3.73,0,0,1,1.21-1,3.48,3.48,0,0,1,1.54-.35,3,3,0,0,1,1.18.23,2.33,2.33,0,0,1,.87.63,2.41,2.41,0,0,1,.48,1l1.18-5.15h1.21l-2.54,11h-1l.26-1.39a2.87,2.87,0,0,1-1,1.1A2.77,2.77,0,0,1,98.33,259.47Zm.3-1a2,2,0,0,0,1-.27,2.8,2.8,0,0,0,.84-.74,3.88,3.88,0,0,0,.57-1.11,4.37,4.37,0,0,0,.21-1.37,2.59,2.59,0,0,0-.25-1.18,1.78,1.78,0,0,0-.69-.77,1.94,1.94,0,0,0-1-.27,2.26,2.26,0,0,0-1.1.26,2.57,2.57,0,0,0-.85.73,3.46,3.46,0,0,0-.56,1.08,4.24,4.24,0,0,0-.21,1.35,2.89,2.89,0,0,0,.24,1.24,1.77,1.77,0,0,0,.7.78A2.19,2.19,0,0,0,98.63,258.45Z"/><path class="cls-14" d="M108,259.49a3.36,3.36,0,0,1-1.78-.45,3,3,0,0,1-1.13-1.22,3.59,3.59,0,0,1-.4-1.71,5.1,5.1,0,0,1,.47-2.17,3.9,3.9,0,0,1,1.36-1.62,3.79,3.79,0,0,1,2.17-.6,3.05,3.05,0,0,1,1.56.37,2.48,2.48,0,0,1,1,1,3.11,3.11,0,0,1,.35,1.48,3.42,3.42,0,0,1-.06.62,5.8,5.8,0,0,1-.15.67h-6.11v-1h5.58l-.52.42c0-.12,0-.24.06-.36a2.16,2.16,0,0,0,0-.35,2,2,0,0,0-.22-.94,1.57,1.57,0,0,0-.62-.63,2,2,0,0,0-1-.23,2.54,2.54,0,0,0-1.25.29,2.36,2.36,0,0,0-.84.79,3.49,3.49,0,0,0-.47,1.1,5.73,5.73,0,0,0-.14,1.23,2.43,2.43,0,0,0,.28,1.19,2,2,0,0,0,.77.81,2.21,2.21,0,0,0,1.17.29,2.4,2.4,0,0,0,1.26-.33,2.54,2.54,0,0,0,.81-.82l.95.63a3.5,3.5,0,0,1-.8.83,3.65,3.65,0,0,1-1.06.54A4.37,4.37,0,0,1,108,259.49Z"/><path class="cls-14" d="M116.17,259.52a4.31,4.31,0,0,1-1.57-.27,3.26,3.26,0,0,1-1.93-1.94l1.14-.49a2.36,2.36,0,0,0,.89,1.23,2.57,2.57,0,0,0,1.52.42,1.82,1.82,0,0,0,1.21-.35,1.11,1.11,0,0,0,.42-.87.82.82,0,0,0-.23-.61,1.58,1.58,0,0,0-.7-.36l-1.34-.38a2.93,2.93,0,0,1-1.4-.77,1.76,1.76,0,0,1-.46-1.19,2,2,0,0,1,.35-1.14,2.42,2.42,0,0,1,1-.8,4,4,0,0,1,3.4.18,2.68,2.68,0,0,1,1.16,1.4l-1.1.52a2,2,0,0,0-.42-.73,2,2,0,0,0-.68-.47,2.38,2.38,0,0,0-.91-.16,2,2,0,0,0-1.22.3.93.93,0,0,0-.4.79.86.86,0,0,0,.29.67,2,2,0,0,0,.73.37l1.47.42a2.53,2.53,0,0,1,1.21.69,1.61,1.61,0,0,1,.44,1.11,2.2,2.2,0,0,1-.37,1.29,2.4,2.4,0,0,1-1,.84A3.45,3.45,0,0,1,116.17,259.52Z"/><path class="cls-14" d="M124.26,248.4l-2.53,11h-1.2l2.53-11Zm4.33,3.45-3.92,3.26-.25.16-2.91,2.43.22-1.53,5.17-4.32Zm-3.7,2.63,2.13,4.87h-1.3l-1.8-4.23Z"/><path class="cls-14" d="M133.41,259.35l1.74-7.5h1l-.28,1.68-.15-.07a2.3,2.3,0,0,1,1.08-1.32,3.42,3.42,0,0,1,1.7-.44,2.48,2.48,0,0,1,1.38.38,2,2,0,0,1,.82,1.08,3.08,3.08,0,0,1,0,1.71l-1.05,4.48h-1.2l1.05-4.5a1.89,1.89,0,0,0-.14-1.54,1.38,1.38,0,0,0-1.21-.56,2.37,2.37,0,0,0-2.11,1.2,5.36,5.36,0,0,0-.56,1.46l-.92,3.94Zm10.19,0,1-4.5a2,2,0,0,0-.16-1.54,1.35,1.35,0,0,0-1.2-.56,2.39,2.39,0,0,0-1.21.31,2.61,2.61,0,0,0-.89.89,5.05,5.05,0,0,0-.57,1.46l-.14-1.59a3.17,3.17,0,0,1,1.29-1.59,3.55,3.55,0,0,1,1.87-.53,2.51,2.51,0,0,1,1.39.38,2,2,0,0,1,.81,1.08,3.08,3.08,0,0,1,0,1.71l-1,4.48Z"/><path class="cls-14" d="M151.11,259.49a3.5,3.5,0,0,1-1.83-.46,3.11,3.11,0,0,1-1.16-1.23,3.69,3.69,0,0,1-.4-1.69,5,5,0,0,1,.5-2.28,3.83,3.83,0,0,1,1.37-1.55,3.93,3.93,0,0,1,3.85-.11,3,3,0,0,1,1.14,1.22,3.63,3.63,0,0,1,.39,1.69,5,5,0,0,1-.49,2.27,3.84,3.84,0,0,1-1.35,1.57A3.62,3.62,0,0,1,151.11,259.49Zm0-1a2.3,2.3,0,0,0,1-.23,2.57,2.57,0,0,0,.84-.68,3.27,3.27,0,0,0,.55-1.05,4.53,4.53,0,0,0,.2-1.37,2.88,2.88,0,0,0-.24-1.19,1.88,1.88,0,0,0-.72-.86,2.25,2.25,0,0,0-1.25-.32,2.38,2.38,0,0,0-1,.23,2.43,2.43,0,0,0-.83.67,3.28,3.28,0,0,0-.56,1,4.53,4.53,0,0,0-.2,1.37,2.94,2.94,0,0,0,.24,1.19,2.06,2.06,0,0,0,.73.87A2.3,2.3,0,0,0,151.16,258.45Z"/><path class="cls-14" d="M162.35,251.85h1.33l-4.69,7.5h-1.22l-1.3-7.5h1.18l1,6.6-.3-.06Z"/><path class="cls-14" d="M167.35,259.49a3.34,3.34,0,0,1-1.78-.45,3,3,0,0,1-1.14-1.22,3.71,3.71,0,0,1-.39-1.71,5.1,5.1,0,0,1,.47-2.17,3.9,3.9,0,0,1,1.36-1.62,3.76,3.76,0,0,1,2.16-.6,3.09,3.09,0,0,1,1.57.37,2.48,2.48,0,0,1,1,1,3.11,3.11,0,0,1,.34,1.48,3.38,3.38,0,0,1-.05.62,4.33,4.33,0,0,1-.16.67h-6.1v-1h5.58l-.53.42a2.29,2.29,0,0,0,.07-.36,2.11,2.11,0,0,0,0-.35,2,2,0,0,0-.21-.94,1.59,1.59,0,0,0-.63-.63,2,2,0,0,0-1-.23,2.54,2.54,0,0,0-1.25.29,2.36,2.36,0,0,0-.84.79,3.49,3.49,0,0,0-.47,1.1,5.73,5.73,0,0,0-.14,1.23,2.43,2.43,0,0,0,.28,1.19,2,2,0,0,0,.77.81,2.21,2.21,0,0,0,1.17.29,2.4,2.4,0,0,0,1.26-.33,2.54,2.54,0,0,0,.81-.82l.94.63a3.46,3.46,0,0,1-.79.83,3.65,3.65,0,0,1-1.06.54A4.42,4.42,0,0,1,167.35,259.49Z"/><path class="cls-14" d="M175.47,259.47a2.79,2.79,0,0,1-1.53-.42,2.9,2.9,0,0,1-1-1.16,3.79,3.79,0,0,1-.38-1.72,5.21,5.21,0,0,1,.29-1.74,4.57,4.57,0,0,1,.79-1.42,3.66,3.66,0,0,1,1.22-1,3.44,3.44,0,0,1,1.53-.35,3,3,0,0,1,1.18.23,2.33,2.33,0,0,1,.87.63,2.29,2.29,0,0,1,.48,1l1.19-5.15h1.2l-2.54,11h-1.05L178,258a2.81,2.81,0,0,1-2.48,1.51Zm.3-1a2,2,0,0,0,1-.27,2.8,2.8,0,0,0,.84-.74,3.88,3.88,0,0,0,.57-1.11,4.37,4.37,0,0,0,.21-1.37,2.73,2.73,0,0,0-.24-1.18,1.92,1.92,0,0,0-.69-.77,2,2,0,0,0-1-.27,2.22,2.22,0,0,0-1.09.26,2.6,2.6,0,0,0-.86.73,3.68,3.68,0,0,0-.56,1.08,4.54,4.54,0,0,0-.2,1.35,2.89,2.89,0,0,0,.24,1.24,1.72,1.72,0,0,0,.7.78A2.12,2.12,0,0,0,175.77,258.45Z"/><path class="cls-14" d="M186.66,252.89l.24-1h5l-.24,1Zm2.55,6.58a2.49,2.49,0,0,1-1.23-.28,1.58,1.58,0,0,1-.72-.83,2.22,2.22,0,0,1,0-1.29l1.57-6.87,1.31-.37-1.71,7.3a1,1,0,0,0,.19,1,1.24,1.24,0,0,0,.84.29,1.9,1.9,0,0,0,.66-.11,1.83,1.83,0,0,0,.5-.27l.24,1a2.35,2.35,0,0,1-.76.35A3.36,3.36,0,0,1,189.21,259.47Z"/><path class="cls-14" d="M196,259.49a3.56,3.56,0,0,1-1.84-.46A3.09,3.09,0,0,1,193,257.8a3.57,3.57,0,0,1-.4-1.69,5,5,0,0,1,.49-2.28,3.83,3.83,0,0,1,1.37-1.55,3.58,3.58,0,0,1,2-.56,3.51,3.51,0,0,1,1.84.45,3,3,0,0,1,1.14,1.22,3.63,3.63,0,0,1,.39,1.69,5.15,5.15,0,0,1-.48,2.27,3.87,3.87,0,0,1-1.36,1.57A3.58,3.58,0,0,1,196,259.49Zm0-1a2.38,2.38,0,0,0,1-.23,2.54,2.54,0,0,0,.83-.68,3.08,3.08,0,0,0,.55-1.05,4.53,4.53,0,0,0,.2-1.37,3,3,0,0,0-.23-1.19,2,2,0,0,0-.72-.86,2.31,2.31,0,0,0-1.26-.32,2.38,2.38,0,0,0-1,.23,2.53,2.53,0,0,0-.83.67,3.27,3.27,0,0,0-.55,1,4.24,4.24,0,0,0-.21,1.37,2.94,2.94,0,0,0,.24,1.19,2,2,0,0,0,.74.87A2.26,2.26,0,0,0,196,258.45Z"/><path class="cls-14" d="M209.84,259.49a3.39,3.39,0,0,1-1.78-.46,3.11,3.11,0,0,1-1.13-1.23,3.7,3.7,0,0,1-.39-1.7,5,5,0,0,1,.49-2.28,3.82,3.82,0,0,1,1.38-1.54,3.72,3.72,0,0,1,2.06-.56,3.45,3.45,0,0,1,1.49.3,2.74,2.74,0,0,1,1,.82,3,3,0,0,1,.53,1.19l-1.26.3a1.75,1.75,0,0,0-.52-1.12,1.79,1.79,0,0,0-1.34-.46,2.39,2.39,0,0,0-1.06.24,2.64,2.64,0,0,0-.85.68,3.28,3.28,0,0,0-.55,1.05,4.46,4.46,0,0,0-.2,1.36,2.78,2.78,0,0,0,.26,1.2,2.07,2.07,0,0,0,.74.86,2.2,2.2,0,0,0,1.21.31,2.14,2.14,0,0,0,1.1-.3,1.59,1.59,0,0,0,.73-.88l1.17.42a2.81,2.81,0,0,1-1.22,1.33A3.85,3.85,0,0,1,209.84,259.49Z"/><path class="cls-14" d="M217.82,259.49A3.39,3.39,0,0,1,216,259a3,3,0,0,1-1.13-1.22,3.71,3.71,0,0,1-.39-1.71,5.09,5.09,0,0,1,.46-2.17,4,4,0,0,1,1.36-1.62,3.81,3.81,0,0,1,2.17-.6,3.12,3.12,0,0,1,1.57.37,2.52,2.52,0,0,1,1,1,3.11,3.11,0,0,1,.35,1.48,4.56,4.56,0,0,1,0,.62,5.89,5.89,0,0,1-.16.67H215.1v-1h5.58l-.52.42c0-.12.05-.24.07-.36s0-.24,0-.35a1.89,1.89,0,0,0-.22-.94,1.51,1.51,0,0,0-.62-.63,2,2,0,0,0-1-.23,2.57,2.57,0,0,0-1.25.29,2.54,2.54,0,0,0-.84.79,3.47,3.47,0,0,0-.46,1.1,5.17,5.17,0,0,0-.15,1.23,2.55,2.55,0,0,0,.28,1.19,2.07,2.07,0,0,0,.77.81,2.21,2.21,0,0,0,1.17.29,2.4,2.4,0,0,0,1.26-.33,2.54,2.54,0,0,0,.81-.82l.95.63a3.5,3.5,0,0,1-.8.83,3.72,3.72,0,0,1-1,.54A4.49,4.49,0,0,1,217.82,259.49Z"/><path class="cls-14" d="M222.72,259.35l1.74-7.5h1l-.28,1.68-.15-.07a2.28,2.28,0,0,1,1.09-1.32,3.51,3.51,0,0,1,1.71-.44,2.72,2.72,0,0,1,1.47.38,2,2,0,0,1,.85,1.07,3,3,0,0,1,0,1.69l-1.05,4.51H228l1.05-4.53a1.79,1.79,0,0,0-.18-1.52,1.55,1.55,0,0,0-1.3-.55,2.43,2.43,0,0,0-1.22.31,2.47,2.47,0,0,0-.9.89,4.79,4.79,0,0,0-.58,1.46l-.92,3.94Z"/><path class="cls-14" d="M232.13,252.89l.24-1h5l-.24,1Zm2.55,6.58a2.49,2.49,0,0,1-1.23-.28,1.58,1.58,0,0,1-.72-.83,2.21,2.21,0,0,1,0-1.29l1.58-6.87,1.3-.37-1.71,7.3a1,1,0,0,0,.19,1,1.29,1.29,0,0,0,.85.29,1.9,1.9,0,0,0,.66-.11A1.77,1.77,0,0,0,236,258l.24,1a2.26,2.26,0,0,1-.76.35A3.22,3.22,0,0,1,234.68,259.47Z"/><path class="cls-14" d="M237.65,259.35l1.74-7.5h1l-.16,1.73-.18-.11a2.95,2.95,0,0,1,2.67-1.77,2.81,2.81,0,0,1,.43,0,1.17,1.17,0,0,1,.33.11l-.36,1.14a1.17,1.17,0,0,0-.33-.11,2,2,0,0,0-.45,0,2.23,2.23,0,0,0-1.07.26,2.46,2.46,0,0,0-.88.8,4,4,0,0,0-.57,1.4l-.94,4.06Z"/><path class="cls-14" d="M246.53,259.47a2.79,2.79,0,0,1-1.53-.42,2.92,2.92,0,0,1-1-1.16,3.78,3.78,0,0,1-.37-1.72,5.2,5.2,0,0,1,.28-1.74,4.59,4.59,0,0,1,.8-1.42,3.63,3.63,0,0,1,1.21-1,3.44,3.44,0,0,1,1.53-.35,3,3,0,0,1,1.19.23,2.33,2.33,0,0,1,.87.63,2.41,2.41,0,0,1,.48,1l.39-1.7h1.2l-1.74,7.5h-1.05L249,258a2.78,2.78,0,0,1-2.47,1.51Zm.31-1a2,2,0,0,0,1-.27,2.8,2.8,0,0,0,.84-.74,3.66,3.66,0,0,0,.58-1.11,4.37,4.37,0,0,0,.21-1.37,2.59,2.59,0,0,0-.25-1.18,1.78,1.78,0,0,0-.69-.77,1.94,1.94,0,0,0-1-.27,2.26,2.26,0,0,0-1.1.26,2.57,2.57,0,0,0-.85.73,3.46,3.46,0,0,0-.56,1.08,4.24,4.24,0,0,0-.21,1.35,2.89,2.89,0,0,0,.24,1.24,1.77,1.77,0,0,0,.7.78A2.2,2.2,0,0,0,246.84,258.45Z"/><path class="cls-14" d="M254.52,259.46a1.58,1.58,0,0,1-1.44-.63,2,2,0,0,1-.16-1.62l2-8.81h1.2l-2.06,8.85a1,1,0,0,0,.09.89,1.07,1.07,0,0,0,.83.27l.39,0,.31,0-.3,1a2.18,2.18,0,0,1-.43.12A3.18,3.18,0,0,1,254.52,259.46Z"/><path class="cls-14" d="M263.58,259.46a1.58,1.58,0,0,1-1.44-.63,2,2,0,0,1-.16-1.62l2-8.81h1.2l-2.06,8.85a1,1,0,0,0,.09.89,1.07,1.07,0,0,0,.83.27l.39,0,.31,0-.3,1a2.18,2.18,0,0,1-.43.12A3.18,3.18,0,0,1,263.58,259.46Z"/><path class="cls-14" d="M269.69,259.49a3.56,3.56,0,0,1-1.84-.46,3.09,3.09,0,0,1-1.15-1.23,3.57,3.57,0,0,1-.4-1.69,5,5,0,0,1,.49-2.28,3.83,3.83,0,0,1,1.37-1.55,3.58,3.58,0,0,1,2-.56,3.51,3.51,0,0,1,1.84.45,3,3,0,0,1,1.14,1.22,3.63,3.63,0,0,1,.39,1.69,5.15,5.15,0,0,1-.48,2.27,3.87,3.87,0,0,1-1.36,1.57A3.58,3.58,0,0,1,269.69,259.49Zm0-1a2.38,2.38,0,0,0,1-.23,2.54,2.54,0,0,0,.83-.68,3.08,3.08,0,0,0,.55-1.05,4.53,4.53,0,0,0,.2-1.37,3,3,0,0,0-.23-1.19,2,2,0,0,0-.72-.86,2.31,2.31,0,0,0-1.26-.32,2.38,2.38,0,0,0-1,.23,2.53,2.53,0,0,0-.83.67,3.27,3.27,0,0,0-.55,1,4.24,4.24,0,0,0-.21,1.37,2.94,2.94,0,0,0,.24,1.19,2,2,0,0,0,.74.87A2.26,2.26,0,0,0,269.73,258.45Z"/><path class="cls-14" d="M278.54,259.49a3.39,3.39,0,0,1-1.78-.46,3.11,3.11,0,0,1-1.13-1.23,3.7,3.7,0,0,1-.39-1.7,5,5,0,0,1,.49-2.28,3.82,3.82,0,0,1,1.38-1.54,3.72,3.72,0,0,1,2.06-.56,3.45,3.45,0,0,1,1.49.3,2.74,2.74,0,0,1,1,.82,3,3,0,0,1,.53,1.19l-1.26.3a1.75,1.75,0,0,0-.52-1.12,1.79,1.79,0,0,0-1.34-.46,2.39,2.39,0,0,0-1.06.24,2.64,2.64,0,0,0-.85.68,3.28,3.28,0,0,0-.55,1.05,4.46,4.46,0,0,0-.2,1.36,2.78,2.78,0,0,0,.26,1.2,2.07,2.07,0,0,0,.74.86,2.2,2.2,0,0,0,1.21.31,2.14,2.14,0,0,0,1.1-.3,1.59,1.59,0,0,0,.73-.88l1.17.42a2.81,2.81,0,0,1-1.22,1.33A3.85,3.85,0,0,1,278.54,259.49Z"/><path class="cls-14" d="M286.14,259.47a2.79,2.79,0,0,1-1.53-.42,2.9,2.9,0,0,1-1-1.16,3.79,3.79,0,0,1-.38-1.72,5.21,5.21,0,0,1,.29-1.74,4.57,4.57,0,0,1,.79-1.42,3.66,3.66,0,0,1,1.22-1,3.44,3.44,0,0,1,1.53-.35,3,3,0,0,1,1.18.23,2.33,2.33,0,0,1,.87.63,2.41,2.41,0,0,1,.48,1l.39-1.7h1.2l-1.74,7.5h-1.05l.26-1.39a2.81,2.81,0,0,1-2.48,1.51Zm.32-1a2,2,0,0,0,1-.27,3.07,3.07,0,0,0,.84-.74,3.88,3.88,0,0,0,.57-1.11,4.37,4.37,0,0,0,.21-1.37,2.73,2.73,0,0,0-.24-1.18,1.92,1.92,0,0,0-.69-.77,2,2,0,0,0-1-.27A2.22,2.22,0,0,0,286,253a2.6,2.6,0,0,0-.86.73,3.68,3.68,0,0,0-.56,1.08,4.54,4.54,0,0,0-.2,1.35,2.89,2.89,0,0,0,.24,1.24,1.72,1.72,0,0,0,.7.78A2.17,2.17,0,0,0,286.46,258.45Z"/><path class="cls-14" d="M292.59,252.89l.24-1h5l-.24,1Zm2.55,6.58a2.49,2.49,0,0,1-1.23-.28,1.58,1.58,0,0,1-.72-.83,2.22,2.22,0,0,1,0-1.29l1.57-6.87,1.31-.37-1.71,7.3a1,1,0,0,0,.19,1,1.24,1.24,0,0,0,.84.29,1.9,1.9,0,0,0,.66-.11,1.83,1.83,0,0,0,.5-.27l.24,1a2.3,2.3,0,0,1-.77.35A3.22,3.22,0,0,1,295.14,259.47Z"/><path class="cls-14" d="M301.06,251.85l-1.75,7.5h-1.2l1.74-7.5Zm-.14-1.44a.84.84,0,0,1-.59-.21.77.77,0,0,1-.22-.57,1,1,0,0,1,.28-.74.88.88,0,0,1,.67-.28.83.83,0,0,1,.58.22.73.73,0,0,1,.22.56,1,1,0,0,1-.27.74A.91.91,0,0,1,300.92,250.41Z"/><path class="cls-14" d="M305.75,259.49a3.56,3.56,0,0,1-1.84-.46,3.09,3.09,0,0,1-1.15-1.23,3.57,3.57,0,0,1-.4-1.69,5,5,0,0,1,.49-2.28,3.83,3.83,0,0,1,1.37-1.55,3.58,3.58,0,0,1,2-.56,3.51,3.51,0,0,1,1.84.45,3.13,3.13,0,0,1,1.15,1.22,3.75,3.75,0,0,1,.38,1.69,5.15,5.15,0,0,1-.48,2.27,3.87,3.87,0,0,1-1.36,1.57A3.58,3.58,0,0,1,305.75,259.49Zm.05-1a2.37,2.37,0,0,0,1-.23,2.54,2.54,0,0,0,.83-.68,3.08,3.08,0,0,0,.55-1.05,4.53,4.53,0,0,0,.2-1.37,3,3,0,0,0-.23-1.19,2,2,0,0,0-.72-.86,2.31,2.31,0,0,0-1.26-.32,2.38,2.38,0,0,0-1,.23,2.64,2.64,0,0,0-.83.67,3.27,3.27,0,0,0-.55,1,4.24,4.24,0,0,0-.21,1.37,2.94,2.94,0,0,0,.24,1.19,2,2,0,0,0,.74.87A2.27,2.27,0,0,0,305.8,258.45Z"/><path class="cls-14" d="M310.91,259.35l1.74-7.5h1.05l-.29,1.68-.15-.07a2.29,2.29,0,0,1,1.1-1.32,3.51,3.51,0,0,1,1.71-.44,2.72,2.72,0,0,1,1.47.38,2,2,0,0,1,.85,1.07,3.09,3.09,0,0,1,0,1.69l-1.05,4.51h-1.2l1-4.53a1.76,1.76,0,0,0-.19-1.52,1.53,1.53,0,0,0-1.3-.55,2.46,2.46,0,0,0-1.22.31,2.63,2.63,0,0,0-.9.89,5.05,5.05,0,0,0-.58,1.46l-.91,3.94Z"/><polyline class="cls-16" points="294.04 334.11 294.04 338.01 290.14 338.01"/><line class="cls-20" x1="282.54" y1="338.01" x2="88.7" y2="338.01"/><polyline class="cls-16" points="84.9 338.01 81.01 338.01 81.01 334.11"/><line class="cls-21" x1="81.01" y1="325.72" x2="81.01" y2="279.61"/><polyline class="cls-16" points="81.01 275.41 81.01 271.52 84.9 271.52"/><line class="cls-20" x1="92.51" y1="271.52" x2="286.34" y2="271.52"/><polyline class="cls-16" points="290.14 271.52 294.04 271.52 294.04 275.41"/><line class="cls-21" x1="294.03" y1="283.8" x2="294.03" y2="329.92"/><path class="cls-22" d="M438.57,524.93c-70.52,0-82.46-32-82.46-59.66,0-24.59,19.41-41,44.3-41,24.74,0,31.23,16.08,50.71,16.08,55.95,0,51.94-168.84,3-168.84-33.49,0-29.76,18.23-144.8,18.46"/><polygon class="cls-14" points="315.85 281.71 317.22 283.16 310.07 289.95 317.36 296.59 316.01 298.07 307.13 289.98 315.85 281.71"/></g><g id="Layer_11" data-name="Layer 11"><path class="cls-14" d="M787,5.06v602H5V5.06H787m5-5H0v612H792V.06Z"/></g></svg>