<svg id="Layer_1" data-name="Layer 1" xmlns="http://www.w3.org/2000/svg" viewBox="0 0 1026.5 667.08"><defs><style>.cls-1,.cls-2,.cls-6{fill:none;}.cls-1{stroke:#231f20;}.cls-1,.cls-2,.cls-4,.cls-6,.cls-8{stroke-linecap:round;}.cls-1,.cls-2,.cls-4,.cls-8{stroke-linejoin:round;}.cls-2,.cls-3,.cls-4,.cls-5,.cls-6,.cls-8{stroke:#000;}.cls-3{fill:#be1e2d;}.cls-3,.cls-5,.cls-6{stroke-miterlimit:10;}.cls-4,.cls-7{fill:#fff;}.cls-16,.cls-19,.cls-21,.cls-22,.cls-23,.cls-9{font-size:12px;font-family:Graphik-Semibold, Graphik;font-weight:600;}.cls-10,.cls-16{letter-spacing:0.02em;}.cls-11,.cls-22{letter-spacing:0.01em;}.cls-12{letter-spacing:0.03em;}.cls-13{letter-spacing:0.03em;}.cls-14,.cls-19{letter-spacing:0.02em;}.cls-15{letter-spacing:0.03em;}.cls-17{letter-spacing:-0.05em;}.cls-18{letter-spacing:0.02em;}.cls-20{letter-spacing:0.02em;}.cls-21{letter-spacing:0.01em;}.cls-23{letter-spacing:-0.01em;}.cls-24{letter-spacing:0em;}.cls-25{letter-spacing:-0.02em;}</style></defs><title>MILO_YUAG_Icons_200430</title><polygon class="cls-1" points="911.45 281.37 921.74 286.51 921.74 308.37 911.45 303.22 911.45 281.37"/><polygon class="cls-1" points="911.45 281.37 901.17 286.51 901.17 308.37 911.45 303.22 911.45 281.37"/><polygon class="cls-1" points="933.31 283.94 921.74 286.51 921.74 308.37 933.31 305.79 933.31 283.94"/><polygon class="cls-1" points="1015.71 281.37 1026 286.51 1026 308.37 1015.71 303.22 1015.71 281.37"/><polygon class="cls-1" points="1015.71 281.37 1005.43 286.51 1005.43 308.37 1015.71 303.22 1015.71 281.37"/><polygon class="cls-1" points="1005.43 286.51 992.57 283.94 992.57 305.79 1005.43 308.37 1005.43 286.51"/><polygon class="cls-1" points="818.76 281.37 829.05 286.51 829.05 308.37 818.76 303.22 818.76 281.37"/><polygon class="cls-1" points="818.76 281.37 808.48 286.51 808.48 308.37 818.76 303.22 818.76 281.37"/><rect class="cls-1" x="829.05" y="286.51" width="12.86" height="21.86"/><polygon class="cls-2" points="813.05 449.8 816.97 445.89 824.79 445.89 842.41 463.5 830.66 475.25 813.05 457.63 813.05 449.8"/><line class="cls-2" x1="823.81" y1="452.74" x2="833.6" y2="462.52"/><line class="cls-2" x1="821.86" y1="454.69" x2="825.77" y2="458.61"/><line class="cls-2" x1="819.9" y1="456.65" x2="826.75" y2="463.5"/><circle class="cls-3" cx="817.94" cy="450.78" r="1.38"/><path class="cls-2" d="M932.94,513.7V500.85c0-3-1.51-6.57-5.52-6.57-3.38,0-9.18,4.73,2.6,16.47" transform="translate(-115 -62.92)"/><path class="cls-1" d="M376.75,93.48a5.07,5.07,0,0,0,4.12,5.87,4.05,4.05,0,0,0,4.7-3.29,3.25,3.25,0,0,0-2.63-3.76,2.59,2.59,0,0,0-3,2.11,2.06,2.06,0,0,0,1.68,2.4,1.66,1.66,0,0,0,1.93-1.34" transform="translate(-115 -62.92)"/><line class="cls-1" x1="261.75" y1="30.56" x2="265.95" y2="6.78"/><path class="cls-1" d="M380.94,69.75a5.08,5.08,0,0,0-4.12-5.88,4.06,4.06,0,0,0-4.7,3.29,3.25,3.25,0,0,0,2.64,3.76,2.6,2.6,0,0,0,3-2.1,2.09,2.09,0,0,0-1.69-2.41,1.67,1.67,0,0,0-1.93,1.35" transform="translate(-115 -62.92)"/><path class="cls-1" d="M399.82,99.41a4.06,4.06,0,0,0,3.88-3.35,3.25,3.25,0,0,0-2.64-3.76l-.32,0" transform="translate(-115 -62.92)"/><line class="cls-1" x1="280.1" y1="29.34" x2="284.07" y2="6.78"/><path class="cls-1" d="M399.07,69.75A5.09,5.09,0,0,0,395,63.87l-.56-.06" transform="translate(-115 -62.92)"/><line class="cls-1" x1="261.54" y1="0.89" x2="279.39" y2="0.89"/><line class="cls-1" x1="267.62" y1="29.35" x2="285.74" y2="29.35"/><line class="cls-1" x1="266.46" y1="36.5" x2="284.83" y2="36.5"/><line class="cls-1" x1="265.72" y1="8.05" x2="260.26" y2="8.05"/><line class="cls-1" x1="279.43" y1="13.87" x2="268.1" y2="13.87"/><line class="cls-1" x1="280.04" y1="10.39" x2="268.71" y2="10.39"/><line class="cls-1" x1="278.81" y1="17.36" x2="267.48" y2="17.36"/><line class="cls-1" x1="278.19" y1="20.85" x2="266.87" y2="20.85"/><line class="cls-1" x1="277.58" y1="24.34" x2="266.25" y2="24.34"/><polyline class="cls-1" points="259.41 61.5 259.41 88.5 286.41 88.5"/><polyline class="cls-1" points="262.79 76.69 272.91 71.63 279.66 73.31 286.41 61.5"/><line class="cls-1" x1="286.76" y1="121.52" x2="272.91" y2="113.53"/><line class="cls-1" x1="280.9" y1="127.37" x2="272.91" y2="113.53"/><line class="cls-1" x1="272.91" y1="133.51" x2="272.91" y2="113.53"/><line class="cls-1" x1="264.92" y1="127.37" x2="272.91" y2="113.53"/><line class="cls-1" x1="259.06" y1="121.52" x2="272.91" y2="113.53"/><line class="cls-1" x1="286.76" y1="141.51" x2="280.9" y2="138.13"/><line class="cls-1" x1="280.9" y1="147.36" x2="272.91" y2="133.51"/><line class="cls-1" x1="272.91" y1="149.5" x2="272.91" y2="133.51"/><line class="cls-1" x1="264.92" y1="147.36" x2="272.91" y2="133.51"/><path class="cls-1" d="M387.91,196.43" transform="translate(-115 -62.92)"/><line class="cls-1" x1="259.06" y1="141.51" x2="264.92" y2="138.13"/><line class="cls-1" x1="259.06" y1="121.52" x2="259.06" y2="141.51"/><line class="cls-1" x1="264.92" y1="127.37" x2="264.92" y2="147.36"/><line class="cls-1" x1="280.9" y1="127.37" x2="280.9" y2="147.36"/><line class="cls-1" x1="286.76" y1="121.52" x2="286.76" y2="141.51"/><polygon class="cls-1" points="257.06 282.32 267.63 284.96 267.63 307.41 257.06 304.77 257.06 282.32"/><polygon class="cls-1" points="278.19 282.32 288.76 284.96 288.76 307.41 278.19 304.77 278.19 282.32"/><polygon class="cls-1" points="278.19 282.32 267.63 284.96 267.63 307.41 278.19 304.77 278.19 282.32"/><path class="cls-2" d="M387.92,262.38a1.51,1.51,0,0,0,.34-1.57,1.4,1.4,0,0,0-1.57-.75,2.1,2.1,0,0,0-1.74,2.18c0,1.24.77,2.55,3.32,2.55,1.85,0,3.08-1.4,3.08-3.54s-1.18-4.74-2.31-10.63c-1-5.3-2.3-9.1-2.23-11.82s1.5-4.38,2.82-4.38,1.71,1.91,1.71,3.66-.83,4.13-4.4,7.21c-3.14,2.7-4.42,4.74-4.42,7.11a5.36,5.36,0,0,0,5.57,5c3.6,0,5.21-2.51,5.21-4.63,0-2.6-1.41-4.05-3.58-4.05-3,0-4,1.77-4,3.39a2.34,2.34,0,0,0,1.19,2.31" transform="translate(-115 -62.92)"/><path class="cls-2" d="M374.25,306.81c.68,2.48,2.27,2.8,3.07,3.43a2.54,2.54,0,0,1,.84,1.48h0c0,.43,3,.78,6.63.78s6.64-.35,6.64-.78a2.5,2.5,0,0,1,.83-1.48c1.16-.9,3.95-1.17,3.29-8.17a36,36,0,0,0-2.65-10.76,1.25,1.25,0,0,0-1.15-.75H377.83a1.25,1.25,0,0,0-1.15.75,33.1,33.1,0,0,0-1.76,5.42" transform="translate(-115 -62.92)"/><ellipse class="cls-2" cx="269.79" cy="224.03" rx="2.26" ry="1.46"/><path class="cls-2" d="M393.83,293.69s8.62-6.29,8.62,4.7c0,9.93-5.85,7.69-6.87,7.16" transform="translate(-115 -62.92)"/><path class="cls-2" d="M374.91,296.73c-.38-.08-1.59-.49-2.76-2.51-1.43-2.45-1.86-3.41-2.18-3.51s-3.77,0-3.77.27,1.49.58,2.36,2.57c1.16,2.67.67,6.54,2.7,10.11a8.86,8.86,0,0,0,3,3.15" transform="translate(-115 -62.92)"/><path class="cls-2" d="M387.91,291.56" transform="translate(-115 -62.92)"/><rect class="cls-4" x="375.91" y="411.84" width="24" height="12" transform="translate(842.67 376.1) rotate(135)"/><rect class="cls-4" x="375.91" y="407.6" width="24" height="12" transform="translate(839.67 368.85) rotate(135)"/><rect class="cls-4" x="375.91" y="403.36" width="24" height="12" transform="translate(836.66 361.61) rotate(135)"/><path class="cls-2" d="M401.62,524.75a16.62,16.62,0,0,1-23.52,0,13.31,13.31,0,0,1,0-18.81,10.63,10.63,0,0,1,15,0,8.5,8.5,0,0,1,0,12,6.81,6.81,0,0,1-9.63,0,5.45,5.45,0,0,1,0-7.71,4.36,4.36,0,0,1,6.16,0" transform="translate(-115 -62.92)"/><line class="cls-2" x1="278.88" y1="454.23" x2="286.62" y2="461.84"/><polygon class="cls-2" points="259.97 503.4 259.97 514.65 265.6 514.65 273.47 522.53 273.47 495.52 265.6 503.4 259.97 503.4"/><path class="cls-2" d="M391.27,581.49a13.52,13.52,0,0,0,0-19.1" transform="translate(-115 -62.92)"/><path class="cls-2" d="M395.25,585.47a19.13,19.13,0,0,0,0-27.05" transform="translate(-115 -62.92)"/><rect class="cls-2" x="263.21" y="559" width="13.5" height="13.5"/><rect class="cls-2" x="276.71" y="562.38" width="6.75" height="6.75"/><polygon class="cls-2" points="289.36 572.5 283.46 569.13 283.46 562.38 289.36 559 289.36 572.5"/><circle class="cls-2" cx="263.21" cy="552.25" r="6.75"/><circle class="cls-2" cx="276.71" cy="552.25" r="6.75"/><path class="cls-1" d="M469,67.24a1.78,1.78,0,0,1-1.25,3.12c-3.34,0-3.42-6.94,1.1-6.94,3.24,0,4.83,3.2,4.33,6" transform="translate(-115 -62.92)"/><path class="cls-1" d="M491.8,69.79" transform="translate(-115 -62.92)"/><line class="cls-1" x1="354.01" y1="0.5" x2="371.62" y2="0.5"/><line class="cls-1" x1="352.78" y1="7.44" x2="358.05" y2="7.44"/><path class="cls-1" d="M470.4,72.43" transform="translate(-115 -62.92)"/><path class="cls-1" d="M476,72.43" transform="translate(-115 -62.92)"/><line class="cls-1" x1="358.18" y1="4.32" x2="354.03" y2="4.32"/><path class="cls-1" d="M486.67,93.64" transform="translate(-115 -62.92)"/><path class="cls-1" d="M486.62,63.42c3.23,0,4.82,3.2,4.32,6l-4.06,23" transform="translate(-115 -62.92)"/><line class="cls-1" x1="372.41" y1="11.22" x2="360.85" y2="11.22"/><line class="cls-1" x1="368.39" y1="14.37" x2="360.3" y2="14.37"/><line class="cls-1" x1="370.15" y1="17.52" x2="359.74" y2="17.52"/><line class="cls-1" x1="369.59" y1="20.68" x2="359.19" y2="20.68"/><line class="cls-1" x1="363.26" y1="23.83" x2="358.63" y2="23.83"/><path class="cls-1" d="M491,69.18" transform="translate(-115 -62.92)"/><path class="cls-1" d="M486.87,92.47" transform="translate(-115 -62.92)"/><path class="cls-1" d="M492.13,92.47c3.34,0,3.43,6.94-1.1,6.94" transform="translate(-115 -62.92)"/><line class="cls-1" x1="371.88" y1="29.56" x2="359.43" y2="29.56"/><line class="cls-1" x1="377.13" y1="29.56" x2="371.88" y2="29.56"/><line class="cls-1" x1="376.03" y1="36.49" x2="358.18" y2="36.49"/><path class="cls-1" d="M476.84,95.59h-2.93a1.34,1.34,0,0,1-1.33-1.13,1.79,1.79,0,0,1,1.85-2c3.34,0,3.42,6.94-1.1,6.94-3.24,0-4.83-3.21-4.33-6l4.25-24.21" transform="translate(-115 -62.92)"/><polyline class="cls-1" points="351.46 61.5 351.46 88.5 378.46 88.5"/><polyline class="cls-1" points="353.99 80.06 362.43 71.63 367.49 73.31 375.93 63.19"/><line class="cls-1" x1="364.96" y1="113.5" x2="380.93" y2="121.81"/><line class="cls-1" x1="364.96" y1="113.5" x2="375.92" y2="127.78"/><line class="cls-1" x1="364.96" y1="113.5" x2="368.85" y2="131.08"/><line class="cls-1" x1="364.96" y1="113.5" x2="361.06" y2="131.08"/><line class="cls-1" x1="364.96" y1="113.5" x2="354" y2="127.78"/><line class="cls-1" x1="364.96" y1="113.5" x2="348.99" y2="121.81"/><line class="cls-1" x1="375.92" y1="137.63" x2="380.93" y2="140.24"/><line class="cls-1" x1="368.85" y1="136.99" x2="375.92" y2="146.21"/><line class="cls-1" x1="364.96" y1="131.92" x2="368.85" y2="149.5"/><polyline class="cls-1" points="364.96 113.5 364.96 131.93 361.06 149.5"/><line class="cls-1" x1="361.07" y1="136.99" x2="354" y2="146.21"/><line class="cls-1" x1="348.99" y1="121.81" x2="348.99" y2="140.24"/><line class="cls-1" x1="354" y1="127.78" x2="354" y2="146.21"/><line class="cls-1" x1="361.06" y1="131.08" x2="361.06" y2="149.5"/><line class="cls-1" x1="368.85" y1="131.08" x2="368.85" y2="149.5"/><line class="cls-1" x1="375.92" y1="127.78" x2="375.92" y2="146.21"/><path class="cls-1" d="M495.93,185.74" transform="translate(-115 -62.92)"/><line class="cls-1" x1="380.93" y1="121.81" x2="380.93" y2="140.24"/><line class="cls-1" x1="354" y1="137.63" x2="348.99" y2="140.24"/><polygon class="cls-1" points="351.46 283.94 361.74 286.51 361.74 308.37 351.46 304.51 351.46 283.94"/><polygon class="cls-1" points="368.17 281.37 378.46 282.65 378.46 304.51 368.17 301.94 368.17 281.37"/><polygon class="cls-1" points="368.17 281.37 361.74 286.51 361.74 308.37 368.17 301.94 368.17 281.37"/><ellipse class="cls-5" cx="473.17" cy="259.08" rx="3.86" ry="2.54" transform="translate(-181.15 208.38) rotate(-30)"/><path d="M476.74,235.52c2,7.87,8.62,5.1,5.69,13.89,1-5.92-4.15-4.48-5.69-7.78Z" transform="translate(-115 -62.92)"/><polyline class="cls-6" points="361.74 195.02 361.74 178.72 361.74 172.6"/><path class="cls-6" d="M476.74,235.52c2,7.87,8.62,5.1,5.69,13.89" transform="translate(-115 -62.92)"/><path class="cls-6" d="M476.74,241.63c1.54,3.3,6.72,1.86,5.69,7.78" transform="translate(-115 -62.92)"/><path class="cls-2" d="M488.49,306.81c-.68,2.48-2.27,2.8-3.07,3.43a2.54,2.54,0,0,0-.84,1.48h0c0,.43-3,.78-6.63.78s-6.63-.35-6.63-.78a2.5,2.5,0,0,0-.83-1.48c-1.16-.9-3.95-1.17-3.29-8.16a36,36,0,0,1,2.65-10.76,1.26,1.26,0,0,1,1.15-.75h13.91a1.26,1.26,0,0,1,1.15.75,33.1,33.1,0,0,1,1.76,5.42" transform="translate(-115 -62.92)"/><ellipse class="cls-2" cx="362.95" cy="224.04" rx="2.26" ry="1.46"/><path class="cls-2" d="M468.92,293.7s-8.62-6.29-8.62,4.7c0,9.93,5.85,7.69,6.88,7.15" transform="translate(-115 -62.92)"/><path class="cls-2" d="M487.83,296.74c.38-.08,1.58-.49,2.76-2.51,1.43-2.45,1.85-3.41,2.18-3.51s3.76,0,3.76.27-1.48.58-2.35,2.57c-1.17,2.67-.68,6.54-2.7,10.11a8.82,8.82,0,0,1-3,3.14" transform="translate(-115 -62.92)"/><path class="cls-2" d="M480,291" transform="translate(-115 -62.92)"/><circle class="cls-4" cx="378.39" cy="360.11" r="3"/><circle class="cls-4" cx="367.89" cy="360.11" r="4.5"/><circle class="cls-4" cx="372.45" cy="357.51" r="4.5"/><rect class="cls-4" x="464.93" y="411.41" width="24" height="12" transform="translate(994.33 312.41) rotate(135)"/><rect class="cls-4" x="464.93" y="407.17" width="24" height="12" transform="translate(978.83 482.95) rotate(151.24)"/><rect class="cls-4" x="464.93" y="402.92" width="24" height="12" transform="translate(987.72 401.46) rotate(144.45)"/><ellipse class="cls-4" cx="477.04" cy="409.07" rx="1.57" ry="3.75" transform="translate(-263.92 290.64) rotate(-35.55)"/><circle class="cls-4" cx="374.71" cy="351.28" r="3"/><path class="cls-2" d="M497.43,509.36a20,20,0,0,1-20,20,15,15,0,0,1-15-15,11.23,11.23,0,0,1,11.23-11.23,8.42,8.42,0,0,1,8.42,8.42,6.32,6.32,0,0,1-6.32,6.32,4.74,4.74,0,0,1-4.74-4.74,3.56,3.56,0,0,1,3.56-3.55,2.66,2.66,0,0,1,2.66,2.66,2,2,0,0,1-2,2" transform="translate(-115 -62.92)"/><polyline class="cls-2" points="382.43 446.44 374.2 449.54 367 447.12"/><polygon class="cls-2" points="352.81 504.66 352.81 513.34 357.15 513.34 362.11 522.55 362.11 495.52 357.15 504.66 352.81 504.66"/><path class="cls-2" d="M480.38,579.28a10.42,10.42,0,0,0,0-14.73" transform="translate(-115 -62.92)"/><path class="cls-2" d="M483.45,582.35a14.76,14.76,0,0,0,0-20.87" transform="translate(-115 -62.92)"/><path class="cls-2" d="M486.51,585.42a19.07,19.07,0,0,0,0-27" transform="translate(-115 -62.92)"/><rect class="cls-2" x="353.53" y="560.04" width="16.62" height="12.46"/><polygon class="cls-2" points="380.53 572.5 372.23 568.35 372.23 564.19 380.53 560.04 380.53 572.5"/><circle class="cls-2" cx="355.61" cy="551.73" r="6.23"/><circle class="cls-2" cx="368.07" cy="551.73" r="6.23"/><polyline class="cls-1" points="443.5 61.5 443.5 88.5 470.5 88.5"/><polyline class="cls-1" points="446.04 80.06 454.47 71.63 459.54 73.31 467.97 63.19"/><line class="cls-1" x1="455.4" y1="130.23" x2="440.2" y2="122.32"/><line class="cls-1" x1="455.4" y1="149.5" x2="440.2" y2="141.59"/><line class="cls-1" x1="440.2" y1="122.32" x2="440.2" y2="141.59"/><line class="cls-1" x1="457.11" y1="130.23" x2="446.68" y2="116.63"/><line class="cls-1" x1="457.11" y1="130.23" x2="453.4" y2="113.5"/><line class="cls-1" x1="457.11" y1="130.23" x2="460.82" y2="113.5"/><line class="cls-1" x1="457.11" y1="130.23" x2="467.54" y2="116.63"/><line class="cls-1" x1="446.68" y1="116.63" x2="446.68" y2="125.39"/><line class="cls-1" x1="467.54" y1="116.63" x2="467.54" y2="125.39"/><line class="cls-1" x1="460.82" y1="113.5" x2="460.82" y2="125.39"/><line class="cls-1" x1="453.4" y1="113.5" x2="453.4" y2="125.39"/><rect class="cls-1" x="455.4" y="130.23" width="3.21" height="19.27"/><line class="cls-1" x1="458.61" y1="130.23" x2="473.81" y2="122.32"/><line class="cls-1" x1="458.61" y1="149.5" x2="473.81" y2="141.59"/><line class="cls-1" x1="473.81" y1="122.32" x2="473.81" y2="141.59"/><polygon class="cls-1" points="462.15 281.37 472.43 286.51 472.43 308.37 462.15 303.22 462.15 281.37"/><polygon class="cls-1" points="441.58 281.37 451.86 286.51 451.86 308.37 441.58 303.22 441.58 281.37"/><polygon class="cls-1" points="462.15 281.37 451.86 286.51 451.86 308.37 462.15 303.22 462.15 281.37"/><path class="cls-1" d="M571.37,284.42h-7.43s4.69,3.12,4.69,6.24c0,4-6.85,8.14-6.85,13.62A7.9,7.9,0,0,0,570,312.5h1.37" transform="translate(-115 -62.92)"/><path class="cls-1" d="M571.37,284.42h4.79a13.3,13.3,0,0,0-2,6.24c0,4,6.85,8.14,6.85,13.62a7.9,7.9,0,0,1-8.22,8.22h-1.37" transform="translate(-115 -62.92)"/><path class="cls-2" d="M574.31,288.89c4.31-6.82,12.18,1,5,4.78-3.78,2-.12,7.49,2.38,3.21" transform="translate(-115 -62.92)"/><circle class="cls-4" cx="470.1" cy="360.54" r="3"/><circle class="cls-4" cx="459.59" cy="360.54" r="4.5"/><circle class="cls-4" cx="464.16" cy="357.95" r="4.5"/><rect class="cls-4" x="556.64" y="411.84" width="24" height="12" transform="translate(1151.19 248.3) rotate(135)"/><rect class="cls-4" x="556.64" y="407.6" width="24" height="12" transform="translate(1148.19 241.06) rotate(135)"/><rect class="cls-4" x="556.64" y="403.36" width="24" height="12" transform="translate(1145.19 233.81) rotate(135)"/><ellipse class="cls-4" cx="568.77" cy="409.48" rx="1.57" ry="3.75" transform="translate(-237.96 459.2) rotate(-45)"/><circle class="cls-4" cx="467.09" cy="353.04" r="3"/><path class="cls-2" d="M590,523.29a20.57,20.57,0,0,0-20.57-20.57A15.43,15.43,0,0,0,554,518.15a11.57,11.57,0,0,0,11.58,11.57,8.67,8.67,0,0,0,8.67-8.68,6.51,6.51,0,0,0-6.5-6.51,4.89,4.89,0,0,0-4.89,4.89,3.66,3.66,0,0,0,3.66,3.66,2.75,2.75,0,0,0,2.75-2.75" transform="translate(-115 -62.92)"/><polyline class="cls-2" points="458.58 461.48 465.57 456.21 475 460.38"/><polygon class="cls-2" points="444.86 504.66 444.86 513.34 449.19 513.34 455.27 519.41 455.27 498.59 449.19 504.66 444.86 504.66"/><path class="cls-2" d="M575.49,582.35a14.76,14.76,0,0,0,0-20.87" transform="translate(-115 -62.92)"/><path class="cls-2" d="M578.56,585.42a19.1,19.1,0,0,0,0-27" transform="translate(-115 -62.92)"/><rect class="cls-2" x="445.06" y="560.04" width="16.62" height="12.46"/><polygon class="cls-2" points="472.06 572.5 463.75 568.35 463.75 564.19 472.06 560.04 472.06 572.5"/><path class="cls-2" d="M568.37,611.2a6.24,6.24,0,1,1,0,6.93l0,0a6.23,6.23,0,1,1,0-7" transform="translate(-115 -62.92)"/><line class="cls-1" x1="536.58" y1="120.7" x2="549.05" y2="127.9"/><line class="cls-1" x1="541.85" y1="115.43" x2="549.05" y2="127.9"/><line class="cls-1" x1="549.05" y1="113.5" x2="549.05" y2="127.9"/><line class="cls-1" x1="556.25" y1="115.43" x2="549.05" y2="127.9"/><line class="cls-1" x1="561.52" y1="120.7" x2="549.05" y2="127.9"/><line class="cls-1" x1="536.58" y1="142.3" x2="549.05" y2="149.5"/><line class="cls-1" x1="561.52" y1="142.3" x2="549.05" y2="149.5"/><line class="cls-1" x1="536.58" y1="142.3" x2="536.58" y2="120.7"/><line class="cls-1" x1="549.05" y1="127.9" x2="549.05" y2="149.5"/><line class="cls-1" x1="541.85" y1="123.74" x2="541.85" y2="115.43"/><line class="cls-1" x1="556.25" y1="123.74" x2="556.25" y2="115.43"/><line class="cls-1" x1="561.52" y1="142.3" x2="561.52" y2="120.7"/><polygon class="cls-1" points="553.06 280.17 563.75 282.84 563.75 305.56 553.06 302.88 553.06 280.17"/><polygon class="cls-1" points="534.35 285.51 546.38 286.85 546.38 309.56 534.35 308.23 534.35 285.51"/><polygon class="cls-1" points="553.06 280.17 546.38 286.85 546.38 309.56 553.06 302.88 553.06 280.17"/><circle class="cls-4" cx="553.29" cy="359.83" r="3"/><rect class="cls-7" x="655.49" y="404.58" width="24" height="12" transform="translate(-217.81 203.56) rotate(-21)"/><path d="M658.44,421.07a.57.57,0,0,1-.54-.37l-4.31-11.21a.56.56,0,0,1,0-.44.61.61,0,0,1,.32-.31l22.41-8.6a.57.57,0,0,1,.75.33l4.3,11.21a.52.52,0,0,1,0,.44.54.54,0,0,1-.32.31L658.65,421A.52.52,0,0,1,658.44,421.07Zm-3.55-11.45,3.89,10.12,21.32-8.19-3.89-10.11Z" transform="translate(-115 -62.92)"/><rect class="cls-7" x="651.74" y="404.13" width="24" height="12" transform="translate(-231.29 364.75) rotate(-33)"/><path d="M657,422.28a.57.57,0,0,1-.49-.27L649.92,412a.59.59,0,0,1,.17-.81l20.13-13.07a.53.53,0,0,1,.44-.08.57.57,0,0,1,.37.25l6.54,10.07a.58.58,0,0,1-.17.8l-20.13,13.08A.62.62,0,0,1,657,422.28Zm-5.73-10.48,5.9,9.09,19.15-12.44-5.9-9.09Z" transform="translate(-115 -62.92)"/><rect class="cls-7" x="647.98" y="404.46" width="24" height="12" transform="translate(-211.93 523.98) rotate(-45)"/><path d="M655.74,423.77a.58.58,0,0,1-.41-.17l-8.49-8.49a.57.57,0,0,1,0-.82l17-17a.59.59,0,0,1,.83,0l8.48,8.48a.59.59,0,0,1,0,.83l-17,17A.58.58,0,0,1,655.74,423.77Zm-7.66-9.07,7.66,7.66,16.15-16.15-7.66-7.66Z" transform="translate(-115 -62.92)"/><ellipse class="cls-7" cx="664.21" cy="407.33" rx="1.57" ry="3.75" transform="translate(-216.86 202.17) rotate(-21)"/><ellipse class="cls-7" cx="659.85" cy="410.33" rx="1.57" ry="3.75" transform="translate(-211.88 523.85) rotate(-45)"/><path d="M661.88,413.79a5.83,5.83,0,0,1-3.55-1.94h0a7.7,7.7,0,0,1-1.68-2.39c-.52-1.27-.14-1.92.14-2.19,1-1,3.06,0,4.58,1.54a7.7,7.7,0,0,1,1.68,2.39c.52,1.27.14,1.92-.13,2.2A1.45,1.45,0,0,1,661.88,413.79ZM657.82,408a.36.36,0,0,0-.21,0c-.07.07-.1.39.12.93a6.65,6.65,0,0,0,1.43,2h0a6.62,6.62,0,0,0,2,1.42c.54.22.86.19.93.12s.1-.38-.12-.92a6.53,6.53,0,0,0-1.42-2A4.79,4.79,0,0,0,657.82,408Z" transform="translate(-115 -62.92)"/><circle class="cls-4" cx="561.8" cy="353.67" r="4.5"/><circle class="cls-4" cx="559.62" cy="358.45" r="4.5"/><circle class="cls-4" cx="560.12" cy="364.14" r="3"/><path class="cls-2" d="M676.18,506.89a16.35,16.35,0,0,0-10.27-3.61,14,14,0,0,0-14,14,11.89,11.89,0,0,0,11.89,11.89,10.1,10.1,0,0,0,10.1-10.11,8.59,8.59,0,0,0-8.59-8.59,7.3,7.3,0,0,0-7.3,7.31,6.21,6.21,0,0,0,6.21,6.2,5.35,5.35,0,0,0,5.36-5.27c0-2.48-2-4.92-4.46-4.92a4.43,4.43,0,0,0-4.19,4.13,3.56,3.56,0,0,0,3.37,3.47,3,3,0,0,0,2.89-2.87,2.28,2.28,0,0,0-2.34-2.34,1.73,1.73,0,0,0-1.4,2.33c.53,1.2,2,.25,1-.45" transform="translate(-115 -62.92)"/><polyline class="cls-2" points="556.7 450.38 557.79 446.12 561.18 443.97"/><rect class="cls-2" x="536.62" y="559.93" width="16.77" height="12.57"/><polygon class="cls-2" points="564.62 572.5 556.24 568.31 556.24 564.12 564.62 559.93 564.62 572.5"/><path class="cls-2" d="M660,610.23a6.28,6.28,0,1,1,0,7l0,0a6.28,6.28,0,1,1,0-7" transform="translate(-115 -62.92)"/><line class="cls-1" x1="641.1" y1="130.38" x2="630.57" y2="116.66"/><line class="cls-1" x1="641.1" y1="130.38" x2="637.36" y2="113.5"/><line class="cls-1" x1="641.1" y1="130.38" x2="644.84" y2="113.5"/><line class="cls-1" x1="641.1" y1="130.38" x2="651.62" y2="116.66"/><polyline class="cls-1" points="656.43 122.4 641.1 130.38 625.76 122.4"/><polyline class="cls-1" points="656.43 141.52 641.1 149.5 625.76 141.52"/><line class="cls-1" x1="625.76" y1="122.4" x2="625.76" y2="141.52"/><line class="cls-1" x1="656.43" y1="122.4" x2="656.43" y2="141.52"/><line class="cls-1" x1="641.1" y1="133.46" x2="641.1" y2="146.42"/><line class="cls-1" x1="630.57" y1="116.66" x2="630.57" y2="124.9"/><line class="cls-1" x1="651.62" y1="116.66" x2="651.62" y2="124.9"/><line class="cls-1" x1="644.84" y1="113.5" x2="644.84" y2="125.5"/><line class="cls-1" x1="637.36" y1="113.5" x2="637.36" y2="125.5"/><polygon class="cls-1" points="646.62 283.82 656.44 287.5 656.44 308.37 646.62 304.68 646.62 283.82"/><polygon class="cls-1" points="625.76 281.37 635.58 285.05 635.58 305.91 625.76 302.23 625.76 281.37"/><polygon class="cls-1" points="646.62 283.82 635.58 285.05 635.58 305.91 646.62 304.68 646.62 283.82"/><circle class="cls-4" cx="654.53" cy="360.11" r="3"/><circle class="cls-4" cx="644.03" cy="360.11" r="4.5"/><rect class="cls-4" x="741.07" y="411.41" width="24" height="12" transform="translate(1465.73 117.14) rotate(135)"/><circle class="cls-4" cx="647.03" cy="355.78" r="4.5"/><rect class="cls-4" x="741.07" y="407.17" width="24" height="12" transform="translate(1497.04 350.08) rotate(151.24)"/><circle class="cls-4" cx="650.85" cy="351.28" r="3"/><rect class="cls-4" x="741.07" y="402.92" width="24" height="12" transform="translate(1488.54 240.93) rotate(144.45)"/><ellipse class="cls-4" cx="753.18" cy="409.07" rx="1.57" ry="3.75" transform="translate(-212.46 451.18) rotate(-35.55)"/><polygon class="cls-2" points="625.88 456.07 625.88 450.54 631.41 445 656.32 445 656.32 461.61 631.41 461.61 625.88 456.07"/><line class="cls-2" x1="635.56" y1="449.15" x2="649.4" y2="449.15"/><line class="cls-2" x1="635.56" y1="453.31" x2="641.1" y2="453.31"/><line class="cls-2" x1="635.56" y1="457.46" x2="645.25" y2="457.46"/><circle class="cls-5" cx="630.03" cy="453.31" r="1.38"/><polyline class="cls-1" points="719.64 61.5 719.64 88.5 746.64 88.5"/><polyline class="cls-1" points="744.11 61.5 739.05 66.56 737.36 73.31 730.61 71.63 727.24 81.75 722.18 83.44"/><line class="cls-1" x1="750.83" y1="120.32" x2="733.14" y2="116.21"/><line class="cls-1" x1="745.34" y1="124.72" x2="733.14" y2="116.21"/><line class="cls-1" x1="733.14" y1="127.29" x2="733.14" y2="116.21"/><line class="cls-1" x1="720.95" y1="124.72" x2="733.14" y2="116.21"/><line class="cls-1" x1="715.46" y1="120.32" x2="733.14" y2="116.21"/><line class="cls-1" x1="733.14" y1="149.5" x2="733.14" y2="138.41"/><polyline class="cls-1" points="715.46 120.32 715.46 142.53 720.95 141.25"/><polyline class="cls-1" points="733.14 127.3 733.14 138.41 720.95 146.93 720.95 124.72"/><polyline class="cls-1" points="745.34 124.72 745.34 146.93 733.14 138.41"/><path class="cls-1" d="M848.14,201.33" transform="translate(-115 -62.92)"/><polyline class="cls-1" points="750.84 120.32 750.84 142.53 745.34 141.25"/><polyline class="cls-1" points="731.56 116.44 731.56 114.59 734.73 114.59 734.73 116.57"/><polyline class="cls-1" points="734.73 116.57 734.73 115.38 753 115.38 753 139.21 750.84 139.21"/><polyline class="cls-1" points="715.46 139.21 713.29 139.21 713.29 115.38 731.56 115.38 731.56 116.44"/><polygon class="cls-1" points="738.43 284.89 745.47 288.41 745.47 308.37 738.43 304.84 738.43 284.89"/><polygon class="cls-1" points="720.82 281.37 727.86 284.89 727.86 304.84 720.82 301.32 720.82 281.37"/><rect class="cls-1" x="727.86" y="284.89" width="10.57" height="19.96"/><circle class="cls-4" cx="748.2" cy="360.71" r="3"/><rect class="cls-7" x="835.73" y="407.73" width="24" height="12" transform="translate(-206.96 268.36) rotate(-21)"/><path d="M838.68,424.22a.58.58,0,0,1-.54-.38l-4.3-11.2a.54.54,0,0,1,0-.45.56.56,0,0,1,.32-.3l22.41-8.61a.58.58,0,0,1,.75.34l4.3,11.2a.54.54,0,0,1,0,.45.61.61,0,0,1-.32.31l-22.41,8.6A.52.52,0,0,1,838.68,424.22Zm-3.55-11.45L839,422.88l21.32-8.18-3.89-10.12Z" transform="translate(-115 -62.92)"/><rect class="cls-7" x="831.98" y="407.27" width="24" height="12" transform="translate(-203.92 463.42) rotate(-33)"/><path d="M837.19,425.42a.58.58,0,0,1-.49-.26l-6.54-10.07a.58.58,0,0,1,.17-.8l20.14-13.08a.59.59,0,0,1,.43-.08.58.58,0,0,1,.37.25l6.54,10.07a.59.59,0,0,1-.17.81l-20.13,13.07A.62.62,0,0,1,837.19,425.42ZM831.46,415l5.9,9.08,19.15-12.43-5.9-9.09Z" transform="translate(-115 -62.92)"/><rect class="cls-7" x="828.22" y="407.6" width="24" height="12" transform="translate(-161.37 652.35) rotate(-45)"/><path d="M836,426.92a.55.55,0,0,1-.41-.18l-8.49-8.48a.59.59,0,0,1,0-.83l17-17a.59.59,0,0,1,.83,0l8.49,8.49a.59.59,0,0,1,0,.82l-17,17A.55.55,0,0,1,836,426.92Zm-7.66-9.07,7.66,7.66,16.15-16.15-7.66-7.66Z" transform="translate(-115 -62.92)"/><ellipse class="cls-7" cx="844.46" cy="410.48" rx="1.57" ry="3.75" transform="translate(-206.01 266.97) rotate(-21)"/><ellipse class="cls-7" cx="840.09" cy="413.48" rx="1.57" ry="3.75" transform="translate(-161.32 652.22) rotate(-45)"/><path d="M842.12,416.94a5.88,5.88,0,0,1-3.55-1.94h0a7.7,7.7,0,0,1-1.68-2.39c-.52-1.27-.14-1.92.14-2.2,1-1,3.06,0,4.58,1.55a7.7,7.7,0,0,1,1.68,2.39c.52,1.27.14,1.92-.13,2.19A1.42,1.42,0,0,1,842.12,416.94Zm-4.06-5.76a.29.29,0,0,0-.21.06c-.07.07-.1.38.12.92a6.53,6.53,0,0,0,1.43,2h0a6.5,6.5,0,0,0,2,1.43c.55.22.86.19.93.12s.1-.39-.12-.93a6.78,6.78,0,0,0-1.42-2A4.76,4.76,0,0,0,838.06,411.18Z" transform="translate(-115 -62.92)"/><circle class="cls-4" cx="740.77" cy="353.29" r="4.5"/><circle class="cls-4" cx="745.83" cy="354.68" r="4.5"/><circle class="cls-4" cx="751.38" cy="353.29" r="3"/><polygon class="cls-2" points="717.92 455.5 717.92 449.97 724.84 444.43 748.37 444.43 748.37 461.04 724.84 461.04 717.92 455.5"/><line class="cls-2" x1="727.61" y1="449.97" x2="741.45" y2="449.97"/><line class="cls-2" x1="727.61" y1="452.74" x2="733.14" y2="452.74"/><line class="cls-2" x1="727.52" y1="455.48" x2="737.21" y2="455.48"/><circle class="cls-5" cx="722.07" cy="452.74" r="1.38"/><rect class="cls-4" x="258.06" y="603.83" width="22.84" height="30.83"/><rect class="cls-4" x="261.49" y="601.54" width="22.84" height="30.83"/><rect class="cls-4" x="264.92" y="598.12" width="22.84" height="30.83"/><rect class="cls-4" x="465.86" y="663.23" width="22.84" height="30.83" transform="translate(10.1 -135.48) rotate(10)"/><rect class="cls-4" x="353.71" y="598.57" width="22.84" height="30.83"/><rect class="cls-4" x="471.21" y="659.27" width="22.84" height="30.83" transform="translate(-224.83 31.14) rotate(-10)"/><rect class="cls-4" x="557.22" y="668.66" width="22.84" height="30.83" transform="translate(-310.24 165.31) rotate(-19.44)"/><rect class="cls-4" x="448.29" y="602.75" width="22.84" height="30.83"/><rect class="cls-4" x="564.56" y="660.1" width="22.84" height="30.83" transform="translate(97.51 -197.32) rotate(16.28)"/><path class="cls-2" d="M666.28,670.29c0,2,.6,3.6,1.34,3.6s1.34-1.61,1.34-3.6" transform="translate(-115 -62.92)"/><path class="cls-2" d="M659.14,670.29c0,2,.6,3.6,1.34,3.6s1.34-1.61,1.34-3.6" transform="translate(-115 -62.92)"/><path class="cls-2" d="M661.82,670.29c0,2,1,3.6,2.23,3.6s2.23-1.61,2.23-3.6" transform="translate(-115 -62.92)"/><polyline class="cls-8" points="547.76 622.28 550.34 622.28 553.78 609.18 550.34 622.27 549.05 627.18 544.32 609.18"/><line class="cls-8" x1="553.96" y1="607.38" x2="553.96" y2="598.41"/><line class="cls-8" x1="551.28" y1="607.38" x2="551.28" y2="597.87"/><line class="cls-8" x1="546.82" y1="607.38" x2="546.82" y2="597.87"/><line class="cls-8" x1="544.14" y1="607.38" x2="544.14" y2="598.41"/><circle class="cls-2" cx="549.05" cy="615.73" r="18"/><path class="cls-2" d="M763.58,673c-1.4,1.4-2.12,3-1.6,3.49s2.09-.19,3.5-1.6" transform="translate(-115 -62.92)"/><path class="cls-2" d="M758.53,668c-1.4,1.4-2.12,3-1.6,3.49s2.09-.19,3.5-1.6" transform="translate(-115 -62.92)"/><path class="cls-2" d="M760.43,669.84c-1.41,1.41-1.84,3.25-1,4.13s2.72.43,4.12-1" transform="translate(-115 -62.92)"/><polyline class="cls-8" points="635.55 618.13 637.38 619.96 649.08 613.12 637.39 619.95 633 622.51 642.39 606.43"/><line class="cls-8" x1="650.48" y1="611.97" x2="656.82" y2="605.63"/><line class="cls-8" x1="648.58" y1="610.08" x2="655.31" y2="603.36"/><line class="cls-8" x1="645.43" y1="606.92" x2="652.15" y2="600.2"/><line class="cls-8" x1="643.53" y1="605.03" x2="649.88" y2="598.69"/><circle class="cls-2" cx="641.1" cy="614.41" r="18"/><path class="cls-2" d="M843.82,670.5c1.4,1.41,3,2.12,3.49,1.6s-.19-2.09-1.6-3.49" transform="translate(-115 -62.92)"/><path class="cls-2" d="M838.77,675.55c1.4,1.41,3,2.12,3.49,1.6s-.19-2.09-1.6-3.49" transform="translate(-115 -62.92)"/><path class="cls-2" d="M840.66,673.66c1.41,1.4,3.25,1.84,4.12,1s.44-2.72-1-4.13" transform="translate(-115 -62.92)"/><polyline class="cls-8" points="736.87 620.61 738.69 618.79 731.86 607.09 738.68 618.78 741.25 623.17 725.17 613.78"/><line class="cls-8" x1="730.71" y1="605.69" x2="724.37" y2="599.35"/><line class="cls-8" x1="728.82" y1="607.58" x2="722.09" y2="600.86"/><line class="cls-8" x1="725.66" y1="610.74" x2="718.94" y2="604.02"/><line class="cls-8" x1="723.77" y1="612.63" x2="717.42" y2="606.29"/><circle class="cls-2" cx="733.14" cy="615.07" r="18"/><polyline class="cls-1" points="533.79 65.38 533.79 84.63 553.04 84.63"/><polyline class="cls-1" points="551.23 65.38 544.01 72.59 539.2 72.59 535.59 81.02"/><rect class="cls-1" x="529.91" y="61.5" width="27" height="27"/><polyline class="cls-1" points="626.04 65.38 626.04 84.63 645.29 84.63"/><polyline class="cls-1" points="643.48 65.38 639.88 68.98 638.67 73.8 633.86 72.59 631.45 79.81 627.84 81.02"/><rect class="cls-1" x="622.16" y="61.5" width="27" height="27"/><polyline class="cls-1" points="809.53 65.38 809.53 84.63 828.78 84.63"/><polyline class="cls-1" points="826.98 65.38 823.37 68.98 822.17 73.8 817.36 72.59 814.95 79.81 811.34 81.02"/><rect class="cls-1" x="805.66" y="61.5" width="27" height="27"/><polyline class="cls-1" points="901.28 65.38 901.28 84.63 920.53 84.63"/><line class="cls-1" x1="918.73" y1="65.37" x2="903.09" y2="81.02"/><rect class="cls-1" x="897.41" y="61.5" width="27" height="27"/><text class="cls-9" transform="translate(59.32 27.43)"><tspan class="cls-10">A</tspan><tspan class="cls-11" x="8.94" y="0">r</tspan><tspan class="cls-12" x="14.03" y="0">chi</tspan><tspan x="32.62" y="0">v</tspan><tspan class="cls-13" x="39.48" y="0">e</tspan><tspan class="cls-12" x="46.88" y="0">s and </tspan><tspan class="cls-14" x="81.83" y="0">M</tspan><tspan class="cls-10" x="93" y="0">anuscrip</tspan><tspan class="cls-15" x="145.77" y="0">t</tspan><tspan class="cls-10" x="150.66" y="0">s</tspan></text><text class="cls-16" transform="translate(163.39 81.62)">Da<tspan class="cls-15" x="16.08" y="0">t</tspan><tspan x="20.96" y="0">ase</tspan><tspan class="cls-15" x="41.7" y="0">t</tspan><tspan class="cls-12" x="46.58" y="0">s</tspan></text><text class="cls-9" transform="translate(121.37 135.62)"><tspan class="cls-10">Published </tspan><tspan class="cls-17" x="62.99" y="0">T</tspan><tspan x="69.55" y="0">e</tspan><tspan class="cls-18" x="76.59" y="0">x</tspan><tspan class="cls-13" x="83.72" y="0">t</tspan><tspan class="cls-10" x="88.61" y="0">s</tspan></text><text class="cls-19" transform="translate(128.2 189.82)">N<tspan class="cls-10" x="9.34" y="0">o</tspan><tspan class="cls-15" x="17.03" y="0">t</tspan><tspan class="cls-10" x="21.91" y="0">ated </tspan><tspan x="52.06" y="0">M</tspan><tspan class="cls-10" x="63.23" y="0">usic</tspan></text><text class="cls-16" transform="translate(168.8 243.62)">Objec<tspan class="cls-13" x="36.29" y="0">t</tspan><tspan x="41.17" y="0">s</tspan></text><text class="cls-19" transform="translate(183.79 297.82)">M<tspan class="cls-10" x="11.17" y="0">aps</tspan></text><text class="cls-19" transform="translate(137.39 351.82)">N<tspan class="cls-10" x="9.34" y="0">umismati</tspan><tspan class="cls-13" x="65.29" y="0">c</tspan><tspan class="cls-10" x="72.59" y="0">s</tspan></text><text class="cls-16" transform="translate(150.55 406.01)">Sculptu<tspan class="cls-20" x="46.93" y="0">r</tspan><tspan class="cls-13" x="52.02" y="0">e</tspan><tspan class="cls-12" x="59.42" y="0">s</tspan></text><text class="cls-16" transform="translate(149.4 459.62)">Specimens</text><text class="cls-21" transform="translate(180.59 513.82)">A<tspan class="cls-10" x="8.76" y="0">udio</tspan></text><text class="cls-22" transform="translate(181.06 567.82)">V<tspan class="cls-10" x="8.59" y="0">ideo</tspan></text><text class="cls-23" transform="translate(71.31 622.01)">T<tspan class="cls-24" x="7.04" y="0">w</tspan><tspan class="cls-12" x="17.02" y="0">o-Dimensional </tspan><tspan class="cls-25" x="107.52" y="0">W</tspan><tspan class="cls-10" x="118.93" y="0">or</tspan><tspan class="cls-20" x="131.83" y="0">k</tspan><tspan class="cls-10" x="138.67" y="0">s</tspan></text></svg>