<svg xmlns="http://www.w3.org/2000/svg" data-name="Layer 1" viewBox="0 0 722.69 596.2"><defs><style>  .cls-1,.cls-5,.cls-6{fill:none;}.cls-1,.cls-2,.cls-3,.cls-5,.cls-6,.cls-7{stroke:#fff;}.cls-1,.cls-3,.cls-5,.cls-7{stroke-linecap:round;}.cls-1,.cls-3,.cls-7{stroke-linejoin:round;}.cls-2,.cls-3,.cls-4{fill:#fff;}.cls-2,.cls-5,.cls-6{stroke-miterlimit:10;}.cls-7{fill:#010101;}</style></defs><title>  Untitled-3</title><polygon class="cls-1" points="615.49 262.11 625.07 266.9 625.07 287.26 615.49 282.47 615.49 262.11"/><polygon class="cls-1" points="615.49 262.11 605.91 266.9 605.91 287.26 615.49 282.47 615.49 262.11"/><polygon class="cls-1" points="635.85 264.51 625.07 266.9 625.07 287.26 635.85 284.87 635.85 264.51"/><polygon class="cls-1" points="712.61 262.11 722.18 266.9 722.18 287.26 712.61 282.47 712.61 262.11"/><polygon class="cls-1" points="712.61 262.11 703.02 266.9 703.02 287.26 712.61 282.47 712.61 262.11"/><polygon class="cls-1" points="703.02 266.9 691.05 264.51 691.05 284.87 703.02 287.26 703.02 266.9"/><polygon class="cls-1" points="529.15 262.11 538.74 266.9 538.74 287.26 529.15 282.47 529.15 262.11"/><polygon class="cls-1" points="529.15 262.11 519.57 266.9 519.57 287.26 529.15 282.47 529.15 262.11"/><rect class="cls-1" x="538.74" y="266.9" width="11.98" height="20.36"/><polygon class="cls-1" points="523.83 419 527.48 415.36 534.77 415.36 551.18 431.76 540.24 442.7 523.83 426.29 523.83 419"/><line class="cls-1" x1="533.86" y1="421.74" x2="542.97" y2="430.85"/><line class="cls-1" x1="532.04" y1="423.56" x2="535.68" y2="427.21"/><line class="cls-1" x1="530.21" y1="425.38" x2="536.59" y2="431.76"/><circle class="cls-2" cx="528.39" cy="419.91" r="1.29"/><path class="cls-1" d="M528.39 419.91v-12c0-2.77-1.41-6.12-5.15-6.12-3.14 0-8.55 4.4 2.43 15.33"/><path class="cls-1" d="M10.32 28.5a4.73 4.73 0 0 0 3.84 5.47 3.79 3.79 0 0 0 4.38-3.07 3 3 0 0 0-2.46-3.5 2.42 2.42 0 0 0-2.8 2 1.93 1.93 0 0 0 1.57 2.24 1.54 1.54 0 0 0 1.79-1.25" transform="translate(-8.09 -11.33)"/><line class="cls-1" x1="10.33" y1="28.5" x2="14.23" y2="6.35"/><path class="cls-1" d="M14.219999999999999 6.389999999999999a4.71 4.71 0 0 0-3.83-5.47 3.78 3.78 0 0 0-4.38 3.06 3 3 0 0 0 2.45 3.51 2.43 2.43 0 0 0 2.81-2 2 2 0 0 0-1.57-2.25A1.55 1.55 0 0 0 16 15.87" transform="translate(-8.09 -11.33)"/><path class="cls-1" d="M31.81 34.03a3.79 3.79 0 0 0 3.61-3.13 3 3 0 0 0-2.45-3.5l-0.3 0" transform="translate(-8.09 -11.33)"/><line class="cls-1" x1="27.41" y1="27.37" x2="31.12" y2="6.35"/><path class="cls-1" d="M31.110000000000003 6.389999999999999a4.73 4.73 0 0 0-3.84-5.47 4.6 4.6 0 0 0-0.52-0.06" transform="translate(-8.09 -11.33)"/><line class="cls-1" x1="10.13" y1="0.86" x2="26.75" y2="0.86"/><line class="cls-1" x1="15.79" y1="27.37" x2="32.67" y2="27.37"/><line class="cls-1" x1="14.71" y1="34.03" x2="31.82" y2="34.03"/><line class="cls-1" x1="14.03" y1="7.53" x2="8.94" y2="7.53"/><line class="cls-1" x1="26.79" y1="12.96" x2="16.24" y2="12.96"/><line class="cls-1" x1="27.36" y1="9.71" x2="16.81" y2="9.71"/><line class="cls-1" x1="26.22" y1="16.21" x2="15.66" y2="16.21"/><line class="cls-1" x1="25.64" y1="19.46" x2="15.09" y2="19.46"/><line class="cls-1" x1="25.07" y1="22.71" x2="14.52" y2="22.71"/><polyline class="cls-1" points="8.15 57.32 8.15 82.47 33.3 82.47"/><polyline class="cls-1" points="11.29 71.47 20.72 66.75 27.01 68.32 33.3 57.32"/><line class="cls-1" x1="33.62" y1="113.22" x2="20.72" y2="105.78"/><line class="cls-1" x1="28.17" y1="118.68" x2="20.72" y2="105.78"/><line class="cls-1" x1="20.72" y1="124.39" x2="20.72" y2="105.78"/><line class="cls-1" x1="13.27" y1="118.68" x2="20.72" y2="105.78"/><line class="cls-1" x1="7.82" y1="113.22" x2="20.72" y2="105.78"/><line class="cls-1" x1="33.62" y1="131.84" x2="28.17" y2="128.69"/><line class="cls-1" x1="28.17" y1="137.29" x2="20.72" y2="124.39"/><line class="cls-1" x1="20.72" y1="139.29" x2="20.72" y2="124.39"/><line class="cls-1" x1="13.27" y1="137.29" x2="20.72" y2="124.39"/><line class="cls-1" x1="7.82" y1="131.84" x2="13.27" y2="128.69"/><line class="cls-1" x1="7.82" y1="113.22" x2="7.82" y2="131.84"/><line class="cls-1" x1="13.27" y1="118.68" x2="13.27" y2="137.29"/><line class="cls-1" x1="28.17" y1="118.68" x2="28.17" y2="137.29"/><line class="cls-1" x1="33.62" y1="113.22" x2="33.62" y2="131.84"/><polygon class="cls-1" points="5.96 263 15.8 265.46 15.8 286.38 5.96 283.91 5.96 263"/><polygon class="cls-1" points="25.64 263 35.48 265.46 35.48 286.38 25.64 283.91 25.64 263"/><polygon class="cls-1" points="25.64 263 15.8 265.46 15.8 286.38 25.64 283.91 25.64 263"/><path class="cls-1" d="M20.72 185.82a1.38 1.38 0 0 0 0.32-1.46 1.3 1.3 0 0 0-1.46-0.7 2 2 0 0 0-1.62 2c0 1.15 2.38 3.09 2.38 1.72 0 2.87-1.31 2.87-3.3s-1.1-4.42-2.15-9.9c-0.95-4.94-2.14-8.48-2.08-11s1.4-4.09 2.63-4.09S32 172.88 32 174.52c0 1.49-0.77 3.84-4.1 6.71-2.92 2.52-4.11 4.42-4.11 6.62A5 5 0 0 0 29 192.54c3.36 0 4.85-2.34 4.85-4.31 0-2.42-1.31-3.78-3.33-3.78-2.76 0-3.72 1.65-3.72 3.16a2.19 2.19 0 0 0 1.11 2.16" transform="translate(-8.09 -11.33)"/><path class="cls-1" d="M7.989999999999998 227.2c0.63 2.32 2.11 2.61 2.86 3.2a2.29 2.29 0 0 1 0.78 1.37h0c0 0.41 2.76 6.17s6.18-0.32 6.18-0.73a2.35 2.35 0 0 1 0.78-1.37c1.08-0.84 3.67-1.09 3.06-7.61a33.82 33.82 0 0 0-2.46-10 1.17 1.17 0 0 0-1.08-0.7h-13a1.15 1.15 0 0 0-1.07 29.64 29.64 0 0 0-1.65 5.05" transform="translate(-8.09 -11.33)"/><path class="cls-1" d="M26.23 214.98999999999998s8-5.87 8 4.38c0 9.25-5.45 7.16-6.4 6.66"/><path class="cls-1" d="M8.61 217.82c-0.36-0.08-1.48-0.46-2.58-2.34-1.33-2.28-1.72-3.18-2-3.27a12.82 12.82 0 0 0-3.5c0 0.22 1.38 2.19 2.39 1.09 2.49 6.1 2.52 9.42a8.14 8.14 0 0 0 2.78 2.93" transform="translate(-8.09 -11.33)"/><rect class="cls-3" x="17.63" y="336.37" width="22.36" height="11.18" transform="translate(282.89 552.07)rotate(135)"/><rect class="cls-3" x="17.63" y="332.42" width="22.36" height="11.18" transform="translate(280.1 545.32)rotate(135)"/><rect class="cls-3" x="17.63" y="328.46" width="22.36" height="11.18" transform="translate(277.3 538.57)rotate(135)"/><path class="cls-1" d="M33.480000000000004 430.21000000000004a15.5 15.5 0 0 1-21.9 0 12.4 12.4 0 0 1 0-17.53 9.92 9.92 0 0 1 14 0 8 8 0 0 1 0 11.22 6.34 6.34 0 0 1-9 0 5.06 5.06 0 0 1 0-7.18 4.07 4.07 0 0 1 5.74 0" transform="translate(-8.09 -11.33)"/><line class="cls-1" x1="26.28" y1="423.13" x2="33.49" y2="430.21"/><polygon class="cls-1" points="8.67 468.93 8.67 479.41 13.91 479.41 21.24 486.74 21.24 461.59 13.91 468.93 8.67 468.93"/><path class="cls-1" d="M23.84 483.05a12.55 12.55 0 0 0 0-17.78" transform="translate(-8.09 -11.33)"/><path class="cls-1" d="M27.55 486.76a17.82 17.82 0 0 0 0-25.2" transform="translate(-8.09 -11.33)"/><rect class="cls-1" x="11.68" y="520.71" width="12.57" height="12.57"/><rect class="cls-1" x="24.26" y="523.86" width="6.29" height="6.29"/><polygon class="cls-1" points="36.05 533.29 30.54 530.15 30.54 523.86 36.05 520.72 36.05 533.29"/><circle class="cls-1" cx="11.68" cy="514.43" r="6.29"/><circle class="cls-1" cx="24.26" cy="514.43" r="6.29"/><path class="cls-1" d="M96.28 4.0600000000000005a1.66 1.66 0 0 1-1.17 2.9c-3.11 0-3.19-6.46 1-6.46 3 0 4.49 3 4 5.6" transform="translate(-8.09 -11.33)"/><line class="cls-1" x1="96.26" y1="0.5" x2="112.66" y2="0.5"/><line class="cls-1" x1="95.12" y1="6.96" x2="100.02" y2="6.96"/><line class="cls-1" x1="100.14" y1="4.06" x2="96.28" y2="4.06"/><path class="cls-1" d="M112.64999999999999 0.5c3 0 4.5 3 4 5.6L112.91 27.560000000000002"/><line class="cls-1" x1="113.4" y1="10.48" x2="102.63" y2="10.48"/><line class="cls-1" x1="109.65" y1="13.42" x2="102.12" y2="13.42"/><line class="cls-1" x1="111.29" y1="16.36" x2="101.6" y2="16.36"/><line class="cls-1" x1="110.77" y1="19.3" x2="101.08" y2="19.3"/><line class="cls-1" x1="104.87" y1="22.23" x2="100.57" y2="22.23"/><path class="cls-1" d="M117.78999999999999 27.560000000000002c3.12 0 3.19 6.46-1 6.46"/><line class="cls-1" x1="112.91" y1="27.56" x2="101.3" y2="27.56"/><line class="cls-1" x1="117.8" y1="27.56" x2="112.91" y2="27.56"/><line class="cls-1" x1="116.77" y1="34.03" x2="100.14" y2="34.03"/><path class="cls-1" d="M103.55 30.46h-2.73a1.24 1.24 0 0 1-1.24-1.06 1.68 1.68 0 0 1 1.72-1.85c3.11 0 3.19 6.47-1 6.47-3 0-4.5-3-4-5.61l4-22.55" transform="translate(-8.09 -11.33)"/><polyline class="cls-1" points="93.88 57.32 93.88 82.47 119.03 82.47"/><polyline class="cls-1" points="96.24 74.61 104.1 66.75 108.81 68.32 116.67 58.89"/><line class="cls-1" x1="106.46" y1="105.75" x2="121.33" y2="113.5"/><line class="cls-1" x1="106.46" y1="105.75" x2="116.66" y2="119.06"/><line class="cls-1" x1="106.46" y1="105.75" x2="110.09" y2="122.12"/><line class="cls-1" x1="106.46" y1="105.75" x2="102.83" y2="122.12"/><line class="cls-1" x1="106.46" y1="105.75" x2="96.25" y2="119.06"/><line class="cls-1" x1="106.46" y1="105.75" x2="91.58" y2="113.5"/><line class="cls-1" x1="116.66" y1="128.23" x2="121.33" y2="130.66"/><line class="cls-1" x1="110.08" y1="127.64" x2="116.66" y2="136.22"/><line class="cls-1" x1="106.46" y1="122.92" x2="110.09" y2="139.29"/><polyline class="cls-1" points="106.46 105.75 106.46 122.92 102.83 139.29"/><line class="cls-1" x1="102.83" y1="127.64" x2="96.25" y2="136.22"/><line class="cls-1" x1="91.58" y1="113.5" x2="91.58" y2="130.66"/><line class="cls-1" x1="96.25" y1="119.06" x2="96.25" y2="136.22"/><line class="cls-1" x1="102.83" y1="122.12" x2="102.83" y2="139.29"/><line class="cls-1" x1="110.09" y1="122.12" x2="110.09" y2="139.29"/><line class="cls-1" x1="116.66" y1="119.06" x2="116.66" y2="136.22"/><line class="cls-1" x1="121.33" y1="113.5" x2="121.33" y2="130.66"/><line class="cls-1" x1="96.25" y1="128.23" x2="91.58" y2="130.66"/><polygon class="cls-1" points="93.88 264.51 103.46 266.9 103.46 287.26 93.88 283.67 93.88 264.51"/><polygon class="cls-1" points="109.45 262.11 119.03 263.31 119.03 283.67 109.45 281.27 109.45 262.11"/><polygon class="cls-1" points="109.45 262.11 103.46 266.9 103.46 287.26 109.45 281.27 109.45 262.11"/><path class="cls-4" d="M103.46 160.79999999999998c1.88 7.33 8 4.75 5.3 12.94 1-5.52-3.87-4.17-5.3-7.24Z"/><polyline class="cls-5" points="103.46 181.69 103.46 166.5 103.46 160.81"/><path class="cls-5" d="M103.46 160.79999999999998c1.88 7.33 8 4.75 5.3 12.94"/><path class="cls-5" d="M103.46 166.5c1.43 3.07 6.25 1.72 5.3 7.24"/><path class="cls-1" d="M114.39999999999999 227.2c-0.63 2.32-2.11 2.62-2.86 3.2a2.35 2.35 0 0 0-0.78 1.37h0c0 0.41-2.77-6.18s-6.17-0.32-6.17-0.73a2.35 2.35 0 0 0-0.78-1.37c-1.08-0.84-3.67-1.09-3.06-7.6a33.33 33.33 0 0 1 2.47-10 1.15 1.15 0 0 1 1.07-0.7h13a1.17 1.17 0 0 1 1.08 31 31 0 0 1 1.64 5" transform="translate(-8.09 -11.33)"/><path class="cls-1" d="M96.17 215s-8-5.87-8 4.37c0 9.25 5.44 7.16 6.4 6.66"/><path class="cls-1" d="M113.78 217.82c0.36-0.07 1.48-0.45 2.58-2.33 1.33-2.28 1.72-3.18 2-3.27a12.82 12.82 0 0 1 3.5c0 0.22-1.38-2.19 2.39-1.09 2.49-0.63 6.09-2.52 9.42a8.18 8.18 0 0 1-2.78 2.92" transform="translate(-8.09 -11.33)"/><circle class="cls-3" cx="118.97" cy="335.45" r="2.79"/><circle class="cls-3" cx="109.19" cy="335.46" r="4.19"/><circle class="cls-3" cx="113.44" cy="333.04" r="4.19"/><rect class="cls-3" x="100.55" y="335.96" width="22.36" height="11.18" transform="translate(424.16 492.74)rotate(135)"/><rect class="cls-3" x="100.55" y="332.01" width="22.36" height="11.18" transform="translate(364.03 568.47)rotate(151.24)"/><rect class="cls-3" x="100.55" y="328.06" width="22.36" height="11.18" transform="translate(388.51 528.85)rotate(144.45)"/><circle class="cls-3" cx="115.54" cy="327.24" r="2.79"/><path class="cls-1" d="M122.72999999999999 415.87a18.6 18.6 0 0 1-18.6 18.6 14 14 0 0 1-14-13.95 10.46 10.46 0 0 1 10.46-10.46 7.85 7.85 0 0 1 7.85 7.84 5.89 5.89 0 0 1-5.89 5.89 4.41 4.41 0 0 1-4.41-4.42 3.31 3.31 0 0 1 3.31-3.31 2.49 2.49 0 0 1 2.48 2.49 1.86 1.86 0 0 1-1.86 1.86" transform="translate(-8.09 -11.33)"/><polyline class="cls-1" points="122.73 415.87 115.07 418.76 108.36 416.51"/><polygon class="cls-1" points="95.14 470.1 95.14 478.18 99.18 478.18 103.8 486.76 103.8 461.59 99.18 470.1 95.14 470.1"/><path class="cls-1" d="M106.85 481a9.71 9.71 0 0 0 0-13.72" transform="translate(-8.09 -11.33)"/><path class="cls-1" d="M109.7 483.85a13.72 13.72 0 0 0 0-19.43" transform="translate(-8.09 -11.33)"/><path class="cls-1" d="M112.56 486.67a17.78 17.78 0 0 0 0-25.15" transform="translate(-8.09 -11.33)"/><rect class="cls-1" x="95.82" y="521.68" width="15.48" height="11.61"/><polygon class="cls-1" points="120.97 533.29 113.23 529.42 113.23 525.55 120.97 521.68 120.97 533.29"/><circle class="cls-1" cx="97.75" cy="513.94" r="5.8"/><circle class="cls-1" cx="109.36" cy="513.94" r="5.8"/><polyline class="cls-1" points="179.62 57.32 179.62 82.47 204.77 82.47"/><polyline class="cls-1" points="181.98 74.61 189.84 66.75 194.55 68.32 202.41 58.89"/><line class="cls-1" x1="190.7" y1="121.33" x2="176.54" y2="113.96"/><line class="cls-1" x1="190.7" y1="139.29" x2="176.54" y2="131.92"/><line class="cls-1" x1="176.54" y1="113.96" x2="176.54" y2="131.92"/><line class="cls-1" x1="192.29" y1="121.33" x2="182.58" y2="108.67"/><line class="cls-1" x1="192.29" y1="121.33" x2="188.84" y2="105.75"/><line class="cls-1" x1="192.29" y1="121.33" x2="195.75" y2="105.75"/><line class="cls-1" x1="192.29" y1="121.33" x2="202.01" y2="108.67"/><line class="cls-1" x1="182.58" y1="108.67" x2="182.58" y2="116.83"/><line class="cls-1" x1="202.01" y1="108.67" x2="202.01" y2="116.83"/><line class="cls-1" x1="195.75" y1="105.75" x2="195.75" y2="116.83"/><line class="cls-1" x1="188.84" y1="105.75" x2="188.84" y2="116.83"/><rect class="cls-1" x="190.7" y="121.33" width="2.99" height="17.95"/><line class="cls-1" x1="193.69" y1="121.33" x2="207.85" y2="113.96"/><line class="cls-1" x1="193.69" y1="139.29" x2="207.85" y2="131.92"/><line class="cls-1" x1="207.85" y1="113.96" x2="207.85" y2="131.92"/><polygon class="cls-1" points="196.99 262.11 206.56 266.9 206.56 287.26 196.99 282.47 196.99 262.11"/><polygon class="cls-1" points="177.82 262.11 187.4 266.9 187.4 287.26 177.82 282.47 177.82 262.11"/><polygon class="cls-1" points="196.99 262.11 187.4 266.9 187.4 287.26 196.99 282.47 196.99 262.11"/><path class="cls-1" d="M191.6 206.35h-6.92s4.37 2.9 4.37 5.81c0 3.76-6.38 7.58-6.38 12.69a7.35 7.35 0 0 0 7.65 7.65h1.28" transform="translate(-8.09 -11.33)"/><path class="cls-1" d="M191.6 206.35h4.47a12.32 12.32 0 0 0-1.92 5.81c0 3.76 6.38 7.58 6.38 12.69a7.35 7.35 0 0 1-7.65 7.65h-1.28" transform="translate(-8.09 -11.33)"/><path class="cls-1" d="M194.32999999999998 210.51c4-6.35 11.35 4.71 4.46-3.53 1.88-0.12 7 2.21 3"/><circle class="cls-3" cx="204.39" cy="335.86" r="2.79"/><circle class="cls-3" cx="194.61" cy="335.86" r="4.19"/><circle class="cls-3" cx="198.86" cy="333.45" r="4.19"/><rect class="cls-3" x="185.97" y="336.37" width="22.36" height="11.18" transform="translate(570.27 433.03)rotate(135)"/><rect class="cls-3" x="185.97" y="332.42" width="22.36" height="11.18" transform="translate(567.47 426.28)rotate(135)"/><rect class="cls-3" x="185.97" y="328.46" width="22.36" height="11.18" transform="translate(564.68 419.54)rotate(135)"/><circle class="cls-3" cx="201.59" cy="328.87" r="2.79"/><path class="cls-1" d="M208.96 428.85A19.16 19.16 0 0 0 197.88 421a14.37 14.37 0 0 0-14.37 14.37 10.78 10.78 0 0 0 10.78 10.78 8.09 8.09 0 0 0 8.09-8.09 6.06 6.06 0 0 0-6.07-6.06 4.55 4.55 0 0 0-4.54 4.55 3.41 3.41 0 0 0 3.41 3.41 2.56 2.56 0 0 0 2.55-2.56" transform="translate(-8.09 -11.33)"/><polyline class="cls-1" points="193.66 429.88 200.18 424.97 208.96 428.85"/><polygon class="cls-1" points="180.88 470.1 180.88 478.18 184.92 478.18 190.58 483.84 190.58 464.44 184.92 470.1 180.88 470.1"/><path class="cls-1" d="M195.44 483.85a13.75 13.75 0 0 0 0-19.43" transform="translate(-8.09 -11.33)"/><path class="cls-1" d="M198.29999999999998 486.67a17.78 17.78 0 0 0 0-25.15" transform="translate(-8.09 -11.33)"/><rect class="cls-1" x="181.07" y="521.68" width="15.48" height="11.61"/><polygon class="cls-1" points="206.22 533.29 198.48 529.42 198.48 525.55 206.22 521.68 206.22 533.29"/><path class="cls-1" d="M188.79999999999998 510.72999999999996a5.81 5.81 0 1 1 0 6.45l0 0a5.8 5.8 0 1 1 0-6.47" transform="translate(-8.09 -11.33)"/><line class="cls-1" x1="266.32" y1="112.46" x2="277.93" y2="119.17"/><line class="cls-1" x1="271.23" y1="107.55" x2="277.93" y2="119.17"/><line class="cls-1" x1="277.93" y1="105.75" x2="277.93" y2="119.17"/><line class="cls-1" x1="284.64" y1="107.55" x2="277.93" y2="119.17"/><line class="cls-1" x1="289.55" y1="112.46" x2="277.93" y2="119.17"/><line class="cls-1" x1="266.32" y1="132.58" x2="277.93" y2="139.29"/><line class="cls-1" x1="289.55" y1="132.58" x2="277.93" y2="139.29"/><line class="cls-1" x1="266.32" y1="132.58" x2="266.32" y2="112.46"/><line class="cls-1" x1="277.93" y1="119.17" x2="277.93" y2="139.29"/><line class="cls-1" x1="271.23" y1="115.29" x2="271.23" y2="107.55"/><line class="cls-1" x1="284.64" y1="115.29" x2="284.64" y2="107.55"/><line class="cls-1" x1="289.55" y1="132.58" x2="289.55" y2="112.46"/><polygon class="cls-1" points="281.67 261 291.62 263.49 291.62 284.64 281.67 282.15 281.67 261"/><polygon class="cls-1" points="264.24 265.97 275.44 267.22 275.44 288.38 264.24 287.13 264.24 265.97"/><polygon class="cls-1" points="281.67 261 275.44 267.22 275.44 288.38 281.67 282.15 281.67 261"/><circle class="cls-1" cx="281.88" cy="335.2" r="2.79"/><rect class="cls-6" x="278.05" y="329.61" width="22.36" height="11.18" transform="translate(-109 114.59)rotate(-21)"/><path class="cls-6" d="M272.70000000000005 333.67a0.55 0 0 1-0.51-0.34l-4-10.44a0.56 0 0 1 0-0.42 0 0 1 0.3-0.28l20.87-8a0.54 0 0 1 0.7l4 10.43a0.55 0 0 1 0 0.42 0 0 1-0.3l-20.87 8A0.69 0 0 1 280.79 345Zm-3.3-10.66 3.61 9.42L301 336.1l-3.62-9.43Z" transform="translate(-8.09 -11.33)"/><rect class="cls-6" x="274.55" y="329.18" width="22.36" height="11.18" transform="translate(-144.32 198.3)rotate(-33)"/><path class="cls-6" d="M271.31 334.76a0.53 0 0 1-0.45-0.25l-6.09-9.37a0.54 0 0 1 0.16-0.76l18.75-12.17a0.54 0 0 1 0.41-0.08 0 0 1 0.34l6.09 9.37a0.55 0 0 1-0.16L279.7 346A0.55 0 0 1 279.4 346.09Zm-5.34-9.76 5.5 8.46 17.84-11.58-5.5-8.47Z" transform="translate(-8.09 -11.33)"/><rect class="cls-6" x="271.05" y="329.49" width="22.36" height="11.18" transform="translate(-162.36 286.38)rotate(-45)"/><path class="cls-6" d="M270.19 336.15000000000003a0.59 0 0 1-0.39-0.16l-7.9-7.91a0.52 0 0 1 0-0.76l15.81-15.81a0.52 0 0 1 0.76 0l7.91 7.9a0.55 0 0 1 0 0.77l-15.81 15.81A0.59 0 0 1 278.28 347.48ZM271.14 339l7.14 7.14 15-15.05L286.18 324Z" transform="translate(-8.09 -11.33)"/><path class="cls-6" d="M275.91 326.85a5.51 5.51 0 0 1-3.3-1.8h0a7 7 0 0 1-1.56-2.23c-0.49-1.18-0.14-1.79-2 0.93-0.93 2.85 0 4.27 1.43a7 7 0 0 1 1.56 2.23c0.49 1.18 1.79-0.12 2A1.31 1.31 0 0 1 284 338.18Zm-3.77-5.36a0.3 0 0 0-0.2c-0.07-0.1a6.25 6.25 0 0 0 1.33 1.87h0a6.08 6.08 0 0 0 1.87 1.32c0.5s0.09-0.36-0.11-0.87a6.25 6.25 0 0 0-1.33-1.87A4.43 4.43 0 0 0 280.22 332.82Z" transform="translate(-8.09 -11.33)"/><circle class="cls-1" cx="289.81" cy="329.46" r="4.19"/><circle class="cls-1" cx="287.77" cy="333.91" r="4.19"/><circle class="cls-1" cx="288.24" cy="339.22" r="2.79"/><path class="cls-1" d="M289.23 413.57a15.28 15.28 0 0 0-9.57-3.36 13 13 0 0 0-13 13 11.07 11.07 0 0 0 11.07 11.07 9.41 9.41 0 0 0 9.41-9.41 8 8 0 0 0-8-8 6.8 6.8 0 0 0-6.8 6.8 5.78 5.78 0 0 0 5.78 5.78 5 5 0 0 0 5-4.91c0-2.31-1.85-4.58-4.16-4.58a4.13 4.13 0 0 0-3.9 3.85 3.31 3.31 0 0 0 3.14 3.22 2.76 2.76 0 0 0 2.69-2.67 2.12 2.12 0 0 0-2.18-2.18 1.61 1.61 0 0 0-1.3 2.17c0.49 1.13 1.85-0.42" transform="translate(-8.09 -11.33)"/><polyline class="cls-1" points="285.06 419.55 286.07 415.57 289.23 413.57"/><rect class="cls-1" x="266.36" y="521.58" width="15.62" height="11.71"/><polygon class="cls-1" points="292.44 533.29 284.63 529.38 284.63 525.48 292.44 521.58 292.44 533.29"/><path class="cls-1" d="M274.16 509.82a5.86 5.86 0 1 1 0 6.51l0 0a5.86 5.86 0 1 1 0-6.52" transform="translate(-8.09 -11.33)"/><line class="cls-1" x1="363.67" y1="121.48" x2="353.86" y2="108.7"/><line class="cls-1" x1="363.67" y1="121.48" x2="360.18" y2="105.75"/><line class="cls-1" x1="363.67" y1="121.48" x2="367.15" y2="105.75"/><line class="cls-1" x1="363.67" y1="121.48" x2="373.47" y2="108.7"/><polyline class="cls-1" points="377.95 114.04 363.67 121.48 349.38 114.04"/><polyline class="cls-1" points="377.95 131.85 363.67 139.29 349.38 131.85"/><line class="cls-1" x1="349.38" y1="114.04" x2="349.38" y2="131.85"/><line class="cls-1" x1="377.95" y1="114.04" x2="377.95" y2="131.85"/><line class="cls-1" x1="363.67" y1="124.34" x2="363.67" y2="136.42"/><line class="cls-1" x1="353.86" y1="108.7" x2="353.86" y2="116.37"/><line class="cls-1" x1="373.47" y1="108.7" x2="373.47" y2="116.37"/><line class="cls-1" x1="367.15" y1="105.75" x2="367.15" y2="116.93"/><line class="cls-1" x1="360.18" y1="105.75" x2="360.18" y2="116.93"/><polygon class="cls-1" points="368.81 264.4 377.96 267.83 377.96 287.26 368.81 283.83 368.81 264.4"/><polygon class="cls-1" points="349.38 262.11 358.52 265.54 358.52 284.98 349.38 281.55 349.38 262.11"/><polygon class="cls-1" points="368.81 264.4 358.52 265.54 358.52 284.98 368.81 283.83 368.81 264.4"/><circle class="cls-3" cx="376.18" cy="335.45" r="2.79"/><circle class="cls-3" cx="366.4" cy="335.46" r="4.19"/><rect class="cls-3" x="357.76" y="335.96" width="22.36" height="11.18" transform="translate(863.25 310.86)rotate(135)"/><circle class="cls-3" cx="369.19" cy="331.43" r="4.19"/><rect class="cls-3" x="357.76" y="332.01" width="22.36" height="11.18" transform="translate(846.72 444.7)rotate(151.24)"/><circle class="cls-3" cx="372.75" cy="327.24" r="2.79"/><rect class="cls-3" x="357.76" y="328.06" width="22.36" height="11.18" transform="translate(855.01 379.31)rotate(144.45)"/><polygon class="cls-1" points="349.49 424.84 349.49 419.69 354.64 414.53 377.85 414.53 377.85 430 354.64 430 349.49 424.84"/><line class="cls-1" x1="358.51" y1="418.4" x2="371.4" y2="418.4"/><line class="cls-1" x1="358.51" y1="422.27" x2="363.67" y2="422.27"/><line class="cls-1" x1="358.51" y1="426.13" x2="367.54" y2="426.13"/><circle class="cls-2" cx="353.36" cy="422.27" r="1.29"/><polyline class="cls-1" points="436.83 57.32 436.83 82.47 461.98 82.47"/><polyline class="cls-1" points="459.62 57.32 454.91 62.03 453.33 68.32 447.05 66.75 443.9 76.18 439.19 77.75"/><line class="cls-1" x1="465.88" y1="112.11" x2="449.41" y2="108.28"/><line class="cls-1" x1="460.77" y1="116.21" x2="449.41" y2="108.28"/><line class="cls-1" x1="449.41" y1="118.6" x2="449.41" y2="108.28"/><line class="cls-1" x1="438.05" y1="116.21" x2="449.41" y2="108.28"/><line class="cls-1" x1="432.93" y1="112.11" x2="449.41" y2="108.28"/><line class="cls-1" x1="449.41" y1="139.29" x2="449.41" y2="128.96"/><polyline class="cls-1" points="432.93 112.11 432.93 132.79 438.05 131.6"/><polyline class="cls-1" points="449.41 118.6 449.41 128.96 438.05 136.89 438.05 116.2"/><polyline class="cls-1" points="460.77 116.2 460.77 136.89 449.41 128.96"/><polyline class="cls-1" points="465.88 112.11 465.88 132.79 460.77 131.6"/><polyline class="cls-1" points="447.93 108.49 447.93 106.77 450.88 106.77 450.88 108.61"/><polyline class="cls-1" points="450.88 108.61 450.88 107.51 467.9 107.51 467.9 129.7 465.88 129.7"/><polyline class="cls-1" points="432.93 129.7 430.91 129.7 430.91 107.51 447.93 107.51 447.93 108.49"/><polygon class="cls-1" points="454.33 265.39 460.89 268.67 460.89 287.26 454.33 283.98 454.33 265.39"/><polygon class="cls-1" points="437.93 262.11 444.49 265.39 444.49 283.98 437.93 280.7 437.93 262.11"/><rect class="cls-1" x="444.49" y="265.39" width="9.84" height="18.59"/><circle class="cls-1" cx="463.43" cy="336.02" r="2.79"/><rect class="cls-6" x="445.93" y="332.54" width="22.36" height="11.18" transform="matrix(0.93 -0.36 0.36 0.93 -98.9 174.95)"/><path class="cls-6" d="M440.59000000000003 336.56a0.54 0 0 1-0.51-0.34l-4-10.44a0.55 0 0 1 0-0.42 0 0 1 0.31-0.28l20.87-8a0.55 0 0 1 0.7l4 10.43a0.61 0 0 1 0 0.42 0 0 1-0.31l-20.87 8A0.63 0 0 1 448.68 347.89Zm-3.31-10.66 3.62 9.42L468.85 339l-3.62-9.43Z" transform="translate(-8.09 -11.33)"/><rect class="cls-6" x="442.44" y="332.11" width="22.36" height="11.18" transform="translate(-118.83 290.21)rotate(-33)"/><path class="cls-6" d="M439.20000000000005 337.67a0.54 0 0 1-0.46-0.25l-6.09-9.37a0.56 0 0 1 0.16-0.76l18.75-12.17a0.54 0 0 1 0.41-0.08 0 0 1 0.34l6.09 9.37a0.54 0 0 1-0.16l-18.75 12.18A0.52 0 0 1 447.29 349ZM442 339.26l5.5 8.46 17.84-11.58-5.5-8.47Z" transform="translate(-8.09 -11.33)"/><rect class="cls-6" x="438.93" y="332.42" width="22.36" height="11.18" transform="translate(-115.26 405.95)rotate(-45)"/><path class="cls-6" d="M438.07000000000005 339.08000000000004a0.55 0 0 1-0.38-0.16l-7.91-7.91a0.55 0 0 1 0-0.77l15.81-15.8a0.53 0 0 1 0.77 0l7.9 7.9a0.53 0 0 1 0 0.77l-15.81 15.81A0.55 0 0 1 446.16 350.41ZM439 342l7.14 7.14 15-15.05-7.13-7.13Z" transform="translate(-8.09 -11.33)"/><path class="cls-6" d="M443.79 329.78000000000003a5.51 5.51 0 0 1-3.31-1.8h0a7.15 7.15 0 0 1-1.56-2.23c-0.49-1.18-0.13-1.79-2 0.92-0.93 2.85 0 4.27 1.43A7.15 7.15 0 0 1 453 338.7c0.49 1.18 1.79-0.13 2A1.27 1.27 0 0 1 451.88 341.11Zm-3.78-5.36a0.34 0 0 0-0.2c-0.06-0.09a6.2 6.2 0 0 0 1.32 1.87h0a6.2 6.2 0 0 0 1.87 1.32c0.51s0.09-0.36-0.12-0.87a6.2 6.2 0 0 0-1.32-1.87A4.45 4.45 0 0 0 448.1 335.75Z" transform="translate(-8.09 -11.33)"/><circle class="cls-1" cx="456.51" cy="329.1" r="4.19"/><circle class="cls-1" cx="461.22" cy="330.4" r="4.19"/><circle class="cls-1" cx="466.39" cy="329.1" r="2.79"/><polygon class="cls-1" points="435.23 424.31 435.23 419.16 441.67 414 463.58 414 463.58 429.47 441.67 429.47 435.23 424.31"/><line class="cls-1" x1="444.25" y1="419.16" x2="457.14" y2="419.16"/><line class="cls-1" x1="444.25" y1="421.74" x2="449.41" y2="421.74"/><line class="cls-1" x1="444.17" y1="424.29" x2="453.19" y2="424.29"/><circle class="cls-2" cx="439.09" cy="421.74" r="1.29"/><rect class="cls-3" x="6.89" y="562.47" width="21.27" height="28.72"/><rect class="cls-3" x="10.08" y="560.34" width="21.27" height="28.72"/><rect class="cls-3" x="13.27" y="557.15" width="21.27" height="28.72"/><rect class="cls-3" x="101.41" y="570.52" width="21.27" height="28.72" transform="translate(95.18 -21.9)rotate(10)"/><rect class="cls-3" x="95.98" y="557.57" width="21.27" height="28.72"/><rect class="cls-3" x="106.4" y="566.83" width="21.27" height="28.72" transform="translate(-107.23 17.83)rotate(-10)"/><rect class="cls-3" x="186.51" y="575.58" width="21.27" height="28.72" transform="translate(-193.17 87.9)rotate(-19.44)"/><rect class="cls-3" x="184.08" y="561.47" width="21.27" height="28.72"/><rect class="cls-3" x="193.35" y="567.61" width="21.27" height="28.72" transform="translate(163.27 -45.18)rotate(16.28)"/><path class="cls-1" d="M280.01000000000005 565.77c0 1.85 3.35 1.24 3.35s1.25-1.5 1.25-3.35"/><path class="cls-1" d="M273.35 565.77c0 1.85 3.35 1.25 3.35s1.25-1.5 1.25-3.35"/><path class="cls-1" d="M275.85 565.77c0 1.85 3.35 2.08 3.35s2.08-1.5 2.08-3.35"/><polyline class="cls-7" points="276.73 579.66 279.13 579.66 282.34 567.45 279.13 579.64 277.93 584.23 273.53 567.45"/><line class="cls-7" x1="282.5" y1="565.77" x2="282.5" y2="557.42"/><line class="cls-7" x1="280.01" y1="565.77" x2="280.01" y2="556.92"/><line class="cls-7" x1="275.85" y1="565.77" x2="275.85" y2="556.92"/><line class="cls-7" x1="273.36" y1="565.77" x2="273.36" y2="557.42"/><circle class="cls-1" cx="277.93" cy="573.56" r="16.77"/><path class="cls-1" d="M370.64000000000004 568.29c-1.31 1.31-2 2.77-1.49 3.25s1.94-0.18 3.25-1.49"/><path class="cls-1" d="M365.91 563.5899999999999c-1.31 1.31-2 2.76-1.49 3.25s2-0.18 3.26-1.49"/><path class="cls-1" d="M367.70000000000005 565.3499999999999c-1.31 1.31-1.72 3-0.91 3.84s2.54 3.85-0.9"/><polyline class="cls-7" points="358.5 575.79 360.2 577.49 371.1 571.13 360.21 577.48 356.12 579.87 364.87 564.89"/><line class="cls-7" x1="372.4" y1="570.06" x2="378.31" y2="564.15"/><line class="cls-7" x1="370.64" y1="568.29" x2="376.9" y2="562.03"/><line class="cls-7" x1="367.7" y1="565.35" x2="373.96" y2="559.09"/><line class="cls-7" x1="365.94" y1="563.59" x2="371.84" y2="557.68"/><circle class="cls-1" cx="363.67" cy="572.33" r="16.77"/><path class="cls-1" d="M445.37 565.9599999999999c1.31 1.31 2.77 2 3.25 1.5s-0.18-1.95-1.49-3.26"/><path class="cls-1" d="M440.67 570.67c1.31 1.31 2.76 2 3.25 1.49s-0.18-2-1.49-3.26"/><path class="cls-1" d="M442.43 568.9c1.31 1.31 3 1.72 3.84s0.41-2.54-0.9-3.85"/><polyline class="cls-7" points="452.88 578.11 454.57 576.41 448.2 565.51 454.56 576.4 456.95 580.49 441.97 571.74"/><line class="cls-7" x1="447.14" y1="564.21" x2="441.23" y2="558.3"/><line class="cls-7" x1="445.37" y1="565.97" x2="439.11" y2="559.71"/><line class="cls-7" x1="442.43" y1="568.91" x2="436.17" y2="562.65"/><line class="cls-7" x1="440.67" y1="570.67" x2="434.76" y2="564.77"/><circle class="cls-1" cx="449.41" cy="572.94" r="16.77"/><polyline class="cls-1" points="263.71 60.93 263.71 78.86 281.64 78.86"/><polyline class="cls-1" points="279.96 60.93 273.24 67.65 268.75 67.65 265.39 75.5"/><rect class="cls-1" x="260.1" y="57.32" width="25.15" height="25.15"/><polyline class="cls-1" points="349.64 60.93 349.64 78.86 367.57 78.86"/><polyline class="cls-1" points="365.89 60.93 362.53 64.29 361.41 68.77 356.93 67.65 354.68 74.38 351.32 75.5"/><rect class="cls-1" x="346.03" y="57.32" width="25.15" height="25.15"/><polyline class="cls-1" points="520.56 60.93 520.56 78.86 538.49 78.86"/><polyline class="cls-1" points="536.81 60.93 533.45 64.29 532.33 68.77 527.84 67.65 525.6 74.38 522.24 75.5"/><rect class="cls-1" x="516.95" y="57.32" width="25.15" height="25.15"/><polyline class="cls-1" points="606.02 60.93 606.02 78.86 623.95 78.86"/><line class="cls-1" x1="622.27" y1="60.93" x2="607.7" y2="75.5"/><rect class="cls-1" x="602.41" y="57.32" width="25.15" height="25.15"/></svg>