<svg id="Layer_1" data-name="Layer 1" xmlns="http://www.w3.org/2000/svg" viewBox="0 0 648 216"><defs><style>.cls-1{fill:#fff;}</style></defs><title>wayfinding-5</title><polygon class="cls-1" points="0 0 9 0 117 108 9 216 0 216 0 180 72 108 0 36 0 0"/><polygon class="cls-1" points="0 99 0 63 45 108 0 153 0 117 0 108 0 99"/><polygon class="cls-1" points="36 0 81 0 189 108 81 216 36 216 144 108 36 0"/><polygon class="cls-1" points="108 0 153 0 261 108 153 216 108 216 216 108 108 0"/><polygon class="cls-1" points="180 0 225 0 333 108 225 216 180 216 288 108 180 0"/><polygon class="cls-1" points="252 0 297 0 405 108 297 216 252 216 360 108 252 0"/><polygon class="cls-1" points="324 0 369 0 477 108 369 216 324 216 432 108 324 0"/><polygon class="cls-1" points="396 0 441 0 549 108 441 216 396 216 504 108 396 0"/><polygon class="cls-1" points="468 0 513 0 621 108 513 216 468 216 576 108 468 0"/><polygon class="cls-1" points="540 0 585 0 648 63 648 108 648 153 585 216 540 216 648 108 540 0"/><polygon class="cls-1" points="648 216 612 216 648 180 648 216"/><polygon class="cls-1" points="648 36 612 0 648 0 648 36"/></svg>