<svg id="Layer_1" data-name="Layer 1" xmlns="http://www.w3.org/2000/svg" viewBox="0 0 648 216"><defs><style>.cls-1{fill:#fff;}</style></defs><title>wayfinding-3</title><polygon class="cls-1" points="0 0 9 0 117 108 9 216 0 216 0 198 90 108 0 18 0 0"/><polygon class="cls-1" points="0 90 0 63 45 108 0 153 0 126 18 108 0 90"/><polygon class="cls-1" points="54 0 81 0 189 108 81 216 54 216 162 108 54 0"/><polygon class="cls-1" points="126 0 153 0 261 108 153 216 126 216 234 108 126 0"/><polygon class="cls-1" points="198 0 225 0 333 108 225 216 198 216 306 108 198 0"/><polygon class="cls-1" points="270 0 297 0 405 108 297 216 270 216 378 108 270 0"/><polygon class="cls-1" points="342 0 369 0 477 108 369 216 342 216 450 108 342 0"/><polygon class="cls-1" points="414 0 441 0 549 108 441 216 414 216 522 108 414 0"/><polygon class="cls-1" points="486 0 513 0 621 108 513 216 486 216 594 108 486 0"/><polygon class="cls-1" points="648 90 558 0 585 0 648 63 648 90"/><polygon class="cls-1" points="648 153 585 216 558 216 648 126 648 153"/><polygon class="cls-1" points="648 18 630 0 648 0 648 9 648 18"/><polygon class="cls-1" points="648 207 648 216 630 216 648 198 648 207"/></svg>