<svg id="Layer_1" data-name="Layer 1" xmlns="http://www.w3.org/2000/svg" viewBox="0 0 648 216"><defs><style>.cls-1{fill:#fff;}</style></defs><title>wayfinding-7</title><polygon class="cls-1" points="0 63 45 108 0 153 0 63"/><polygon class="cls-1" points="0 0 9 0 117 108 9 216 0 216 0 162 54 108 0 54 0 0"/><polygon class="cls-1" points="18 0 81 0 189 108 81 216 18 216 126 108 18 0"/><polygon class="cls-1" points="90 0 153 0 261 108 153 216 90 216 198 108 90 0"/><polygon class="cls-1" points="162 0 225 0 333 108 225 216 162 216 270 108 162 0"/><polygon class="cls-1" points="243.41 0 306.41 0 414.41 108 306.41 216 243.41 216 351.41 108 243.41 0"/><polygon class="cls-1" points="234 0 297 0 405 108 297 216 234 216 342 108 234 0"/><polygon class="cls-1" points="315 0 378 0 486 108 378 216 315 216 423 108 315 0"/><polygon class="cls-1" points="387 0 450 0 558 108 450 216 387 216 495 108 387 0"/><polygon class="cls-1" points="459 0 522 0 630 108 522 216 459 216 567 108 459 0"/><polygon class="cls-1" points="531 0 594 0 648 54 648 54 648 162 594 216 531 216 639 108 531 0"/><polygon class="cls-1" points="648 216 603 216 648 171 648 216"/><polygon class="cls-1" points="648 45 603 0 648 0 648 45"/></svg>