<svg id="Layer_1" data-name="Layer 1" xmlns="http://www.w3.org/2000/svg" viewBox="0 0 648 216"><defs><style>.cls-1{fill:#fff;}</style></defs><title>wayfinding-2</title><polygon class="cls-1" points="0 0 9 0 117 108 9 216 0 216 0 207 99 108 0 9 0 0"/><polygon class="cls-1" points="0 81 0 63 45 108 0 153 0 135 27 108 0 81"/><polygon class="cls-1" points="63 0 81 0 189 108 81 216 63 216 171 108 63 0"/><polygon class="cls-1" points="135 0 153 0 261 108 153 216 135 216 243 108 135 0"/><polygon class="cls-1" points="207 0 225 0 333 108 225 216 207 216 315 108 207 0"/><polygon class="cls-1" points="279 0 297 0 405 108 297 216 279 216 387 108 279 0"/><polygon class="cls-1" points="351 0 369 0 477 108 369 216 351 216 459 108 351 0"/><polygon class="cls-1" points="423 0 441 0 549 108 441 216 423 216 531 108 423 0"/><polygon class="cls-1" points="495 0 513 0 621 108 513 216 495 216 603 108 495 0"/><polygon class="cls-1" points="648 81 567 0 585 0 648 63 648 81"/><polygon class="cls-1" points="648 153 585 216 567 216 648 135 648 153"/><polygon class="cls-1" points="648 9 639 0 648 0 648 0 648 9"/><polygon class="cls-1" points="648 216 648 216 639 216 648 207 648 216"/></svg>