<svg id="Layer_1" data-name="Layer 1" xmlns="http://www.w3.org/2000/svg" viewBox="0 0 648 216"><defs><style>.cls-1{fill:#fff;}</style></defs><title>wayfinding-6</title><polygon class="cls-1" points="27 0 81 0 189 108 81 216 27 216 135 108 27 0"/><polygon class="cls-1" points="99 0 153 0 261 108 153 216 99 216 207 108 99 0"/><polygon class="cls-1" points="171 0 225 0 333 108 225 216 171 216 279 108 171 0"/><polygon class="cls-1" points="243 0 297 0 405 108 297 216 243 216 351 108 243 0"/><polygon class="cls-1" points="315 0 369 0 477 108 369 216 315 216 423 108 315 0"/><polygon class="cls-1" points="387 0 441 0 549 108 441 216 387 216 495 108 387 0"/><polygon class="cls-1" points="459 0 513 0 621 108 513 216 459 216 567 108 459 0"/><polygon class="cls-1" points="531 0 585 0 648 63 648 63 648 153 585 216 531 216 639 108 531 0"/><polyline class="cls-1" points="648 216 603 216 648 171"/><polygon class="cls-1" points="648 45 603 0 648 0 648 45"/><polygon class="cls-1" points="0 0 9 0 117 108 9 216 0 216 0 171 63 108 0 45 0 0"/><polygon class="cls-1" points="0 63 45 108 0 153 0 63"/></svg>