<svg id="Layer_1" data-name="Layer 1" xmlns="http://www.w3.org/2000/svg" viewBox="0 0 648 216"><defs><style>.cls-1{fill:#fff;}</style></defs><title>wayfinding-1</title><polygon class="cls-1" points="0 0 9 0 117 108 9 216 0 216 108 108 0 0"/><polygon class="cls-1" points="0 72 0 63 45 108 0 153 0 144 36 108 0 72"/><polygon class="cls-1" points="72 0 81 0 189 108 81 216 72 216 180 108 72 0"/><polygon class="cls-1" points="144 0 153 0 261 108 153 216 144 216 252 108 144 0"/><polygon class="cls-1" points="216 0 225 0 333 108 225 216 216 216 324 108 216 0"/><polygon class="cls-1" points="288 0 297 0 405 108 297 216 288 216 396 108 288 0"/><polygon class="cls-1" points="360 0 369 0 477 108 369 216 360 216 468 108 360 0"/><polygon class="cls-1" points="432 0 441 0 549 108 441 216 432 216 540 108 432 0"/><polygon class="cls-1" points="504 0 513 0 621 108 513 216 504 216 612 108 504 0"/><polygon class="cls-1" points="648 72 576 0 585 0 648 63 648 72"/><polygon class="cls-1" points="648 153 585 216 576 216 648 144 648 153"/></svg>