<svg id="Layer_1" data-name="Layer 1" xmlns="http://www.w3.org/2000/svg" viewBox="0 0 648 216"><defs><style>.cls-1{fill:#fff;}</style></defs><title>wayfinding-4</title><polygon class="cls-1" points="0 0 9 0 117 108 9 216 0 216 0 189 81 108 0 27 0 0"/><polygon class="cls-1" points="0 99 0 63 45 108 0 153 0 117 9 108 0 99"/><polygon class="cls-1" points="45 0 81 0 189 108 81 216 45 216 153 108 45 0"/><polygon class="cls-1" points="117 0 153 0 261 108 153 216 117 216 225 108 117 0"/><polygon class="cls-1" points="189 0 225 0 333 108 225 216 189 216 297 108 189 0"/><polygon class="cls-1" points="261 0 297 0 405 108 297 216 261 216 369 108 261 0"/><polygon class="cls-1" points="333 0 369 0 477 108 369 216 333 216 441 108 333 0"/><polygon class="cls-1" points="405 0 441 0 549 108 441 216 405 216 513 108 405 0"/><polygon class="cls-1" points="477 0 513 0 621 108 513 216 477 216 585 108 477 0"/><polygon class="cls-1" points="648 99 549 0 585 0 648 63 648 99"/><polygon class="cls-1" points="648 153 585 216 549 216 648 117 648 153"/><polygon class="cls-1" points="648 27 621 0 648 0 648 9 648 27"/><polygon class="cls-1" points="648 207 648 216 621 216 648 189 648 207"/></svg>