<svg id="Layer_1" data-name="Layer 1" xmlns="http://www.w3.org/2000/svg" xmlns:xlink="http://www.w3.org/1999/xlink" viewBox="0 0 500.24 368"><defs><style>.cls-1,.cls-10,.cls-11,.cls-12,.cls-13,.cls-14,.cls-2,.cls-3,.cls-5,.cls-6,.cls-7,.cls-8,.cls-9{fill:none;}.cls-10,.cls-11,.cls-12,.cls-13,.cls-14,.cls-2,.cls-3,.cls-5,.cls-6,.cls-7,.cls-8,.cls-9{stroke:#fff;}.cls-10,.cls-11,.cls-12,.cls-13,.cls-2,.cls-3,.cls-5,.cls-6,.cls-7,.cls-8,.cls-9{stroke-linecap:round;stroke-linejoin:round;stroke-width:2px;}.cls-2{stroke-dasharray:0 5.92;}.cls-15,.cls-21,.cls-4{fill:#fff;}.cls-5{stroke-dasharray:0 6;}.cls-6{stroke-dasharray:0 5.96;}.cls-7{stroke-dasharray:0 5.8;}.cls-8{stroke-dasharray:0 5.83;}.cls-9{stroke-dasharray:0 6.05;}.cls-10{stroke-dasharray:0 6.1;}.cls-11{stroke-dasharray:0 5.92;}.cls-12{stroke-dasharray:0 5.86;}.cls-13{stroke-dasharray:0 6.08;}.cls-14{stroke-width:3px;}.cls-15,.cls-21{font-size:10px;font-family:Plain-Regular, Plain;}.cls-16{letter-spacing:0.01em;}.cls-17{letter-spacing:0.03em;}.cls-18{letter-spacing:0.03em;}.cls-19{clip-path:url(#clip-path);}.cls-20{letter-spacing:0.03em;}.cls-21{letter-spacing:0.01em;}.cls-22{letter-spacing:0.03em;}.cls-23{letter-spacing:0em;}</style><clipPath id="clip-path" transform="translate(-37.47 -103.55)"><rect class="cls-1" x="37.47" y="103.55" width="500.34" height="368"/></clipPath></defs><title>web-of-issues</title><line class="cls-2" x1="57.58" y1="102.37" x2="136.18" y2="271.48"/><path class="cls-3" d="M174.89,377.71h0M92.55,200.54h0" transform="translate(-37.47 -103.55)"/><polygon class="cls-4" points="52.17 90.72 53.15 102.09 60.23 98.8 52.17 90.72"/><polygon class="cls-4" points="140.34 280.44 139.36 269.07 132.28 272.36 140.34 280.44"/><line class="cls-5" x1="97.4" y1="54" x2="394.58" y2="54"/><path class="cls-3" d="M435.05,157.55h0m-306.19,0h0" transform="translate(-37.47 -103.55)"/><polygon class="cls-4" points="84.47 54 95.19 57.9 95.19 50.1 84.47 54"/><polygon class="cls-4" points="404.51 54 393.79 50.1 393.79 57.9 404.51 54"/><line class="cls-6" x1="377.35" y1="226.09" x2="113.21" y2="94.42"/><path class="cls-3" d="M148,196.63h0M420.15,332.3h0" transform="translate(-37.47 -103.55)"/><polygon class="cls-4" points="388.89 231.84 381.03 223.56 377.55 230.55 388.89 231.84"/><polygon class="cls-4" points="104.34 90 112.2 98.28 115.68 91.29 104.34 90"/><line class="cls-7" x1="116.69" y1="93.08" x2="192.68" y2="112.03"/><path class="cls-3" d="M233,216.28h0m-84.43-21.06h0" transform="translate(-37.47 -103.55)"/><polygon class="cls-4" points="104.34 90 113.8 96.38 115.69 88.81 104.34 90"/><polygon class="cls-4" points="202.22 114.41 192.76 108.03 190.87 115.6 202.22 114.41"/><line class="cls-8" x1="206.8" y1="192.24" x2="171.46" y2="269.06"/><path class="cls-3" d="M207.7,375.25h0m39-84.77h0" transform="translate(-37.47 -103.55)"/><polygon class="cls-4" points="212.13 180.65 204.1 188.76 211.19 192.02 212.13 180.65"/><polygon class="cls-4" points="167.34 278 175.37 269.89 168.28 266.63 167.34 278"/><line class="cls-9" x1="204.32" y1="285.46" x2="420.69" y2="105.37"/><path class="cls-3" d="M460.49,207h0M237.13,392.88h0" transform="translate(-37.47 -103.55)"/><polygon class="cls-4" points="194.34 293.76 205.08 289.9 200.09 283.9 194.34 293.76"/><polygon class="cls-4" points="428.34 99 417.61 102.86 422.6 108.86 428.34 99"/><line class="cls-10" x1="439.7" y1="184.33" x2="453.47" y2="109.38"/><path class="cls-3" d="M491.48,209.93h0m-15.42,83.94h0" transform="translate(-37.47 -103.55)"/><polygon class="cls-4" points="437.34 197.14 443.12 187.3 435.44 185.89 437.34 197.14"/><polygon class="cls-4" points="455.27 99.58 449.5 109.42 457.17 110.83 455.27 99.58"/><line class="cls-11" x1="390.65" y1="280.34" x2="213.06" y2="313.2"/><path class="cls-3" d="M247.62,417.29h0m186.32-34.48h0" transform="translate(-37.47 -103.55)"/><polygon class="cls-4" points="403.29 278 392.03 276.11 393.45 283.79 403.29 278"/><polygon class="cls-4" points="203.34 315 214.59 316.89 213.18 309.21 203.34 315"/><line class="cls-12" x1="302.89" y1="143.5" x2="388.22" y2="219.53"/><path class="cls-3" d="M427.88,325h0M336,243.15h0" transform="translate(-37.47 -103.55)"/><polygon class="cls-4" points="293.34 135 298.75 145.04 303.94 139.22 293.34 135"/><polygon class="cls-4" points="395.58 226.08 390.17 216.03 384.98 221.86 395.58 226.08"/><line class="cls-13" x1="306.77" y1="96.24" x2="404.78" y2="74.91"/><path class="cls-3" d="M445.22,177.81h0M338.29,201.07h0" transform="translate(-37.47 -103.55)"/><polygon class="cls-4" points="294.06 99 305.37 100.53 303.71 92.91 294.06 99"/><polygon class="cls-4" points="414.52 72.79 403.21 71.26 404.87 78.88 414.52 72.79"/><rect class="cls-14" x="204.44" y="91.1" width="87.4" height="87.4"/><text class="cls-15" transform="translate(227.19 138.61)"><tspan class="cls-16">A</tspan><tspan class="cls-17" x="7.1" y="0">C</tspan><tspan class="cls-18" x="14.96" y="0">C</tspan><tspan class="cls-17" x="22.81" y="0">E</tspan><tspan class="cls-18" x="28.98" y="0">S</tspan><tspan x="35.38" y="0">S</tspan></text><g class="cls-19"><circle class="cls-14" cx="158.34" cy="323" r="43.5"/></g><text class="cls-15" transform="translate(130.31 327.01)"><tspan class="cls-17">OU</tspan><tspan class="cls-20" x="15.54" y="0">T</tspan><tspan class="cls-17" x="21.28" y="0">RE</tspan><tspan class="cls-16" x="33.94" y="0">A</tspan><tspan class="cls-17" x="41.04" y="0">C</tspan><tspan x="48.9" y="0">H</tspan></text><g class="cls-19"><polygon class="cls-14" points="52.17 2.99 2.6 88.5 101.74 88.5 52.17 2.99"/></g><text class="cls-15" transform="translate(11.82 85.01)"><tspan class="cls-17">PRO</tspan><tspan class="cls-18" x="21.17" y="0">G</tspan><tspan class="cls-17" x="29.3" y="0">RAMMIN</tspan><tspan x="72.32" y="0">G</tspan></text><g class="cls-19"><polygon class="cls-14" points="475.66 10.5 429.88 10.5 407 54 429.88 97.5 475.66 97.5 498.55 54 475.66 10.5"/></g><text class="cls-21" transform="translate(415.44 58.01)">A<tspan class="cls-22" x="7.1" y="0">C</tspan><tspan class="cls-17" x="14.95" y="0">CE</tspan><tspan class="cls-18" x="28.98" y="0">S</tspan><tspan class="cls-17" x="35.38" y="0">SIBILIT</tspan><tspan class="cls-23" x="69.15" y="0">Y</tspan></text><polygon class="cls-14" points="437.34 199.85 391.66 232.95 409.11 286.5 465.57 286.5 483.02 232.95 437.34 199.85"/><text class="cls-15" transform="translate(398.74 247.01)">PROGRAMMING</text></svg>