<svg id="Layer_1" data-name="Layer 1" xmlns="http://www.w3.org/2000/svg" viewBox="0 0 792 2448"><defs><style>.cls-1{fill:none;stroke-width:0.25px;}.cls-1,.cls-2{stroke:#fff;}.cls-2,.cls-3{fill:#fff;}.cls-2{stroke-miterlimit:10;}</style></defs><title>yuag_programming-events</title><rect class="cls-1" x="129.71" y="1436.38" width="288" height="432" transform="translate(-114.55 23.11) rotate(-4)"/><path class="cls-1" d="M129.75,1464.74l-4.22-6.24,2.84-.2,2.62,4.22,2-4.54,2.51-.17-3.11,6.74.35,4.92-2.61.18Z"/><path class="cls-1" d="M140.07,1457.48l3.37-.23,4.5,11.16-2.7.19-1-2.49-4.13.29-.61,2.59-2.43.17Zm.51,7,3-.22-1.84-4.82Z"/><path class="cls-1" d="M150.3,1456.77l2.58-.18.66,9.39,4.65-.33.14,2-7.23.51Z"/><path class="cls-1" d="M160.83,1456l7.44-.52.14,2-4.87.34.19,2.66,3.9-.27.13,1.88-3.9.28.2,2.84,5.13-.36.14,2-7.7.54Z"/><path class="cls-1" d="M128.28,1484.55l-.49-7,2.6-.18.48,6.8c.13,1.9.75,2.69,2.31,2.58s2.16-.89,2-3l-.47-6.7,2.6-.19.48,6.87c.22,3.11-1.41,4.85-4.49,5.06S128.49,1487.59,128.28,1484.55Z"/><path class="cls-1" d="M141.28,1476.65l3-.21,4.87,7.21-.53-7.52,2.3-.16.8,11.42-2.59.18-5.32-7.79.57,8.12-2.3.16Z"/><path class="cls-1" d="M155,1475.69l2.6-.19.8,11.42-2.61.18Z"/><path class="cls-1" d="M160.83,1475.28l2.73-.19,3.33,8.58,2.1-9,2.43-.17-3,11.68-3,.21Z"/><path class="cls-1" d="M174.54,1474.32l7.44-.52.14,2-4.87.34.19,2.67,3.89-.27.14,1.88-3.9.28.2,2.84,5.12-.36.15,2-7.7.54Z"/><path class="cls-1" d="M185.63,1473.55l4.09-.29c2.7-.19,4.49.79,4.65,3.16v.06a3,3,0,0,1-2.13,3.2l3.36,4.64-2.75.2-3-4.22-1.12.08.31,4.4-2.57.18Zm4.39,5c1.3-.09,1.91-.68,1.84-1.78v-.07c-.08-1.16-.81-1.51-2-1.42l-1.46.1.23,3.27Z"/><path class="cls-1" d="M197.62,1480.59l2.48-.18c.18,1,.67,1.83,2.37,1.72,1.13-.08,1.84-.76,1.77-1.65s-.56-1.2-2.26-1.34c-2.94-.18-4.2-1-4.36-3.17-.13-2,1.39-3.52,3.92-3.69s4.15.86,4.51,3.11l-2.37.17a1.66,1.66,0,0,0-2-1.38c-1.13.07-1.67.64-1.62,1.41s.45,1.17,2.23,1.3c2.78.16,4.26.81,4.42,3.17.14,2-1.4,3.76-4.1,4C199.47,1484.23,197.93,1482.86,197.62,1480.59Z"/><path class="cls-1" d="M209.67,1471.87l2.6-.19.8,11.42-2.6.18Z"/><path class="cls-1" d="M218.77,1473.25l-3.09.22-.14-2,8.77-.62.14,2-3.08.21.66,9.41-2.61.18Z"/><path class="cls-1" d="M230.88,1476.92l-4.23-6.24,2.84-.2,2.63,4.21,2-4.53,2.5-.17-3.1,6.74.34,4.92-2.6.18Z"/><path class="cls-1" d="M132.08,1496.54l3.37-.24,4.51,11.16-2.7.19-1-2.49-4.14.29-.6,2.6-2.43.17Zm.51,7,3-.21-1.85-4.83Z"/><path class="cls-1" d="M142.31,1495.82l4.09-.28c2.7-.19,4.49.79,4.65,3.15v.07a3,3,0,0,1-2.14,3.19l3.36,4.65-2.75.19-3-4.22-1.12.08.31,4.41-2.57.18Zm4.39,5c1.3-.09,1.91-.67,1.84-1.78V1499c-.08-1.17-.81-1.52-2.05-1.43l-1.46.1.23,3.28Z"/><path class="cls-1" d="M156.77,1496.83l-3.08.22-.14-2,8.77-.62.14,2-3.08.21.65,9.41-2.6.18Z"/><path class="cls-1" d="M130.38,1521.71v-.13a5.6,5.6,0,0,1,5.4-6.23c2.54-.18,4.89.83,5.36,3.64l-2.57.18a2.21,2.21,0,0,0-2.61-1.78c-2,.14-3,1.71-2.88,4v.12c.15,2.21,1.2,3.72,3.44,3.57a2.42,2.42,0,0,0,2.58-2.61l-2.57.18-.13-1.88,5.12-.36.09,1.21c.21,3-1.6,5.22-5,5.46A5.43,5.43,0,0,1,130.38,1521.71Z"/><path class="cls-1" d="M146.83,1514.75l3.37-.23,4.5,11.16-2.7.18-1-2.48-4.13.29-.61,2.59-2.42.17Zm.51,7,3-.21-1.85-4.83Z"/><path class="cls-1" d="M157.06,1514l2.59-.18.65,9.39,4.65-.33.14,2-7.23.5Z"/><path class="cls-1" d="M167.59,1513.3l2.59-.18.66,9.39,4.64-.33.15,2-7.24.51Z"/><path class="cls-1" d="M178.13,1512.57l7.44-.53.14,2-4.87.34.19,2.66,3.89-.27.13,1.89-3.89.27.2,2.84,5.12-.36.14,2-7.69.54Z"/><path class="cls-1" d="M189.22,1511.79l4.09-.29c2.7-.18,4.48.8,4.65,3.16v.06a3,3,0,0,1-2.13,3.2l3.35,4.65-2.74.19-3-4.22-1.12.08.31,4.41-2.57.18Zm4.39,5c1.29-.09,1.91-.68,1.83-1.78v-.06c-.08-1.17-.81-1.52-2.06-1.43l-1.45.1.23,3.27Z"/><path class="cls-1" d="M204.26,1517.27,200,1511l2.84-.2,2.62,4.22,2-4.54,2.5-.17-3.1,6.75.34,4.92-2.6.18Z"/><path class="cls-1" d="M178.57,1617.91l11.74-.82,10.86,23.77,7.35-25L220,1615l2.74,39.22-8.83.62L212,1627.31l-8.93,28.3-2.91.2L187.34,1629l1.92,27.53-7.95.56Z"/><path class="cls-1" d="M230.65,1634.22l0-.44c-.82-11.68,7.16-20.56,18.79-21.38,11.8-.82,20.75,6.55,21.57,18.34l0,.44c.82,11.68-6.6,20.75-18.83,21.6S231.45,1645.69,230.65,1634.22Zm31.1-2.28,0-.44c-.54-7.63-5-12.55-11.82-12.07s-10.57,5.75-10,13.65l0,.44c.56,8,5.51,12.62,11.93,12.17C258.49,1645.23,262.3,1639.84,261.75,1631.94Z"/><path class="cls-1" d="M274,1611.24l9.38-.66,11.43,29.47,7.22-30.77,8.34-.59L300,1648.83l-10.21.71Z"/><path class="cls-1" d="M318.58,1608.12l8.95-.63,2.74,39.23-8.95.62Z"/><path class="cls-1" d="M338.94,1606.7l25.56-1.79.49,6.91L348.25,1613l.64,9.16,13.39-.93.45,6.47-13.38.94.68,9.76,17.61-1.23.48,6.91-26.44,1.85Z"/><path class="cls-1" d="M175.71,1684.27l10.31-.72,16.73,24.79-1.81-25.84,7.9-.55,2.74,39.23-8.89.62L184.4,1695l1.95,27.92-7.9.55Z"/><path class="cls-1" d="M220.26,1681.15l8.94-.62,2.74,39.22-8.94.63Z"/><path class="cls-1" d="M240,1699.73l0-.44c-.82-11.79,7-20.61,18.57-21.42,8.72-.61,16.79,2.85,18.4,12.5l-8.83.62c-1.09-4.56-4.25-6.43-9-6.1-6.8.47-10.45,5.85-9.89,13.86l0,.44c.53,7.57,4.15,12.78,11.83,12.24,6.58-.46,9-4.43,8.85-8.94l-8.83.62-.45-6.48,17.61-1.23.29,4.17c.73,10.48-5.48,17.91-17.22,18.73C248.5,1719.2,240.78,1711.36,240,1699.73Z"/><path class="cls-1" d="M286.15,1676.55l8.89-.62,1.12,16,15.74-1.11-1.12-16,8.89-.63,2.74,39.23-8.89.62-1.13-16.18-15.74,1.1,1.13,16.18-8.89.62Z"/><path class="cls-1" d="M339,1679.8l-10.59.74-.49-6.91,30.12-2.11.48,6.92-10.58.74,2.26,32.31-8.95.62Z"/><path class="cls-1" d="M368.21,1706a5,5,0,1,1,5.32,4.37A4.86,4.86,0,0,1,368.21,1706Zm-1.85-35,8.89-.62.68,27.07-6.47.46Z"/><rect class="cls-1" x="152.61" y="361.53" width="288" height="432" transform="translate(-88.44 54.79) rotate(-9.19)"/><path class="cls-1" d="M136.26,403.69l-4.77-5.83,2.81-.46,3,4,1.55-4.69,2.48-.4-2.49,7,.79,4.87-2.57.41Z"/><path class="cls-1" d="M145.88,395.53l3.33-.54,5.5,10.71-2.67.43-1.18-2.39-4.1.66L146.4,407l-2.41.39Zm1.14,7,3-.49-2.28-4.64Z"/><path class="cls-1" d="M156,393.89l2.56-.41,1.51,9.29,4.59-.74.33,2-7.16,1.16Z"/><path class="cls-1" d="M166.43,392.21l7.36-1.2.32,2-4.82.78.43,2.63,3.86-.62.3,1.86-3.86.63.46,2.81,5.07-.82.32,2-7.62,1.23Z"/><path class="cls-1" d="M136.59,423.55l-1.12-6.89,2.58-.41,1.09,6.73c.3,1.88,1,2.61,2.54,2.36s2.06-1.08,1.72-3.15l-1.07-6.64,2.58-.41,1.1,6.79c.49,3.08-1,5-4,5.45S137.07,426.56,136.59,423.55Z"/><path class="cls-1" d="M148.82,414.5l3-.48,5.5,6.75-1.2-7.44,2.27-.37,1.83,11.3-2.56.41-6-7.28,1.3,8-2.27.37Z"/><path class="cls-1" d="M162.43,412.3l2.58-.42,1.83,11.3-2.58.42Z"/><path class="cls-1" d="M168.17,411.37l2.7-.43,4.09,8.24,1.28-9.11,2.4-.39-1.93,11.91-2.94.47Z"/><path class="cls-1" d="M181.73,409.18,189.1,408l.32,2-4.82.78.43,2.64,3.85-.63.31,1.87-3.86.62.45,2.81,5.08-.82.32,2-7.62,1.24Z"/><path class="cls-1" d="M192.71,407.4l4-.65c2.67-.43,4.53.38,4.91,2.72v.06a3,3,0,0,1-1.83,3.38l3.76,4.32-2.72.44-3.41-3.92-1.1.18.7,4.36-2.54.41Zm4.82,4.56c1.28-.21,1.85-.85,1.67-1.94V410c-.19-1.15-.95-1.43-2.18-1.23l-1.44.23.53,3.24Z"/><path class="cls-1" d="M205.29,413.33l2.45-.4c.27,1,.84,1.76,2.51,1.49,1.12-.18,1.77-.91,1.62-1.8s-.67-1.14-2.37-1.12c-2.95.09-4.28-.59-4.63-2.77-.31-1.93,1.07-3.63,3.56-4s4.22.48,4.79,2.69l-2.36.38a1.65,1.65,0,0,0-2.12-1.19c-1.12.18-1.61.79-1.48,1.55s.55,1.13,2.33,1.1c2.79-.1,4.32.42,4.69,2.76.33,2-1.06,3.87-3.73,4.3C207.46,416.79,205.8,415.57,205.29,413.33Z"/><path class="cls-1" d="M216.5,403.55l2.57-.41,1.83,11.3-2.57.41Z"/><path class="cls-1" d="M225.68,404.11l-3.05.49-.32-2,8.68-1.4.32,2-3.05.49,1.5,9.31-2.57.42Z"/><path class="cls-1" d="M238.07,406.66l-4.77-5.83,2.82-.45,3,4,1.54-4.69,2.48-.41-2.48,7,.79,4.86-2.58.42Z"/><path class="cls-1" d="M141.46,435.14l3.34-.53,5.49,10.7-2.67.43-1.18-2.38-4.09.66-.37,2.63-2.4.39Zm1.15,7,3-.48L143.32,437Z"/><path class="cls-1" d="M151.59,433.51l4-.66c2.67-.43,4.54.39,4.92,2.73v.06a3,3,0,0,1-1.84,3.38l3.76,4.32-2.71.44-3.41-3.93-1.11.18.71,4.36-2.55.41Zm4.82,4.55c1.28-.21,1.84-.85,1.66-1.94v-.06c-.18-1.15-.94-1.44-2.18-1.24l-1.43.23.52,3.24Z"/><path class="cls-1" d="M166.08,433.21l-3.05.49-.32-2,8.67-1.41.32,2-3,.49,1.51,9.31-2.58.41Z"/><path class="cls-1" d="M142,460.37l0-.13a5.61,5.61,0,0,1,4.82-6.69c2.51-.41,4.94.38,5.66,3.13l-2.54.41a2.21,2.21,0,0,0-2.76-1.53c-2,.32-2.88,2-2.5,4.28l0,.13c.35,2.18,1.54,3.59,3.75,3.24a2.42,2.42,0,0,0,2.33-2.83l-2.54.41-.31-1.86,5.08-.82.19,1.2c.49,3-1.11,5.33-4.5,5.88A5.43,5.43,0,0,1,142,460.37Z"/><path class="cls-1" d="M157.8,452l3.33-.54,5.5,10.71-2.68.43-1.18-2.39-4.09.66-.37,2.64-2.4.39Zm1.14,7,3-.49-2.28-4.64Z"/><path class="cls-1" d="M167.92,450.31l2.56-.41,1.5,9.29,4.6-.74.33,2-7.16,1.16Z"/><path class="cls-1" d="M178.34,448.63l2.56-.42,1.51,9.29,4.6-.74.32,2-7.16,1.15Z"/><path class="cls-1" d="M188.77,446.94l7.36-1.19.32,2-4.82.78.43,2.64,3.86-.63.3,1.87-3.86.62.46,2.82,5.07-.83.32,2-7.61,1.23Z"/><path class="cls-1" d="M199.75,445.16l4-.65c2.67-.43,4.54.38,4.92,2.72v.07a3,3,0,0,1-1.84,3.37l3.76,4.32-2.71.44-3.41-3.92-1.11.18.71,4.36-2.55.41Zm4.82,4.56c1.28-.21,1.84-.85,1.66-1.94v-.06c-.18-1.16-.94-1.44-2.18-1.24l-1.43.23.52,3.24Z"/><path class="cls-1" d="M215.22,449.26l-4.77-5.83,2.82-.45,3,3.95,1.54-4.69,2.48-.4-2.48,7,.79,4.87-2.58.42Z"/><path class="cls-1" d="M205.17,549.9l9.09-1.47c6-1,10.21.86,11.06,6.12l0,.15c.62,3.83-1.29,6.22-4.13,7.59l8.46,9.72-6.11,1-7.66-8.83-2.49.4,1.59,9.81-5.72.93ZM216,560.14c2.88-.46,4.14-1.91,3.74-4.36l0-.14c-.42-2.59-2.12-3.23-4.9-2.78l-3.23.52,1.18,7.29Z"/><path class="cls-1" d="M230.82,545.75l16.56-2.68.73,4.48-10.84,1.75,1,5.94,8.67-1.41.68,4.2-8.67,1.4,1,6.32,11.41-1.84.72,4.47-17.13,2.78Z"/><path class="cls-1" d="M274,564.48a16.28,16.28,0,0,1-4.68,1.52c-8,1.29-13.93-3.36-15.13-10.83l0-.28c-1.22-7.57,3.45-13.83,11-15s13.92,3.07,15.15,10.68l.05.28a13.2,13.2,0,0,1-2.58,10.66l3,2.36L278,567.58Zm-4.09-3.21L267,559l2.84-3.66,3.67,2.87a10.25,10.25,0,0,0,.75-6.4l0-.28c-.8-4.94-4-7.89-8.42-7.17s-6.55,4.34-5.72,9.49l.05.29c.86,5.36,4.33,8.05,8.52,7.37C269.1,561.47,269.49,561.37,269.88,561.27Z"/><path class="cls-1" d="M286.46,552.65,284,537.15l5.79-.93,2.45,15.13c.69,4.23,2.23,5.88,5.71,5.31s4.64-2.42,3.89-7.08l-2.42-14.92,5.8-.94L307.64,549c1.12,6.93-2.17,11.14-9,12.25C291.93,562.34,287.55,559.4,286.46,552.65Z"/><path class="cls-1" d="M312.21,532.58l16.55-2.68.73,4.48-10.84,1.75,1,5.94,8.67-1.41.68,4.2-8.67,1.4,1,6.33,11.41-1.85.72,4.48L316.32,558Z"/><path class="cls-1" d="M336.35,546.58l5.51-.89c.61,2.23,1.88,4,5.65,3.35,2.52-.41,4-2.06,3.64-4s-1.51-2.57-5.33-2.53c-6.64.2-9.62-1.33-10.41-6.23-.71-4.34,2.4-8.15,8-9.06s9.47,1.09,10.75,6.06l-5.29.86c-.73-2.26-2.25-3.1-4.78-2.7s-3.61,1.79-3.33,3.5,1.25,2.53,5.25,2.47c6.27-.22,9.7.94,10.55,6.2.73,4.51-2.38,8.7-8.39,9.67C341.22,554.36,337.49,551.61,336.35,546.58Z"/><path class="cls-1" d="M364.64,528.69l-6.86,1.11-.73-4.47,19.51-3.16.73,4.48-6.86,1.11,3.38,20.92-5.79.94Z"/><path class="cls-1" d="M261.45,584.56l16.31-2.64.73,4.51-10.56,1.71,1.09,6.71,8.35-1.35.7,4.34-8.35,1.35,1.59,9.84-5.75.93Z"/><path class="cls-1" d="M283.78,594.14l0-.28c-1.23-7.57,3.45-13.83,11-15.05s13.91,3,15.15,10.67l0,.29c1.23,7.57-3.07,13.91-11,15.2S285,601.57,283.78,594.14Zm20.14-3.33-.05-.28c-.8-4.94-4-7.89-8.41-7.17s-6.55,4.37-5.72,9.49l0,.29c.84,5.18,4.34,7.9,8.5,7.22S304.75,595.93,303.92,590.81Z"/><path class="cls-1" d="M313.79,576.09l9.1-1.48c6-1,10.2.87,11.05,6.13l0,.14c.62,3.84-1.29,6.23-4.13,7.6l8.46,9.71-6.11,1-7.67-8.82-2.48.4,1.58,9.81-5.72.92Zm10.85,10.24c2.88-.47,4.14-1.91,3.74-4.36l0-.15c-.42-2.59-2.13-3.22-4.9-2.78l-3.23.53,1.17,7.28Z"/><path class="cls-1" d="M191.57,639.63l8.77-1.42c6.19-1,10.15,1.16,11,6.53l0,.14c.87,5.36-2.45,8.53-8.24,9.46l-3.24.53,1.5,9.24-5.72.92Zm10.6,10.75c2.8-.45,4.08-2,3.67-4.57l0-.14c-.44-2.7-2.18-3.51-4.91-3.07l-2.92.47,1.26,7.78Z"/><path class="cls-1" d="M215.59,635.74l9.1-1.47c6-1,10.2.86,11.05,6.12l0,.14c.62,3.84-1.29,6.23-4.13,7.6l8.47,9.71-6.12,1L226.32,650l-2.49.4,1.59,9.81-5.72.92ZM226.44,646c2.87-.47,4.13-1.91,3.74-4.36l0-.14c-.42-2.6-2.13-3.23-4.9-2.78l-3.24.52,1.18,7.28Z"/><path class="cls-1" d="M241.66,644.72l0-.28c-1.22-7.57,3.45-13.84,11-15.05s13.91,3,15.14,10.67l.05.29c1.22,7.56-3.07,13.91-11,15.19S242.86,652.15,241.66,644.72Zm20.14-3.33-.05-.29c-.8-4.93-4-7.88-8.42-7.17s-6.55,4.38-5.72,9.5l0,.28c.84,5.19,4.34,7.91,8.5,7.23S262.62,646.51,261.8,641.39Z"/><path class="cls-1" d="M271.67,626.66l8.78-1.42c6.18-1,10.14,1.17,11,6.54l0,.14c.87,5.36-2.45,8.53-8.24,9.46l-3.23.53,1.49,9.24-5.72.92Zm10.6,10.76c2.81-.45,4.08-2,3.67-4.57l0-.14c-.44-2.7-2.17-3.51-4.91-3.07l-2.91.47,1.26,7.78Z"/><path class="cls-1" d="M296.64,635.82l-.05-.28c-1.22-7.57,3.45-13.83,11-15s13.91,3,15.15,10.68l0,.28c1.22,7.57-3.08,13.92-11,15.2S297.84,643.25,296.64,635.82Zm20.13-3.33,0-.28c-.8-4.94-4-7.89-8.42-7.17s-6.55,4.38-5.72,9.49l0,.29c.84,5.18,4.35,7.9,8.5,7.23C315.43,641.35,317.6,637.61,316.77,632.49Z"/><path class="cls-1" d="M327.51,635.53l5.51-.89c.62,2.23,1.88,4,5.65,3.35,2.52-.4,4-2.06,3.65-4s-1.51-2.56-5.34-2.53c-6.64.2-9.62-1.32-10.41-6.23-.7-4.33,2.4-8.15,8-9.06s9.48,1.09,10.76,6.06L340,623c-.73-2.25-2.25-3.1-4.77-2.69s-3.62,1.79-3.34,3.49,1.25,2.53,5.25,2.47c6.27-.21,9.71,1,10.56,6.21.73,4.51-2.39,8.69-8.39,9.67C332.38,643.31,328.66,640.56,327.51,635.53Z"/><path class="cls-1" d="M356.28,613l7.5-1.21,12.35,24.07-6,1-2.66-5.36-9.2,1.49-.83,5.93-5.4.87Zm2.57,15.67,6.72-1.09-5.12-10.44Z"/><path class="cls-1" d="M377.29,609.58l5.75-.94,3.38,20.9,10.34-1.68.73,4.52L381.4,635Z"/><path class="cls-1" d="M399.83,623.83l5.51-.89c.62,2.23,1.88,4,5.65,3.35,2.52-.41,4-2.06,3.64-4s-1.5-2.57-5.33-2.53c-6.64.2-9.62-1.32-10.41-6.23-.7-4.33,2.4-8.15,8-9.06s9.48,1.09,10.75,6.06l-5.29.86c-.73-2.25-2.25-3.1-4.77-2.69s-3.62,1.78-3.34,3.49,1.25,2.53,5.25,2.47c6.27-.21,9.7.94,10.56,6.2.73,4.52-2.39,8.7-8.39,9.67C404.7,631.61,401,628.86,399.83,623.83Z"/><rect class="cls-1" x="412.27" y="1409.42" width="288" height="432" transform="translate(161.14 -46.49) rotate(5.6)"/><path class="cls-1" d="M445.59,1416.4l-3.12-6.85,2.84.28,1.88,4.59,2.69-4.15,2.5.25-4.19,6.13-.48,4.91-2.6-.25Z"/><path class="cls-1" d="M457,1411l3.36.33,2.58,11.75-2.69-.26-.54-2.61-4.12-.41-1,2.46-2.42-.24Zm-.67,7,3,.29-1-5.07Z"/><path class="cls-1" d="M467.18,1412l2.58.25-.91,9.37,4.63.45-.2,2-7.21-.71Z"/><path class="cls-1" d="M477.69,1413l7.43.73-.2,2-4.86-.47-.26,2.66,3.89.38-.19,1.88-3.88-.38-.28,2.83,5.11.5-.19,2-7.68-.75Z"/><path class="cls-1" d="M440.84,1435.69l.68-6.94,2.6.25-.67,6.79c-.18,1.89.29,2.78,1.86,2.93s2.27-.52,2.47-2.6l.66-6.7,2.59.26-.67,6.85c-.3,3.11-2.2,4.54-5.27,4.24S440.54,1438.72,440.84,1435.69Z"/><path class="cls-1" d="M455,1430.07l3,.29,3.6,7.93.73-7.51,2.3.23-1.12,11.39-2.58-.25-3.95-8.58-.79,8.11-2.3-.22Z"/><path class="cls-1" d="M468.7,1431.41l2.6.25-1.12,11.39-2.59-.25Z"/><path class="cls-1" d="M474.48,1432l2.73.26,1.85,9,3.56-8.48,2.42.24-4.9,11-3-.29Z"/><path class="cls-1" d="M488.16,1433.32l7.42.72-.19,2-4.86-.47-.26,2.66,3.89.38-.19,1.88-3.89-.38-.27,2.83,5.11.5-.2,2-7.67-.75Z"/><path class="cls-1" d="M499.23,1434.4l4.08.4c2.69.26,4.29,1.53,4.05,3.89v.06a3,3,0,0,1-2.64,2.8l2.54,5.14-2.74-.27-2.3-4.67-1.11-.1-.43,4.39-2.57-.25Zm3.5,5.64c1.29.12,2-.36,2.1-1.46v-.06c.11-1.16-.55-1.63-1.79-1.75l-1.45-.14-.32,3.26Z"/><path class="cls-1" d="M509.88,1443.34l2.47.24c0,1,.36,1.92,2,2.09,1.13.11,1.94-.44,2-1.33s-.35-1.28-2-1.7c-2.88-.66-4-1.66-3.77-3.86.19-1.94,2-3.23,4.47-3s4,1.54,3.94,3.82l-2.38-.23c0-1.05-.61-1.59-1.74-1.7s-1.76.36-1.84,1.13.25,1.23,2,1.65c2.72.62,4.07,1.51,3.84,3.87-.2,2-2,3.47-4.71,3.21C511.09,1447.24,509.8,1445.63,509.88,1443.34Z"/><path class="cls-1" d="M523.21,1436.75l2.6.25-1.12,11.4-2.6-.26Z"/><path class="cls-1" d="M532,1439.63l-3.08-.3.2-2,8.75.86-.2,2-3.08-.3-.92,9.38L531,1449Z"/><path class="cls-1" d="M543.28,1445.26l-3.13-6.85,2.84.28,1.88,4.59,2.69-4.14,2.5.24-4.19,6.14-.48,4.9-2.59-.25Z"/><path class="cls-1" d="M442.6,1448.14l3.36.33,2.58,11.76-2.69-.27-.54-2.61-4.12-.4-1,2.46-2.42-.24Zm-.68,7,3,.3-1-5.07Z"/><path class="cls-1" d="M452.8,1449.14l4.08.4c2.69.27,4.29,1.53,4.06,3.89v.07a3,3,0,0,1-2.64,2.79l2.54,5.14-2.74-.27-2.29-4.66-1.12-.11-.43,4.4-2.56-.26Zm3.5,5.64c1.29.13,2-.35,2.11-1.45v-.07c.12-1.16-.54-1.63-1.79-1.75l-1.45-.14-.32,3.27Z"/><path class="cls-1" d="M466.89,1452.55l-3.07-.3.19-2,8.75.86-.2,2-3.07-.3-.92,9.38-2.6-.26Z"/><path class="cls-1" d="M436.72,1472.68v-.12a5.61,5.61,0,0,1,6.37-5.25c2.53.25,4.68,1.63,4.67,4.48l-2.56-.25a2.22,2.22,0,0,0-2.28-2.19c-2-.19-3.28,1.17-3.51,3.5v.13c-.22,2.2.57,3.87,2.8,4.08,1.91.19,2.8-.83,3-2.13l-2.56-.25.18-1.88,5.12.5-.12,1.21c-.3,3-2.44,4.87-5.85,4.54C438.22,1478.68,436.39,1476.06,436.72,1472.68Z"/><path class="cls-1" d="M454.1,1468.56l3.36.33,2.58,11.75-2.69-.26-.53-2.61-4.13-.4-1,2.45-2.42-.23Zm-.67,7,3,.3-1-5.07Z"/><path class="cls-1" d="M464.31,1469.56l2.58.26-.92,9.36,4.64.46-.2,2-7.22-.71Z"/><path class="cls-1" d="M474.82,1470.59l2.58.26-.92,9.36,4.63.46-.19,2-7.22-.71Z"/><path class="cls-1" d="M485.32,1471.62l7.43.73-.2,2-4.86-.48-.26,2.66,3.89.38-.18,1.88-3.89-.38-.28,2.84,5.11.5-.19,2-7.68-.76Z"/><path class="cls-1" d="M496.39,1472.71l4.08.4c2.69.26,4.29,1.53,4.06,3.88v.07a3,3,0,0,1-2.64,2.8l2.54,5.13-2.74-.27-2.29-4.66-1.12-.11-.43,4.4-2.56-.25Zm3.5,5.63c1.29.13,2-.35,2.11-1.45v-.06c.12-1.17-.54-1.63-1.79-1.75l-1.45-.15-.32,3.27Z"/><path class="cls-1" d="M510.31,1480.62l-3.12-6.86,2.83.28,1.89,4.59,2.68-4.14,2.51.25-4.19,6.13-.48,4.91-2.6-.26Z"/><path class="cls-1" d="M447.34,1573.52l9,.88L459.8,1602l9.33-26.39,7.55.74,4.29,27.89,9-26.58,8.21.8-13.36,38.2-9-.88-4.41-27.73-9.82,26.33-8.54-.83Z"/><path class="cls-1" d="M506.52,1579.32l8.92.87-3.84,39.13-8.92-.87Z"/><path class="cls-1" d="M526.82,1581.31l10.29,1,12.36,27.24,2.53-25.78,7.88.78-3.83,39.13-8.87-.87-13.58-29.46-2.73,27.86-7.88-.77Z"/><path class="cls-1" d="M578,1593.29l-10.56-1,.67-6.89,30.05,2.94-.68,6.9-10.56-1-3.16,32.24-8.92-.88Z"/><path class="cls-1" d="M606.47,1589.11l25.5,2.5-.67,6.89-16.7-1.63-.89,9.14,13.35,1.31-.63,6.46-13.36-1.31-1,9.74,17.57,1.72-.68,6.9-26.38-2.59Z"/><path class="cls-1" d="M641.77,1592.57l14,1.37c9.25.91,14.74,5.26,14,13.36l0,.22c-.58,5.91-4.33,8.69-9.06,9.61l8.71,17.65-9.41-.92-7.88-16-3.83-.37-1.48,15.1-8.81-.86Zm12,19.36c4.43.43,6.86-1.21,7.23-5l0-.22c.39-4-1.88-5.6-6.15-6l-5-.49-1.1,11.22Z"/><path class="cls-1" d="M425.64,1637.71l9,.88,3.48,27.64,9.33-26.39,7.55.74,4.29,27.89,9-26.58,8.21.8-13.35,38.2-9-.88-4.41-27.73-9.82,26.33-8.53-.84Z"/><path class="cls-1" d="M490.83,1644.1l11.55,1.13,8.86,40.37-9.25-.9-1.83-9L486,1674.34l-3.54,8.44-8.32-.81Zm-2.31,24.14,10.34,1-3.48-17.41Z"/><path class="cls-1" d="M523.18,1647.27l14,1.37c9.25.9,14.74,5.25,13.94,13.36l0,.21c-.58,5.91-4.33,8.7-9.06,9.61l8.71,17.66-9.41-.93-7.88-16-3.83-.37-1.48,15.1-8.81-.86Zm12,19.35c4.43.44,6.86-1.2,7.23-5l0-.22c.39-4-1.88-5.6-6.15-6l-5-.48-1.1,11.22Z"/><path class="cls-1" d="M562.7,1651.14l11.71,1.15,6.76,25.25,11.41-23.47,11.5,1.12-3.84,39.13-8.81-.86,2.69-27.47-13.53,26.41-2.9-.29-8.2-28.54-2.69,27.48-7.93-.78Z"/><path class="cls-1" d="M615.3,1656.29l25.51,2.5-.68,6.9-16.69-1.64-.9,9.14,13.36,1.31-.63,6.46-13.36-1.31-.95,9.74,17.57,1.72-.68,6.9-26.38-2.59Z"/><path class="cls-1" d="M650.61,1659.75l14,1.37c9.25.91,14.74,5.26,13.94,13.36l0,.22c-.58,5.91-4.33,8.69-9.06,9.61l8.71,17.65-9.41-.92-7.88-16-3.83-.38-1.48,15.11-8.82-.87Zm12,19.36c4.43.43,6.86-1.21,7.23-5l0-.21c.39-4-1.89-5.6-6.15-6l-5-.49-1.1,11.22Z"/><rect class="cls-1" x="395.05" y="811.58" width="288" height="432" transform="translate(131.8 -58.99) rotate(7.13)"/><path class="cls-1" d="M434,815.66l-2.94-6.93,2.83.35,1.76,4.64,2.8-4.07L441,810l-4.35,6-.61,4.89-2.59-.32Z"/><path class="cls-1" d="M445.56,810.54l3.35.42,2.26,11.82-2.68-.34-.46-2.62-4.12-.52-1.09,2.43-2.42-.3Zm-.86,7,3,.37-.88-5.09Z"/><path class="cls-1" d="M455.73,811.81l2.58.33-1.17,9.34,4.62.57-.25,2-7.2-.9Z"/><path class="cls-1" d="M466.21,813.13l7.4.92-.25,2-4.84-.6-.33,2.65,3.87.48-.23,1.88L468,820l-.35,2.83,5.1.64-.25,2-7.66-1Z"/><path class="cls-1" d="M428.76,834.82l.87-6.92,2.59.32-.85,6.77c-.23,1.89.22,2.78,1.77,3s2.29-.46,2.55-2.54l.83-6.67,2.59.32-.85,6.83c-.39,3.1-2.32,4.49-5.39,4.1S428.39,837.84,428.76,834.82Z"/><path class="cls-1" d="M443,829.58l3,.37,3.38,8,.94-7.48,2.29.29-1.42,11.35-2.58-.32-3.72-8.68-1,8.09-2.29-.29Z"/><path class="cls-1" d="M456.73,831.29l2.59.32L457.9,843l-2.59-.32Z"/><path class="cls-1" d="M462.49,832l2.72.34,1.61,9.06,3.79-8.38,2.41.3-5.2,10.88-2.95-.37Z"/><path class="cls-1" d="M476.13,833.72l7.4.92-.25,2-4.84-.61-.33,2.65,3.87.49-.23,1.87-3.88-.48-.35,2.82,5.1.64-.25,2-7.66-1Z"/><path class="cls-1" d="M487.16,835.1l4.07.51c2.68.33,4.25,1.64,3.95,4v.07a3,3,0,0,1-2.71,2.72l2.4,5.21-2.73-.35L490,842.53l-1.11-.14-.55,4.38-2.56-.32Zm3.35,5.72c1.29.17,2-.29,2.15-1.39v-.06c.15-1.16-.5-1.65-1.74-1.8l-1.44-.18-.41,3.25Z"/><path class="cls-1" d="M497.57,844.32l2.46.31c0,1,.31,1.93,2,2.14,1.13.14,2-.39,2.07-1.28s-.33-1.28-2-1.74c-2.86-.75-3.94-1.77-3.67-4,.24-1.94,2-3.18,4.55-2.87s3.91,1.65,3.84,3.93l-2.37-.29a1.65,1.65,0,0,0-1.7-1.75c-1.13-.14-1.77.31-1.86,1.08s.21,1.23,1.93,1.7c2.7.7,4,1.62,3.73,4-.25,2-2.11,3.42-4.79,3.08C498.68,848.25,497.43,846.61,497.57,844.32Z"/><path class="cls-1" d="M511.07,838.09l2.59.33-1.42,11.35-2.59-.32Z"/><path class="cls-1" d="M519.73,841.21l-3.06-.39.25-2,8.72,1.09-.25,2-3.07-.39-1.17,9.36-2.59-.33Z"/><path class="cls-1" d="M530.91,847.14,528,840.21l2.82.35,1.76,4.64,2.8-4.07,2.49.31-4.35,6-.61,4.89-2.59-.32Z"/><path class="cls-1" d="M430.18,847.32l3.36.42,2.26,11.81-2.69-.33-.46-2.63-4.11-.51-1.1,2.43-2.41-.3Zm-.86,7,3,.38-.87-5.1Z"/><path class="cls-1" d="M440.36,848.59l4.06.51c2.69.33,4.25,1.64,4,4v.07a3,3,0,0,1-2.71,2.72l2.39,5.21-2.73-.34L443.16,856l-1.12-.14-.55,4.39-2.55-.32Zm3.35,5.73c1.28.16,2-.3,2.14-1.4v-.06c.14-1.16-.51-1.64-1.74-1.8l-1.45-.18-.41,3.26Z"/><path class="cls-1" d="M454.35,852.37l-3.07-.38.26-2,8.72,1.09-.26,2-3.06-.38-1.17,9.35-2.59-.32Z"/><path class="cls-1" d="M423.65,871.69v-.13a5.62,5.62,0,0,1,6.51-5.07c2.53.31,4.64,1.76,4.56,4.6l-2.56-.32a2.23,2.23,0,0,0-2.22-2.25c-2-.24-3.32,1.09-3.61,3.41v.13c-.28,2.19.46,3.88,2.69,4.16,1.9.23,2.82-.76,3-2.06l-2.56-.32.24-1.88,5.1.64-.16,1.21c-.37,3-2.56,4.81-6,4.38C425,877.73,423.23,875.05,423.65,871.69Z"/><path class="cls-1" d="M441.14,868l3.35.42,2.26,11.81-2.68-.33-.47-2.62-4.11-.52-1.09,2.43-2.42-.3Zm-.86,7,3,.38-.88-5.1Z"/><path class="cls-1" d="M451.31,869.31l2.57.32L452.71,879l4.63.58-.26,2-7.19-.9Z"/><path class="cls-1" d="M461.79,870.62l2.57.32-1.17,9.34,4.62.58-.25,2-7.19-.9Z"/><path class="cls-1" d="M472.27,871.93l7.4.93-.25,2-4.85-.61-.33,2.66,3.88.48-.24,1.88-3.87-.49-.36,2.83,5.1.64-.25,2-7.66-1Z"/><path class="cls-1" d="M483.3,873.31l4.07.51c2.68.34,4.24,1.65,3.95,4v.06a3,3,0,0,1-2.71,2.73l2.4,5.2-2.74-.34-2.16-4.72-1.12-.14-.54,4.38-2.56-.32Zm3.35,5.73c1.29.16,2-.3,2.14-1.39v-.07c.14-1.16-.5-1.64-1.74-1.8l-1.45-.18-.41,3.26Z"/><path class="cls-1" d="M497,881.6l-2.94-6.94,2.83.36,1.76,4.64,2.8-4.07,2.49.31-4.35,6-.61,4.89-2.59-.32Z"/><path class="cls-1" d="M447.2,974.73l12.77,1.6C473.66,978,479.5,986.31,478,998l-.05.44c-1.47,11.67-9.26,18.62-23,16.91l-12.71-1.59Zm8.42,33.7c7.86,1,12.12-3,13.13-11l.05-.44c1-8-1.89-12.76-10.13-13.79l-3.49-.44L452,1008Z"/><path class="cls-1" d="M497.13,981l11.52,1.44,7.77,40.6-9.22-1.15-1.59-9-14.13-1.77-3.76,8.34-8.29-1Zm-2.95,24.07,10.31,1.29-3-17.5Z"/><path class="cls-1" d="M529.39,985l10.26,1.28,11.62,27.56,3.22-25.7,7.86,1-4.89,39-8.84-1.11-12.78-29.81L532.36,1025l-7.86-1Z"/><path class="cls-1" d="M569,1010l.06-.44c1.48-11.84,10.78-18.88,21.86-17.49,9.39,1.17,15.8,6.63,15.52,16.35l-9.06-1.13c-.06-4.78-2.37-7.61-7.28-8.23-6.16-.77-10.7,3.54-11.71,11.62l0,.43c-1,8.08,2.11,13.24,8.55,14,4.86.61,8.55-1.42,9.89-6.35l8.67,1.08c-2.19,9.54-9.74,13.64-19.34,12.43C573.33,1030.75,567.49,1022,569,1010Z"/><path class="cls-1" d="M617,996l25.43,3.18-.86,6.88L625,1004l-1.14,9.12,13.31,1.66-.81,6.44L623,1019.52l-1.22,9.71,17.52,2.19-.86,6.88-26.3-3.3Z"/><path class="cls-1" d="M469.74,1064.13l.05-.44c1.46-11.62,11-18.79,22.57-17.34,11.73,1.46,19.09,10.42,17.62,22.15l-.05.44c-1.46,11.62-10.48,19.08-22.65,17.56S468.31,1075.54,469.74,1064.13Zm30.95,3.76.06-.43c.95-7.59-2.44-13.28-9.26-14.13S480,1056.94,479,1064.79l0,.44c-1,8,3,13.45,9.35,14.25C494.93,1080.31,499.71,1075.75,500.69,1067.89Z"/><path class="cls-1" d="M521.49,1050.55l25,3.13-.87,6.93-16.21-2-1.29,10.32,12.83,1.6-.84,6.66-12.82-1.61-1.89,15.12-8.84-1.11Z"/><path class="cls-1" d="M555.16,1054.76l25.05,3.13-.87,6.93-16.21-2-1.29,10.31,12.83,1.6-.84,6.66-12.82-1.6-1.89,15.11-8.84-1.1Z"/><path class="cls-1" d="M583.93,1093.72a5,5,0,1,1,4.38,5.31A4.88,4.88,0,0,1,583.93,1093.72Zm5-34.74,8.84,1.11-4.56,26.69-6.44-.8Z"/><rect class="cls-1" x="186.27" y="1975.06" width="288" height="432" transform="translate(-107.11 18.84) rotate(-2.81)"/><path class="cls-1" d="M190.22,2000.47l-4.09-6.32L189,1994l2.54,4.26,2.05-4.49,2.51-.12-3.24,6.68.24,4.93-2.61.12Z"/><path class="cls-1" d="M200.69,1993.43l3.37-.16,4.27,11.25-2.7.13-.91-2.5-4.14.2-.66,2.58-2.43.12Zm.36,7,3-.15-1.74-4.86Z"/><path class="cls-1" d="M210.93,1992.93l2.59-.13.46,9.4,4.65-.23.1,2-7.24.36Z"/><path class="cls-1" d="M221.48,1992.41l7.45-.36.09,2-4.87.24.13,2.67,3.9-.19.09,1.88-3.9.2.14,2.84,5.13-.25.1,2-7.7.38Z"/><path class="cls-1" d="M188.34,2020.25l-.34-7,2.6-.13.34,6.81c.09,1.9.69,2.71,2.26,2.63s2.17-.84,2.07-2.94l-.33-6.71,2.6-.13.34,6.88c.15,3.11-1.51,4.81-4.6,5S188.49,2023.29,188.34,2020.25Z"/><path class="cls-1" d="M201.5,2012.62l3-.15,4.71,7.31-.37-7.53,2.31-.11.56,11.43-2.59.13-5.17-7.9.4,8.13-2.3.12Z"/><path class="cls-1" d="M215.28,2011.94l2.6-.13.56,11.43-2.6.13Z"/><path class="cls-1" d="M221.08,2011.65l2.73-.13,3.15,8.64,2.29-8.91,2.43-.12-3.25,11.62-3,.15Z"/><path class="cls-1" d="M234.8,2011l7.45-.37.1,2-4.87.24.13,2.67,3.9-.19.09,1.88-3.9.19.14,2.85L243,2020l.1,2-7.71.38Z"/><path class="cls-1" d="M245.91,2010.43l4.09-.2c2.7-.13,4.47.89,4.59,3.26v.06a3,3,0,0,1-2.2,3.15l3.26,4.71-2.75.14-3-4.28-1.12.06.22,4.41-2.58.13Zm4.29,5.07c1.29-.07,1.92-.64,1.87-1.75v-.06c-.05-1.17-.78-1.53-2-1.47l-1.46.07.16,3.28Z"/><path class="cls-1" d="M257.75,2017.72l2.48-.12c.16,1,.64,1.84,2.33,1.76,1.14-.06,1.86-.72,1.81-1.61s-.54-1.21-2.23-1.38c-2.94-.24-4.18-1.06-4.29-3.27-.1-1.95,1.46-3.48,4-3.61s4.13,1,4.45,3.21l-2.38.12a1.67,1.67,0,0,0-2-1.43c-1.14.06-1.69.62-1.65,1.38s.43,1.18,2.2,1.35c2.78.22,4.24.9,4.36,3.27.1,2-1.48,3.72-4.19,3.86C259.52,2021.4,258,2020,257.75,2017.72Z"/><path class="cls-1" d="M270,2009.25l2.6-.13.56,11.44-2.6.12Z"/><path class="cls-1" d="M279,2010.83,276,2011l-.1-2,8.77-.43.1,2-3.08.15.46,9.41-2.6.13Z"/><path class="cls-1" d="M291.07,2014.74l-4.09-6.32,2.85-.14,2.53,4.26,2.05-4.49,2.51-.12-3.24,6.68.24,4.92-2.6.13Z"/><path class="cls-1" d="M191.9,2032.31l3.37-.16,4.27,11.24-2.7.14-.91-2.51-4.14.21-.66,2.58-2.43.12Zm.36,7,3-.15-1.75-4.86Z"/><path class="cls-1" d="M202.14,2031.81l4.09-.2c2.7-.14,4.47.88,4.58,3.25v.06a3,3,0,0,1-2.2,3.16l3.26,4.71-2.75.13-2.95-4.27-1.12,0,.21,4.41-2.57.13Zm4.29,5.06c1.29-.06,1.92-.64,1.87-1.74v-.07c-.06-1.16-.78-1.53-2-1.47l-1.46.07.16,3.28Z"/><path class="cls-1" d="M216.57,2033.12l-3.08.15-.1-2,8.78-.44.1,2-3.09.15.46,9.42-2.6.12Z"/><path class="cls-1" d="M189.67,2057.45v-.13a5.61,5.61,0,0,1,5.54-6.12c2.54-.13,4.87.93,5.28,3.74l-2.58.13a2.21,2.21,0,0,0-2.57-1.83c-2,.1-3.08,1.64-3,4v.12c.11,2.21,1.13,3.75,3.37,3.64,1.92-.1,2.65-1.24,2.63-2.55l-2.57.12-.09-1.88,5.13-.25.06,1.21c.15,3-1.7,5.18-5.13,5.35C192,2063.16,189.84,2060.83,189.67,2057.45Z"/><path class="cls-1" d="M206.26,2050.83l3.38-.17,4.27,11.25-2.71.13-.9-2.5-4.14.2-.66,2.58-2.43.12Zm.37,7.05,3-.15-1.75-4.87Z"/><path class="cls-1" d="M216.5,2050.33l2.59-.13.47,9.4,4.65-.23.1,2-7.24.36Z"/><path class="cls-1" d="M227.05,2049.81l2.59-.13.46,9.4,4.66-.23.1,2-7.25.36Z"/><path class="cls-1" d="M237.6,2049.29l7.45-.37.1,2-4.88.24.13,2.67,3.9-.19.1,1.88-3.9.19.14,2.85,5.13-.25.1,2-7.71.38Z"/><path class="cls-1" d="M248.71,2048.74l4.09-.2c2.7-.13,4.46.89,4.58,3.26v.06a3,3,0,0,1-2.2,3.15l3.26,4.71-2.75.14-2.95-4.28-1.12.06.22,4.41-2.57.12Zm4.28,5.07c1.3-.07,1.93-.64,1.87-1.75V2052c-.06-1.17-.78-1.53-2-1.47l-1.45.07.16,3.28Z"/><path class="cls-1" d="M263.63,2054.53l-4.09-6.32,2.85-.14,2.53,4.27,2.05-4.49,2.51-.13-3.24,6.68.24,4.93-2.61.13Z"/><path class="cls-1" d="M268.46,2153l8.9-.44,1.58,32.29,16-.78.34,7-24.88,1.22Z"/><path class="cls-1" d="M302.19,2151.36l8.95-.44,1.93,39.27-8.95.44Z"/><path class="cls-1" d="M319.38,2150.51l9.4-.46,10.81,29.7,7.86-30.62,8.35-.41-11.14,39.92-10.22.5Z"/><path class="cls-1" d="M363.82,2148.33l25.6-1.26.34,6.92-16.75.83.45,9.17,13.4-.66.32,6.48-13.41.66.49,9.78,17.63-.87.34,6.92-26.48,1.3Z"/><path class="cls-1" d="M227.94,2221.09l11.76-.58,10.37,24,7.86-24.89,11.54-.56,1.93,39.27-8.85.43-1.35-27.57-9.52,28.11-2.91.14-12.29-27,1.36,27.58-8,.39Z"/><path class="cls-1" d="M281.58,2242.46l-1.18-23.95,9-.44,1.15,23.4c.32,6.53,2.38,9.29,7.76,9s7.46-2.9,7.11-10.09l-1.14-23.07,9-.44,1.16,23.62c.52,10.71-5.19,16.55-15.79,17.07C288.24,2258.1,282.09,2252.89,281.58,2242.46Z"/><path class="cls-1" d="M322.93,2243.45l8.51-.42c.56,3.5,2.19,6.34,8,6,3.9-.19,6.37-2.46,6.22-5.53s-1.85-4.15-7.66-4.75c-10.12-.82-14.39-3.64-14.76-11.22-.33-6.7,5-12,13.71-12.4,8.84-.44,14.2,3.27,15.3,11l-8.19.4c-.72-3.54-2.89-5.09-6.79-4.89s-5.79,2.1-5.66,4.73c.14,2.8,1.47,4.06,7.55,4.64,9.56.74,14.58,3.09,15,11.21.34,7-5.1,12.81-14.38,13.26C329,2256.09,323.81,2251.28,322.93,2243.45Z"/><path class="cls-1" d="M362.2,2214.49l8.95-.44,1.93,39.27-8.95.44Z"/><path class="cls-1" d="M381.53,2233.47l0-.44c-.58-11.92,7.37-20.46,18.52-21,9.44-.47,16.7,3.8,18.11,13.42l-9.12.45c-.89-4.69-3.65-7.09-8.59-6.85-6.21.31-9.93,5.34-9.53,13.47l0,.44c.4,8.12,4.37,12.66,10.85,12.35,4.89-.24,8.18-2.88,8.64-8l8.73-.43c-.51,9.77-7.24,15.11-16.9,15.59C389.37,2253.13,382.12,2245.56,381.53,2233.47Z"/><path class="cls-1" d="M427.32,2246.42a5,5,0,1,1,5.23,4.48A4.87,4.87,0,0,1,427.32,2246.42Zm-1.12-35.07,8.9-.44.12,27.08-6.49.32Z"/><rect class="cls-1" x="388.73" y="1097.08" width="288" height="432" transform="translate(312.7 -86.77) rotate(13.15)"/><path class="cls-1" d="M450.5,1091.33l-2.2-7.21,2.78.65,1.26,4.8,3.21-3.75,2.45.57-5,5.53-1.12,4.8-2.54-.59Z"/><path class="cls-1" d="M462.5,1087.44l3.28.77,1,12-2.64-.62-.18-2.65-4-1-1.34,2.3-2.37-.55Zm-1.59,6.88,2.94.69-.34-5.16Z"/><path class="cls-1" d="M472.48,1089.77l2.53.59-2.14,9.17,4.53,1.06-.46,2-7.06-1.65Z"/><path class="cls-1" d="M482.76,1092.17l7.27,1.7-.46,2-4.76-1.11-.6,2.6,3.8.89-.43,1.84-3.8-.89-.65,2.77,5,1.17-.46,2-7.51-1.75Z"/><path class="cls-1" d="M443.25,1109.83l1.59-6.8,2.54.59-1.55,6.64c-.44,1.86-.08,2.8,1.45,3.15s2.31-.21,2.79-2.25l1.53-6.55,2.54.59-1.56,6.71c-.71,3-2.78,4.21-5.79,3.51S442.56,1112.79,443.25,1109.83Z"/><path class="cls-1" d="M458,1106.11l2.93.68,2.53,8.33,1.71-7.34,2.25.53-2.61,11.14-2.52-.59-2.79-9-1.86,7.94-2.24-.53Z"/><path class="cls-1" d="M471.43,1109.24l2.54.6-2.6,11.14-2.54-.59Z"/><path class="cls-1" d="M477.09,1110.57l2.66.62.65,9.17,4.65-7.93,2.37.55-6.31,10.28-2.9-.68Z"/><path class="cls-1" d="M490.47,1113.69l7.26,1.7-.45,2-4.76-1.11-.61,2.61,3.81.88-.43,1.84-3.81-.89-.64,2.78,5,1.17-.46,2-7.51-1.75Z"/><path class="cls-1" d="M501.3,1116.22l4,.93c2.63.62,4,2.09,3.51,4.39v.06a3,3,0,0,1-3,2.43l1.84,5.43-2.68-.63-1.66-4.92-1.09-.26-1,4.3-2.51-.58Zm2.73,6c1.26.29,2-.09,2.28-1.16V1121c.27-1.13-.33-1.68-1.54-2l-1.42-.33-.75,3.2Z"/><path class="cls-1" d="M510.68,1126.49l2.42.56c-.13,1,.1,2,1.75,2.33,1.11.26,2-.17,2.19-1.05s-.19-1.31-1.77-1.94c-2.76-1-3.73-2.17-3.23-4.32.45-1.9,2.37-3,4.83-2.37s3.71,2,3.4,4.31l-2.32-.54a1.67,1.67,0,0,0-1.51-1.92c-1.11-.26-1.79.13-2,.87s.09,1.26,1.75,1.91c2.61,1,3.83,2,3.29,4.33-.46,2-2.45,3.18-5.09,2.56C511.37,1130.51,510.3,1128.75,510.68,1126.49Z"/><path class="cls-1" d="M524.76,1121.7l2.54.6-2.6,11.14-2.54-.59Z"/><path class="cls-1" d="M533.05,1125.71l-3-.7.46-2,8.55,2-.45,2-3-.71-2.15,9.18-2.54-.59Z"/><path class="cls-1" d="M543.54,1132.78l-2.2-7.2,2.77.65,1.27,4.79,3.21-3.75,2.45.57-5,5.53-1.12,4.8-2.54-.59Z"/><path class="cls-1" d="M443.35,1122.4l3.29.77,1,12-2.63-.62-.19-2.65-4-1-1.35,2.3-2.37-.55Zm-1.59,6.88,2.95.69-.34-5.16Z"/><path class="cls-1" d="M453.34,1124.73l4,.94c2.63.61,4.05,2.08,3.51,4.38l0,.07a3,3,0,0,1-3,2.42l1.84,5.43-2.68-.63-1.66-4.92-1.09-.26-1,4.31-2.51-.59Zm2.73,6c1.26.29,2-.09,2.27-1.16l0-.06c.26-1.14-.33-1.69-1.55-2l-1.41-.33-.75,3.2Z"/><path class="cls-1" d="M466.86,1130l-3-.7.46-2,8.55,2-.46,2-3-.7-2.15,9.18-2.54-.6Z"/><path class="cls-1" d="M434.3,1146l0-.12a5.6,5.6,0,0,1,7-4.36c2.48.57,4.43,2.23,4.05,5l-2.51-.59a2.21,2.21,0,0,0-2-2.46c-1.94-.45-3.41.73-3.95,3l0,.12c-.51,2.15.05,3.91,2.23,4.42a2.42,2.42,0,0,0,3.24-1.73l-2.51-.58.43-1.84,5,1.16-.28,1.19c-.69,3-3.06,4.51-6.39,3.73C435,1152.1,433.53,1149.26,434.3,1146Z"/><path class="cls-1" d="M452.07,1144.16l3.29.76,1,12-2.63-.61-.19-2.66-4-.94-1.35,2.3-2.37-.56Zm-1.59,6.87,2.95.69-.34-5.16Z"/><path class="cls-1" d="M462.06,1146.49l2.52.59-2.14,9.16,4.54,1.06-.47,2-7.06-1.65Z"/><path class="cls-1" d="M472.34,1148.89l2.52.59-2.14,9.17,4.54,1.06-.46,2-7.06-1.64Z"/><path class="cls-1" d="M482.62,1151.29l7.27,1.7-.46,2-4.76-1.11-.6,2.61,3.8.88-.43,1.84-3.8-.88-.65,2.77,5,1.17-.46,2-7.51-1.75Z"/><path class="cls-1" d="M493.45,1153.82l4,.93c2.64.62,4.05,2.09,3.51,4.39v.06a3,3,0,0,1-3,2.43l1.83,5.43-2.68-.63-1.66-4.92-1.09-.26-1,4.3-2.51-.58Zm2.73,6c1.26.29,2-.09,2.28-1.16v-.06c.27-1.14-.33-1.69-1.54-2l-1.42-.33-.75,3.2Z"/><path class="cls-1" d="M506.21,1163.49l-2.2-7.2,2.78.65,1.26,4.8,3.21-3.76,2.45.58-5,5.53-1.12,4.8-2.54-.6Z"/><path class="cls-2" d="M417.25,1262.66l.11-.47c2.93-12.56,13.92-19.24,26.25-16.36,9.29,2.17,16.59,8.38,15.17,19l-9.41-2.2c.33-5.1-2.37-8.07-7.39-9.24-7.25-1.69-12.78,2.74-14.77,11.27l-.11.47c-1.89,8.06.21,14.65,8.39,16.56,7,1.64,10.81-1.72,12.11-6.47l-9.41-2.2,1.61-6.89,18.76,4.38-1,4.44c-2.61,11.16-11.47,16.91-24,14C419.88,1285.7,414.36,1275,417.25,1262.66Z"/><path class="cls-2" d="M478.05,1254.56l12.33,2.88,3.79,44.94-9.87-2.31-.7-10-15.13-3.53-5,8.62-8.88-2.08Zm-6,25.78,11,2.58-1.27-19.34Z"/><path class="cls-2" d="M509.66,1261.94l14.95,3.5c9.88,2.3,15.19,7.8,13.17,16.44l-.06.24c-1.47,6.31-5.93,8.78-11.18,9.09l6.89,20.34-10-2.35-6.22-18.46-4.09-1-3.77,16.12-9.4-2.19Zm10.23,22.66c4.73,1.11,7.59-.32,8.53-4.35l.06-.23c1-4.27-1.24-6.33-5.79-7.39l-5.32-1.25-2.8,12Z"/><path class="cls-2" d="M548.92,1271.12l13.67,3.19c14.66,3.43,20,13.07,17.13,25.57l-.11.46c-2.92,12.51-12.17,19.16-26.84,15.73l-13.61-3.18Zm5.28,37.52c8.41,2,13.49-1.84,15.51-10.49l.11-.46c2-8.59-.6-14.07-9.42-16.13l-3.74-.87-6.32,27Z"/><path class="cls-2" d="M591.34,1281l27.22,6.36-1.72,7.36L599,1290.58l-2.28,9.76,14.26,3.33-1.61,6.9-14.26-3.33-2.43,10.4,18.76,4.38-1.72,7.36-28.16-6.58Z"/><path class="cls-2" d="M626.1,1289.15l11,2.56,9.47,31.23,6.43-27.51,8.41,2-9.76,41.78-9.47-2.22-10.46-33.8-7,29.74-8.41-2Z"/><path class="cls-2" d="M464.62,1333.12l-11.27-2.63,1.71-7.36,32.08,7.49-1.72,7.36-11.28-2.63-8,34.41-9.52-2.22Z"/><path class="cls-2" d="M499.41,1333.49l12.33,2.88,3.79,44.94-9.87-2.31-.69-10-15.14-3.53-5,8.62-8.88-2.08Zm-6,25.78,11,2.58-1.27-19.34Z"/><path class="cls-2" d="M531,1340.87l9.46,2.21-8,34.36,17,4-1.74,7.42-26.46-6.18Z"/><path class="cls-2" d="M563.74,1348.52l9.46,2.21-4.2,18,18.82-14.64,10,2.35-21.16,15.94,12.21,26.08-11-2.58-10-22.12-4.38,18.75-9.46-2.21Z"/><rect class="cls-1" x="387.92" y="457.65" width="288" height="432" transform="translate(199.53 -117.72) rotate(15.51)"/><path class="cls-1" d="M458.9,448.7l-1.9-7.29,2.74.76,1.07,4.85,3.36-3.62,2.42.67-5.18,5.33-1.32,4.75-2.51-.7Z"/><path class="cls-1" d="M471.05,445.31l3.25.9.52,12-2.61-.72-.07-2.66-4-1.11L466.7,456l-2.34-.65Zm-1.88,6.81,2.92.8-.13-5.16Z"/><path class="cls-1" d="M480.93,448.05l2.5.7-2.52,9.06,4.49,1.25-.55,2-7-1.94Z"/><path class="cls-1" d="M491.1,450.88l7.19,2-.54,1.94-4.71-1.3-.71,2.57,3.76,1.05-.5,1.82-3.77-1.05-.76,2.75L496,462l-.53,2L488,461.9Z"/><path class="cls-1" d="M450.89,466.88l1.87-6.72,2.51.7-1.82,6.57c-.51,1.83-.19,2.79,1.32,3.21s2.32-.12,2.88-2.14l1.8-6.48,2.52.7-1.84,6.63c-.84,3-2.95,4.1-5.93,3.27S450.08,469.82,450.89,466.88Z"/><path class="cls-1" d="M465.79,463.78l2.9.8,2.17,8.43,2-7.27,2.22.62-3.06,11-2.5-.69-2.41-9.13L465,475.42l-2.23-.62Z"/><path class="cls-1" d="M479.08,467.46l2.51.7-3.06,11-2.52-.7Z"/><path class="cls-1" d="M484.67,469l2.64.73.27,9.19,5-7.74,2.35.66-6.73,10-2.87-.79Z"/><path class="cls-1" d="M497.91,472.69l7.19,2-.54,1.94-4.7-1.3-.72,2.57,3.77,1.05-.51,1.82-3.76-1-.76,2.75,4.95,1.37-.54,1.94-7.44-2.06Z"/><path class="cls-1" d="M508.63,475.67l4,1.09c2.6.73,4,2.25,3.33,4.53l0,.06a3,3,0,0,1-3.08,2.3l1.61,5.5-2.65-.73-1.46-5-1.08-.3-1.18,4.25-2.48-.69Zm2.48,6.15c1.25.35,2,0,2.32-1.07l0-.06c.31-1.12-.26-1.7-1.46-2l-1.41-.39-.88,3.16Z"/><path class="cls-1" d="M517.58,486.31,520,487c-.16,1,0,1.95,1.66,2.41a1.65,1.65,0,0,0,2.23-1c.24-.88-.14-1.32-1.69-2-2.72-1.15-3.64-2.32-3-4.45.53-1.88,2.49-2.85,4.92-2.17s3.63,2.2,3.22,4.45l-2.3-.64a1.64,1.64,0,0,0-1.42-2c-1.1-.31-1.8.05-2,.79s0,1.25,1.66,2c2.57,1.08,3.75,2.18,3.11,4.47-.54,2-2.58,3.07-5.18,2.35C518.1,490.36,517.11,488.55,517.58,486.31Z"/><path class="cls-1" d="M531.85,482.11l2.51.7-3.06,11-2.51-.7Z"/><path class="cls-1" d="M540,486.46l-3-.83.54-1.94L546,486l-.54,1.94-3-.83L540,496.24l-2.51-.7Z"/><path class="cls-1" d="M550.15,494l-1.9-7.29,2.75.77,1.06,4.84,3.36-3.62,2.42.68-5.18,5.32-1.32,4.75-2.51-.7Z"/><path class="cls-1" d="M450.48,479.45l3.25.91.52,12-2.61-.73-.07-2.66-4-1.11-1.43,2.25-2.35-.66Zm-1.88,6.81,2.92.81-.13-5.17Z"/><path class="cls-1" d="M460.36,482.2l3.95,1.09c2.6.72,4,2.25,3.32,4.53v.06a3,3,0,0,1-3.08,2.3l1.61,5.5-2.65-.74L462,490l-1.08-.3-1.18,4.25-2.48-.69Zm2.48,6.15c1.25.35,2,0,2.32-1.07l0-.06c.31-1.13-.26-1.7-1.47-2l-1.4-.39-.88,3.16Z"/><path class="cls-1" d="M473.65,488l-3-.83.54-1.94,8.47,2.35-.54,1.94-3-.82-2.52,9.08-2.51-.7Z"/><path class="cls-1" d="M440.46,502.61l0-.12a5.6,5.6,0,0,1,7.17-4.07c2.45.68,4.33,2.41,3.84,5.21L449,503a2.21,2.21,0,0,0-1.86-2.55c-1.92-.53-3.44.59-4.07,2.84l0,.13c-.59,2.12-.11,3.9,2.05,4.5,1.86.52,2.91-.34,3.3-1.59l-2.48-.69.51-1.82,4.95,1.38-.33,1.17c-.82,2.94-3.24,4.38-6.54,3.46A5.43,5.43,0,0,1,440.46,502.61Z"/><path class="cls-1" d="M458.29,501.55l3.26.9.51,12-2.6-.72-.08-2.66-4-1.11L454,512.22l-2.34-.65Zm-1.87,6.8,2.92.81-.13-5.17Z"/><path class="cls-1" d="M468.17,504.29l2.5.69-2.51,9.07,4.48,1.25-.54,2-7-1.94Z"/><path class="cls-1" d="M478.35,507.11l2.5.7-2.52,9.07,4.49,1.24-.54,2-7-1.94Z"/><path class="cls-1" d="M488.52,509.94l7.19,2-.54,1.95-4.7-1.31-.72,2.58,3.77,1L493,518l-3.76-1-.76,2.74,4.95,1.38L492.9,523,485.46,521Z"/><path class="cls-1" d="M499.24,512.91l3.95,1.1c2.6.72,4,2.24,3.33,4.53l0,.06a3,3,0,0,1-3.08,2.3l1.61,5.5-2.65-.74-1.46-5-1.08-.3-1.18,4.26-2.48-.69Zm2.48,6.16c1.25.34,2,0,2.32-1.07l0-.06c.31-1.13-.26-1.7-1.47-2l-1.4-.39-.88,3.17Z"/><path class="cls-1" d="M511.59,523.1l-1.9-7.29,2.75.77,1.06,4.84,3.36-3.62,2.42.68-5.18,5.32-1.32,4.75-2.51-.7Z"/><path class="cls-3" d="M456.25,615.23l11.42,3.17c8.05,2.24,11.64,7.07,9.7,14.06l-.05.18c-1.94,7-7.72,9-15.26,6.88l-4.21-1.17-3.34,12-7.44-2.06Zm6.84,18.94c3.66,1,6.09-.2,7-3.49l.05-.18c1-3.52-.67-5.47-4.23-6.46l-3.8-1-2.81,10.13Z"/><path class="cls-3" d="M485.38,623.32l7.54,2.09-9.18,33.08-7.54-2.1Z"/><path class="cls-3" d="M493.87,643.71l.1-.37c2.79-10,11.72-14.93,21.11-12.32,8,2.2,12.8,7.73,11.33,16.09L518.73,645c.55-4.13-1.08-6.88-5.25-8-5.22-1.45-9.68,1.7-11.58,8.54l-.11.37c-1.9,6.85.14,11.7,5.6,13.21,4.12,1.14,7.57-.14,9.35-4.23l7.35,2c-3.1,8-10.15,10.54-18.29,8.28C495,662.15,491.05,653.89,493.87,643.71Z"/><path class="cls-3" d="M534.83,637l8.69,2.42,6.54,25.28,6-21.79,6.66,1.85-9.18,33.07-7.49-2.08-7.25-27.37L532.31,672l-6.66-1.85Z"/><path class="cls-3" d="M570.07,646.83l7.54,2.09L568.43,682l-7.54-2.09Z"/><path class="cls-3" d="M578.56,667.22l.1-.37c2.78-10,11.72-14.94,21.1-12.33,8,2.21,12.8,7.74,11.33,16.1l-7.68-2.14c.55-4.13-1.08-6.87-5.24-8-5.23-1.45-9.69,1.7-11.59,8.54l-.1.37c-1.9,6.85.14,11.7,5.6,13.22,4.11,1.14,7.56-.15,9.34-4.23l7.36,2c-3.11,8-10.15,10.53-18.29,8.27C579.67,685.66,575.73,677.39,578.56,667.22Z"/><path class="cls-3" d="M610.63,689.87a4.37,4.37,0,1,1,3.1,5.14A4.25,4.25,0,0,1,610.63,689.87Zm8.7-29.37,7.49,2.08-7.33,22.47L614,683.54Z"/><path class="cls-3" d="M454.44,674.51,462,676.6l-9.18,33.08-7.54-2.1Z"/><path class="cls-3" d="M469.29,678.63,478,681l6.54,25.28,6-21.78,6.66,1.84L488,719.46l-7.49-2.08L473.3,690l-6.53,23.54-6.66-1.85Z"/><path class="cls-3" d="M519.47,698.84l-8.93-2.48,1.62-5.83,25.39,7.05-1.61,5.83L527,700.93l-7.56,27.24-7.54-2.09Z"/><path class="cls-3" d="M542.22,698.87l7.5,2.08L546,714.46l13.27,3.69L563,704.64l7.5,2.08-9.18,33.07-7.5-2.08,3.79-13.65-13.28-3.68L540.54,734,533,732Z"/><path class="cls-3" d="M577.56,708.68l21.55,6-1.61,5.83-14.11-3.91-2.15,7.72,11.29,3.13L591,732.89l-11.29-3.13L577.44,738l14.85,4.12-1.62,5.83-22.29-6.19Z"/><path class="cls-3" d="M410.52,740.13l.1-.37c2.76-9.94,11.77-14.92,21.53-12.21,7.35,2,13,7.24,11.5,15.65l-7.45-2.07c.43-4.06-1.63-6.53-5.6-7.63-5.74-1.59-10.31,1.77-12.18,8.52l-.11.37c-1.77,6.39-.31,11.72,6.16,13.52,5.56,1.54,8.71-1,9.9-4.77l-7.45-2.07,1.52-5.46,14.84,4.12-1,3.52c-2.45,8.83-9.73,13.14-19.63,10.39C411.86,758.64,407.8,749.94,410.52,740.13Z"/><path class="cls-3" d="M459.39,735.66l9.76,2.71,1.55,36-7.82-2.17-.22-8-12-3.33-4.3,6.73-7-1.95Zm-5.62,20.41,8.74,2.43-.38-15.5Z"/><path class="cls-3" d="M484.41,742.6l11.84,3.29c7.81,2.17,11.88,6.74,10,13.58l-.05.19c-1.39,5-5,6.82-9.24,6.9l4.84,16.49-8-2.21-4.36-15-3.24-.9-3.55,12.76-7.44-2.06Zm7.43,18.46c3.74,1,6.08,0,7-3.2l.06-.18c.93-3.38-.78-5.1-4.39-6.1l-4.21-1.17-2.63,9.48Z"/><path class="cls-3" d="M515.49,751.23l10.82,3c11.61,3.23,15.6,11.11,12.85,21l-.1.37c-2.75,9.9-10.37,14.91-22,11.69l-10.77-3Zm3,30.17c6.66,1.85,10.85-1,12.75-7.87l.1-.37c1.89-6.8,0-11.26-7-13.2l-3-.82-5.94,21.41Z"/><path class="cls-3" d="M549.06,760.55l21.56,6L569,772.36l-14.11-3.91-2.14,7.72L564,779.3l-1.52,5.46-11.28-3.13L549,789.86,563.8,794l-1.62,5.83-22.29-6.19Z"/><path class="cls-3" d="M576.58,768.19l8.7,2.41,6.53,25.28,6.05-21.79,6.66,1.85L595.34,809l-7.49-2.08-7.25-27.38-6.53,23.55-6.67-1.85Z"/><rect class="cls-1" x="127.11" y="1222" width="288" height="432" transform="translate(-429.88 153.49) rotate(-17.95)"/><path class="cls-1" d="M86.17,1290.59l-5.61-5,2.72-.87,3.55,3.45.82-4.87,2.39-.77-1.39,7.29,1.52,4.69-2.48.81Z"/><path class="cls-1" d="M94.43,1281.06l3.22-1,7.06,9.75-2.58.83-1.53-2.18-3.94,1.28,0,2.66-2.31.75Zm2.19,6.71,2.88-.93-3-4.24Z"/><path class="cls-1" d="M104.19,1277.9l2.47-.8,2.9,9,4.43-1.44.62,1.94-6.9,2.23Z"/><path class="cls-1" d="M114.23,1274.65l7.1-2.3.62,1.92-4.64,1.5.82,2.55,3.72-1.21.58,1.8-3.72,1.2.88,2.71,4.89-1.58.62,1.92-7.34,2.38Z"/><path class="cls-1" d="M89.51,1310.17l-2.15-6.64,2.49-.8,2.1,6.49c.58,1.81,1.37,2.43,2.87,1.94s1.87-1.38,1.22-3.37l-2.07-6.4,2.48-.8,2.12,6.55c1,3-.19,5-3.13,6S90.45,1313.07,89.51,1310.17Z"/><path class="cls-1" d="M100.23,1299.37l2.86-.93,6.46,5.83-2.32-7.17,2.19-.71,3.53,10.89-2.47.8-7-6.29,2.52,7.76-2.2.71Z"/><path class="cls-1" d="M113.35,1295.12l2.48-.81,3.53,10.89-2.49.81Z"/><path class="cls-1" d="M118.87,1293.33l2.61-.84,5.29,7.52-.12-9.2,2.32-.75-.1,12.06L126,1303Z"/><path class="cls-1" d="M132,1289.09l7.09-2.29.62,1.92-4.64,1.5.82,2.54,3.72-1.2.58,1.8-3.71,1.2.87,2.71,4.89-1.58.62,1.92-7.34,2.37Z"/><path class="cls-1" d="M142.53,1285.67l3.89-1.26c2.58-.84,4.55-.31,5.28,1.94l0,.06a3,3,0,0,1-1.3,3.62l4.37,3.7-2.62.84-4-3.36-1.07.35,1.36,4.2-2.45.8Zm5.46,3.77c1.23-.4,1.69-1.12,1.35-2.17l0-.07c-.36-1.11-1.16-1.27-2.35-.89l-1.38.45,1,3.12Z"/><path class="cls-1" d="M155.86,1289.61l2.36-.76c.42.94,1.1,1.61,2.71,1.09,1.08-.35,1.6-1.18,1.33-2s-.84-1-2.52-.75c-2.9.54-4.31.07-5-2-.61-1.86.5-3.75,2.9-4.53s4.24-.16,5.14,1.94l-2.27.73a1.66,1.66,0,0,0-2.28-.86c-1.08.35-1.47,1-1.23,1.76s.72,1,2.47.73c2.75-.51,4.34-.24,5.07,2,.62,1.93-.46,4-3,4.81C158.53,1292.7,156.7,1291.74,155.86,1289.61Z"/><path class="cls-1" d="M165.45,1278.24l2.48-.8,3.53,10.89-2.48.8Z"/><path class="cls-1" d="M174.61,1277.4l-2.94.95-.62-1.92,8.36-2.71.62,1.92-2.94.95,2.91,9-2.48.81Z"/><path class="cls-1" d="M187.25,1278l-5.61-5,2.72-.88,3.56,3.46.81-4.87,2.39-.78-1.39,7.3,1.52,4.69-2.48.8Z"/><path class="cls-1" d="M96.1,1320.89l3.21-1,7.06,9.74-2.58.83-1.53-2.18-3.94,1.28,0,2.66-2.32.75Zm2.19,6.71,2.87-.93-3-4.25Z"/><path class="cls-1" d="M105.85,1317.73l3.9-1.26c2.57-.84,4.54-.32,5.27,1.94l0,.06a3,3,0,0,1-1.3,3.62l4.38,3.69-2.62.85-4-3.36-1.07.35,1.36,4.2-2.45.8Zm5.46,3.76c1.24-.39,1.69-1.11,1.35-2.17l0-.06c-.36-1.11-1.15-1.27-2.34-.89l-1.38.45,1,3.12Z"/><path class="cls-1" d="M120.13,1315.22l-2.94,1-.62-1.92,8.36-2.71.62,1.92-2.94,1,2.91,9-2.49.8Z"/><path class="cls-1" d="M100.51,1345.73l0-.12a5.61,5.61,0,0,1,3.74-7.35c2.42-.79,5-.38,6.08,2.23l-2.46.8a2.21,2.21,0,0,0-3-1.1c-1.89.62-2.54,2.39-1.82,4.62l0,.12c.68,2.1,2.07,3.32,4.2,2.63a2.43,2.43,0,0,0,1.88-3.15l-2.46.79-.58-1.8,4.89-1.58.37,1.16c1,2.91-.28,5.44-3.54,6.5A5.43,5.43,0,0,1,100.51,1345.73Z"/><path class="cls-1" d="M114.8,1335l3.21-1,7.06,9.75-2.57.83-1.53-2.18-4,1.28,0,2.66-2.31.75Zm2.19,6.71,2.88-.93-3-4.24Z"/><path class="cls-1" d="M124.55,1331.85l2.47-.8,2.9,9,4.43-1.44.63,1.94-6.9,2.23Z"/><path class="cls-1" d="M134.6,1328.6l2.47-.8,2.9,9,4.43-1.43.62,1.93-6.89,2.24Z"/><path class="cls-1" d="M144.65,1325.35l7.09-2.3.62,1.92-4.64,1.5.82,2.54,3.72-1.2.58,1.8-3.72,1.2.88,2.71,4.89-1.58.62,1.92-7.34,2.37Z"/><path class="cls-1" d="M155.23,1321.92l3.89-1.26c2.58-.84,4.55-.31,5.28,1.94l0,.06a3,3,0,0,1-1.31,3.62l4.38,3.7-2.62.84-4-3.36-1.07.35,1.36,4.2-2.45.8Zm5.45,3.77c1.24-.4,1.7-1.12,1.35-2.17v-.06c-.36-1.12-1.16-1.28-2.35-.9l-1.38.45,1,3.12Z"/><path class="cls-1" d="M171.15,1323.61l-5.61-5,2.72-.88,3.55,3.46.82-4.88,2.39-.77-1.39,7.3,1.52,4.69-2.48.8Z"/><path class="cls-3" d="M184,1419.32l12.22-4L214,1437.68l1.2-28.45,12-3.88,13.22,40.81-9.19,3-9.28-28.65-2,32.31-3,1-20.64-25,9.28,28.65-8.27,2.68Z"/><path class="cls-3" d="M236,1402.48l26.6-8.61,2.33,7.19-17.41,5.64,3.09,9.53,13.92-4.51,2.19,6.74-13.93,4.5,3.29,10.16,18.32-5.93,2.33,7.19-27.51,8.91Z"/><path class="cls-3" d="M270,1391.48l13.36-4.32c14.33-4.64,23.92.83,27.87,13l.15.46c4,12.21-.53,22.69-14.86,27.33l-13.3,4.3Zm23.9,29.41c8.22-2.67,10.61-8.55,7.87-17l-.15-.46c-2.71-8.39-7.77-11.74-16.39-8.94l-3.65,1.18,8.56,26.43Z"/><path class="cls-3" d="M311.62,1378l9.31-3,13.21,40.82-9.3,3Z"/><path class="cls-3" d="M335.58,1393.94l14.62-4.73,2.12,6.56-14.61,4.73Z"/><path class="cls-3" d="M216.49,1492.42l-11,3.57-2.33-7.19,31.34-10.15,2.32,7.19-11,3.57L236.69,1523l-9.31,3Z"/><path class="cls-3" d="M246.47,1474.77l12-3.9L285,1507.39l-9.65,3.12-5.74-8.17-14.78,4.79.14,10-8.67,2.81Zm8.21,25.15,10.79-3.49-11.08-15.9Z"/><path class="cls-3" d="M283.68,1470.67l-11,3.56-2.33-7.19,31.34-10.15,2.33,7.19-11,3.57,10.89,33.62-9.3,3Z"/><path class="cls-3" d="M307.43,1455l26.6-8.62,2.33,7.19L319,1459.24l3.09,9.53,13.93-4.51,2.18,6.74-13.93,4.51,3.29,10.16,18.32-5.94,2.33,7.2-27.51,8.91Z"/><path class="cls-3" d="M353.15,1480.33a5.37,5.37,0,1,1,6.71,3.38A5.26,5.26,0,0,1,353.15,1480.33Z"/><rect class="cls-1" x="194.3" y="58.05" width="288" height="432" transform="translate(-18.47 24.52) rotate(-4.04)"/><path class="cls-1" d="M194.2,86.51,190,80.28l2.85-.2,2.62,4.21,2-4.53,2.5-.18-3.1,6.75.35,4.92-2.6.18Z"/><path class="cls-1" d="M204.52,79.25l3.36-.24,4.51,11.16-2.69.19-1-2.48-4.13.29-.6,2.59-2.43.17Zm.51,7,3-.21-1.85-4.83Z"/><path class="cls-1" d="M214.74,78.53l2.59-.18.66,9.39,4.65-.33.14,2-7.23.51Z"/><path class="cls-1" d="M225.28,77.79l7.44-.53.14,2-4.87.35.19,2.66,3.89-.27.14,1.88-3.9.28.2,2.84,5.13-.36.14,2-7.7.54Z"/><path class="cls-1" d="M192.74,106.33l-.49-7,2.61-.19.48,6.8c.13,1.9.75,2.7,2.31,2.59s2.15-.89,2-3l-.48-6.7,2.6-.19.49,6.87c.22,3.11-1.41,4.85-4.49,5.07S193,109.36,192.74,106.33Z"/><path class="cls-1" d="M205.74,98.41l3-.21,4.87,7.22-.53-7.52,2.3-.17.81,11.42-2.59.18-5.33-7.79.57,8.13-2.3.16Z"/><path class="cls-1" d="M219.5,97.44l2.6-.18.81,11.41-2.61.19Z"/><path class="cls-1" d="M225.29,97l2.73-.19,3.33,8.57,2.1-9,2.43-.17-3,11.68-3,.21Z"/><path class="cls-1" d="M239,96.06l7.44-.52.14,2-4.87.35.19,2.66,3.9-.27.13,1.88-3.9.28.2,2.84,5.13-.36.14,2-7.69.54Z"/><path class="cls-1" d="M250.09,95.28l4.09-.29c2.7-.19,4.48.79,4.65,3.16v.06a3,3,0,0,1-2.14,3.2l3.36,4.64-2.74.19-3-4.21-1.11.08.31,4.41-2.57.18Zm4.4,5c1.29-.09,1.91-.68,1.83-1.78V98.4c-.08-1.16-.81-1.51-2.06-1.42l-1.45.1.23,3.27Z"/><path class="cls-1" d="M262.09,102.31l2.47-.17c.19,1,.68,1.83,2.37,1.71,1.13-.08,1.84-.76,1.78-1.65s-.57-1.2-2.26-1.33c-2.95-.18-4.21-1-4.37-3.18-.13-2,1.39-3.51,3.91-3.69s4.16.86,4.52,3.11l-2.37.17a1.66,1.66,0,0,0-2-1.38c-1.14.08-1.67.65-1.62,1.41s.45,1.17,2.23,1.3c2.78.16,4.26.81,4.43,3.17.14,2-1.41,3.76-4.11,4C263.93,106,262.39,104.59,262.09,102.31Z"/><path class="cls-1" d="M274.13,93.58l2.6-.18.81,11.42-2.61.18Z"/><path class="cls-1" d="M283.22,95l-3.08.22-.14-2,8.77-.62.14,2-3.08.22.66,9.4-2.6.19Z"/><path class="cls-1" d="M295.34,98.62l-4.23-6.24,2.84-.2,2.63,4.21,1.95-4.53,2.51-.18-3.1,6.75.35,4.92-2.61.18Z"/><path class="cls-1" d="M196.56,118.31l3.37-.24,4.51,11.16-2.7.19-1-2.49-4.14.3-.6,2.59-2.43.17Zm.51,7,3-.21-1.85-4.83Z"/><path class="cls-1" d="M206.79,117.59l4.09-.29c2.69-.19,4.48.79,4.65,3.15v.07a3,3,0,0,1-2.13,3.2l3.36,4.64-2.75.19-3-4.21-1.12.08.32,4.4-2.58.18Zm4.39,5c1.3-.09,1.91-.68,1.83-1.79v-.06c-.08-1.16-.81-1.51-2.06-1.43l-1.45.11.23,3.27Z"/><path class="cls-1" d="M221.25,118.59l-3.08.22-.15-2,8.77-.61.14,2-3.08.22.66,9.4-2.6.18Z"/><path class="cls-1" d="M194.87,143.49v-.13a5.62,5.62,0,0,1,5.4-6.24c2.54-.18,4.89.83,5.36,3.63l-2.57.18a2.21,2.21,0,0,0-2.61-1.77c-2,.14-3,1.71-2.88,4v.13c.16,2.2,1.21,3.72,3.45,3.56a2.42,2.42,0,0,0,2.57-2.61l-2.57.18-.13-1.88,5.12-.36.09,1.21c.21,3-1.59,5.22-5,5.46A5.43,5.43,0,0,1,194.87,143.49Z"/><path class="cls-1" d="M211.32,136.52l3.37-.24,4.51,11.15-2.7.19-1-2.48-4.14.29-.6,2.6-2.43.17Zm.51,7,3-.22L213,138.52Z"/><path class="cls-1" d="M221.55,135.79l2.58-.18.67,9.39,4.64-.33.15,2-7.24.51Z"/><path class="cls-1" d="M232.08,135.05l2.59-.18.66,9.39,4.65-.33.14,2-7.23.52Z"/><path class="cls-1" d="M242.61,134.31l7.45-.53.14,2-4.87.35.19,2.66,3.89-.27.14,1.88-3.9.28.2,2.84,5.13-.36.14,2-7.7.54Z"/><path class="cls-1" d="M253.71,133.52l4.08-.29c2.7-.19,4.49.79,4.66,3.16v.06a3,3,0,0,1-2.13,3.2l3.36,4.64-2.75.19-3-4.21-1.12.08.31,4.41-2.57.18Zm4.39,5c1.29-.09,1.91-.68,1.83-1.78v-.07c-.08-1.16-.81-1.51-2.06-1.42l-1.45.1.23,3.27Z"/><path class="cls-1" d="M268.75,139l-4.22-6.23,2.84-.2,2.62,4.21,2-4.54,2.51-.17-3.1,6.75.34,4.91-2.6.19Z"/><path class="cls-3" d="M215.72,245.59l-11.56.81-.53-7.54,32.86-2.32.53,7.54-11.55.82L228,280.15l-9.75.69Z"/><path class="cls-3" d="M242.54,236.11l27.88-2,.54,7.54L252.7,243l.71,10,14.6-1,.5,7.06-14.6,1,.75,10.65,19.21-1.35.53,7.54-28.84,2Z"/><path class="cls-3" d="M288.86,232.84l12.63-.89,16.9,41.81-10.11.72-3.61-9.31-15.5,1.09L286.91,276l-9.09.65Zm1.92,26.39,11.31-.8-6.93-18.1Z"/><path class="cls-3" d="M220.79,317.41l-11.55.81-.53-7.54,32.85-2.32.54,7.54-11.56.82L233,352l-9.75.69Z"/><path class="cls-3" d="M247.85,307.92l9.75-.69,3,42.79-9.76.69Z"/><path class="cls-3" d="M267.06,306.56l12.81-.9,11.87,25.92,8-27.33,12.57-.89,3,42.8-9.64.68-2.12-30-9.73,30.88-3.17.23-14-29.21,2.12,30.05-8.68.61Z"/><path class="cls-3" d="M321.58,302.71l27.89-2,.54,7.54-18.26,1.29.71,10,14.6-1,.5,7.06-14.6,1,.75,10.65,19.21-1.36.53,7.54-28.84,2Z"/><path class="cls-3" d="M225.86,389.23l-11.55.81-.53-7.54,32.86-2.32.53,7.54-11.55.82,2.49,35.25-9.76.69Z"/><path class="cls-3" d="M254.17,405.87l-1.85-26.09,9.76-.69,1.8,25.5c.5,7.12,2.82,10.08,8.68,9.67s8.07-3.34,7.51-11.18L278.3,378l9.75-.69L289.87,403c.82,11.67-5.27,18.18-16.82,19C261.8,422.78,255,417.25,254.17,405.87Z"/><path class="cls-3" d="M296.91,376.63l27.89-2,.53,7.54-18.25,1.29.7,10,14.61-1,.5,7.07-14.61,1L309,411.2l19.21-1.35.53,7.54-28.85,2Z"/><path class="cls-3" d="M331.9,403.69l9.28-.65c.69,3.8,2.53,6.86,8.87,6.41,4.25-.3,6.9-2.84,6.67-6.19s-2.13-4.48-8.48-5c-11.05-.67-15.77-3.64-16.36-11.9-.51-7.3,5.21-13.18,14.66-13.85,9.64-.68,15.57,3.23,16.95,11.68l-8.92.63c-.87-3.85-3.27-5.48-7.52-5.18s-6.27,2.42-6.06,5.3c.21,3.05,1.69,4.39,8.34,4.88,10.45.59,16,3,16.6,11.88.53,7.6-5.26,14.09-15.38,14.8C338.82,417.34,333.05,412.21,331.9,403.69Z"/><rect class="cls-1" x="392.2" y="1838.84" width="288" height="432" transform="translate(132.58 -30.1) rotate(3.67)"/><path class="cls-1" d="M418.56,1849.66l-3.36-6.74,2.85.18,2,4.53,2.55-4.23,2.51.16-4,6.27-.32,4.92-2.6-.17Z"/><path class="cls-1" d="M429.75,1843.85l3.37.22,3,11.66-2.7-.18-.61-2.59-4.14-.26-.95,2.49-2.43-.16Zm-.44,7.05,3,.19-1.18-5Z"/><path class="cls-1" d="M440,1844.51l2.59.16-.6,9.4,4.65.3-.13,2-7.24-.46Z"/><path class="cls-1" d="M450.52,1845.18l7.44.48-.12,2-4.88-.31-.17,2.67,3.9.25-.12,1.88-3.9-.25-.18,2.85,5.13.33-.13,2-7.7-.49Z"/><path class="cls-1" d="M414.45,1869.1l.45-7,2.6.17-.43,6.8c-.12,1.9.38,2.77,1.95,2.87s2.25-.59,2.38-2.69l.43-6.71,2.61.17-.44,6.87c-.2,3.12-2.05,4.62-5.13,4.42S414.26,1872.14,414.45,1869.1Z"/><path class="cls-1" d="M428.39,1863l3,.2,3.86,7.8.48-7.52,2.3.14-.73,11.42-2.59-.16-4.24-8.44-.52,8.13-2.3-.14Z"/><path class="cls-1" d="M442.16,1863.89l2.6.16-.73,11.43-2.61-.17Z"/><path class="cls-1" d="M448,1864.26l2.73.17,2.16,9,3.27-8.6,2.43.16L454,1876.12l-3-.19Z"/><path class="cls-1" d="M461.67,1865.14l7.44.48-.13,2-4.87-.31-.17,2.66,3.9.25-.12,1.89-3.9-.25-.18,2.84,5.12.33-.12,2-7.7-.49Z"/><path class="cls-1" d="M472.77,1865.85l4.08.26c2.7.18,4.34,1.39,4.19,3.75v.06a3,3,0,0,1-2.55,2.89l2.71,5-2.75-.18L476,1873.1l-1.12-.07-.29,4.41-2.57-.17Zm3.68,5.51c1.3.09,2-.41,2.06-1.52v-.06c.08-1.17-.6-1.61-1.85-1.69l-1.45-.09-.21,3.27Z"/><path class="cls-1" d="M483.71,1874.43l2.48.16c0,1,.42,1.9,2.11,2,1.14.07,1.93-.5,2-1.4s-.4-1.26-2.06-1.62c-2.89-.57-4-1.53-3.9-3.73.13-1.95,1.85-3.3,4.38-3.14s4,1.41,4.06,3.69l-2.38-.15a1.66,1.66,0,0,0-1.81-1.64c-1.13-.07-1.74.42-1.79,1.19s.29,1.22,2,1.59c2.74.52,4.12,1.37,4,3.73-.13,2-1.9,3.54-4.6,3.36C485.05,1878.28,483.71,1876.72,483.71,1874.43Z"/><path class="cls-1" d="M496.81,1867.39l2.61.17-.74,11.42-2.6-.17Z"/><path class="cls-1" d="M505.64,1870l-3.08-.2.13-2,8.77.56-.13,2-3.09-.19-.6,9.4-2.6-.16Z"/><path class="cls-1" d="M517.15,1875.22l-3.35-6.74,2.84.18,2,4.53,2.55-4.23,2.51.16-4,6.27-.32,4.92-2.6-.17Z"/><path class="cls-1" d="M416.63,1881.49l3.37.22,3,11.66-2.7-.18-.62-2.59-4.14-.26-.94,2.49-2.43-.16Zm-.44,7,3,.19-1.18-5Z"/><path class="cls-1" d="M426.86,1882.15l4.09.26c2.7.17,4.34,1.38,4.19,3.75v.06a3,3,0,0,1-2.54,2.89l2.71,5.05-2.75-.18-2.45-4.58-1.12-.08-.28,4.41-2.57-.16Zm3.69,5.51c1.29.08,2-.42,2.05-1.52v-.06c.07-1.17-.6-1.62-1.85-1.69l-1.45-.1-.21,3.28Z"/><path class="cls-1" d="M441.06,1885.08l-3.09-.2.13-2,8.77.56-.13,2-3.08-.2-.6,9.41-2.61-.16Z"/><path class="cls-1" d="M411.58,1906.21v-.13a5.6,5.6,0,0,1,6.18-5.45c2.54.16,4.74,1.47,4.83,4.32l-2.57-.17a2.22,2.22,0,0,0-2.36-2.11c-2-.12-3.24,1.29-3.39,3.62v.13c-.15,2.2.69,3.84,2.93,4,1.92.12,2.77-.93,2.9-2.24l-2.57-.16.12-1.89,5.13.33-.08,1.21c-.19,3-2.27,5-5.69,4.74C413.28,1912.16,411.36,1909.6,411.58,1906.21Z"/><path class="cls-1" d="M428.81,1901.51l3.37.22,3,11.66-2.7-.18-.62-2.59-4.14-.26-.95,2.49-2.43-.16Zm-.43,7,3,.19-1.18-5Z"/><path class="cls-1" d="M439.05,1902.17l2.58.16-.6,9.4,4.65.29-.13,2-7.24-.46Z"/><path class="cls-1" d="M449.58,1902.84l2.59.17-.6,9.39,4.65.3-.13,2-7.24-.47Z"/><path class="cls-1" d="M460.12,1903.52l7.44.48-.12,2-4.88-.31-.17,2.66,3.9.25-.12,1.89-3.9-.25-.18,2.84,5.13.33-.13,2-7.7-.49Z"/><path class="cls-1" d="M471.22,1904.23l4.09.26c2.7.17,4.34,1.39,4.18,3.75v.06a3,3,0,0,1-2.54,2.89l2.7,5-2.74-.18-2.45-4.58-1.12-.07-.28,4.41-2.57-.17Zm3.69,5.51c1.29.09,2-.42,2-1.52v-.06c.08-1.17-.6-1.61-1.84-1.69l-1.46-.09-.21,3.27Z"/><path class="cls-1" d="M485.4,1911.67l-3.36-6.75,2.85.19,2,4.52,2.55-4.23,2.51.16-4,6.27-.32,4.92-2.6-.16Z"/><path class="cls-3" d="M437.7,2003.85l27.48,1.76-.49,7.61-17.78-1.14-.72,11.31,14.07.91-.47,7.3-14.07-.9-1.07,16.58-9.7-.62Z"/><path class="cls-3" d="M471.65,2006l15.33,1c10.11.65,16.26,5.19,15.69,14l0,.24c-.41,6.47-4.4,9.64-9.53,10.82L503.27,2051l-10.3-.66-9.18-17.18-4.19-.27-1.06,16.53-9.64-.62Zm13.82,20.67c4.85.31,7.44-1.57,7.7-5.7l0-.24c.28-4.37-2.26-6-6.93-6.34l-5.45-.35-.79,12.28Z"/><path class="cls-3" d="M512.12,2008.62l9.76.63-2.74,42.81-9.76-.63Z"/><path class="cls-3" d="M531.34,2009.86l14,.89c15,1,21.93,9.59,21.1,22.4l0,.48c-.82,12.81-8.85,20.9-23.88,19.93l-13.95-.89Zm11.4,36.14c8.62.55,13-4,13.57-12.9l0-.48c.56-8.8-2.91-13.77-12-14.35l-3.83-.25-1.78,27.73Z"/><path class="cls-3" d="M583.14,2013.18l12.63.81,11.15,43.7L596.8,2057l-2.32-9.71-15.51-1-3.55,9.33-9.1-.58Zm-1.64,26.41,11.32.72-4.44-18.86Z"/><path class="cls-3" d="M619.48,2040l-12.57-25.28,10.66.69,7.63,17,9.55-15.86,9.4.6-14.91,23.51L628.05,2059l-9.76-.62Z"/><path class="cls-3" d="M434.2,2075.78l27.48,1.76-.49,7.6L443.41,2084l-.72,11.32,14.07.9-.47,7.31-14.07-.91-1.07,16.59-9.7-.62Z"/><path class="cls-3" d="M468.15,2078l9.7.62-2.26,35.21L493,2114.9l-.48,7.6-27.13-1.74Z"/><path class="cls-3" d="M501.92,2080.12l9.76.62-2.75,42.81-9.76-.62Z"/><path class="cls-3" d="M517.53,2102.88l0-.48c.84-13,10.51-21.27,22.66-20.49,10.3.66,17.64,6.18,18,16.79l-9.94-.64c-.38-5.2-3.08-8.13-8.47-8.48-6.77-.43-11.41,4.56-12,13.42l0,.48c-.57,8.86,3.17,14.27,10.23,14.73,5.33.34,9.22-2.12,10.35-7.58l9.52.61c-1.76,10.53-9.71,15.49-20.25,14.82C523.62,2125.16,516.69,2116.06,517.53,2102.88Z"/><path class="cls-3" d="M565.93,2084.22l9.7.62-1.19,18.45,16.16-17.55,10.3.66-18.25,19.22L599,2129.33l-11.32-.73-13.56-20.17-1.23,19.22-9.7-.62Z"/><path class="cls-3" d="M600.92,2116l9.29.59c.17,3.86,1.58,7.14,7.93,7.54,4.25.28,7.21-1.88,7.43-5.23s-1.5-4.73-7.73-6.09c-10.86-2.14-15.14-5.72-14.61-14,.47-7.31,6.92-12.36,16.38-11.76,9.64.62,15,5.29,15.23,13.85l-8.92-.58c-.35-3.93-2.51-5.87-6.76-6.14s-6.54,1.56-6.72,4.44c-.2,3,1.09,4.58,7.61,6,10.28,2,15.43,5.13,14.86,14-.49,7.61-7.11,13.26-17.22,12.61C606,2130.44,600.92,2124.58,600.92,2116Z"/><rect class="cls-1" x="123.2" y="822.76" width="288" height="432" transform="translate(-94.53 29.02) rotate(-5.28)"/><path class="cls-1" d="M119.07,854.39l-4.36-6.14,2.83-.26,2.72,4.15,1.86-4.58,2.5-.23-3,6.82.46,4.91-2.6.24Z"/><path class="cls-1" d="M129.22,846.91l3.36-.32,4.76,11.06-2.7.25-1-2.46-4.13.38-.55,2.6-2.42.23Zm.67,7,3-.28-2-4.78Z"/><path class="cls-1" d="M139.43,846l2.58-.24.87,9.37,4.64-.42.19,2-7.22.67Z"/><path class="cls-1" d="M150,845l7.42-.69.19,2-4.86.45.24,2.66,3.89-.36.18,1.88-3.89.36.26,2.84,5.12-.47.18,2-7.68.71Z"/><path class="cls-1" d="M118,874.23l-.64-7L120,867l.62,6.79c.18,1.9.81,2.68,2.38,2.53s2.13-.94,1.94-3l-.62-6.7,2.59-.24.64,6.85c.28,3.11-1.3,4.88-4.38,5.17S118.32,877.26,118,874.23Z"/><path class="cls-1" d="M130.86,866l3-.28,5,7.11-.7-7.51,2.3-.21,1,11.39-2.58.24-5.5-7.67.75,8.11-2.3.21Z"/><path class="cls-1" d="M144.59,864.77l2.6-.24,1.06,11.39-2.6.24Z"/><path class="cls-1" d="M150.38,864.23l2.72-.25,3.52,8.5,1.9-9,2.42-.23L158.2,875l-3,.27Z"/><path class="cls-1" d="M164.06,863l7.43-.69.19,2-4.87.45.25,2.66L171,867l.17,1.88-3.89.36.27,2.84,5.11-.48.19,2-7.68.71Z"/><path class="cls-1" d="M175.14,861.94l4.08-.38c2.69-.25,4.5.7,4.71,3.06v.06a3,3,0,0,1-2.06,3.24l3.46,4.57-2.74.25-3.14-4.14-1.11.1.41,4.4-2.57.24Zm4.5,4.87c1.29-.12,1.89-.72,1.79-1.82v-.06c-.1-1.17-.84-1.5-2.09-1.38l-1.45.13.31,3.27Z"/><path class="cls-1" d="M187.28,868.71l2.47-.23c.21,1,.72,1.82,2.41,1.66,1.13-.1,1.82-.8,1.74-1.69s-.6-1.18-2.29-1.28c-3-.11-4.23-.88-4.43-3.08-.18-1.94,1.31-3.54,3.83-3.78s4.17.77,4.58,3l-2.37.22a1.66,1.66,0,0,0-2-1.34c-1.13.1-1.66.68-1.58,1.45s.47,1.16,2.25,1.25c2.79.1,4.28.72,4.5,3.07.18,2-1.33,3.79-4,4C189.21,872.31,187.64,871,187.28,868.71Z"/><path class="cls-1" d="M199.13,859.72l2.6-.24,1.05,11.4-2.6.24Z"/><path class="cls-1" d="M208.25,860.9l-3.07.29-.19-2,8.75-.81.19,2-3.08.28.87,9.39-2.6.24Z"/><path class="cls-1" d="M220.44,864.29l-4.36-6.14,2.84-.26,2.71,4.15,1.86-4.57,2.5-.23-3,6.81.45,4.91-2.59.24Z"/><path class="cls-1" d="M122.12,886.13l3.36-.31,4.75,11-2.69.25-1-2.46-4.13.38-.54,2.61-2.43.22Zm.66,7,3-.27-2-4.79Z"/><path class="cls-1" d="M132.33,885.18l4.08-.37c2.69-.25,4.5.69,4.72,3.05v.06a3,3,0,0,1-2.06,3.25l3.46,4.56-2.74.26-3.13-4.15-1.12.1.41,4.4-2.57.24Zm4.5,4.88c1.29-.12,1.89-.73,1.79-1.83v-.06c-.1-1.16-.84-1.5-2.08-1.38l-1.45.13.3,3.27Z"/><path class="cls-1" d="M146.8,885.87l-3.07.28-.19-2,8.75-.81.19,2-3.08.29.87,9.39-2.6.24Z"/><path class="cls-1" d="M121,911.33v-.12a5.62,5.62,0,0,1,5.27-6.36c2.53-.23,4.9.72,5.43,3.52l-2.56.24a2.21,2.21,0,0,0-2.65-1.72c-2,.18-3,1.77-2.79,4.1v.13c.2,2.2,1.29,3.69,3.52,3.48,1.92-.18,2.59-1.35,2.52-2.66l-2.56.24L127,910.3l5.12-.48.11,1.21c.28,3.05-1.48,5.25-4.89,5.57C123.58,916.94,121.29,914.71,121,911.33Z"/><path class="cls-1" d="M137.27,904l3.36-.31,4.75,11-2.69.25-1-2.46-4.13.38-.54,2.61-2.42.22Zm.66,7,3-.28L139,906Z"/><path class="cls-1" d="M147.48,903.06l2.58-.24.87,9.38,4.64-.43.18,2-7.22.67Z"/><path class="cls-1" d="M158,902.09l2.58-.24.87,9.37,4.64-.43.19,2-7.22.67Z"/><path class="cls-1" d="M168.51,901.12l7.42-.69.19,2-4.86.45.25,2.66,3.89-.36.17,1.88-3.89.36.26,2.84,5.12-.47.18,2-7.68.71Z"/><path class="cls-1" d="M179.58,900.09l4.08-.37c2.69-.25,4.5.69,4.72,3v.06a3,3,0,0,1-2.07,3.25l3.46,4.56-2.74.26-3.13-4.15-1.12.1.41,4.4-2.57.24Zm4.5,4.88c1.29-.12,1.9-.73,1.79-1.83v-.06c-.11-1.16-.85-1.5-2.09-1.38l-1.45.13.3,3.27Z"/><path class="cls-1" d="M194.74,905.23l-4.36-6.14,2.84-.26,2.71,4.16,1.86-4.58,2.5-.23L197.34,905l.45,4.91-2.59.24Z"/><path class="cls-3" d="M146.3,1027l0-.47c-1.2-13,7.06-22.65,19.19-23.77,10.27-1,18.39,3.36,20.37,13.78l-9.91.92c-1.2-5.08-4.32-7.56-9.69-7.06-6.76.62-10.57,6.28-9.75,15.12l0,.48c.82,8.84,5.36,13.6,12.41,13,5.31-.49,8.77-3.52,9-9.09l9.5-.88c-.1,10.67-7.19,16.81-17.7,17.79C155.78,1048,147.52,1040.1,146.3,1027Z"/><path class="cls-3" d="M191.44,1001l9.74-.91,3.95,42.72-9.74.9Z"/><path class="cls-3" d="M210.62,999.19l11.23-1,18.85,26.64-2.6-28.14,8.6-.8,4,42.72-9.68.9-20.61-28.77,2.81,30.41-8.6.8Z"/><path class="cls-3" d="M255.9,995l27.84-2.57.7,7.53-18.22,1.68.92,10,14.58-1.35.65,7.05-14.58,1.35,1,10.63,19.17-1.77.7,7.53-28.8,2.66Z"/><path class="cls-3" d="M291.45,991.72l12.78-1.19,12.44,25.67,7.4-27.5,12.55-1.16,3.95,42.71-9.62.89-2.78-30-9.05,31.09-3.17.29-14.66-28.89,2.77,30-8.66.8Z"/><path class="cls-3" d="M356.57,985.69l12.61-1.16L387,1026l-10.1.93-3.8-9.22-15.48,1.43-2.05,9.77-9.08.84Zm2.5,26.34,11.29-1L363,993.05Z"/><path class="cls-3" d="M151.7,1106.53l9.26-.85c.77,3.78,2.68,6.8,9,6.21,4.24-.39,6.84-3,6.53-6.32s-2.22-4.44-8.58-4.81c-11.07-.43-15.85-3.3-16.62-11.54-.67-7.29,4.92-13.29,14.36-14.16,9.62-.89,15.63,2.89,17.19,11.3l-8.9.82c-.95-3.83-3.39-5.41-7.63-5s-6.21,2.57-5.95,5.43c.29,3.05,1.79,4.36,8.45,4.71,10.46.36,16,2.67,16.85,11.51.71,7.59-4.95,14.2-15,15.13C158.91,1120,153,1115,151.7,1106.53Z"/><path class="cls-3" d="M191.67,1099.52l-2.41-26,9.73-.91,2.36,25.45c.66,7.11,3,10,8.89,9.49s8-3.51,7.27-11.34l-2.32-25.09,9.73-.9,2.38,25.68c1.08,11.66-4.88,18.29-16.41,19.36C199.66,1116.26,192.72,1110.87,191.67,1099.52Z"/><path class="cls-3" d="M233.77,1069.36l11.23-1L263.85,1095l-2.6-28.14,8.6-.8,3.95,42.72-9.68.89-20.61-28.76,2.81,30.41-8.6.79Z"/><path class="cls-3" d="M279.05,1065.17l14-1.29c15-1.39,23.16,6,24.34,18.83l0,.48c1.19,12.79-5.49,22-20.49,23.41L283,1107.89Zm16.88,33.93c8.6-.8,12.22-6,11.4-14.85l-.05-.48c-.81-8.78-5-13.16-14-12.32l-3.82.35,2.56,27.66Z"/><path class="cls-3" d="M330.73,1060.39l12.61-1.17,17.81,41.44-10.1.93-3.8-9.23-15.48,1.43-2,9.77-9.08.84Zm2.5,26.34,11.29-1-7.32-17.94Z"/><path class="cls-3" d="M370.8,1081.21l-16.35-23,10.64-1,10.17,15.57,7-17.15,9.38-.87-11.07,25.55,1.7,18.4-9.74.9Z"/><rect class="cls-1" x="133.42" y="1721.57" width="288" height="432" transform="translate(-373.43 91.62) rotate(-11.27)"/><path class="cls-1" d="M110.85,1769.66l-5-5.65,2.79-.55,3.13,3.84,1.38-4.74,2.46-.49-2.23,7.08,1,4.84-2.56.51Z"/><path class="cls-1" d="M120.17,1761.16l3.31-.66,5.88,10.5-2.65.53-1.27-2.34-4.06.81-.27,2.65-2.39.47Zm1.4,6.92,3-.59-2.44-4.55Z"/><path class="cls-1" d="M130.23,1759.16l2.54-.51,1.84,9.23,4.57-.91.4,2-7.11,1.41Z"/><path class="cls-1" d="M140.58,1757.1l7.32-1.46.39,2-4.78,1,.52,2.62,3.83-.76.37,1.85-3.83.76.55,2.8,5-1,.4,2-7.57,1.51Z"/><path class="cls-1" d="M111.9,1789.51l-1.36-6.85,2.56-.51,1.33,6.69c.37,1.87,1.09,2.57,2.62,2.27s2-1.16,1.62-3.21l-1.32-6.6,2.56-.51,1.35,6.75c.61,3.07-.79,5-3.82,5.6S112.5,1792.49,111.9,1789.51Z"/><path class="cls-1" d="M123.8,1780l3-.59,5.74,6.54-1.47-7.39,2.26-.45,2.24,11.22-2.55.51-6.27-7.06,1.6,8-2.26.45Z"/><path class="cls-1" d="M137.32,1777.32l2.56-.51,2.24,11.23-2.56.51Z"/><path class="cls-1" d="M143,1776.19l2.68-.54,4.39,8.09.95-9.15,2.39-.48-1.5,12-2.92.58Z"/><path class="cls-1" d="M156.5,1773.5l7.31-1.46.4,2-4.79,1,.52,2.62,3.83-.77.37,1.86-3.83.76.56,2.79,5-1,.39,2-7.56,1.5Z"/><path class="cls-1" d="M167.4,1771.33l4-.8c2.66-.53,4.55.22,5,2.54l0,.06a3,3,0,0,1-1.72,3.44l3.92,4.19-2.7.53-3.55-3.79-1.09.21.86,4.34-2.53.5Zm5,4.37c1.27-.25,1.81-.91,1.59-2v-.06c-.23-1.14-1-1.4-2.22-1.15l-1.43.28L171,1776Z"/><path class="cls-1" d="M180.19,1776.79l2.43-.48c.31,1,.9,1.73,2.57,1.4,1.11-.23,1.73-1,1.55-1.86s-.71-1.12-2.41-1c-2.94.19-4.29-.43-4.73-2.6-.38-1.92.94-3.66,3.42-4.16s4.23.33,4.88,2.52l-2.34.47a1.66,1.66,0,0,0-2.17-1.12c-1.11.22-1.58.85-1.43,1.61s.6,1.1,2.38,1c2.78-.2,4.33.26,4.79,2.58.4,2-.92,3.91-3.57,4.44C182.48,1780.17,180.78,1779,180.19,1776.79Z"/><path class="cls-1" d="M191,1766.62l2.55-.51,2.24,11.22-2.56.51Z"/><path class="cls-1" d="M200.23,1766.84l-3,.6-.39-2,8.62-1.72.39,2-3,.6,1.84,9.25-2.55.51Z"/><path class="cls-1" d="M212.71,1768.94l-5-5.65,2.79-.56,3.14,3.85,1.37-4.75,2.46-.49-2.22,7.09,1,4.83-2.56.51Z"/><path class="cls-1" d="M117.2,1800.91l3.31-.66,5.88,10.5-2.65.53-1.27-2.34-4.07.81-.27,2.65-2.38.47Zm1.39,6.92,3-.59-2.44-4.55Z"/><path class="cls-1" d="M127.25,1798.91l4-.8c2.66-.53,4.55.22,5,2.54l0,.06a3,3,0,0,1-1.72,3.45l3.92,4.18-2.7.53-3.55-3.79-1.09.22.86,4.33-2.53.5Zm5,4.37c1.27-.25,1.81-.91,1.59-2v-.07c-.23-1.14-1-1.4-2.22-1.15l-1.43.28.64,3.22Z"/><path class="cls-1" d="M141.72,1798.08l-3,.6-.39-2,8.62-1.72.39,2-3,.6,1.85,9.25-2.56.51Z"/><path class="cls-1" d="M118.69,1826.1l0-.12a5.61,5.61,0,0,1,4.57-6.87c2.5-.5,5,.2,5.77,2.93l-2.52.5a2.22,2.22,0,0,0-2.82-1.43c-2,.39-2.8,2.08-2.34,4.37l0,.12c.43,2.17,1.67,3.54,3.87,3.1a2.42,2.42,0,0,0,2.23-2.91l-2.53.51-.37-1.86,5-1,.23,1.19c.6,3-.91,5.38-4.27,6C121.87,1831.41,119.36,1829.43,118.69,1826.1Z"/><path class="cls-1" d="M134.13,1817.12l3.31-.67,5.88,10.5-2.65.53-1.27-2.34-4.06.81-.27,2.65-2.39.47Zm1.4,6.91,3-.59-2.44-4.55Z"/><path class="cls-1" d="M144.19,1815.11l2.54-.51,1.84,9.23,4.57-.91.4,2-7.11,1.41Z"/><path class="cls-1" d="M154.54,1813.05l2.55-.51,1.84,9.23,4.57-.91.39,2-7.11,1.42Z"/><path class="cls-1" d="M164.9,1811l7.32-1.46.39,2-4.79,1,.52,2.62,3.84-.77.36,1.86-3.83.76.56,2.79,5-1,.39,2-7.56,1.51Z"/><path class="cls-1" d="M175.81,1808.81l4-.8c2.66-.53,4.55.22,5,2.54v.06a3,3,0,0,1-1.71,3.45l3.91,4.18-2.7.53-3.54-3.79-1.1.22.86,4.33-2.53.5Zm5,4.37c1.27-.25,1.81-.91,1.59-2v-.07c-.23-1.14-1-1.4-2.22-1.15l-1.43.28.64,3.22Z"/><path class="cls-1" d="M191.42,1812.34l-5-5.65,2.8-.56,3.13,3.85,1.37-4.75,2.47-.49-2.23,7.09,1,4.83-2.55.51Z"/><path class="cls-3" d="M151.44,1939.39l-.09-.47c-2.53-12.65,4.72-23.27,17.13-25.74,9.36-1.87,18.57.76,21.65,11l-9.48,1.88c-1.81-4.77-5.49-6.37-10.55-5.36-7.29,1.46-10.5,7.79-8.79,16.38l.1.47c1.61,8.12,6.25,13.25,14.49,11.61,7.06-1.41,9.13-6,8.35-10.9l-9.48,1.88-1.38-6.94,18.88-3.76.9,4.47c2.24,11.24-3.45,20.14-16,22.65C163.36,1959.29,153.93,1951.87,151.44,1939.39Z"/><path class="cls-3" d="M203.45,1906.88l12.41-2.48,22,39.35-10,2-4.74-8.78L208,1940l-1,9.93-8.94,1.79Zm5.23,25.94,11.12-2.22-9.16-17.08Z"/><path class="cls-3" d="M235.28,1900.53l15.06-3c10-2,17,.82,18.79,9.53l.05.24c1.26,6.35-1.78,10.45-6.43,12.9l14.69,15.67-10.12,2L254,1923.66l-4.12.82,3.24,16.24-9.47,1.89ZM254,1916.94c4.76-1,6.78-3.44,6-7.49l-.05-.24c-.86-4.3-3.74-5.25-8.33-4.34l-5.35,1.07,2.4,12.06Z"/><path class="cls-3" d="M274.82,1892.65l13.77-2.74c14.77-3,23.66,3.6,26.17,16.19l.09.47c2.51,12.59-3.16,22.48-17.93,25.42l-13.71,2.73Zm20.33,32c8.47-1.68,11.52-7.25,9.78-16l-.09-.47c-1.72-8.65-6.36-12.56-15.24-10.79l-3.77.76,5.43,27.24Z"/><path class="cls-3" d="M317.54,1884.14l27.42-5.47,1.48,7.41-17.95,3.58,2,9.83,14.36-2.86,1.38,6.94-14.35,2.86,2.08,10.47,18.89-3.76,1.48,7.41-28.36,5.66Z"/><path class="cls-3" d="M352.55,1877.16l11.06-2.21,21.53,24.53-5.52-27.72,8.47-1.69,8.39,42.07L387,1914l-23.51-26.45,6,30-8.47,1.69Z"/><path class="cls-3" d="M214.4,1978.11l14.54-2.9c10.23-2,17,1.33,18.73,10.22l.05.23c1.77,8.89-3.56,14.36-13.15,16.27l-5.36,1.07,3,15.29-9.47,1.89Zm18.31,17.27c4.65-.92,6.68-3.65,5.84-7.83l0-.23c-.89-4.48-3.84-5.72-8.37-4.82l-4.82,1,2.57,12.89Z"/><path class="cls-3" d="M251.24,1970.77l9.53-1.9,6.9,34.6,17.12-3.42,1.49,7.48-26.66,5.31Z"/><path class="cls-3" d="M295,1962l12.41-2.47,22,39.35-10,2-4.74-8.78-15.24,3-1,9.93-8.95,1.78Zm5.23,25.94,11.12-2.22-9.16-17.08Z"/><path class="cls-3" d="M337,1978.57l-18.66-21.18,10.47-2.09,11.75,14.42,5.14-17.79,9.24-1.84-8.35,26.56,3.61,18.13-9.59,1.91Z"/><rect class="cls-1" x="71.37" y="539.7" width="288" height="432" transform="translate(-94.5 33.59) rotate(-7.32)"/><path class="cls-1" d="M60.78,576.71l-4.58-6,2.83-.37,2.86,4.06,1.7-4.64,2.49-.32-2.71,6.91.63,4.89-2.59.34Z"/><path class="cls-1" d="M70.66,568.87l3.35-.43,5.14,10.88-2.68.34-1.1-2.42-4.11.53-.46,2.62-2.41.31Zm.92,7,3-.39-2.12-4.71Z"/><path class="cls-1" d="M80.83,567.56l2.58-.33,1.2,9.34,4.62-.59.25,2-7.19.93Z"/><path class="cls-1" d="M91.31,566.22l7.4-1,.25,2-4.84.62.34,2.65,3.88-.5.24,1.88-3.88.5.37,2.82,5.09-.65.26,2-7.65,1Z"/><path class="cls-1" d="M60.46,596.57l-.89-6.92,2.59-.33.87,6.76c.24,1.89.9,2.65,2.46,2.45s2.1-1,1.83-3.09l-.86-6.67,2.59-.34.88,6.83c.39,3.1-1.13,4.92-4.19,5.32S60.85,599.59,60.46,596.57Z"/><path class="cls-1" d="M73,587.93l3-.38,5.27,6.92-1-7.48,2.29-.29L84,598.05l-2.57.33-5.77-7.47,1,8.08-2.29.29Z"/><path class="cls-1" d="M86.66,586.17l2.59-.33,1.46,11.35-2.59.34Z"/><path class="cls-1" d="M92.42,585.43l2.72-.35L99,593.45l1.58-9.06,2.42-.31-2.32,11.84-3,.38Z"/><path class="cls-1" d="M106.05,583.68l7.4-.95.26,2-4.84.63.34,2.65,3.87-.5.24,1.87-3.87.5.36,2.83,5.1-.66.25,2-7.65,1Z"/><path class="cls-1" d="M117.08,582.27l4.07-.53c2.68-.34,4.52.54,4.82,2.89v.06a3,3,0,0,1-2,3.32l3.62,4.44-2.73.35-3.27-4-1.12.14.57,4.38-2.56.33Zm4.67,4.71c1.29-.17,1.87-.79,1.73-1.89V585c-.15-1.16-.9-1.47-2.13-1.31l-1.45.19.42,3.25Z"/><path class="cls-1" d="M129.46,588.6l2.46-.32c.24,1,.78,1.79,2.46,1.58,1.13-.15,1.8-.86,1.68-1.75s-.63-1.16-2.33-1.2c-2.95,0-4.26-.73-4.54-2.92-.25-1.94,1.19-3.59,3.7-3.91s4.19.62,4.69,2.85l-2.37.3a1.65,1.65,0,0,0-2.08-1.26c-1.13.14-1.63.74-1.54,1.5s.52,1.14,2.3,1.17c2.79,0,4.3.56,4.6,2.91.26,2-1.18,3.84-3.87,4.18C131.51,592.13,129.9,590.85,129.46,588.6Z"/><path class="cls-1" d="M141,579.2l2.59-.34L145,590.22l-2.59.33Z"/><path class="cls-1" d="M150.14,580.05l-3.06.4-.26-2,8.72-1.12.25,2-3.06.39,1.2,9.35-2.59.34Z"/><path class="cls-1" d="M162.44,583l-4.57-6,2.82-.36,2.86,4.05,1.7-4.64,2.49-.32L165,582.68l.63,4.89-2.59.33Z"/><path class="cls-1" d="M65,608.32l3.35-.43,5.15,10.88-2.69.34-1.1-2.42-4.11.53-.46,2.62-2.41.31Zm.92,7,3-.39-2.12-4.71Z"/><path class="cls-1" d="M75.13,607l4.06-.52c2.68-.34,4.52.53,4.82,2.88v.07a3,3,0,0,1-1.94,3.31l3.62,4.44-2.73.35-3.28-4-1.11.14.56,4.39-2.56.32Zm4.67,4.71c1.28-.16,1.86-.79,1.72-1.88v-.07c-.15-1.15-.9-1.46-2.14-1.3l-1.45.18.42,3.26Z"/><path class="cls-1" d="M89.62,607.19l-3.07.39-.25-2L95,604.46l.26,2-3.06.39,1.2,9.35-2.59.34Z"/><path class="cls-1" d="M64.71,633.55l0-.13a5.61,5.61,0,0,1,5-6.53c2.52-.33,4.92.54,5.56,3.32l-2.56.32A2.22,2.22,0,0,0,70,628.91c-2,.26-2.94,1.88-2.64,4.2l0,.13c.28,2.19,1.42,3.64,3.64,3.35a2.41,2.41,0,0,0,2.42-2.74l-2.56.32-.24-1.87,5.1-.65.16,1.2c.38,3-1.29,5.3-4.69,5.74A5.43,5.43,0,0,1,64.71,633.55Z"/><path class="cls-1" d="M80.73,625.65l3.35-.43,5.14,10.88-2.68.34L85.44,634l-4.12.53-.45,2.62-2.41.31Zm.92,7,3-.39-2.13-4.71Z"/><path class="cls-1" d="M90.9,624.34l2.57-.33,1.2,9.34,4.62-.59.26,2-7.19.93Z"/><path class="cls-1" d="M101.38,623l2.57-.33,1.2,9.33,4.62-.59.25,2-7.19.92Z"/><path class="cls-1" d="M111.85,621.65l7.4-.95.25,2-4.84.63L115,626l3.88-.5.24,1.87-3.88.5.37,2.83,5.09-.66.26,2-7.65,1Z"/><path class="cls-1" d="M122.88,620.24l4.06-.52c2.69-.35,4.53.53,4.83,2.88v.06a3,3,0,0,1-1.95,3.32l3.62,4.44-2.73.35-3.28-4-1.11.14.56,4.38-2.55.33Zm4.67,4.71c1.29-.17,1.87-.79,1.73-1.89V623c-.15-1.16-.9-1.47-2.14-1.31l-1.44.19.42,3.25Z"/><path class="cls-1" d="M138.21,624.84l-4.57-6,2.82-.37,2.86,4.06,1.7-4.64,2.49-.32-2.71,6.91.63,4.89-2.59.34Z"/><path class="cls-1" d="M93.18,750.1l-.05-.44c-1.51-11.72,5.78-21,17.29-22.45,8.68-1.12,16.93,1.87,19.1,11.4l-8.78,1.13c-1.35-4.48-4.62-6.17-9.31-5.57-6.76.87-10.09,6.46-9.07,14.42l0,.44c1,7.52,4.88,12.51,12.52,11.53,6.54-.84,8.73-4.95,8.32-9.44l-8.78,1.13-.83-6.44,17.51-2.25.54,4.15c1.33,10.41-4.43,18.2-16.1,19.7C102.82,769,94.67,761.66,93.18,750.1Z"/><path class="cls-1" d="M145.52,723.31,157,721.83,174.7,759.2l-9.22,1.19-3.79-8.33-14.13,1.81-1.55,9-8.3,1.06Zm3.15,24.05L159,746l-7.29-16.19Z"/><path class="cls-1" d="M177.76,719.17l14-1.8c9.22-1.18,15.54,1.83,16.57,9.91l0,.22c.76,5.89-2.28,9.44-6.69,11.39l12.44,15.26-9.38,1.2-11.26-13.86-3.82.49L191.56,757l-8.79,1.13Zm16.05,16.18c4.42-.57,6.42-2.71,5.94-6.48l0-.21c-.51-4-3.09-5-7.34-4.49l-5,.63L188.85,736Z"/><path class="cls-1" d="M217.15,714.11l12.76-1.64c13.7-1.76,21.41,4.79,22.91,16.46l.06.44c1.5,11.67-4.32,20.35-18,22.11l-12.71,1.63Zm16.56,30.53c7.86-1,11-5.9,10-14l0-.43c-1-8-5-11.89-13.26-10.83l-3.49.45,3.24,25.25Z"/><path class="cls-1" d="M259.48,708.67l25.42-3.26.88,6.87-16.63,2.14,1.17,9.11,13.31-1.71.82,6.43L271.14,730l1.25,9.71,17.51-2.25.88,6.88-26.29,3.37Z"/><path class="cls-1" d="M294.67,704.15l10.25-1.31,18.14,23.78-3.3-25.69,7.85-1,5,39-8.83,1.14L304,714.38l3.56,27.77-7.85,1Z"/><path class="cls-1" d="M152.64,811.5,136.91,791l9.71-1.25,9.83,13.93,5.83-15.94,8.56-1.1-9.31,23.76,2.15,16.8-8.89,1.14Z"/><path class="cls-1" d="M176,806l-.06-.44c-1.49-11.62,6-21,17.52-22.43,11.73-1.51,21.09,5.33,22.6,17.06l.05.43c1.5,11.62-5.38,21.1-17.55,22.66S177.46,817.41,176,806Zm30.91-4.08-.06-.44c-1-7.58-5.67-12.24-12.49-11.37s-10.22,6.36-9.21,14.21l.06.44c1,8,6.23,12.28,12.61,11.46C204.42,815.39,207.92,809.78,206.91,801.93Z"/><path class="cls-1" d="M223.24,799.94l-.06-.44c-1.5-11.72,5.79-21,17.3-22.45,8.67-1.12,16.93,1.87,19.1,11.4l-8.78,1.13c-1.36-4.48-4.62-6.17-9.31-5.57-6.77.87-10.1,6.46-9.07,14.42l.05.44c1,7.52,4.88,12.51,12.52,11.53,6.54-.84,8.73-4.95,8.32-9.44l-8.78,1.13-.83-6.44,17.51-2.25.53,4.15c1.34,10.41-4.42,18.2-16.1,19.7C232.88,818.88,224.72,811.5,223.24,799.94Z"/><path class="cls-1" d="M275.58,773.15l11.51-1.48L304.75,809l-9.22,1.19-3.78-8.33-14.13,1.81-1.56,9-8.29,1.06Zm3.15,24.05,10.3-1.33-7.29-16.19Z"/><rect class="cls-1" x="360.56" y="126.45" width="288" height="432" transform="translate(95.71 -109.99) rotate(13.73)"/><path class="cls-1" d="M424.58,119.87l-2.12-7.22,2.77.67,1.21,4.81,3.25-3.72,2.44.6-5,5.48L426,125.28l-2.54-.62Z"/><path class="cls-1" d="M436.62,116.11l3.28.8.89,12-2.63-.64-.15-2.66-4-1-1.37,2.29-2.36-.58ZM435,123l2.94.72-.29-5.17Z"/><path class="cls-1" d="M446.58,118.54l2.52.62-2.23,9.14,4.52,1.11-.48,2-7.05-1.72Z"/><path class="cls-1" d="M456.84,121.05l7.25,1.77-.48,2-4.75-1.16-.63,2.6,3.79.92-.44,1.84-3.8-.93-.68,2.77,5,1.22-.48,2-7.5-1.83Z"/><path class="cls-1" d="M417.15,138.3l1.65-6.78,2.54.62-1.62,6.62c-.45,1.85-.11,2.79,1.42,3.17s2.32-.19,2.82-2.23l1.59-6.53,2.54.62-1.64,6.68c-.74,3-2.82,4.19-5.82,3.46S416.43,141.25,417.15,138.3Z"/><path class="cls-1" d="M431.94,134.73l2.92.71,2.44,8.36,1.79-7.32,2.24.54-2.72,11.12-2.52-.62-2.7-9-1.93,7.91-2.24-.54Z"/><path class="cls-1" d="M445.33,138l2.54.62-2.72,11.12-2.53-.62Z"/><path class="cls-1" d="M451,139.38l2.66.65.55,9.18,4.73-7.89,2.37.58-6.42,10.21-2.89-.7Z"/><path class="cls-1" d="M464.33,142.64l7.24,1.77-.48,2-4.74-1.16-.63,2.6,3.79.93-.45,1.83-3.79-.92-.68,2.76,5,1.22-.47,2-7.5-1.83Z"/><path class="cls-1" d="M475.13,145.28l4,1c2.63.65,4,2.13,3.47,4.43l0,.06a3,3,0,0,1-3,2.4l1.79,5.44-2.68-.65L477.05,153l-1.08-.27L474.92,157l-2.51-.61Zm2.67,6.08c1.26.3,2-.07,2.29-1.14v-.06c.28-1.14-.31-1.7-1.52-2l-1.42-.35-.78,3.19Z"/><path class="cls-1" d="M484.41,155.64l2.41.59c-.14,1,.08,2,1.73,2.35a1.65,1.65,0,0,0,2.2-1c.21-.88-.18-1.31-1.75-2-2.75-1.07-3.71-2.21-3.19-4.35.47-1.9,2.4-2.93,4.85-2.33s3.7,2.09,3.36,4.35l-2.32-.57a1.66,1.66,0,0,0-1.49-1.93c-1.1-.27-1.79.11-2,.86s.07,1.25,1.72,1.92c2.61,1,3.82,2.07,3.25,4.37-.48,2-2.48,3.15-5.11,2.51C485.05,159.67,484,157.9,484.41,155.64Z"/><path class="cls-1" d="M498.54,151l2.53.62-2.72,11.12-2.53-.62Z"/><path class="cls-1" d="M506.78,155.09l-3-.73.48-2,8.53,2.09-.48,2-3-.74-2.24,9.16-2.53-.62Z"/><path class="cls-1" d="M517.2,162.27,515.07,155l2.77.68,1.22,4.81,3.24-3.72,2.45.6-5,5.48-1.17,4.79-2.53-.62Z"/><path class="cls-1" d="M417.12,150.87l3.28.8.89,12-2.62-.64-.16-2.66-4-1-1.36,2.29-2.37-.58Zm-1.66,6.86,2.94.72-.29-5.16Z"/><path class="cls-1" d="M427.08,153.31l4,1c2.63.64,4,2.12,3.47,4.42v.06a3,3,0,0,1-3,2.4l1.78,5.45-2.67-.66L429,161l-1.09-.27-1.05,4.3-2.5-.62Zm2.67,6.07c1.26.31,2-.06,2.29-1.14l0-.06c.27-1.13-.32-1.69-1.53-2l-1.41-.34-.78,3.18Z"/><path class="cls-1" d="M440.55,158.67l-3-.73.48-2,8.53,2.09-.48,2-3-.74-2.24,9.16-2.53-.62Z"/><path class="cls-1" d="M407.83,174.33l0-.12a5.6,5.6,0,0,1,7.05-4.29c2.47.6,4.4,2.27,4,5.09l-2.5-.61a2.22,2.22,0,0,0-1.95-2.49c-1.93-.47-3.41.7-4,3l0,.12c-.52,2.15,0,3.91,2.2,4.45,1.86.45,2.89-.43,3.24-1.7l-2.5-.61.45-1.83,5,1.22-.29,1.18c-.73,3-3.1,4.48-6.43,3.66C408.47,180.49,407,177.63,407.83,174.33Z"/><path class="cls-1" d="M425.62,172.71l3.28.81.89,12-2.63-.64-.15-2.66-4-1-1.37,2.29-2.36-.58ZM424,179.57l2.94.72-.29-5.16Z"/><path class="cls-1" d="M435.58,175.15l2.52.61-2.23,9.15,4.52,1.1-.48,2-7-1.72Z"/><path class="cls-1" d="M445.84,177.66l2.52.61-2.24,9.14,4.53,1.11-.48,2-7.05-1.72Z"/><path class="cls-1" d="M456.1,180.16l7.24,1.77-.47,2-4.75-1.16-.63,2.6,3.79.93-.45,1.83-3.79-.93-.68,2.77,5,1.22-.48,2-7.5-1.83Z"/><path class="cls-1" d="M466.9,182.8l4,1c2.63.65,4,2.13,3.47,4.43l0,.06a3,3,0,0,1-3,2.4l1.79,5.44-2.68-.65-1.61-4.95-1.08-.26-1.05,4.29-2.51-.61Zm2.67,6.07c1.26.31,2-.06,2.29-1.13v-.07c.28-1.13-.31-1.69-1.52-2l-1.42-.35-.78,3.19Z"/><path class="cls-1" d="M479.56,192.6l-2.12-7.22,2.77.67,1.21,4.81,3.25-3.72,2.44.6-5,5.48L480.92,198l-2.53-.62Z"/><path class="cls-1" d="M428.07,281.52l8.76,2.14-.47,27.85,13-24.79,7.37,1.8.3,28.21,12.68-25,8,2-18.63,35.92-8.82-2.15-.44-28.08L436.36,324,428,322Z"/><path class="cls-1" d="M477.57,314.11l.11-.43c2.78-11.38,13.08-17.41,24.41-14.64,11.48,2.81,17.76,12.55,15,24l-.11.42c-2.78,11.38-12.6,17.76-24.51,14.85S474.84,325.27,477.57,314.11Zm30.32,7.29.1-.42c1.82-7.43-.9-13.47-7.57-15.1s-11.82,2.26-13.7,10l-.11.42c-1.9,7.8,1.41,13.71,7.66,15.23C500.73,333.07,506,329.1,507.89,321.4Z"/><path class="cls-1" d="M530.54,306.56l13.68,3.34c9,2.21,13.84,7.29,11.91,15.2l0,.21c-1.41,5.77-5.52,8-10.34,8.23l6.13,18.71L542.68,350l-5.53-17-3.74-.92-3.6,14.75-8.6-2.1Zm9.17,20.87c4.33,1.05,7-.23,7.86-3.91l0-.22c1-3.9-1.07-5.81-5.23-6.82l-4.87-1.19-2.67,10.95Z"/><path class="cls-1" d="M569.12,316l8.65,2.11-4,16.46,17.39-13.25,9.19,2.25L580.78,338l11,24-10.1-2.47-9-20.37-4.19,17.15-8.66-2.12Z"/><path class="cls-1" d="M404.12,371.41l8.28,2c-.46,3.51.29,6.69,6,8.08,3.8.92,6.82-.55,7.55-3.54s-.6-4.5-6-6.73c-9.46-3.67-12.75-7.59-10.95-15,1.59-6.52,8.23-10,16.67-8,8.6,2.1,12.68,7.17,11.52,14.93l-8-2c.32-3.6-1.32-5.7-5.11-6.63s-6.15.37-6.78,2.93c-.66,2.73.25,4.31,5.92,6.6,9,3.44,13.09,7.11,11.16,15-1.66,6.79-8.53,10.83-17.56,8.62C406.34,385.25,402.73,379.16,404.12,371.41Z"/><path class="cls-1" d="M449.8,354.77l8.65,2.12-3.81,15.6L470,376.23l3.82-15.6,8.65,2.12-9.33,38.19-8.66-2.11,3.85-15.76L453,379.32l-3.85,15.76L440.47,393Z"/><path class="cls-1" d="M486.59,384.26l.1-.43c2.78-11.38,13.09-17.41,24.41-14.64,11.49,2.8,17.77,12.55,15,24l-.1.43c-2.78,11.38-12.61,17.75-24.52,14.84S483.86,395.42,486.59,384.26Zm30.31,7.29.11-.43c1.81-7.42-.9-13.46-7.58-15.09s-11.82,2.26-13.7,10l-.1.43c-1.91,7.8,1.41,13.7,7.66,15.23C509.75,403.22,515,399.24,516.9,391.55Z"/><path class="cls-1" d="M539.56,376.71l13.19,3.22c9.3,2.27,13.58,7.68,11.61,15.74l-.05.22c-2,8.06-8.52,10.54-17.23,8.41l-4.86-1.18L538.83,417l-8.61-2.1Zm8.51,21.44c4.23,1,7-.45,7.89-4.24l0-.22c1-4.06-1-6.24-5.08-7.24l-4.38-1.07-2.86,11.7Z"/><path class="cls-1" d="M566.81,419.48a5,5,0,1,1,3.74,5.79A4.89,4.89,0,0,1,566.81,419.48Zm8.92-33.93,8.65,2.11-7.6,26-6.3-1.54Z"/></svg>