<svg id="Layer_1" data-name="Layer 1" xmlns="http://www.w3.org/2000/svg" viewBox="0 0 792 1224"><defs><style>.cls-1{fill:none;stroke:#fff;stroke-width:0.25px;stroke-dasharray:1 1;}</style></defs><title>yuag-posters</title><rect class="cls-1" x="68.78" y="287.49" width="288" height="432" transform="translate(-34.59 16.06) rotate(-4)"/><path class="cls-1" d="M68.82,315.84l-4.22-6.23,2.84-.2,2.62,4.21,2-4.53,2.51-.18-3.1,6.75.34,4.92-2.6.18Z"/><path class="cls-1" d="M79.14,308.59l3.37-.23L87,319.51l-2.69.19-1-2.48-4.14.29-.61,2.59-2.42.17Zm.51,7,3-.21-1.85-4.83Z"/><path class="cls-1" d="M89.37,307.88,92,307.7l.65,9.38,4.65-.32.14,2-7.23.5Z"/><path class="cls-1" d="M99.91,307.14l7.44-.52.14,2-4.87.34.18,2.67,3.9-.27.13,1.88-3.89.27.19,2.85,5.13-.36.14,2-7.7.54Z"/><path class="cls-1" d="M67.35,335.66l-.49-7,2.61-.19.47,6.81c.14,1.9.75,2.69,2.32,2.58s2.15-.89,2-3l-.46-6.71,2.6-.18.48,6.87c.22,3.11-1.41,4.84-4.49,5.06S67.56,338.69,67.35,335.66Z"/><path class="cls-1" d="M80.35,327.75l3-.21,4.87,7.22-.52-7.52,2.3-.16.79,11.42-2.58.18-5.33-7.8.57,8.13-2.3.16Z"/><path class="cls-1" d="M94.11,326.79l2.6-.18.8,11.42-2.6.18Z"/><path class="cls-1" d="M99.9,326.39l2.73-.19,3.33,8.57,2.1-8.95,2.43-.17-3,11.68-3,.21Z"/><path class="cls-1" d="M113.61,325.43l7.45-.52.14,2-4.87.34.18,2.67,3.9-.27.13,1.88-3.9.27.2,2.84,5.13-.35.14,2-7.7.54Z"/><path class="cls-1" d="M124.71,324.65l4.08-.28c2.7-.19,4.49.79,4.65,3.15v.07a3,3,0,0,1-2.14,3.2l3.36,4.64-2.75.19-3-4.21-1.12.07.31,4.41-2.57.18Zm4.39,5c1.29-.1,1.91-.68,1.83-1.79v-.06c-.08-1.16-.82-1.52-2.06-1.43l-1.45.1.23,3.28Z"/><path class="cls-1" d="M136.7,331.69l2.47-.17c.19,1,.68,1.83,2.37,1.71,1.13-.08,1.84-.75,1.78-1.65s-.57-1.19-2.26-1.33c-2.95-.18-4.21-1-4.36-3.18-.14-1.95,1.39-3.51,3.91-3.69s4.15.87,4.52,3.12l-2.38.17a1.66,1.66,0,0,0-2-1.39c-1.13.08-1.67.65-1.61,1.41s.45,1.18,2.22,1.31c2.79.16,4.26.81,4.43,3.17.14,2-1.41,3.76-4.11,3.95C138.54,335.34,137,334,136.7,331.69Z"/><path class="cls-1" d="M148.74,323l2.61-.18.8,11.42-2.61.18Z"/><path class="cls-1" d="M157.84,324.36l-3.08.21-.14-2,8.76-.61.14,2-3.08.22.66,9.4-2.6.18Z"/><path class="cls-1" d="M170,328l-4.22-6.23,2.84-.2,2.62,4.21,2-4.53,2.51-.18-3.11,6.75.35,4.92-2.61.18Z"/><path class="cls-1" d="M71.16,347.64l3.37-.23L79,358.57l-2.7.18-1-2.48-4.13.29-.61,2.59-2.43.17Zm.51,7,3-.21-1.84-4.83Z"/><path class="cls-1" d="M81.39,346.93l4.09-.29c2.69-.19,4.48.8,4.64,3.16v.06a3,3,0,0,1-2.14,3.2l3.36,4.64-2.75.2-3-4.22-1.12.08.31,4.41-2.57.18Zm4.39,5c1.29-.09,1.91-.68,1.83-1.78v-.06c-.08-1.17-.81-1.52-2.06-1.43l-1.45.1.23,3.27Z"/><path class="cls-1" d="M95.85,347.94l-3.09.21-.14-2,8.77-.61.14,2-3.08.22.66,9.4-2.61.18Z"/><path class="cls-1" d="M69.45,372.82v-.13a5.61,5.61,0,0,1,5.41-6.23c2.54-.18,4.89.83,5.35,3.63l-2.57.18A2.2,2.2,0,0,0,75,368.5c-2,.14-3,1.7-2.88,4v.13c.16,2.2,1.21,3.72,3.44,3.56,1.92-.13,2.63-1.29,2.58-2.6l-2.57.18-.13-1.88,5.13-.36.08,1.21c.21,3.05-1.59,5.21-5,5.45C71.93,378.48,69.69,376.2,69.45,372.82Z"/><path class="cls-1" d="M85.9,365.86l3.37-.24,4.51,11.16-2.7.19-1-2.48-4.14.29-.6,2.59-2.43.17Zm.51,7,3-.21-1.85-4.83Z"/><path class="cls-1" d="M96.13,365.14l2.59-.18.66,9.39L104,374l.15,2-7.24.5Z"/><path class="cls-1" d="M106.67,364.41l2.58-.18.66,9.39,4.65-.33.14,2-7.23.5Z"/><path class="cls-1" d="M117.2,363.67l7.44-.52.14,2-4.87.34.19,2.67,3.9-.27.13,1.88-3.9.27.2,2.85,5.13-.36.14,2-7.7.54Z"/><path class="cls-1" d="M128.29,362.9l4.09-.29c2.7-.19,4.49.79,4.65,3.16v.06a3,3,0,0,1-2.14,3.2l3.36,4.64-2.75.19-3-4.21-1.11.08.3,4.4-2.57.18Zm4.4,5c1.29-.09,1.91-.68,1.83-1.78V366c-.08-1.16-.81-1.51-2-1.43l-1.46.11.23,3.27Z"/><path class="cls-1" d="M143.34,368.38l-4.22-6.24,2.84-.2,2.62,4.21,2-4.53,2.51-.17-3.11,6.74.34,4.92-2.6.18Z"/><path class="cls-1" d="M117.64,469l11.74-.82L140.25,492l7.34-25,11.52-.81,2.74,39.23L153,506l-1.92-27.54-8.94,28.29-2.91.21-12.84-26.78,1.93,27.54-8,.56Z"/><path class="cls-1" d="M169.72,485.33l0-.44c-.81-11.69,7.17-20.57,18.8-21.38,11.79-.82,20.74,6.54,21.56,18.34l0,.44c.82,11.68-6.59,20.74-18.83,21.6S170.53,496.79,169.72,485.33Zm31.1-2.29,0-.43c-.53-7.63-5-12.56-11.81-12.08s-10.57,5.76-10,13.66l0,.44c.56,8,5.51,12.62,11.93,12.17C197.56,496.34,201.37,490.94,200.82,483Z"/><path class="cls-1" d="M213.05,462.34l9.38-.65,11.43,29.46,7.22-30.77,8.34-.58-10.31,40.14-10.21.71Z"/><path class="cls-1" d="M257.66,459.23l8.94-.63,2.74,39.22-8.94.63Z"/><path class="cls-1" d="M278,457.8,303.58,456l.48,6.91-16.73,1.17.64,9.16,13.38-.94.46,6.48-13.39.93.68,9.77,17.61-1.23.49,6.91L280.75,497Z"/><path class="cls-1" d="M114.78,535.37l10.31-.72,16.73,24.8L140,533.61l7.9-.55,2.75,39.22-8.89.62-18.3-26.78,2,27.93-7.9.55Z"/><path class="cls-1" d="M159.33,532.26l8.94-.63L171,570.86l-8.94.62Z"/><path class="cls-1" d="M179,550.84l0-.44c-.82-11.8,7-20.61,18.57-21.42,8.73-.61,16.8,2.85,18.41,12.49l-8.84.62c-1.09-4.55-4.25-6.43-9-6.1-6.8.48-10.45,5.86-9.89,13.87l0,.44c.53,7.57,4.15,12.77,11.83,12.24,6.58-.46,9-4.44,8.86-8.95l-8.84.62-.45-6.47,17.61-1.23.29,4.17c.73,10.48-5.47,17.91-17.21,18.73C187.57,570.31,179.86,562.47,179,550.84Z"/><path class="cls-1" d="M225.22,527.65l8.89-.62,1.12,16L251,542l-1.12-16,8.88-.62,2.75,39.22-8.89.63L251.47,549l-15.75,1.1,1.13,16.19-8.88.62Z"/><path class="cls-1" d="M278.05,530.91l-10.59.74-.48-6.91,30.12-2.11.48,6.91-10.59.74,2.26,32.31-8.94.63Z"/><path class="cls-1" d="M307.28,557.09a5,5,0,1,1,5.32,4.37A4.87,4.87,0,0,1,307.28,557.09Zm-1.84-35,8.88-.62L315,548.5l-6.47.45Z"/><rect class="cls-1" x="170.3" y="32.92" width="288" height="432" transform="translate(-35.72 53.4) rotate(-9.19)"/><path class="cls-1" d="M154,75.07l-4.77-5.83,2.81-.45,3,4,1.54-4.7,2.48-.4-2.48,7,.78,4.87-2.57.42Z"/><path class="cls-1" d="M163.57,66.91l3.34-.53,5.49,10.7-2.67.43-1.18-2.38-4.09.66-.37,2.64-2.4.38Zm1.15,7,3-.48-2.27-4.64Z"/><path class="cls-1" d="M173.69,65.28l2.56-.42,1.51,9.29,4.6-.74.32,2-7.16,1.15Z"/><path class="cls-1" d="M184.12,63.59l7.36-1.19.32,2-4.82.78.43,2.64,3.86-.63.3,1.87-3.86.62.46,2.82,5.07-.82.32,2L186,74.89Z"/><path class="cls-1" d="M154.28,94.94l-1.12-6.89,2.58-.42,1.09,6.73c.3,1.88,1,2.62,2.54,2.37s2.06-1.08,1.73-3.15L160,86.94l2.58-.42,1.1,6.8c.5,3.08-1,5-4,5.45S154.76,97.94,154.28,94.94Z"/><path class="cls-1" d="M166.51,85.89l3-.48,5.5,6.75-1.2-7.45,2.27-.36,1.83,11.29-2.56.42-6-7.28,1.3,8-2.27.37Z"/><path class="cls-1" d="M180.13,83.69l2.57-.42,1.83,11.3L182,95Z"/><path class="cls-1" d="M185.86,82.76l2.7-.44,4.09,8.24,1.28-9.11,2.4-.39L194.4,93l-2.94.48Z"/><path class="cls-1" d="M199.43,80.56l7.36-1.19.32,2-4.82.78.43,2.64,3.86-.62.3,1.86-3.86.63.46,2.81,5.07-.82.32,2-7.62,1.23Z"/><path class="cls-1" d="M210.4,78.79l4-.66c2.67-.43,4.54.39,4.91,2.73v.06a3,3,0,0,1-1.83,3.38l3.76,4.32-2.72.44-3.4-3.93-1.11.18.71,4.36-2.55.42Zm4.83,4.55c1.28-.21,1.84-.85,1.66-1.94v-.06c-.19-1.15-.95-1.44-2.18-1.24l-1.44.24.53,3.23Z"/><path class="cls-1" d="M223,84.71l2.45-.39c.28,1,.84,1.76,2.51,1.49,1.13-.18,1.77-.92,1.63-1.8s-.68-1.14-2.38-1.13c-2.95.09-4.27-.59-4.63-2.77-.31-1.93,1.07-3.62,3.57-4s4.21.49,4.78,2.7l-2.36.38a1.66,1.66,0,0,0-2.12-1.2c-1.12.18-1.61.8-1.48,1.56s.55,1.12,2.33,1.09c2.79-.09,4.32.42,4.7,2.76.32,2-1.06,3.87-3.74,4.3C225.15,88.17,223.49,87,223,84.71Z"/><path class="cls-1" d="M234.19,74.94l2.58-.42,1.82,11.3-2.57.42Z"/><path class="cls-1" d="M243.37,75.5l-3.05.49L240,74l8.68-1.41.32,2-3.05.49,1.51,9.31-2.58.41Z"/><path class="cls-1" d="M255.76,78.05,251,72.22l2.81-.46,3,4L258.34,71l2.48-.4-2.48,7,.79,4.87-2.58.41Z"/><path class="cls-1" d="M159.15,106.53l3.34-.54,5.49,10.7-2.67.44-1.18-2.39-4.09.66-.37,2.64-2.4.39Zm1.15,7,3-.49L161,108.37Z"/><path class="cls-1" d="M169.28,104.89l4-.65c2.67-.44,4.54.38,4.92,2.72V107a3,3,0,0,1-1.84,3.38l3.77,4.32-2.72.44-3.41-3.92-1.11.18.71,4.36-2.54.41Zm4.82,4.56c1.28-.21,1.84-.85,1.67-1.94l0-.07c-.18-1.15-.94-1.43-2.17-1.23l-1.44.23.52,3.24Z"/><path class="cls-1" d="M183.77,104.59l-3.05.49-.32-2,8.67-1.4.32,2-3,.49,1.51,9.31-2.58.42Z"/><path class="cls-1" d="M159.73,131.75l0-.12a5.61,5.61,0,0,1,4.82-6.7c2.51-.41,4.94.38,5.67,3.14l-2.55.41a2.21,2.21,0,0,0-2.76-1.53c-2,.32-2.87,2-2.5,4.28l0,.12c.35,2.19,1.54,3.6,3.75,3.24a2.41,2.41,0,0,0,2.33-2.83l-2.54.42-.3-1.87,5.07-.82.19,1.2c.49,3-1.11,5.34-4.49,5.89C162.72,137.17,160.28,135.1,159.73,131.75Z"/><path class="cls-1" d="M175.49,123.34l3.33-.54,5.5,10.7-2.67.43-1.18-2.38-4.1.66-.36,2.64-2.41.38Zm1.14,7,3-.48-2.28-4.64Z"/><path class="cls-1" d="M185.61,121.7l2.56-.42,1.51,9.3,4.59-.75.33,2L187.44,133Z"/><path class="cls-1" d="M196,120l2.56-.41,1.5,9.29,4.6-.75.32,2-7.16,1.16Z"/><path class="cls-1" d="M206.46,118.32l7.36-1.19.33,2-4.82.78.42,2.64,3.86-.62.3,1.86-3.85.63.45,2.81,5.07-.82.32,2-7.61,1.23Z"/><path class="cls-1" d="M217.44,116.55l4-.66c2.67-.43,4.54.39,4.92,2.73v.06a3,3,0,0,1-1.84,3.38l3.77,4.32-2.72.44-3.41-3.93-1.11.18.71,4.36-2.54.42Zm4.82,4.55c1.28-.2,1.84-.85,1.66-1.94v-.06c-.18-1.15-.94-1.44-2.17-1.24l-1.44.24.52,3.24Z"/><path class="cls-1" d="M232.91,120.64l-4.76-5.82,2.81-.46,3,4,1.54-4.69,2.48-.4-2.48,7,.79,4.86-2.58.42Z"/><path class="cls-1" d="M222.86,221.29l9.09-1.48c6-1,10.21.87,11.06,6.13l0,.14c.62,3.84-1.29,6.23-4.13,7.6l8.46,9.71-6.11,1-7.66-8.82-2.49.4,1.59,9.81-5.72.92Zm10.84,10.24c2.88-.47,4.14-1.91,3.75-4.36l0-.15c-.42-2.59-2.12-3.23-4.9-2.78l-3.23.53,1.18,7.28Z"/><path class="cls-1" d="M248.52,217.13l16.55-2.68.73,4.48L255,220.69l1,5.93,8.67-1.4.68,4.19-8.67,1.4,1,6.33L269,235.29l.72,4.48-17.12,2.77Z"/><path class="cls-1" d="M291.66,235.86a15.88,15.88,0,0,1-4.68,1.52c-8,1.29-13.92-3.36-15.13-10.82l-.05-.29c-1.22-7.56,3.45-13.83,11-15.05s13.91,3.08,15.14,10.68l.05.28a13.15,13.15,0,0,1-2.58,10.67l3,2.35L295.7,239Zm-4.09-3.2-2.85-2.24,2.84-3.67,3.67,2.87a10.22,10.22,0,0,0,.75-6.39l0-.29c-.8-4.94-4-7.89-8.42-7.17s-6.55,4.35-5.72,9.5l.05.28c.87,5.37,4.33,8,8.52,7.37C286.8,232.85,287.18,232.76,287.57,232.66Z"/><path class="cls-1" d="M304.15,224l-2.51-15.49,5.8-.94,2.45,15.14c.68,4.23,2.22,5.87,5.7,5.31s4.64-2.43,3.89-7.08L317.07,206l5.79-.93,2.47,15.27c1.12,6.93-2.17,11.15-9,12.26C309.62,233.72,305.24,230.78,304.15,224Z"/><path class="cls-1" d="M329.9,204l16.56-2.68.72,4.47-10.84,1.76,1,5.93,8.67-1.4.68,4.19-8.67,1.4,1,6.33,11.41-1.85.73,4.48L334,229.37Z"/><path class="cls-1" d="M354,218l5.51-.89c.62,2.24,1.88,4,5.65,3.35,2.52-.4,4-2.06,3.64-4s-1.5-2.56-5.33-2.53c-6.64.2-9.62-1.32-10.41-6.23-.7-4.33,2.4-8.15,8-9.06s9.48,1.09,10.75,6.06l-5.29.86c-.73-2.25-2.25-3.1-4.77-2.69s-3.62,1.79-3.34,3.49,1.25,2.54,5.25,2.47c6.27-.21,9.7.95,10.56,6.21.73,4.51-2.39,8.7-8.39,9.67C358.91,225.74,355.18,223,354,218Z"/><path class="cls-1" d="M382.33,200.08l-6.86,1.11-.72-4.48,19.5-3.16L395,198l-6.86,1.11,3.39,20.93-5.8.94Z"/><path class="cls-1" d="M279.14,255.94l16.31-2.64.73,4.51-10.56,1.71,1.09,6.72,8.35-1.35.7,4.33-8.35,1.35,1.59,9.85-5.75.93Z"/><path class="cls-1" d="M301.47,265.53l0-.29c-1.23-7.57,3.45-13.83,11-15.05s13.91,3,15.15,10.68l0,.28c1.23,7.57-3.07,13.92-11,15.2S302.68,273,301.47,265.53Zm20.14-3.33-.05-.29c-.79-4.94-4-7.89-8.41-7.17s-6.55,4.38-5.72,9.5l0,.28c.84,5.19,4.35,7.9,8.5,7.23S322.44,267.31,321.61,262.2Z"/><path class="cls-1" d="M331.48,247.47l9.1-1.47c6-1,10.2.86,11.06,6.12l0,.15c.62,3.83-1.29,6.22-4.13,7.59l8.46,9.72-6.11,1-7.66-8.83-2.49.4,1.59,9.81-5.73.93Zm10.85,10.24c2.88-.46,4.14-1.91,3.74-4.36l0-.14c-.42-2.59-2.13-3.23-4.9-2.78l-3.23.52,1.18,7.29Z"/><path class="cls-1" d="M209.26,311l8.77-1.42c6.19-1,10.15,1.17,11,6.53l0,.14c.87,5.37-2.45,8.53-8.24,9.47l-3.23.52,1.49,9.24-5.72.93Zm10.6,10.76c2.81-.46,4.08-2,3.67-4.57l0-.15c-.44-2.7-2.17-3.51-4.91-3.07l-2.91.47,1.26,7.79Z"/><path class="cls-1" d="M233.28,307.12l9.1-1.47c6-1,10.2.87,11.05,6.12l0,.15c.62,3.83-1.29,6.22-4.14,7.59l8.47,9.72-6.11,1L244,321.39l-2.48.41,1.58,9.8-5.72.93Zm10.85,10.24c2.88-.46,4.14-1.91,3.74-4.36l0-.14c-.42-2.59-2.13-3.23-4.9-2.78l-3.24.52,1.18,7.29Z"/><path class="cls-1" d="M259.35,316.1l0-.28c-1.23-7.57,3.45-13.83,11-15.05s13.91,3,15.14,10.68l.05.28c1.23,7.57-3.07,13.92-11,15.2S260.55,323.53,259.35,316.1Zm20.14-3.33-.05-.28c-.8-4.94-4-7.89-8.42-7.17s-6.54,4.38-5.72,9.49l.05.29c.84,5.18,4.34,7.9,8.5,7.23S280.31,317.89,279.49,312.77Z"/><path class="cls-1" d="M289.36,298.05l8.78-1.42c6.18-1,10.14,1.17,11,6.53l0,.14c.87,5.37-2.45,8.53-8.24,9.47l-3.23.52,1.49,9.24-5.72.93ZM300,308.8c2.81-.45,4.08-2,3.67-4.56l0-.15c-.44-2.7-2.17-3.51-4.91-3.07l-2.91.47,1.26,7.79Z"/><path class="cls-1" d="M314.33,307.21l-.05-.29c-1.22-7.56,3.45-13.83,11-15.05s13.91,3,15.15,10.68l0,.29c1.22,7.56-3.08,13.91-11,15.19S315.53,314.64,314.33,307.21Zm20.13-3.33,0-.29c-.8-4.94-4-7.89-8.42-7.17s-6.55,4.38-5.72,9.5l.05.28c.84,5.19,4.34,7.9,8.5,7.23S335.29,309,334.46,303.88Z"/><path class="cls-1" d="M345.21,306.92l5.5-.89c.62,2.23,1.88,4,5.65,3.35,2.52-.41,4-2.07,3.65-4.06s-1.51-2.56-5.33-2.52c-6.65.2-9.63-1.33-10.42-6.23-.7-4.34,2.4-8.16,8-9.07s9.48,1.1,10.76,6.07l-5.3.85c-.73-2.25-2.25-3.1-4.77-2.69s-3.61,1.79-3.34,3.5,1.25,2.53,5.25,2.47c6.27-.22,9.71.94,10.56,6.2.73,4.51-2.39,8.7-8.39,9.67C350.07,314.7,346.35,312,345.21,306.92Z"/><path class="cls-1" d="M374,284.36l7.5-1.22,12.36,24.08-6,1-2.65-5.37L376,304.31l-.82,5.93-5.41.88ZM376.55,300l6.71-1.08-5.12-10.44Z"/><path class="cls-1" d="M395,281l5.75-.93,3.38,20.89,10.34-1.67.74,4.51-16.1,2.61Z"/><path class="cls-1" d="M417.52,295.22l5.51-.9c.62,2.24,1.88,4,5.65,3.36,2.52-.41,4-2.07,3.65-4.06s-1.51-2.56-5.34-2.53c-6.64.2-9.62-1.32-10.41-6.22-.7-4.34,2.4-8.16,8-9.07s9.48,1.1,10.76,6.07l-5.3.85c-.73-2.25-2.25-3.1-4.77-2.69s-3.62,1.79-3.34,3.5,1.25,2.53,5.25,2.46c6.27-.21,9.71.95,10.56,6.21.73,4.51-2.39,8.7-8.39,9.67C422.39,303,418.67,300.24,417.52,295.22Z"/><rect class="cls-1" x="339.76" y="319.86" width="288" height="432" transform="translate(54.55 -44.62) rotate(5.6)"/><path class="cls-1" d="M373.08,326.84,370,320l2.83.28,1.89,4.59,2.68-4.15,2.51.25-4.19,6.13L375.2,332l-2.6-.25Z"/><path class="cls-1" d="M384.47,321.41l3.36.33,2.58,11.75-2.7-.26-.53-2.61-4.12-.41-1,2.46-2.42-.24Zm-.68,7,3,.29-1-5.07Z"/><path class="cls-1" d="M394.67,322.41l2.58.25-.92,9.37,4.64.45-.2,2-7.22-.71Z"/><path class="cls-1" d="M405.18,323.44l7.42.73-.19,2-4.86-.47-.26,2.66,3.89.38-.19,1.88-3.89-.38-.27,2.83,5.11.5-.2,2-7.68-.75Z"/><path class="cls-1" d="M368.33,346.13l.68-6.94,2.6.25-.67,6.79c-.18,1.89.29,2.78,1.85,2.93s2.27-.52,2.48-2.6l.65-6.7,2.6.26-.67,6.85c-.31,3.11-2.2,4.54-5.27,4.24S368,349.16,368.33,346.13Z"/><path class="cls-1" d="M382.46,340.51l3,.29,3.6,7.93.73-7.51,2.3.23L391,352.84l-2.58-.25L384.44,344l-.8,8.11-2.29-.22Z"/><path class="cls-1" d="M396.19,341.85l2.6.25-1.12,11.39-2.6-.25Z"/><path class="cls-1" d="M402,342.42l2.72.26,1.86,9,3.56-8.48,2.42.24-4.91,11-3-.29Z"/><path class="cls-1" d="M415.65,343.76l7.42.72-.19,2L418,346l-.26,2.66,3.88.38-.18,1.88-3.89-.39-.28,2.84,5.12.5-.2,2-7.68-.75Z"/><path class="cls-1" d="M426.72,344.84l4.07.4c2.7.26,4.29,1.53,4.06,3.89v.06a3,3,0,0,1-2.64,2.8l2.53,5.14-2.74-.27-2.29-4.67-1.11-.1-.43,4.39-2.57-.25Zm3.5,5.64c1.29.12,2-.36,2.1-1.46V349c.11-1.16-.55-1.63-1.79-1.75l-1.45-.14-.32,3.26Z"/><path class="cls-1" d="M437.37,353.78l2.47.24c0,1,.36,1.92,2,2.09,1.13.11,1.94-.44,2-1.33s-.36-1.28-2-1.7c-2.88-.66-4-1.66-3.77-3.86.19-1.94,1.95-3.23,4.47-3s3.95,1.54,3.93,3.82l-2.37-.23a1.66,1.66,0,0,0-1.75-1.7c-1.13-.11-1.75.36-1.83,1.13s.25,1.23,2,1.65c2.72.62,4.07,1.51,3.83,3.87-.19,2-2,3.47-4.7,3.21C438.58,357.68,437.29,356.07,437.37,353.78Z"/><path class="cls-1" d="M450.7,347.19l2.59.25-1.11,11.39-2.6-.25Z"/><path class="cls-1" d="M459.44,350.07l-3.08-.3.2-2,8.74.86-.19,2-3.08-.3-.92,9.38-2.59-.25Z"/><path class="cls-1" d="M470.76,355.7l-3.12-6.85,2.84.28,1.88,4.59,2.69-4.14,2.5.24L473.36,356l-.48,4.9-2.6-.25Z"/><path class="cls-1" d="M370.08,358.58l3.37.33L376,370.67l-2.69-.27-.53-2.61-4.13-.4-1,2.46-2.43-.24Zm-.67,7,3,.3-1-5.07Z"/><path class="cls-1" d="M380.29,359.58l4.08.4c2.69.27,4.29,1.53,4.06,3.89v.07a3,3,0,0,1-2.64,2.79l2.54,5.14-2.74-.27-2.29-4.66-1.12-.11-.43,4.4-2.57-.26Zm3.5,5.64c1.29.13,2-.35,2.1-1.45v-.07c.12-1.16-.55-1.63-1.79-1.75l-1.45-.14-.32,3.27Z"/><path class="cls-1" d="M394.38,363l-3.08-.3.2-2,8.75.86-.2,2-3.08-.3-.92,9.38-2.59-.26Z"/><path class="cls-1" d="M364.21,383.12V383a5.61,5.61,0,0,1,6.37-5.24c2.53.25,4.68,1.63,4.67,4.48L372.7,382a2.22,2.22,0,0,0-2.28-2.19c-2-.19-3.28,1.17-3.51,3.5v.13c-.22,2.2.57,3.87,2.8,4.08,1.91.19,2.8-.83,3-2.13l-2.56-.25.18-1.88,5.11.5-.11,1.21c-.3,3-2.44,4.87-5.85,4.54C365.71,389.12,363.88,386.5,364.21,383.12Z"/><path class="cls-1" d="M381.59,379l3.36.33,2.58,11.75-2.69-.26-.54-2.61-4.12-.4-1,2.45-2.42-.23Zm-.67,7,3,.3-1-5.07Z"/><path class="cls-1" d="M391.79,380l2.58.26-.91,9.36,4.63.46-.2,2-7.21-.71Z"/><path class="cls-1" d="M402.3,381l2.58.26-.91,9.36,4.63.46-.2,2-7.21-.71Z"/><path class="cls-1" d="M412.81,382.06l7.43.73-.2,2-4.86-.48-.26,2.66,3.89.38-.19,1.88-3.88-.38-.28,2.84,5.11.5-.19,2-7.68-.75Z"/><path class="cls-1" d="M423.88,383.15l4.08.4c2.69.26,4.29,1.53,4.06,3.88v.07a3,3,0,0,1-2.64,2.8l2.54,5.13-2.74-.27-2.3-4.66-1.11-.11-.43,4.4-2.57-.25Zm3.5,5.63c1.29.13,2-.35,2.1-1.45v-.06c.11-1.17-.55-1.63-1.79-1.75l-1.45-.15-.32,3.27Z"/><path class="cls-1" d="M437.8,391.06l-3.13-6.86,2.84.28,1.88,4.59,2.69-4.14,2.5.24-4.18,6.14-.48,4.91-2.6-.26Z"/><path class="cls-1" d="M374.83,484l9,.88,3.48,27.64,9.33-26.39,7.55.74,4.28,27.89,9-26.58,8.21.8-13.36,38.2-9-.88-4.41-27.73-9.82,26.33-8.54-.83Z"/><path class="cls-1" d="M434,489.76l8.93.87-3.84,39.13-8.92-.87Z"/><path class="cls-1" d="M454.31,491.75l10.29,1L477,520l2.53-25.78,7.88.78-3.83,39.13-8.87-.87-13.58-29.46-2.73,27.86-7.88-.77Z"/><path class="cls-1" d="M505.53,503.73l-10.57-1,.68-6.89,30.05,2.94-.68,6.9-10.56-1-3.16,32.24-8.92-.88Z"/><path class="cls-1" d="M534,499.55l25.51,2.5-.68,6.89-16.69-1.63-.9,9.14,13.36,1.31-.63,6.46-13.36-1.31-.95,9.74,17.57,1.72-.68,6.9-26.38-2.59Z"/><path class="cls-1" d="M569.26,503l14,1.37c9.25.91,14.74,5.26,13.94,13.36l0,.22c-.58,5.91-4.33,8.69-9.06,9.61l8.71,17.65-9.41-.92-7.88-16-3.83-.37L574.24,543l-8.81-.86Zm12,19.36c4.43.43,6.86-1.21,7.23-5l0-.22c.39-4-1.88-5.6-6.15-6l-5-.49-1.1,11.22Z"/><path class="cls-1" d="M353.13,548.15l9,.88,3.48,27.64,9.33-26.39,7.55.74,4.29,27.89,9-26.58,8.21.8-13.36,38.2-9-.88-4.41-27.73-9.82,26.33-8.54-.84Z"/><path class="cls-1" d="M418.32,554.54l11.55,1.13L438.73,596l-9.25-.9-1.83-9-14.18-1.39-3.53,8.44-8.32-.81ZM416,578.68l10.34,1-3.49-17.41Z"/><path class="cls-1" d="M450.67,557.71l14,1.37c9.25.9,14.73,5.25,13.94,13.36l0,.21c-.58,5.91-4.33,8.7-9.06,9.61l8.71,17.66-9.41-.93L461,583l-3.83-.37-1.48,15.1-8.82-.86Zm12,19.35c4.43.44,6.85-1.2,7.22-5l0-.22c.39-4-1.89-5.6-6.16-6l-5-.48-1.09,11.22Z"/><path class="cls-1" d="M490.19,561.58l11.71,1.15L508.65,588l11.42-23.47,11.5,1.12-3.84,39.13-8.81-.86,2.69-27.47-13.53,26.41-2.9-.29L497,574l-2.69,27.48-7.94-.78Z"/><path class="cls-1" d="M542.79,566.73l25.51,2.5-.68,6.9-16.69-1.64-.9,9.14,13.36,1.31-.64,6.46-13.35-1.31-1,9.74L566,601.55l-.67,6.9L539,605.86Z"/><path class="cls-1" d="M578.1,570.19l14,1.37c9.25.91,14.73,5.26,13.94,13.36l0,.22c-.58,5.91-4.33,8.69-9.07,9.61l8.72,17.65-9.42-.92-7.87-16-3.84-.38-1.48,15.11-8.81-.87Zm12,19.36c4.44.43,6.86-1.21,7.23-5l0-.21c.39-4-1.89-5.6-6.16-6l-5-.49-1.1,11.22Z"/><rect class="cls-1" x="396.79" y="62.54" width="288" height="432" transform="translate(38.78 -65.01) rotate(7.13)"/><path class="cls-1" d="M435.77,66.63l-2.94-6.93,2.83.35,1.76,4.64,2.8-4.07,2.49.31-4.35,6-.61,4.89-2.59-.33Z"/><path class="cls-1" d="M447.3,61.51l3.35.42,2.26,11.82-2.68-.34-.47-2.62-4.11-.52-1.09,2.43-2.42-.3Zm-.87,7,3,.37-.88-5.09Z"/><path class="cls-1" d="M457.47,62.78l2.57.32-1.17,9.34,4.63.58-.26,2-7.19-.9Z"/><path class="cls-1" d="M468,64.09l7.4.93-.25,2-4.85-.6-.33,2.65,3.88.48-.24,1.88-3.87-.49-.36,2.83,5.1.64-.25,2-7.65-1Z"/><path class="cls-1" d="M430.5,85.79l.87-6.92,2.59.32L433.11,86c-.24,1.89.21,2.78,1.77,3s2.29-.46,2.55-2.54l.83-6.67,2.59.32L440,86.88c-.38,3.1-2.32,4.49-5.38,4.1S430.12,88.81,430.5,85.79Z"/><path class="cls-1" d="M444.78,80.54l3,.38,3.38,8,.94-7.48,2.29.29L453,93.1l-2.57-.32-3.72-8.68-1,8.09-2.29-.29Z"/><path class="cls-1" d="M458.47,82.26l2.59.32-1.43,11.36-2.58-.33Z"/><path class="cls-1" d="M464.23,83l2.72.34,1.6,9.06,3.8-8.39,2.41.31-5.2,10.88-3-.37Z"/><path class="cls-1" d="M477.87,84.69l7.4.92-.25,2-4.85-.6-.33,2.65,3.88.48L483.48,92l-3.87-.49-.36,2.83,5.1.64-.25,2-7.65-1Z"/><path class="cls-1" d="M488.9,86.07l4.07.51c2.68.33,4.24,1.64,3.95,4v.06a3,3,0,0,1-2.71,2.73l2.4,5.2-2.74-.34L491.7,93.5l-1.11-.14L490,97.74l-2.56-.32Zm3.35,5.72c1.29.16,2-.29,2.14-1.39v-.06c.15-1.16-.5-1.65-1.74-1.8l-1.45-.18-.41,3.25Z"/><path class="cls-1" d="M499.31,95.29l2.46.31c0,1,.31,1.92,2,2.13,1.13.15,1.95-.38,2.06-1.27s-.32-1.28-2-1.75C501,94,499.92,93,500.2,90.76c.24-1.94,2-3.18,4.55-2.87s3.91,1.65,3.83,3.93l-2.36-.3c0-1-.58-1.6-1.71-1.74s-1.76.31-1.86,1.07.22,1.24,1.94,1.71c2.7.7,4,1.62,3.73,4-.26,2-2.11,3.41-4.79,3.08C500.41,99.22,499.17,97.58,499.31,95.29Z"/><path class="cls-1" d="M512.81,89.06l2.59.32L514,100.74l-2.59-.32Z"/><path class="cls-1" d="M521.47,92.18l-3.07-.39.25-2,8.72,1.09-.25,2-3.06-.38-1.17,9.35-2.59-.32Z"/><path class="cls-1" d="M532.64,98.11l-2.94-6.94,2.83.36,1.76,4.64,2.8-4.07,2.49.31-4.35,6-.61,4.89L532,103Z"/><path class="cls-1" d="M431.92,98.28l3.35.42,2.26,11.82-2.68-.33-.46-2.63-4.12-.51-1.09,2.43-2.41-.31Zm-.86,7,3,.38-.88-5.1Z"/><path class="cls-1" d="M442.1,99.56l4.06.51c2.69.33,4.25,1.64,3.95,4v.07a3,3,0,0,1-2.72,2.72l2.4,5.21-2.73-.35L444.89,107l-1.11-.14-.55,4.38-2.56-.32Zm3.34,5.72c1.29.17,2-.29,2.15-1.39v-.06c.15-1.16-.5-1.65-1.74-1.8l-1.44-.18L444,105.1Z"/><path class="cls-1" d="M456.09,103.34,453,103l.25-2,8.72,1.09-.25,2-3.06-.38L457.51,113l-2.59-.32Z"/><path class="cls-1" d="M425.39,122.66v-.13a5.61,5.61,0,0,1,6.51-5.07c2.52.31,4.63,1.75,4.55,4.6l-2.56-.32a2.21,2.21,0,0,0-2.21-2.25c-2-.24-3.32,1.09-3.61,3.41V123c-.28,2.2.46,3.88,2.69,4.16a2.41,2.41,0,0,0,3-2.05l-2.56-.32.24-1.88,5.09.64-.15,1.21c-.38,3-2.57,4.81-6,4.38A5.42,5.42,0,0,1,425.39,122.66Z"/><path class="cls-1" d="M442.87,119l3.35.42,2.27,11.82-2.69-.33-.46-2.63-4.11-.51-1.1,2.43-2.41-.31Zm-.86,7,3,.38-.87-5.1Z"/><path class="cls-1" d="M453.05,120.28l2.57.32-1.17,9.34,4.62.58-.25,2-7.19-.91Z"/><path class="cls-1" d="M463.53,121.59l2.57.32-1.17,9.34,4.62.58-.25,2-7.2-.9Z"/><path class="cls-1" d="M474,122.9l7.4.93-.25,2-4.84-.61-.33,2.66,3.87.48-.23,1.87-3.88-.48-.35,2.83,5.1.63-.25,2-7.66-1Z"/><path class="cls-1" d="M485,124.28l4.06.51c2.69.34,4.25,1.65,4,4v.06a3,3,0,0,1-2.72,2.73l2.4,5.2-2.73-.34-2.17-4.73-1.11-.14-.55,4.39-2.55-.32Zm3.35,5.73c1.28.16,2-.3,2.14-1.39v-.07c.14-1.16-.51-1.64-1.75-1.8l-1.44-.18-.41,3.26Z"/><path class="cls-1" d="M498.74,132.56l-2.94-6.93,2.83.35,1.76,4.64,2.8-4.07,2.49.32-4.35,6-.61,4.89-2.59-.32Z"/><path class="cls-1" d="M448.94,225.7l12.77,1.6c13.69,1.71,19.53,10,18.07,21.66l-.06.43c-1.46,11.68-9.26,18.63-23,16.92l-12.72-1.59Zm8.41,33.7c7.86,1,12.13-3,13.14-11l.05-.44c1-8-1.89-12.76-10.13-13.79l-3.49-.44L453.75,259Z"/><path class="cls-1" d="M498.87,232l11.51,1.44,7.78,40.6-9.22-1.15-1.59-9-14.13-1.77-3.76,8.34-8.3-1Zm-3,24.07,10.32,1.29-3-17.5Z"/><path class="cls-1" d="M531.12,236l10.26,1.28L553,264.83l3.22-25.7,7.85,1-4.88,39L550.36,278l-12.78-29.81L534.1,276l-7.86-1Z"/><path class="cls-1" d="M570.73,261l0-.44c1.49-11.84,10.79-18.88,21.87-17.49,9.38,1.17,15.79,6.63,15.52,16.35l-9.06-1.13c-.07-4.78-2.37-7.62-7.28-8.23-6.17-.77-10.7,3.54-11.71,11.61l0,.44c-1,8.08,2.11,13.23,8.55,14,4.85.61,8.55-1.42,9.88-6.36l8.68,1.09c-2.19,9.53-9.74,13.63-19.35,12.43C575.06,281.72,569.23,273,570.73,261Z"/><path class="cls-1" d="M618.77,247l25.43,3.18-.86,6.88-16.65-2.09L625.55,264l13.32,1.67-.81,6.44-13.31-1.67-1.22,9.72,17.52,2.19-.86,6.87L613.89,286Z"/><path class="cls-1" d="M471.48,315.1l0-.44c1.46-11.62,11-18.79,22.57-17.35,11.73,1.47,19.09,10.43,17.62,22.16l-.06.44C510.21,331.53,501.18,339,489,337.47S470.05,326.5,471.48,315.1Zm30.95,3.76.05-.43c.95-7.59-2.44-13.28-9.26-14.13s-11.48,3.6-12.46,11.46l-.06.44c-1,8,3,13.45,9.36,14.25C496.66,331.28,501.45,326.72,502.43,318.86Z"/><path class="cls-1" d="M523.23,301.51l25,3.14-.86,6.93-16.21-2-1.29,10.31,12.82,1.61-.83,6.66-12.82-1.61-1.9,15.12-8.84-1.11Z"/><path class="cls-1" d="M556.9,305.73,582,308.86l-.87,6.93-16.21-2-1.29,10.32,12.82,1.6-.83,6.66-12.82-1.61-1.89,15.12L552,344.74Z"/><path class="cls-1" d="M585.67,344.69a5,5,0,1,1,4.38,5.31A4.87,4.87,0,0,1,585.67,344.69Zm5-34.74,8.83,1.11-4.56,26.69-6.43-.8Z"/><rect class="cls-1" x="223.07" y="772.4" width="288" height="432" transform="translate(-50.98 20.46) rotate(-2.99)"/><path class="cls-1" d="M226.45,798.23l-4.11-6.31,2.84-.14,2.55,4.25,2-4.49,2.51-.13-3.23,6.69.26,4.92-2.6.14Z"/><path class="cls-1" d="M236.9,791.16l3.37-.17,4.3,11.23-2.7.15-.91-2.51-4.14.22-.66,2.58-2.42.13Zm.38,7.05,3-.15-1.76-4.87Z"/><path class="cls-1" d="M247.14,790.63l2.59-.13.49,9.39,4.65-.24.1,2-7.24.38Z"/><path class="cls-1" d="M257.68,790.08l7.45-.39.1,2-4.87.25.14,2.67,3.9-.2.1,1.88-3.9.21.15,2.84,5.13-.27.1,2-7.7.4Z"/><path class="cls-1" d="M224.63,818l-.37-7,2.61-.14.36,6.81c.09,1.91.7,2.71,2.26,2.63s2.17-.85,2.06-3l-.35-6.71,2.61-.14.36,6.88c.16,3.11-1.5,4.82-4.58,5S224.79,821.06,224.63,818Z"/><path class="cls-1" d="M237.77,810.35l3-.16,4.74,7.3-.39-7.53,2.3-.12.6,11.43-2.59.14-5.19-7.89.42,8.13-2.3.12Z"/><path class="cls-1" d="M251.54,809.63l2.61-.14.59,11.43-2.6.14Z"/><path class="cls-1" d="M257.34,809.32l2.73-.14,3.18,8.64,2.26-8.92,2.43-.13-3.21,11.63-3,.15Z"/><path class="cls-1" d="M271.06,808.61l7.45-.39.11,2-4.88.26.14,2.67,3.9-.21.1,1.89-3.9.2.15,2.85,5.13-.27.11,2-7.71.4Z"/><path class="cls-1" d="M282.17,808l4.09-.21c2.7-.14,4.47.87,4.59,3.24v.06a3,3,0,0,1-2.19,3.16l3.27,4.7-2.75.14-3-4.27-1.12.06.23,4.41-2.57.14Zm4.3,5.05c1.3-.07,1.92-.65,1.87-1.75v-.06c-.06-1.17-.78-1.53-2-1.47l-1.45.08.17,3.27Z"/><path class="cls-1" d="M294,815.28l2.48-.13c.17,1,.64,1.84,2.34,1.76,1.13-.06,1.85-.73,1.8-1.62s-.54-1.21-2.23-1.38c-2.95-.23-4.19-1-4.31-3.25-.1-1.95,1.46-3.49,4-3.62s4.14.94,4.47,3.2l-2.39.12a1.65,1.65,0,0,0-2-1.42c-1.13.06-1.68.62-1.64,1.39s.43,1.17,2.2,1.34c2.78.21,4.25.88,4.37,3.25.11,2-1.47,3.73-4.17,3.87C295.81,819,294.3,817.56,294,815.28Z"/><path class="cls-1" d="M306.23,806.77l2.61-.13.59,11.43-2.6.13Z"/><path class="cls-1" d="M315.3,808.32l-3.08.16-.11-2,8.78-.46.1,2-3.08.17.49,9.41-2.61.14Z"/><path class="cls-1" d="M327.35,812.2l-4.12-6.31,2.85-.15,2.55,4.26,2-4.5,2.51-.13L330,812.06l.26,4.92-2.61.14Z"/><path class="cls-1" d="M228.22,830.07l3.37-.18,4.31,11.24-2.7.14-.92-2.5-4.14.22-.65,2.58-2.43.12Zm.39,7,3-.16-1.76-4.86Z"/><path class="cls-1" d="M238.46,829.54l4.09-.22c2.71-.14,4.47.87,4.6,3.24v.06a3,3,0,0,1-2.19,3.16l3.27,4.71-2.75.14-3-4.27-1.12.06.23,4.41-2.57.13Zm4.31,5c1.29-.06,1.92-.64,1.86-1.74v-.07c-.06-1.16-.79-1.53-2-1.46l-1.45.07.17,3.28Z"/><path class="cls-1" d="M252.9,830.8l-3.08.16-.11-2,8.78-.46.1,2-3.08.16.49,9.41-2.61.14Z"/><path class="cls-1" d="M226.07,855.21v-.13a5.63,5.63,0,0,1,5.52-6.14c2.54-.13,4.87.92,5.29,3.73l-2.57.14a2.22,2.22,0,0,0-2.58-1.82c-2,.1-3.07,1.65-2.95,4v.13c.12,2.21,1.14,3.74,3.38,3.62,1.92-.1,2.65-1.24,2.63-2.55l-2.58.13-.1-1.89,5.13-.26.07,1.21c.16,3-1.69,5.19-5.11,5.36C228.45,860.92,226.25,858.6,226.07,855.21Z"/><path class="cls-1" d="M242.64,848.54l3.38-.17,4.3,11.23-2.7.14-.92-2.5-4.14.22-.65,2.58-2.43.13Zm.39,7.05,3-.16-1.76-4.86Z"/><path class="cls-1" d="M252.88,848l2.59-.14.49,9.4,4.66-.24.1,2-7.24.38Z"/><path class="cls-1" d="M263.43,847.46l2.59-.14.49,9.4,4.65-.24.11,2-7.24.38Z"/><path class="cls-1" d="M274,846.91l7.44-.39.11,2-4.88.26.14,2.67,3.9-.21.1,1.89-3.9.2.15,2.85,5.13-.27.11,2-7.71.4Z"/><path class="cls-1" d="M285.08,846.33l4.09-.21c2.7-.14,4.47.87,4.6,3.24v.06a3,3,0,0,1-2.19,3.16l3.27,4.7-2.75.14-3-4.27-1.12.06.23,4.41-2.57.14Zm4.3,5c1.3-.07,1.92-.65,1.87-1.75v-.06c-.06-1.17-.78-1.53-2-1.47l-1.45.08.17,3.27Z"/><path class="cls-1" d="M300,852.07l-4.11-6.3,2.85-.15,2.54,4.26,2.05-4.5,2.5-.13-3.22,6.69.26,4.92-2.61.14Z"/><path class="cls-1" d="M305.15,950.54l8.9-.46,1.68,32.29,16-.83.36,7-24.87,1.3Z"/><path class="cls-1" d="M338.87,948.78l8.95-.46,2.05,39.26-8.95.47Z"/><path class="cls-1" d="M356.06,947.89l9.4-.49,10.9,29.66,7.77-30.64,8.34-.43-11,40-10.21.53Z"/><path class="cls-1" d="M400.5,945.57l25.59-1.34.36,6.92L409.7,952l.48,9.17,13.4-.7.34,6.48-13.4.7.51,9.77,17.62-.91.37,6.92-26.47,1.38Z"/><path class="cls-1" d="M264.84,1018.73l11.75-.61,10.45,24,7.78-24.91,11.54-.6,2,39.26-8.84.47-1.44-27.57-9.43,28.13-2.91.15-12.37-27,1.44,27.56-8,.42Z"/><path class="cls-1" d="M318.54,1039.94,317.29,1016l8.95-.47,1.22,23.4c.34,6.53,2.41,9.29,7.8,9s7.44-2.92,7.07-10.12l-1.2-23.07,8.95-.46,1.23,23.61c.56,10.71-5.14,16.57-15.74,17.12C325.25,1055.56,319.08,1050.38,318.54,1039.94Z"/><path class="cls-1" d="M359.89,1040.81l8.51-.44c.57,3.5,2.21,6.33,8,6,3.9-.2,6.37-2.47,6.21-5.55s-1.87-4.14-7.68-4.72c-10.12-.79-14.4-3.6-14.79-11.18-.35-6.7,5-12,13.66-12.44,8.85-.46,14.21,3.22,15.34,11l-8.19.43c-.73-3.54-2.91-5.08-6.81-4.88s-5.78,2.12-5.64,4.76c.15,2.8,1.48,4,7.57,4.62,9.56.71,14.58,3,15,11.16.36,7-5.06,12.82-14.35,13.31C366,1053.44,360.8,1048.64,359.89,1040.81Z"/><path class="cls-1" d="M399.08,1011.73l8.95-.46,2,39.26-8.95.47Z"/><path class="cls-1" d="M418.46,1030.66l0-.44c-.62-11.92,7.31-20.48,18.46-21.06,9.44-.5,16.71,3.75,18.15,13.37l-9.12.47c-.9-4.69-3.67-7.08-8.61-6.82-6.21.33-9.91,5.36-9.49,13.49l0,.44c.42,8.13,4.4,12.66,10.88,12.32,4.89-.25,8.16-2.9,8.61-8l8.74-.46c-.48,9.77-7.2,15.13-16.86,15.64C426.36,1050.29,419.09,1042.74,418.46,1030.66Z"/><path class="cls-1" d="M464.29,1043.47a5,5,0,1,1,5.24,4.46A4.86,4.86,0,0,1,464.29,1043.47Zm-1.23-35.07,8.9-.47.2,27.08-6.48.34Z"/><rect class="cls-1" x="131.55" y="548.67" width="288" height="432" transform="translate(-128.58 59.45) rotate(-10)"/><path class="cls-1" d="M112.76,593.1l-4.85-5.76,2.81-.5,3,3.92,1.47-4.72,2.48-.43-2.39,7,.86,4.86-2.57.45Z"/><path class="cls-1" d="M122.27,584.8l3.33-.58,5.64,10.63-2.66.46-1.22-2.37-4.08.72-.33,2.65-2.4.42Zm1.24,7,3-.52-2.34-4.61Z"/><path class="cls-1" d="M132.37,583l2.55-.45,1.64,9.27,4.58-.81.36,2-7.14,1.26Z"/><path class="cls-1" d="M142.77,581.19l7.34-1.29.35,2-4.8.85.46,2.63,3.85-.68.32,1.86-3.84.68.49,2.81,5.06-.89.35,2-7.6,1.34Z"/><path class="cls-1" d="M113.37,613l-1.21-6.88,2.57-.45,1.18,6.72c.34,1.87,1,2.59,2.58,2.32s2-1.11,1.68-3.17L119,604.88l2.57-.46,1.2,6.78c.54,3.08-.9,5-3.94,5.51S113.9,616,113.37,613Z"/><path class="cls-1" d="M125.48,603.74l3-.53,5.6,6.67-1.31-7.42,2.27-.4,2,11.27-2.55.45-6.11-7.2,1.41,8-2.27.4Z"/><path class="cls-1" d="M139.06,601.34l2.57-.45,2,11.27-2.56.45Z"/><path class="cls-1" d="M144.78,600.33l2.69-.47,4.21,8.18,1.15-9.13,2.4-.42-1.77,11.93-2.93.52Z"/><path class="cls-1" d="M158.31,598l7.35-1.3.35,2-4.81.85.47,2.63,3.84-.68.33,1.86L162,604l.5,2.8,5.06-.89.35,2-7.6,1.34Z"/><path class="cls-1" d="M169.26,596l4-.72c2.66-.46,4.54.33,4.95,2.66V598a3,3,0,0,1-1.79,3.41l3.83,4.26-2.71.48-3.46-3.88-1.11.2.77,4.35-2.54.45Zm4.89,4.48c1.28-.22,1.83-.87,1.64-2v-.06c-.21-1.15-1-1.43-2.2-1.21l-1.43.25.57,3.24Z"/><path class="cls-1" d="M181.93,601.76l2.44-.43c.29,1,.86,1.75,2.53,1.46,1.12-.2,1.75-.94,1.6-1.83s-.69-1.13-2.39-1.09c-3,.13-4.29-.53-4.67-2.7-.34-1.92,1-3.64,3.51-4.08s4.22.43,4.82,2.63l-2.35.41a1.67,1.67,0,0,0-2.14-1.17c-1.12.2-1.6.82-1.46,1.58s.57,1.12,2.35,1.06c2.78-.13,4.32.36,4.73,2.7.35,2-1,3.88-3.67,4.35C184.14,605.19,182.46,604,181.93,601.76Z"/><path class="cls-1" d="M193,591.83l2.57-.45,2,11.27-2.57.45Z"/><path class="cls-1" d="M202.18,592.26l-3,.54-.35-2,8.66-1.53.35,2-3.05.54,1.64,9.28-2.57.46Z"/><path class="cls-1" d="M214.61,594.64l-4.85-5.76,2.8-.5,3.05,3.92,1.48-4.72,2.47-.43-2.38,7L218,599l-2.57.45Z"/><path class="cls-1" d="M118.41,624.48l3.33-.59,5.64,10.63-2.66.47-1.22-2.37-4.08.72-.33,2.64-2.4.42Zm1.24,6.95,3-.53-2.34-4.61Z"/><path class="cls-1" d="M128.51,622.7l4-.71c2.66-.47,4.54.32,4.95,2.65v.06a3,3,0,0,1-1.79,3.41l3.83,4.26-2.72.48L133.37,629l-1.1.19.77,4.35-2.54.45Zm4.89,4.48c1.27-.22,1.83-.87,1.63-2v-.06c-.2-1.15-1-1.42-2.19-1.21l-1.44.26.57,3.23Z"/><path class="cls-1" d="M143,622.19l-3.05.54-.35-2,8.66-1.52.35,2-3.05.54L147.2,631l-2.57.46Z"/><path class="cls-1" d="M119.35,649.69l0-.12a5.62,5.62,0,0,1,4.73-6.77c2.5-.44,4.94.32,5.7,3.06l-2.53.45a2.23,2.23,0,0,0-2.79-1.5c-2,.35-2.84,2-2.44,4.32l0,.12c.39,2.18,1.59,3.58,3.8,3.19,1.89-.34,2.47-1.56,2.29-2.86l-2.54.45-.32-1.86,5.06-.9.21,1.2c.53,3-1,5.35-4.41,5.95A5.43,5.43,0,0,1,119.35,649.69Z"/><path class="cls-1" d="M135,641.05l3.33-.58L144,651.09l-2.66.47-1.22-2.37-4.08.72-.33,2.64-2.4.43Zm1.24,7,3-.52-2.34-4.61Z"/><path class="cls-1" d="M145.08,639.27l2.55-.45,1.64,9.27,4.58-.81.36,2-7.14,1.26Z"/><path class="cls-1" d="M155.48,637.44,158,637l1.64,9.27,4.58-.81.36,2-7.14,1.26Z"/><path class="cls-1" d="M165.88,635.61l7.34-1.3.35,2-4.8.84.46,2.64,3.85-.68.32,1.86-3.84.68.49,2.8,5.06-.89.35,2-7.59,1.34Z"/><path class="cls-1" d="M176.83,633.68l4-.72c2.67-.47,4.55.32,5,2.66v.06a3,3,0,0,1-1.79,3.4l3.82,4.27-2.71.48L181.69,640l-1.1.2.76,4.35-2.53.45Zm4.89,4.48c1.27-.22,1.82-.87,1.63-2v-.06c-.2-1.16-1-1.43-2.19-1.21l-1.44.25.57,3.23Z"/><path class="cls-1" d="M192.36,637.55l-4.85-5.76,2.81-.49,3,3.91,1.48-4.71,2.48-.44-2.39,7,.86,4.85-2.57.46Z"/><path class="cls-1" d="M153.24,764.78l-.08-.43c-2-11.64,4.8-21.23,16.23-23.24,8.61-1.52,17,1.08,19.61,10.5l-8.72,1.54c-1.56-4.42-4.9-5.95-9.56-5.13-6.72,1.18-9.78,6.92-8.39,14.83l.08.43c1.32,7.47,5.46,12.27,13,10.93,6.5-1.14,8.49-5.35,7.87-9.82l-8.72,1.54-1.12-6.39,17.38-3.06.73,4.11C193.41,770.94,188,779,176.43,781,163.75,783.26,155.26,776.27,153.24,764.78Z"/><path class="cls-1" d="M204.27,735.57l11.43-2,19.39,36.51-9.15,1.61-4.18-8.14-14,2.47-1.14,9.08-8.23,1.45Zm4.27,23.88,10.23-1.81-8-15.83Z"/><path class="cls-1" d="M236.28,729.93l13.87-2.44c9.15-1.62,15.6,1.1,17,9.11l0,.22c1,5.85-1.83,9.54-6.14,11.69l13.13,14.66-9.31,1.64L253,751.5l-3.79.67,2.64,14.94-8.72,1.54Zm16.79,15.41c4.39-.77,6.28-3,5.62-6.74l0-.22c-.7-4-3.32-4.89-7.55-4.14l-4.92.87,1.95,11.1Z"/><path class="cls-1" d="M275.39,723l12.67-2.24c13.6-2.4,21.61,3.79,23.65,15.38l.08.43c2,11.59-3.36,20.53-17,22.92l-12.61,2.23Zm18,29.72c7.8-1.38,10.71-6.41,9.3-14.43l-.08-.43c-1.4-8-5.57-11.64-13.75-10.2l-3.46.61,4.42,25.08Z"/><path class="cls-1" d="M317.42,715.63l25.24-4.45,1.2,6.82-16.52,2.91,1.6,9.05,13.21-2.33,1.13,6.39-13.22,2.33,1.7,9.64,17.39-3.07,1.2,6.83-26.1,4.6Z"/><path class="cls-1" d="M352.36,709.47l10.18-1.8,19.23,22.91-4.5-25.51,7.8-1.37,6.82,38.72L383.12,744l-21-24.72L367,746.81l-7.8,1.38Z"/><path class="cls-1" d="M215.5,823.34l-16.67-19.79,9.64-1.7,10.47,13.45L224,799.11l8.51-1.5-8.19,24.17,2.94,16.68L218.44,840Z"/><path class="cls-1" d="M238.58,816.76l-.08-.44c-2-11.53,5-21.2,16.46-23.22s21.31,4.34,23.36,16l.08.43c2,11.54-4.39,21.33-16.47,23.46S240.57,828.08,238.58,816.76Zm30.69-5.52-.08-.44c-1.33-7.53-6.24-12-13-10.77s-9.91,6.83-8.54,14.63l.08.43c1.39,7.91,6.8,12,13.14,10.86C267.41,824.8,270.64,819,269.27,811.24Z"/><path class="cls-1" d="M285.48,808.49l-.07-.44c-2.06-11.64,4.8-21.22,16.23-23.24,8.61-1.52,17,1.08,19.6,10.5l-8.71,1.54c-1.56-4.41-4.91-6-9.56-5.13-6.72,1.19-9.78,6.92-8.39,14.83l.08.43c1.31,7.48,5.45,12.27,13,10.94,6.49-1.15,8.49-5.35,7.87-9.82l-8.72,1.53-1.13-6.39,17.39-3.06.72,4.12c1.83,10.34-3.57,18.38-15.16,20.43C296,827,287.51,820,285.48,808.49Z"/><path class="cls-1" d="M336.52,779.28l11.42-2,19.39,36.51-9.15,1.61L354,807.24l-14,2.47-1.13,9.08-8.23,1.45Zm4.26,23.87,10.24-1.8-8-15.84Z"/><rect class="cls-1" x="403.43" y="567.82" width="288" height="432" transform="translate(201.71 -107.55) rotate(13.73)"/><path class="cls-1" d="M467.45,561.25,465.33,554l2.77.68,1.21,4.81,3.25-3.72,2.44.6-5,5.48-1.17,4.79-2.54-.62Z"/><path class="cls-1" d="M479.49,557.48l3.28.81.89,12-2.62-.65-.16-2.65-4-1-1.37,2.29-2.36-.58Zm-1.66,6.87,2.94.71-.29-5.16Z"/><path class="cls-1" d="M489.45,559.92l2.52.61-2.23,9.15,4.52,1.1-.48,2-7-1.72Z"/><path class="cls-1" d="M499.71,562.42,507,564.2l-.48,2L501.74,565l-.64,2.59,3.8.93-.45,1.83-3.8-.92L500,572.2l5,1.22-.48,2-7.5-1.83Z"/><path class="cls-1" d="M460,579.68l1.65-6.78,2.54.61-1.62,6.63c-.45,1.85-.11,2.79,1.42,3.16s2.32-.19,2.82-2.22l1.59-6.54,2.54.62-1.64,6.69c-.74,3-2.82,4.19-5.82,3.46S459.3,582.63,460,579.68Z"/><path class="cls-1" d="M474.81,576.1l2.92.72,2.44,8.36,1.79-7.33,2.24.55-2.72,11.12L479,588.9l-2.7-9-1.93,7.91-2.24-.55Z"/><path class="cls-1" d="M488.21,579.38l2.53.62L488,591.12l-2.53-.62Z"/><path class="cls-1" d="M493.85,580.76l2.66.65.55,9.18,4.73-7.89,2.37.58-6.42,10.21-2.89-.71Z"/><path class="cls-1" d="M507.2,584l7.24,1.77-.47,2-4.75-1.16-.63,2.6,3.79.93-.45,1.83-3.79-.93-.68,2.77,5,1.22-.48,2-7.5-1.83Z"/><path class="cls-1" d="M518,586.66l4,1c2.63.64,4,2.12,3.47,4.43l0,.06a3,3,0,0,1-3,2.39l1.78,5.45-2.68-.65-1.61-4.95-1.08-.26-1.05,4.29-2.51-.61Zm2.67,6.07c1.26.31,2-.06,2.29-1.13v-.07c.28-1.13-.31-1.69-1.52-2L520,589.2l-.78,3.19Z"/><path class="cls-1" d="M527.28,597l2.41.59c-.14,1,.08,1.95,1.73,2.35a1.65,1.65,0,0,0,2.2-1c.21-.89-.18-1.31-1.75-2-2.75-1.07-3.71-2.21-3.19-4.35.47-1.9,2.4-2.93,4.86-2.33s3.69,2.09,3.35,4.35l-2.32-.57a1.66,1.66,0,0,0-1.49-1.93c-1.1-.27-1.79.11-2,.86s.07,1.25,1.72,1.91c2.61,1,3.82,2.07,3.25,4.37-.48,2-2.48,3.15-5.11,2.51C527.92,601.05,526.88,599.28,527.28,597Z"/><path class="cls-1" d="M541.41,592.38l2.53.62-2.71,11.12-2.54-.62Z"/><path class="cls-1" d="M549.65,596.47l-3-.73.48-2,8.53,2.08-.47,2-3-.73L550,606.25l-2.54-.62Z"/><path class="cls-1" d="M560.07,603.65l-2.13-7.23,2.77.68,1.22,4.81,3.25-3.72,2.44.59-5,5.49-1.17,4.78-2.53-.61Z"/><path class="cls-1" d="M460,592.25l3.28.8.89,12-2.62-.64-.16-2.66-4-1L456,603.05l-2.37-.58Zm-1.66,6.86,2.94.72-.29-5.16Z"/><path class="cls-1" d="M470,594.68l4,1c2.62.64,4,2.12,3.46,4.42v.06a3,3,0,0,1-3,2.4l1.78,5.44-2.67-.65-1.61-4.94-1.09-.27-1.05,4.29-2.5-.61Zm2.66,6.08c1.26.31,2-.07,2.29-1.14l0-.06c.27-1.14-.31-1.69-1.53-2l-1.41-.35-.78,3.19Z"/><path class="cls-1" d="M483.42,600.05l-3-.73.48-2,8.53,2.08-.48,2-3-.73-2.23,9.16-2.54-.62Z"/><path class="cls-1" d="M450.7,615.71l0-.13a5.62,5.62,0,0,1,7-4.29c2.47.61,4.4,2.28,4,5.1l-2.5-.61a2.22,2.22,0,0,0-1.95-2.49c-1.92-.47-3.41.7-4,3l0,.12c-.52,2.15,0,3.91,2.2,4.44a2.4,2.4,0,0,0,3.24-1.69l-2.5-.61.45-1.84,5,1.22-.29,1.18c-.72,3-3.1,4.49-6.43,3.67C451.34,621.86,449.9,619,450.7,615.71Z"/><path class="cls-1" d="M468.49,614.09l3.28.8.89,12-2.62-.64-.16-2.66-4-1-1.36,2.28-2.37-.57ZM466.83,621l2.94.72-.29-5.16Z"/><path class="cls-1" d="M478.45,616.53l2.52.61-2.23,9.14,4.52,1.11-.48,2-7-1.72Z"/><path class="cls-1" d="M488.71,619l2.52.62L489,628.79l4.52,1.11-.48,2L486,630.15Z"/><path class="cls-1" d="M499,621.54l7.24,1.77-.47,2L501,624.11l-.63,2.6,3.79.92-.44,1.84-3.8-.93-.68,2.77,5,1.22-.48,2-7.5-1.83Z"/><path class="cls-1" d="M509.77,624.18l4,1c2.63.64,4,2.12,3.47,4.42l0,.07a3,3,0,0,1-3,2.39l1.78,5.45-2.67-.66-1.61-4.94-1.09-.26-1.05,4.29-2.51-.61Zm2.67,6.07c1.26.31,2-.06,2.29-1.14v-.06c.28-1.13-.31-1.69-1.52-2l-1.42-.34-.78,3.19Z"/><path class="cls-1" d="M522.43,634l-2.12-7.23,2.77.68,1.21,4.81,3.25-3.72,2.44.6-5,5.48-1.17,4.79-2.54-.62Z"/><path class="cls-1" d="M470.94,722.9,479.7,725l-.47,27.85,13-24.8,7.37,1.8.3,28.21,12.68-25,8,2L501.94,771l-8.82-2.15-.44-28.08L479.23,765.4l-8.33-2Z"/><path class="cls-1" d="M520.44,755.49l.11-.43c2.78-11.38,13.08-17.41,24.41-14.64s17.76,12.55,15,24l-.11.43c-2.78,11.38-12.6,17.76-24.51,14.84S517.71,766.65,520.44,755.49Zm30.32,7.29.1-.42c1.82-7.43-.9-13.47-7.57-15.1s-11.82,2.26-13.7,10l-.11.43c-1.9,7.8,1.41,13.7,7.66,15.23C543.6,774.45,548.88,770.47,550.76,762.78Z"/><path class="cls-1" d="M573.41,747.94l13.68,3.34c9,2.21,13.84,7.29,11.91,15.2l0,.21c-1.41,5.77-5.52,8-10.34,8.23l6.13,18.71-9.19-2.25-5.53-17-3.74-.92-3.6,14.75-8.6-2.11Zm9.17,20.86c4.33,1.06,7-.22,7.86-3.91l0-.21c1-3.9-1.07-5.81-5.23-6.83l-4.87-1.18-2.67,11Z"/><path class="cls-1" d="M612,757.37l8.65,2.11-4,16.45L634,762.69l9.19,2.25-19.54,14.41,10.94,24-10.1-2.47-9-20.37-4.19,17.15-8.66-2.12Z"/><path class="cls-1" d="M447,812.78l8.28,2c-.46,3.51.29,6.69,6,8.07,3.8.93,6.82-.54,7.55-3.53s-.6-4.5-6-6.73c-9.46-3.67-12.75-7.59-10.95-15,1.59-6.52,8.23-10,16.67-8,8.6,2.1,12.68,7.17,11.52,14.93l-8-2c.32-3.6-1.32-5.7-5.11-6.63s-6.15.37-6.78,2.93c-.66,2.73.25,4.31,5.92,6.6,8.95,3.43,13.1,7.11,11.16,15-1.65,6.79-8.53,10.82-17.56,8.62C449.21,826.63,445.61,820.54,447,812.78Z"/><path class="cls-1" d="M492.67,796.15l8.66,2.12-3.82,15.59,15.34,3.75,3.81-15.6,8.65,2.12L516,842.32l-8.66-2.11,3.85-15.76-15.33-3.75L492,836.46l-8.65-2.11Z"/><path class="cls-1" d="M529.46,825.63l.1-.42c2.78-11.38,13.09-17.41,24.41-14.65,11.49,2.81,17.77,12.55,15,24l-.1.43c-2.78,11.38-12.61,17.75-24.52,14.84S526.73,836.8,529.46,825.63Zm30.31,7.3.11-.43c1.81-7.43-.9-13.47-7.58-15.1s-11.82,2.27-13.7,10l-.1.43c-1.91,7.8,1.41,13.7,7.66,15.23C552.62,844.6,557.89,840.62,559.77,832.93Z"/><path class="cls-1" d="M582.43,818.08l13.19,3.23c9.3,2.27,13.58,7.68,11.61,15.74l-.05.22c-2,8.06-8.52,10.54-17.23,8.41l-4.86-1.19-3.39,13.89-8.6-2.1ZM591,839.53c4.22,1,7-.45,7.88-4.25l0-.21c1-4.06-1-6.24-5.08-7.24l-4.38-1.07-2.85,11.7Z"/><path class="cls-1" d="M609.68,860.86a5,5,0,1,1,3.74,5.78A4.88,4.88,0,0,1,609.68,860.86Zm8.92-33.94,8.65,2.12-7.59,26-6.31-1.54Z"/></svg>